<svg width="120" height="104" viewBox="0 0 120 104" fill="none" xmlns="http://www.w3.org/2000/svg">
<path d="M94.9074 103.501H119.078C119.587 103.501 120 103.088 120 102.578V50.5248C120 50.0153 119.587 49.6025 119.078 49.6025H94.9074C94.3979 49.6025 93.9851 50.0153 93.9851 50.5248V102.581C93.9851 103.088 94.3979 103.501 94.9074 103.501ZM118.155 101.656H95.8297V51.4471H118.155V101.656Z" fill="#074D31"/>
<path d="M63.5793 103.501H87.7496C88.2591 103.501 88.6719 103.088 88.6719 102.579V33.0395C88.6719 32.53 88.2591 32.1172 87.7496 32.1172H63.5793C63.0698 32.1172 62.657 32.53 62.657 33.0395V102.579C62.6594 103.088 63.0722 103.501 63.5793 103.501ZM86.8273 101.656H64.5016V33.9618H86.8273V101.656Z" fill="#074D31"/>
<path d="M32.2512 103.501H56.4215C56.931 103.501 57.3438 103.088 57.3438 102.578V50.5248C57.3438 50.0153 56.931 49.6025 56.4215 49.6025H32.2512C31.7417 49.6025 31.3289 50.0153 31.3289 50.5248V102.581C31.3289 103.088 31.7417 103.501 32.2512 103.501ZM55.4992 101.656H33.1735V51.4471H55.4992V101.656Z" fill="#074D31"/>
<path d="M0.923059 103.501H25.0934C25.6028 103.501 26.0156 103.088 26.0156 102.579V33.0395C26.0156 32.53 25.6028 32.1172 25.0934 32.1172H0.923059C0.413565 32.1172 0.000780106 32.53 0.000780106 33.0395V102.579C0.000780106 103.088 0.413565 103.501 0.923059 103.501ZM24.1711 101.656H1.84533V33.9618H24.1711V101.656Z" fill="#074D31"/>
<path d="M106.993 35.0581C112.362 35.0581 116.73 30.6896 116.73 25.321C116.73 19.9524 112.362 15.584 106.993 15.584C101.625 15.584 97.2565 19.9524 97.2565 25.321C97.2565 30.6896 101.625 35.0581 106.993 35.0581ZM106.993 17.4286C111.345 17.4286 114.886 20.9691 114.886 25.321C114.886 29.673 111.345 33.2135 106.993 33.2135C102.642 33.2135 99.101 29.673 99.101 25.321C99.101 20.9691 102.642 17.4286 106.993 17.4286Z" fill="#074D31"/>
<path d="M13.6629 20.5337C17.3945 20.5337 20.7321 18.465 22.3738 15.132C23.0602 13.8041 23.4141 12.3345 23.4141 10.7825C23.4141 5.40679 19.0385 1.03125 13.6629 1.03125C8.28728 1.03125 3.91177 5.40679 3.91177 10.7825C3.91177 16.1581 8.28728 20.5337 13.6629 20.5337ZM13.6629 2.87346C18.0219 2.87346 21.5695 6.42107 21.5695 10.7801C21.5695 12.035 21.2865 13.2191 20.7274 14.2994C19.39 17.012 16.6845 18.6867 13.6629 18.6867C9.30391 18.6867 5.75633 15.1391 5.75633 10.7801C5.75633 6.42107 9.30391 2.87346 13.6629 2.87346Z" fill="#074D31"/>
<path d="M76.6171 19.4647C80.2637 19.4647 83.5849 17.4149 85.2808 14.1173C85.9743 12.7752 86.3281 11.2915 86.3281 9.7111C86.3281 4.35667 81.9715 0 76.6171 0C71.2414 0 66.8659 4.35667 66.8659 9.7111C66.8659 11.3245 67.2363 12.8153 67.9651 14.1409C69.6021 17.4125 72.9232 19.4647 76.6171 19.4647ZM76.6171 1.84693C80.9549 1.84693 84.4836 5.37566 84.4836 9.71346C84.4836 10.9966 84.2005 12.1925 83.6415 13.2729C82.2616 15.9548 79.5703 17.6201 76.6171 17.6201C73.6262 17.6201 70.9348 15.9595 69.5974 13.2847C69.003 12.2043 68.7081 11.0131 68.7081 9.71346C68.7105 5.37566 72.2581 1.84693 76.6171 1.84693Z" fill="#074D31"/>
<path d="M44.3387 35.0698C49.7143 35.0698 54.0898 30.6942 54.0898 25.3186C54.0898 24.0849 53.8469 22.8489 53.3681 21.6507C51.875 18.0087 48.2472 15.5674 44.3411 15.5674C40.3783 15.5674 36.7482 18.03 35.3093 21.6955C34.8399 22.8206 34.5899 24.0802 34.5899 25.3186C34.5876 30.6942 38.9631 35.0698 44.3387 35.0698ZM44.3387 17.4096C47.5065 17.4096 50.4479 19.391 51.658 22.3394C52.0472 23.3113 52.2453 24.3161 52.2453 25.3162C52.2453 29.6776 48.6977 33.2229 44.3387 33.2229C39.9797 33.2229 36.4321 29.6753 36.4321 25.3162C36.4321 24.3326 36.6397 23.2924 37.0171 22.3866C38.1894 19.4028 41.1284 17.4096 44.3387 17.4096Z" fill="#074D31"/>
<path d="M52.5127 22.9123C52.6542 22.9123 52.7957 22.8793 52.9302 22.8109L69.1915 14.515C69.6444 14.2839 69.826 13.7272 69.5949 13.2743C69.3637 12.8214 68.8094 12.6398 68.3542 12.871L52.0928 21.1668C51.6399 21.3979 51.4583 21.9546 51.6895 22.4075C51.8546 22.7283 52.1777 22.9123 52.5127 22.9123Z" fill="#074D31"/>
<path d="M36.1703 22.955C36.5076 22.955 36.8331 22.7687 36.9959 22.4455C37.2247 21.9903 37.0383 21.4359 36.5831 21.2095L21.9634 13.8996C21.5082 13.6708 20.9539 13.8572 20.7274 14.3124C20.4986 14.7677 20.685 15.322 21.1402 15.5484L35.7599 22.8583C35.8896 22.922 36.0311 22.955 36.1703 22.955Z" fill="#074D31"/>
<path d="M99.2458 22.0919C99.5832 22.0919 99.9063 21.9079 100.069 21.5847C100.298 21.1295 100.116 20.5752 99.6633 20.3464L84.8786 12.8714C84.4234 12.6402 83.869 12.8242 83.6402 13.2794C83.4114 13.7347 83.5931 14.289 84.0483 14.5178L98.8307 21.9928C98.9628 22.0588 99.1067 22.0919 99.2458 22.0919Z" fill="#074D31"/>
</svg>
