<svg width="120" height="125" viewBox="0 0 120 125" fill="none" xmlns="http://www.w3.org/2000/svg">
<path d="M73.0848 64.8901H116.395C118.382 64.8901 120 63.2725 120 61.2853V25.3909C120 23.4037 118.382 21.7861 116.395 21.7861H73.0848C71.0976 21.7861 69.48 23.4037 69.48 25.3909V61.2805C69.4752 63.2725 71.0928 64.8901 73.0848 64.8901ZM116.395 24.1909C117.058 24.1909 117.595 24.7285 117.595 25.3909V61.2805C117.595 61.9429 117.058 62.4805 116.395 62.4805H73.0848C72.4224 62.4805 71.8848 61.9429 71.8848 61.2805V25.3909C71.8848 24.7285 72.4224 24.1909 73.0848 24.1909H116.395Z" fill="#074D31"/>
<path d="M77.9488 57.5365H111.534C112.197 57.5365 112.734 56.9989 112.734 56.3365V30.3445C112.734 29.6821 112.197 29.1445 111.534 29.1445H77.9488C77.2864 29.1445 76.7488 29.6821 76.7488 30.3445V56.3365C76.744 56.9989 77.2816 57.5365 77.9488 57.5365ZM110.33 55.1317H79.1488V31.5445H110.33V55.1317Z" fill="#074D31"/>
<path d="M94.5765 57.0613L103.696 45.0709L110.762 51.0373L112.312 49.1989L104.282 42.4213C104.033 42.2101 103.701 42.1093 103.375 42.1477C103.049 42.1813 102.751 42.3541 102.549 42.6133L92.6661 55.6069L94.5765 57.0613Z" fill="#074D31"/>
<path d="M83.3376 57.0659L90.3072 47.9939L96.408 52.6643L97.8672 50.7539L90.816 45.3587C90.288 44.9555 89.5344 45.0563 89.1312 45.5795L81.4272 55.6019L83.3376 57.0659Z" fill="#074D31"/>
<path d="M86.1583 43.4248C88.8127 43.4248 90.9727 41.2648 90.9727 38.6104C90.9727 37.948 90.4351 37.4104 89.7727 37.4104C89.1103 37.4104 88.5727 37.948 88.5727 38.6104C88.5727 39.94 87.4927 41.0248 86.1631 41.0248C84.8335 41.0248 83.7535 39.9448 83.7535 38.6104C83.7535 37.2808 84.8335 36.2008 86.1631 36.2008C86.8255 36.2008 87.3631 35.6632 87.3631 35.0008C87.3631 34.3384 86.8255 33.8008 86.1631 33.8008C83.5087 33.8008 81.3487 35.9608 81.3487 38.6152C81.3439 41.2648 83.5039 43.4248 86.1583 43.4248Z" fill="#074D31"/>
<path d="M1.20234 62.5185C1.86474 62.5185 2.40234 61.9809 2.40234 61.3185V43.3377C2.40234 42.6753 1.86474 42.1377 1.20234 42.1377C0.539944 42.1377 0.00234365 42.6753 0.00234365 43.3377V61.3185C0.00234365 61.9809 0.539944 62.5185 1.20234 62.5185Z" fill="#074D31"/>
<path d="M9.44808 73.8804H52.7585C54.7457 73.8804 56.3633 72.2628 56.3633 70.2756V34.3812C56.3633 32.394 54.7457 30.7764 52.7585 30.7764H9.44808C7.46088 30.7764 5.84328 32.394 5.84328 34.3812V70.2708C5.83848 72.2628 7.45608 73.8804 9.44808 73.8804ZM52.7585 33.1812C53.4209 33.1812 53.9585 33.7188 53.9585 34.3812V70.2708C53.9585 70.9332 53.4209 71.4708 52.7585 71.4708H9.44808C8.78568 71.4708 8.24808 70.9332 8.24808 70.2708V34.3812C8.24808 33.7188 8.78568 33.1812 9.44808 33.1812H52.7585Z" fill="#074D31"/>
<path d="M29.6675 47.4283H40.3859C41.0483 47.4283 41.5859 46.8907 41.5859 46.2283C41.5859 45.5659 41.0483 45.0283 40.3859 45.0283H29.6675C29.0051 45.0283 28.4675 45.5659 28.4675 46.2283C28.4675 46.8859 29.0051 47.4283 29.6675 47.4283Z" fill="#074D31"/>
<path d="M21.8203 47.4283H24.9211C25.5835 47.4283 26.1211 46.8907 26.1211 46.2283C26.1211 45.5659 25.5835 45.0283 24.9211 45.0283H21.8203C21.1579 45.0283 20.6203 45.5659 20.6203 46.2283C20.6203 46.8859 21.1579 47.4283 21.8203 47.4283Z" fill="#074D31"/>
<path d="M36.5498 52.5494H40.3898C41.0522 52.5494 41.5898 52.0118 41.5898 51.3494C41.5898 50.687 41.0522 50.1494 40.3898 50.1494H36.5498C35.8874 50.1494 35.3498 50.687 35.3498 51.3494C35.345 52.0118 35.8826 52.5494 36.5498 52.5494Z" fill="#074D31"/>
<path d="M21.8195 52.5494H31.5107C32.1731 52.5494 32.7107 52.0118 32.7107 51.3494C32.7107 50.687 32.1731 50.1494 31.5107 50.1494H21.8195C21.1571 50.1494 20.6195 50.687 20.6195 51.3494C20.6195 52.0118 21.1571 52.5494 21.8195 52.5494Z" fill="#074D31"/>
<path d="M31.1027 57.6764H40.3859C41.0483 57.6764 41.5859 57.1388 41.5859 56.4764C41.5859 55.814 41.0483 55.2764 40.3859 55.2764H31.1027C30.4403 55.2764 29.9027 55.814 29.9027 56.4764C29.9027 57.1388 30.4403 57.6764 31.1027 57.6764Z" fill="#074D31"/>
<path d="M26.0332 69.1195C26.1868 69.1195 26.3452 69.0907 26.494 69.0283C26.9452 68.8411 27.238 68.4043 27.238 67.9195V63.7243H44.6764C45.8188 63.7243 46.75 62.7931 46.75 61.6507V41.0443C46.75 39.8971 45.8188 38.9707 44.6764 38.9707H17.5372C16.3948 38.9707 15.4636 39.9019 15.4636 41.0443V61.6507C15.4636 62.7931 16.3948 63.7243 17.5372 63.7243H20.1628L25.1884 68.7643C25.414 68.9995 25.7212 69.1195 26.0332 69.1195ZM44.3452 61.3243H26.0332C25.3708 61.3243 24.8332 61.8619 24.8332 62.5243V65.0107L21.5116 61.6747C21.286 61.4491 20.9788 61.3195 20.662 61.3195H17.8684V41.3707H44.35V61.3243H44.3452Z" fill="#074D31"/>
<path d="M72.6912 124.785H110.554C115.762 124.785 120 120.546 120 115.338V85.6453C120 84.9829 119.462 84.4453 118.8 84.4453C118.138 84.4453 117.6 84.9829 117.6 85.6453V115.338C117.6 119.221 114.442 122.38 110.558 122.38H72.696C72.0336 122.38 71.496 122.917 71.496 123.58C71.4912 124.247 72.0288 124.785 72.6912 124.785Z" fill="#074D31"/>
<path d="M67.245 118.948H110.555C112.543 118.948 114.16 117.33 114.16 115.343V79.4534C114.16 77.4662 112.543 75.8486 110.555 75.8486H67.245C65.2578 75.8486 63.6402 77.4662 63.6402 79.4534V115.343C63.6402 117.33 65.2578 118.948 67.245 118.948ZM110.555 78.2486C111.218 78.2486 111.755 78.791 111.755 79.4486V115.338C111.755 116.001 111.218 116.538 110.555 116.538H67.245C66.5826 116.538 66.045 116.001 66.045 115.338V79.4486C66.045 78.7862 66.5826 78.2486 67.245 78.2486H110.555Z" fill="#074D31"/>
<path d="M96.6204 106.645C97.9404 106.645 99.0156 105.57 99.0156 104.25V88.8034C99.0156 87.4834 97.9404 86.4082 96.6204 86.4082C96.246 86.4082 95.886 86.4946 95.55 86.6626L80.1036 94.3858C79.2876 94.7938 78.7788 95.6146 78.7788 96.5266C78.7788 97.4386 79.2876 98.2594 80.1036 98.6674L95.55 106.391C95.886 106.559 96.246 106.645 96.6204 106.645ZM96.6252 88.813L96.6108 104.231L81.1788 96.517L96.6252 88.813Z" fill="#074D31"/>
<path d="M71.8473 111.968H78.0969C78.7593 111.968 79.2969 111.431 79.2969 110.768C79.2969 110.106 78.7593 109.568 78.0969 109.568H71.8473C71.1849 109.568 70.6473 110.106 70.6473 110.768C70.6473 111.431 71.1849 111.968 71.8473 111.968Z" fill="#074D31"/>
<path d="M82.558 111.968H105.948C106.611 111.968 107.148 111.431 107.148 110.768C107.148 110.106 106.611 109.568 105.948 109.568H82.558C81.8956 109.568 81.358 110.106 81.358 110.768C81.358 111.431 81.8956 111.968 82.558 111.968Z" fill="#074D31"/>
<path d="M78.0969 113.966C78.7593 113.966 79.2969 113.428 79.2969 112.766V108.767C79.2969 108.105 78.7593 107.567 78.0969 107.567C77.4345 107.567 76.8921 108.105 76.8921 108.767V112.766C76.8969 113.428 77.4345 113.966 78.0969 113.966Z" fill="#074D31"/>
<path d="M31.5606 28.7173C32.223 28.7173 32.7606 28.1797 32.7606 27.5173V11.6821C32.7606 9.77649 34.311 8.22609 36.2166 8.22609H83.7846C85.6902 8.22609 87.2406 9.77649 87.2406 11.6821V18.5221C87.2406 19.1845 87.7782 19.7221 88.4406 19.7221C89.103 19.7221 89.6406 19.1845 89.6406 18.5221V11.6821C89.6406 8.45169 87.0102 5.82129 83.7798 5.82129H36.2166C32.9862 5.82129 30.3558 8.45169 30.3558 11.6821V27.5125C30.3558 28.1797 30.8934 28.7173 31.5606 28.7173Z" fill="#074D31"/>
<path d="M30.3569 72.6758H32.7617V82.8854H30.3569V72.6758Z" fill="#074D31"/>
<path d="M53.7847 112.751H64.8391C65.5015 112.751 66.0391 112.213 66.0391 111.551C66.0391 110.888 65.5015 110.351 64.8391 110.351H53.7847C53.1223 110.351 52.5847 110.888 52.5847 111.551C52.5847 112.213 53.1223 112.751 53.7847 112.751Z" fill="#074D31"/>
<path d="M88.4406 73.7846C89.103 73.7846 89.6406 73.247 89.6406 72.5846V63.6902C89.6406 63.0278 89.103 62.4902 88.4406 62.4902C87.7782 62.4902 87.2406 63.0278 87.2406 63.6902V72.5846C87.2406 73.247 87.7782 73.7846 88.4406 73.7846Z" fill="#074D31"/>
<path d="M52.6882 15.0556H67.3186C69.013 15.0556 70.3906 13.678 70.3906 11.9836V11.2732C70.3906 10.6108 69.853 10.0732 69.1906 10.0732C68.5282 10.0732 67.9906 10.6108 67.9906 11.2732V11.9836C67.9906 12.3532 67.6882 12.6508 67.3186 12.6508H52.6882C52.3186 12.6508 52.021 12.3532 52.021 11.9836V11.2732C52.021 10.6108 51.4834 10.0732 50.821 10.0732C50.1586 10.0732 49.621 10.6108 49.621 11.2732V11.9836C49.6162 13.678 50.9938 15.0556 52.6882 15.0556Z" fill="#074D31"/>
<path d="M60.0034 2.3892C60.3202 2.3892 60.6274 2.2644 60.853 2.034C61.0738 1.8132 61.2034 1.5012 61.2034 1.1844C61.2034 0.8676 61.0786 0.5604 60.853 0.3348C60.4018 -0.1116 59.6002 -0.1116 59.1538 0.3348C58.9282 0.5604 58.7986 0.8724 58.7986 1.1844C58.7986 1.4964 58.9234 1.8084 59.1538 2.034C59.3794 2.2596 59.6866 2.3892 60.0034 2.3892Z" fill="#074D31"/>
<path d="M55.0815 2.38958C55.3983 2.38958 55.7103 2.26478 55.9311 2.03438C56.1519 1.81358 56.2815 1.50158 56.2815 1.18478C56.2815 0.867979 56.1567 0.555979 55.9263 0.335179C55.4799 -0.111221 54.6783 -0.111221 54.2271 0.339979C54.0015 0.565579 53.8719 0.872779 53.8719 1.18478C53.8719 1.49678 53.9967 1.80878 54.2271 2.03438C54.4575 2.25998 54.7695 2.38958 55.0815 2.38958Z" fill="#074D31"/>
<path d="M64.9204 2.38936C65.2372 2.38936 65.5444 2.26456 65.77 2.03416C65.9956 1.81336 66.1252 1.50136 66.1252 1.18456C66.1252 0.867756 65.9956 0.560556 65.77 0.334956C65.3284 -0.106644 64.522 -0.111444 64.0708 0.334956C63.8452 0.560556 63.7204 0.872556 63.7204 1.18456C63.7204 1.49656 63.8452 1.80856 64.0708 2.03416C64.2916 2.25976 64.6036 2.38936 64.9204 2.38936Z" fill="#074D31"/>
<path d="M69.8384 2.38995C70.1552 2.38995 70.4624 2.26515 70.688 2.03475C70.9136 1.81395 71.0432 1.50195 71.0432 1.18515C71.0432 0.868353 70.9136 0.561153 70.688 0.340353C70.2416 -0.110847 69.4352 -0.110847 68.9888 0.340353C68.7632 0.565953 68.6384 0.873153 68.6384 1.18515C68.6384 1.49715 68.7632 1.80915 68.9888 2.03475C69.2096 2.26035 69.5216 2.38995 69.8384 2.38995Z" fill="#074D31"/>
<path d="M50.1674 2.3892C50.4842 2.3892 50.7962 2.2644 51.017 2.0388C51.2378 1.8132 51.3674 1.5012 51.3674 1.1844C51.3674 0.8676 51.2426 0.5604 51.017 0.3348C50.5658 -0.1116 49.7642 -0.1116 49.3178 0.3348C49.097 0.5604 48.9626 0.8724 48.9626 1.1844C48.9626 1.4964 49.0922 1.8084 49.3178 2.034C49.5434 2.2596 49.8506 2.3892 50.1674 2.3892Z" fill="#074D31"/>
<path d="M3.60823 124.784H46.9186C48.9058 124.784 50.5234 123.166 50.5234 121.179V85.2893C50.5234 83.3021 48.9058 81.6797 46.9186 81.6797H3.60823C1.62103 81.6797 0.00343704 83.2973 0.00343704 85.2893V121.179C0.00343704 123.166 1.62103 124.784 3.60823 124.784ZM46.9186 84.0845C47.581 84.0845 48.1186 84.6269 48.1186 85.2893V121.179C48.1186 121.841 47.581 122.379 46.9186 122.379H3.60823C2.94583 122.379 2.40823 121.841 2.40823 121.179V85.2893C2.40823 84.6269 2.94583 84.0845 3.60823 84.0845H46.9186Z" fill="#074D31"/>
<path d="M33.4935 115.755C36.6231 115.755 39.1719 113.609 39.1719 110.969C39.1719 108.334 36.6231 106.184 33.4935 106.184C30.3639 106.184 27.8151 108.329 27.8151 110.969C27.8151 113.609 30.3639 115.755 33.4935 115.755ZM33.4935 108.593C35.2695 108.593 36.7671 109.683 36.7671 110.974C36.7671 112.265 35.2695 113.355 33.4935 113.355C31.7175 113.355 30.2199 112.265 30.2199 110.974C30.2199 109.683 31.7175 108.593 33.4935 108.593Z" fill="#074D31"/>
<path d="M12.5652 112.175C13.2276 112.175 13.7652 111.637 13.7652 110.975V93.1187H27.8148V110.975C27.8148 111.637 28.3524 112.175 29.0148 112.175C29.6772 112.175 30.2148 111.637 30.2148 110.975V92.9459C30.2148 91.7123 29.2116 90.7139 27.9828 90.7139H13.5876C12.3588 90.7139 11.3556 91.7171 11.3556 92.9459V110.975C11.3604 111.637 11.898 112.175 12.5652 112.175Z" fill="#074D31"/>
<path d="M17.0403 115.755C20.1699 115.755 22.7188 113.609 22.7188 110.969C22.7188 108.334 20.1699 106.184 17.0403 106.184C13.9107 106.184 11.3619 108.329 11.3619 110.969C11.3619 113.609 13.9107 115.755 17.0403 115.755ZM17.0403 108.593C18.8163 108.593 20.3139 109.683 20.3139 110.974C20.3139 112.265 18.8163 113.355 17.0403 113.355C15.2643 113.355 13.7667 112.265 13.7667 110.974C13.7667 109.683 15.2643 108.593 17.0403 108.593Z" fill="#074D31"/>
<path d="M14.3773 26.4468H24.7453C25.4077 26.4468 25.9453 25.9092 25.9453 25.242V14.874C25.9453 11.7204 23.3821 9.15723 20.2285 9.15723C17.0749 9.15723 14.5117 11.7204 14.5117 14.874V15.0084H14.3773C11.2237 15.0084 8.66051 17.5716 8.66051 20.7252C8.66051 23.8836 11.2237 26.4468 14.3773 26.4468ZM23.5453 24.042H14.3773C12.5485 24.042 11.0653 22.554 11.0653 20.73C11.0653 18.9012 12.5533 17.4132 14.3773 17.4132H15.7117C16.3741 17.4132 16.9117 16.8756 16.9117 16.2132V14.8788C16.9117 13.05 18.3997 11.5668 20.2285 11.5668C22.0573 11.5668 23.5405 13.0548 23.5405 14.8788V24.042H23.5453Z" fill="#074D31"/>
<path d="M94.7192 17.9125H103.206C105.908 17.9125 108.102 15.7141 108.102 13.0165C108.102 10.3525 105.961 8.17808 103.311 8.12048C103.254 5.47088 101.079 3.33008 98.4152 3.33008C95.7128 3.33008 93.5192 5.52848 93.5192 8.23088V16.7173C93.5192 17.3749 94.0568 17.9125 94.7192 17.9125ZM103.206 10.5205C104.578 10.5205 105.702 11.6389 105.702 13.0165C105.702 14.3893 104.583 15.5077 103.206 15.5077H95.9192V8.22608C95.9192 6.84848 97.0376 5.73008 98.4152 5.73008C99.7928 5.73008 100.911 6.84848 100.911 8.22608V9.31568C100.911 9.97808 101.449 10.5157 102.111 10.5157H103.206V10.5205Z" fill="#074D31"/>
</svg>
