<svg width="120" height="122" viewBox="0 0 120 122" fill="none" xmlns="http://www.w3.org/2000/svg">
<path d="M10.6684 102.566L10.6683 102.566C10.3722 103.882 9.96444 105.706 9.9907 107.616C10.0169 109.52 10.4743 111.463 11.8699 113.052C13.6614 115.091 16.6263 116.155 21.0151 116.155C21.9478 116.155 22.9482 116.104 24.011 116.011L24.0203 116.01L24.0203 116.01C24.4716 115.979 35.574 115.154 46.886 110.487L46.8863 110.487C47.678 110.161 48.0571 109.253 47.73 108.456C47.4033 107.664 46.4955 107.284 45.7009 107.613L45.7005 107.613C40.2832 109.847 34.8381 111.168 30.7329 111.933C28.6792 112.315 26.958 112.558 25.7397 112.707C25.1304 112.782 24.6468 112.832 24.31 112.865C24.1416 112.881 24.01 112.893 23.9177 112.901L23.8095 112.91L23.7787 112.913L23.7697 112.913L23.7693 112.913C21.4358 113.127 19.4432 113.085 17.8445 112.78C16.2525 112.478 14.9963 111.904 14.207 111.007M10.6684 102.566L14.5825 110.677M10.6684 102.566C11.0917 100.674 10.3766 98.9924 9.60312 97.8205C8.8441 96.6705 7.98635 95.9446 7.91125 95.8831M10.6684 102.566L7.91125 95.8831M14.207 111.007L14.5825 110.677M14.207 111.007C14.207 111.007 14.207 111.007 14.2071 111.007L14.5825 110.677M14.207 111.007C13.3413 110.023 13.0876 108.709 13.1028 107.37C13.1181 106.028 13.405 104.58 13.7021 103.255C14.6405 99.0709 12.1712 95.7814 10.7252 94.2782L10.5589 94.1053L10.5897 93.8675C10.7583 92.5625 10.902 90.3753 10.4258 88.2582C9.95092 86.147 8.87763 84.1696 6.65888 83.1454L6.6584 83.1452C4.80296 82.2862 4.05355 81.458 3.75335 80.941L3.57047 80.626L3.81416 80.3554C6.15267 77.7581 8.67252 74.7329 10.5712 71.8722C11.5207 70.4417 12.3071 69.0637 12.8383 67.8096C13.3728 66.5479 13.6306 65.4536 13.5711 64.576M14.5825 110.677C13.087 108.977 13.5963 106.012 14.1899 103.365C15.1858 98.924 12.5615 95.4659 11.0855 93.9316C11.4294 91.2716 11.6889 84.9167 6.86845 82.6914C5.07457 81.861 4.4193 81.0922 4.18574 80.6899C8.87643 75.4802 14.3392 68.5058 14.0699 64.5417M13.5711 64.576C13.5711 64.5761 13.5711 64.5763 13.5711 64.5764L14.0699 64.5417M13.5711 64.576C13.5711 64.5759 13.5711 64.5757 13.5711 64.5756L14.0699 64.5417M13.5711 64.576C13.4883 63.3872 12.9223 62.6872 12.4699 62.3065L12.4698 62.3064C11.1578 61.2018 10.8321 59.3845 10.7981 57.951C10.7643 56.5251 11.0159 55.3225 11.046 55.1826M14.0699 64.5417C13.9758 63.189 13.3238 62.3715 12.7918 61.9239C10.5146 60.0067 11.504 55.4296 11.5364 55.2804M0.218445 81.8739C0.876958 83.6808 2.53459 85.2087 5.14594 86.4154C7.66321 87.58 7.22852 92.5789 6.87494 94.2365L0.218445 81.8739ZM0.218445 81.8739C-0.251921 80.5894 0.049762 79.1296 1.00347 78.0721M0.218445 81.8739L7.91125 95.8831M11.046 55.1826C11.0455 55.1853 11.045 55.188 11.0445 55.1907L11.5364 55.2804M11.046 55.1826C11.0468 55.1791 11.0474 55.1763 11.0478 55.1741L11.5364 55.2804M11.046 55.1826C12.2606 48.5291 14.81 43.0048 18.6835 38.6623C22.5587 34.3178 27.7365 31.1817 34.1661 29.2715M11.5364 55.2804C13.9369 42.1166 21.599 33.5267 34.3086 29.7508M34.3086 29.7508L34.1661 29.2715M34.3086 29.7508C44.0241 26.8604 53.2011 27.9796 53.292 27.9926M34.3086 29.7508L34.1663 29.2715C34.1662 29.2715 34.1661 29.2715 34.1661 29.2715M34.1661 29.2715C43.8211 26.3992 52.9387 27.4444 53.3495 27.4959M53.292 27.9926L53.3472 27.4956C53.348 27.4957 53.3487 27.4958 53.3495 27.4959M53.292 27.9926C53.3796 28.0023 53.5093 28.0088 53.5645 28.0088M53.292 27.9926L53.3627 27.4976C53.3607 27.4973 53.3563 27.4967 53.3495 27.4959M53.3495 27.4959C53.3808 27.4993 53.4242 27.5026 53.4686 27.5051C53.5034 27.5071 53.532 27.5082 53.55 27.5086M53.5645 28.0088L53.4723 27.5173C53.5021 27.5118 53.5271 27.51 53.5303 27.5098C53.5378 27.5092 53.5446 27.5088 53.55 27.5086M53.5645 28.0088C53.6164 27.999 55.8904 27.999 59.2997 28.57C60.4221 28.7581 61.4764 28.0023 61.6645 26.8831M53.5645 28.0088V27.5088C53.561 27.5088 53.5561 27.5087 53.55 27.5086M53.55 27.5086C53.5512 27.5085 53.5522 27.5085 53.5532 27.5084C53.5652 27.5079 53.5779 27.5075 53.5903 27.5073C53.6155 27.5068 53.6481 27.5066 53.6872 27.5067C53.7659 27.5069 53.8765 27.5084 54.0168 27.5123C54.2977 27.52 54.7004 27.5373 55.208 27.5729C56.2231 27.644 57.66 27.7884 59.3823 28.0768L59.3824 28.0769C60.2313 28.2192 61.0288 27.6483 61.1714 26.8003M61.1714 26.8003C61.1714 26.8003 61.1714 26.8004 61.1714 26.8005L61.6645 26.8831M61.1714 26.8003L61.6645 26.8831M61.1714 26.8003C61.3137 25.9507 60.7421 25.1508 59.8952 25.0082M61.6645 26.8831C61.8526 25.7608 61.0968 24.7032 59.9777 24.5151M59.9777 24.5151L59.8952 25.0082M59.9777 24.5151C56.6429 23.9571 54.2522 23.8987 53.6715 23.8955C51.031 23.61 13.739 20.2656 7.51399 54.4272C7.44587 54.7094 5.92447 61.2978 9.97611 64.918C10.0021 66.2707 7.32909 71.0717 1.00347 78.0721M59.9777 24.5151L59.8948 25.0082C59.8949 25.0082 59.895 25.0082 59.8952 25.0082M59.8952 25.0082C56.5917 24.4555 54.2282 24.3986 53.6687 24.3955L53.6432 24.3954L53.6178 24.3926C52.323 24.2526 42.4232 23.3532 32.0918 26.7191C21.7896 30.0755 11.0777 37.6596 8.00589 54.5168L8.00335 54.5308L8.00003 54.5445C7.9716 54.6623 7.58556 56.3268 7.69938 58.3934C7.81353 60.4658 8.42478 62.8614 10.3093 64.5452L10.4718 64.6904L10.476 64.9084C10.4849 65.3703 10.2764 66.015 9.92866 66.769C9.56986 67.5469 9.02734 68.5142 8.29112 69.6493C6.81786 71.9207 4.55089 74.892 1.37478 78.4069M1.37478 78.4069L1.00347 78.0721M1.37478 78.4069C0.538763 79.334 0.284578 80.6004 0.68796 81.702L0.688219 81.7027C1.28281 83.3342 2.80587 84.7832 5.35568 85.9615L5.35587 85.9616C6.12218 86.3162 6.63914 86.9531 6.98075 87.6839C7.32073 88.4113 7.50037 89.2577 7.58448 90.0908C7.75252 91.7552 7.54917 93.4724 7.36394 94.3408L7.36381 94.3414C7.24162 94.9108 7.45418 95.51 7.91125 95.8831M1.37478 78.4069C1.37467 78.4071 1.37456 78.4072 1.37445 78.4073L1.00347 78.0721" fill="#074D31" stroke="white"/>
<path d="M82.0782 92.2387L82.0783 92.2386L82.0897 92.2127C84.5603 86.6068 86.92 81.2525 87.9335 72.8181C88.0373 71.9624 88.8033 71.353 89.6618 71.4607L89.6641 71.4609C90.5186 71.5641 91.1247 72.3367 91.0215 73.1916L91.0215 73.1918C89.9506 82.093 87.4078 87.8654 84.923 93.496L84.9229 93.4962C81.8481 100.472 78.9201 107.117 78.6847 119.62C78.6673 120.467 77.9746 121.144 77.1312 121.144H77.1311H77.131H77.1309H77.1309H77.1308H77.1307H77.1306H77.1306H77.1305H77.1304H77.1303H77.1303H77.1302H77.1301H77.13H77.13H77.1299H77.1298H77.1297H77.1296H77.1296H77.1295H77.1294H77.1293H77.1293H77.1292H77.1291H77.129H77.129H77.1289H77.1288H77.1287H77.1287H77.1286H77.1285H77.1284H77.1284H77.1283H77.1282H77.1281H77.1281H77.128H77.1279H77.1278H77.1277H77.1277H77.1276H77.1275H77.1274H77.1274H77.1273H77.1272H77.1271H77.1271H77.127H77.1269H77.1268H77.1268H77.1267H77.1266H77.1265H77.1265H77.1264H77.1263H77.1262H77.1261H77.1261H77.126H77.1259H77.1258H77.1258H77.1257H77.1256H77.1255H77.1255H77.1254H77.1253H77.1252H77.1252H77.1251H77.125H77.1249H77.1249H77.1248H77.1247H77.1246H77.1246H77.1245H77.1244H77.1243H77.1242H77.1242H77.1241H77.124H77.1239H77.1239H77.1238H77.1237H77.1236H77.1236H77.1235H77.1234H77.1233H77.1233H77.1232H77.1231H77.123H77.123H77.1229H77.1228H77.1227H77.1227H77.1226H77.1225H77.1224H77.1223H77.1223H77.1222H77.1221H77.122H77.122H77.1219H77.1218H77.1217H77.1217H77.1216H77.1215H77.1214H77.1214H77.1213H77.1212H77.1211H77.1211H77.121H77.1209H77.1208H77.1208H77.1207H77.1206H77.1205H77.1204H77.1204H77.1203H77.1202H77.1201H77.1201H77.12H77.1199H77.1198H77.1198H77.1197H77.1196H77.1195H77.1195H77.1194H77.1193H77.1192H77.1192H77.1191H77.119H77.1189H77.1189H77.1188H77.1187H77.1186H77.1185H77.1185H77.1184H77.1183H77.1182H77.1182H77.1181H77.118H77.1179H77.1179H77.1178H77.1177H77.1176H77.1176H77.1175H77.1174H77.1173H77.1173H77.1172H77.1171H77.117H77.1169H77.1169H77.1168H77.1167H77.1166H77.1166H77.1165H77.1164H77.1163H77.1163H77.1162H77.1161H77.116H77.116H77.1159H77.1158H77.1157H77.1157H77.1156H77.1155H77.1154H77.1154H77.1153H77.1152H77.1151H77.115H77.115H77.1149H77.1148H77.1147H77.1147H77.1146H77.1145H77.1144H77.1144H77.1143H77.1142H77.1141H77.1141H77.114H77.1139H77.1138H77.1138H77.1137H77.1136H77.1135H77.1135H77.1134H77.1133H77.1132H77.1131H77.1131H77.113H77.1129H77.1128H77.1128H77.1127H77.1126H77.1125H77.1125H77.1124H77.1123H77.1122H77.1122H77.1121H77.112H77.1119H77.1119H77.1118H77.1117H77.1116H77.1116H77.1115H77.1114H77.1113H77.1112H77.1112H77.1111H77.111H77.1109H77.1109H77.1108H77.1107H77.1106H77.1106H77.1105H77.1104H77.1103H77.1103H77.1102H77.1101H77.11H77.11H77.1099H77.1098H77.1097H77.1096H77.1096H77.1095H77.1094H77.1093H77.1093H77.1092H77.1091H77.109H77.109H77.1089H77.1088H77.1087H77.1087H77.1086H77.1085H77.1084H77.1084H77.1083H77.1082H77.1081H77.1081H77.108H77.1079H77.1078H77.1077H77.1077H77.1076H77.1075H77.1074H77.1074H77.1073H77.1072H77.1071H77.1071H77.107H77.1069H77.1068H77.1068H77.1067H77.1066H77.1065H77.1065H77.1064H77.1063H77.1062H77.1062H77.1061H77.106H77.1059H77.1058H77.1058H77.1057H77.1056H77.1055H77.1055H77.1054H77.1053H77.1052H77.1052H77.1051H77.105H77.1049H77.1049H77.1048H77.1047H77.1046H77.1046H77.1045H77.1044H77.1043H77.1043H77.1042H77.1041H77.104H77.1039H77.1039H77.1038H77.1037H77.1036H77.1036H77.1035H77.1034H77.1033H77.1033H77.1032H77.1031H77.103H77.103H77.1029H77.1028H77.1027H77.1027H77.1026H77.1025H77.1024H77.1023H77.1023H77.1022H77.1021H77.102H77.102H77.1019H77.1018H77.1017H77.1017H77.1016H77.1015H77.1014H77.1014H77.1013H77.1012H77.1011H77.1011H77.101H77.1009H77.1008H77.1008H77.1007H77.1006H77.1005H77.1004H77.1004H77.1003H77.1002H77.1001H77.1001H77.1H77.0999H77.0998H77.0998H77.0997H77.0996H77.0995H77.0995H77.0994H77.0993H77.0992H77.0992H77.0991H77.099H77.0989H77.0989H77.0988H77.0987H77.0986H77.0985H77.0985H77.0984H77.0983H77.0982H77.0982H77.0981H77.098H77.0979H77.0979H77.0978H77.0977H77.0976C76.2396 121.125 75.56 120.418 75.5744 119.561C75.8223 106.429 78.9907 99.2422 82.0753 92.2453L82.0782 92.2387Z" fill="#074D31" stroke="white"/>
<path d="M33.0456 111.903L33.0456 111.903C32.1914 112.001 31.5802 112.771 31.6784 113.626C31.6784 113.626 31.6784 113.626 31.6784 113.626L32.3886 119.765C32.3887 119.766 32.3887 119.766 32.3887 119.766C32.4823 120.56 33.1529 121.144 33.9325 121.144C33.9978 121.144 34.0568 121.141 34.1073 121.135L34.1122 121.134L34.1122 121.134C34.9663 121.036 35.5775 120.266 35.4795 119.411L33.0456 111.903ZM33.0456 111.903L33.0477 111.902C33.8881 111.802 34.6708 112.416 34.769 113.27L34.769 113.27L35.4794 119.411L33.0456 111.903Z" fill="#074D31" stroke="white"/>
<path d="M64.4199 11.1294C63.5607 11.1294 62.8633 10.432 62.8633 9.57278V2.05664C62.8633 1.19741 63.5607 0.5 64.4199 0.5C65.2791 0.5 65.9766 1.19741 65.9766 2.05664V9.57529C65.9737 10.4329 65.2781 11.1294 64.4199 11.1294Z" fill="#074D31" stroke="white"/>
<path d="M117.943 57.1152H110.424C109.565 57.1152 108.867 56.4178 108.867 55.5586C108.867 54.6994 109.565 54.002 110.424 54.002H117.943C118.802 54.002 119.5 54.6994 119.5 55.5586C119.5 56.4178 118.802 57.1152 117.943 57.1152Z" fill="#074D31" stroke="white"/>
<path d="M95.8468 21.9392L95.8475 21.9385L101.164 16.6217C101.773 16.0135 102.754 16.0146 103.364 16.6221C103.973 17.2317 103.972 18.2151 103.364 18.8204L103.364 18.8212L98.047 24.1379C97.7432 24.4417 97.347 24.5916 96.9473 24.5916C96.5497 24.5916 96.1523 24.4398 95.8468 24.1372C95.2379 23.5275 95.2392 22.5444 95.8468 21.9392Z" fill="#074D31" stroke="white"/>
<path d="M105.365 38.2626L105.365 38.2623C105.031 37.472 105.402 36.5587 106.192 36.225L106.192 36.225L113.118 33.299L113.12 33.2982C113.904 32.9633 114.821 33.3347 115.155 34.1261C115.489 34.9164 115.118 35.8297 114.328 36.1634L114.328 36.1634L107.402 39.0894L107.401 39.0899C107.206 39.1729 107 39.2122 106.799 39.2122C106.191 39.2122 105.615 38.8551 105.365 38.2626Z" fill="#074D31" stroke="white"/>
<path d="M81.1377 14.388L81.1366 14.3875C80.3393 14.0627 79.9557 13.1563 80.2789 12.363L80.2791 12.3625L83.1078 5.39783L83.1081 5.3971C83.4295 4.60206 84.3347 4.21689 85.1323 4.54069C85.9295 4.86561 86.313 5.77194 85.9898 6.56514L85.9896 6.56564L83.1609 13.5303L83.1601 13.5324C82.9182 14.1359 82.3356 14.5031 81.72 14.5031C81.527 14.5031 81.3289 14.4664 81.1377 14.388Z" fill="#074D31" stroke="white"/>
<path d="M45.088 13.8092L45.0878 13.8089L42.1619 6.88315C42.1619 6.88314 42.1618 6.88312 42.1618 6.8831C41.8281 6.09287 42.199 5.17953 42.989 4.84585L42.989 4.84585L42.9907 4.84511C43.7755 4.51019 44.692 4.88159 45.0263 5.67298L45.0263 5.67303L47.9523 12.5987C47.9523 12.5988 47.9523 12.5988 47.9523 12.5988C48.286 13.3888 47.9154 14.302 47.1257 14.6358C46.9248 14.7201 46.7216 14.7588 46.5217 14.7588C45.9136 14.7588 45.3377 14.4017 45.088 13.8092Z" fill="#074D31" stroke="white"/>
<path d="M113.438 77.128L113.437 77.1273L106.473 74.2988C106.472 74.2988 106.472 74.2988 106.472 74.2987C105.675 73.9738 105.292 73.0675 105.615 72.2743L105.615 72.2731C105.937 71.4779 106.842 71.0928 107.64 71.4168L107.64 71.4168L114.604 74.2453C115.401 74.5701 115.785 75.4765 115.462 76.2698L115.461 76.2708C115.216 76.8768 114.635 77.243 114.021 77.243C113.828 77.243 113.629 77.2064 113.438 77.128Z" fill="#074D31" stroke="white"/>
<path d="M45.1445 65.589L45.1448 66.0887H45.6445H49.4431H49.9434L49.9431 65.5884L49.9302 44.2175L49.9299 43.7161L49.4285 43.7178L45.6298 43.7308L45.1312 43.7325L45.1315 44.2311L45.1445 65.589ZM49.4431 69.1987H45.6315C43.6467 69.1987 42.0312 67.5833 42.0312 65.5984V44.2146C42.0312 42.2297 43.6467 40.6143 45.6315 40.6143H49.4431C51.428 40.6143 53.0434 42.2297 53.0434 44.2146V65.5984C53.0434 67.5833 51.428 69.1987 49.4431 69.1987Z" fill="#074D31" stroke="white"/>
<path d="M70.8086 27.9132C70.6009 28.1724 70.3849 28.567 70.174 28.9932C69.9584 29.4291 69.7283 29.9398 69.4973 30.4535C68.4695 32.7343 67.1195 35.7239 64.5784 38.6284C62.0429 41.5264 58.305 44.3568 52.4844 46.2704C51.6687 46.5382 50.7882 46.0925 50.524 45.2802L50.5237 45.2794C50.2554 44.4598 50.6986 43.5821 51.5146 43.315L51.5151 43.3148C56.6438 41.63 59.9587 39.164 62.2333 36.567C64.4933 33.9867 65.7081 31.2952 66.6551 29.1972L66.6653 29.1747C67.3001 27.7702 67.7669 26.74 68.3872 25.9662C69.3673 24.7481 70.6252 24.1553 72.2952 24.1553C75.0371 24.1553 77.286 26.3891 77.3066 29.1315C77.3321 33.0526 76.564 36.8705 75.0211 40.4791L75.021 40.4795L74.953 40.6381L74.6543 41.335H75.4126H85.3714C87.4819 41.335 89.4358 42.2862 90.7393 43.9433C92.0426 45.6034 92.5017 47.7265 92.0027 49.777L89.1354 61.5284C88.0289 66.0225 84.0407 69.1539 79.4253 69.1539H62.8587C62.8252 69.1539 62.7856 69.1518 62.734 69.1486C62.3845 69.1222 59.3909 68.8455 57.043 67.3657C56.3157 66.9059 56.0983 65.9462 56.5568 65.2206L56.5574 65.2195C57.0134 64.4939 57.9732 64.2741 58.7039 64.7317C60.1179 65.6216 62.1483 65.9681 62.9065 66.0385L62.9296 66.0407H62.9528H79.4286C82.6043 66.0407 85.3516 63.885 86.1037 60.7966C86.1037 60.7965 86.1037 60.7964 86.1037 60.7963L88.9713 49.0439L88.9716 49.0428C89.2407 47.9287 88.9937 46.7721 88.2817 45.8687M70.8086 27.9132L71.1988 28.2259L70.8083 27.9136C70.8084 27.9135 70.8085 27.9134 70.8086 27.9132ZM70.8086 27.9132C70.9808 27.6981 71.1751 27.5158 71.4454 27.4014C71.7045 27.2917 71.9854 27.2653 72.2887 27.2653C73.3284 27.2653 74.1821 28.1094 74.1868 29.1542C74.2099 32.6451 73.5247 36.0444 72.1516 39.2571L72.1515 39.2574L70.8572 42.2807L70.8571 42.2809C70.6508 42.7623 70.6998 43.3118 70.9873 43.7492C71.2741 44.1855 71.7623 44.4483 72.2855 44.4483H85.3617C86.5075 44.4483 87.5737 44.9663 88.2817 45.8687M88.2817 45.8687C88.2816 45.8685 88.2814 45.8684 88.2813 45.8682L87.8887 46.1778L88.2821 45.8692C88.282 45.869 88.2818 45.8689 88.2817 45.8687Z" fill="#074D31" stroke="white"/>
</svg>
