<svg width="110" height="107" viewBox="0 0 110 107" fill="none" xmlns="http://www.w3.org/2000/svg">
<path d="M31.1898 87.4311L31.4472 87.329L31.7092 87.4186C36.2956 88.9881 41.0632 89.688 45.8406 89.688C70.7696 89.688 90.9141 69.5848 90.9141 45.1302C90.9141 20.6794 70.7734 0.75 45.8406 0.75C20.8886 0.75 0.752754 20.6795 0.944847 45.1243V45.1302C0.944847 56.4878 5.18923 67.1415 12.9638 75.3528L13.3525 75.7634L13.0648 76.2501L1.19584 96.3277L1.19332 96.3319C0.786156 97.0105 0.854759 97.6774 1.25821 98.0809L1.31958 98.1422L1.36531 98.216C1.674 98.7139 2.30804 98.8857 2.97615 98.6241C2.97647 98.6239 2.97679 98.6238 2.97711 98.6237L31.1898 87.4311ZM16.4268 76.3784L16.4312 76.371C16.7573 75.8276 16.7045 75.1161 16.1588 74.4148C8.30859 66.6377 3.92236 56.1545 3.92236 45.1302C3.92236 22.3201 22.7986 3.69195 45.8406 3.69195C68.8831 3.69195 87.7411 22.3205 87.7411 45.1302C87.7411 68.1131 69.083 86.7461 45.8406 86.7461C41.0981 86.7461 36.3394 86.0257 31.9291 84.3942C31.5596 84.2734 31.1853 84.2726 30.8158 84.3917L8.00511 93.4449L5.98335 94.2473L7.08092 92.3694L16.4268 76.3784Z" fill="#074D31" stroke="white" stroke-width="1.5"/>
<path d="M102.918 98.0553L104.017 99.9341L101.994 99.1308L79.2013 90.0776C78.8323 89.9587 78.4584 89.9593 78.0895 90.0796C73.6787 91.7115 68.9196 92.432 64.1765 92.432C63.7151 92.432 63.3171 92.5955 63.0635 92.8311C62.8229 93.0547 62.6999 93.3482 62.7513 93.7081L62.7589 93.7608V93.8141C62.7589 94.6326 63.4958 95.3739 64.3542 95.3739C69.1316 95.3739 73.8993 94.674 78.4856 93.1045L78.7476 93.0149L79.005 93.117L107.218 104.31C107.218 104.31 107.218 104.31 107.218 104.31C107.737 104.513 108.323 104.36 108.897 103.806C109.255 103.298 109.342 102.586 109.002 102.018L108.999 102.014L97.1301 81.936L96.8423 81.4493L97.2311 81.0387C105.006 72.8274 109.25 62.1737 109.25 50.8161C109.25 36.4947 102.177 22.8707 90.1805 14.6602C89.3869 14.1436 88.4458 14.3156 87.9829 14.993C87.4561 15.7639 87.6252 16.6931 88.308 17.1408L88.3168 17.1466L88.3255 17.1527C99.4886 24.9324 106.077 37.5991 106.077 50.9938C106.077 62.0326 101.679 72.5289 93.8096 80.3091C93.3256 80.794 93.225 81.4849 93.5682 82.0568L93.5726 82.0643L102.918 98.0553Z" fill="#074D31" stroke="white" stroke-width="1.5"/>
<path d="M32.3984 51.198C30.3627 50.8313 28.69 50.2797 27.0263 49.5486C24.918 48.6435 23.1731 47.6286 21.9446 46.5334C20.7272 45.4481 19.92 44.1934 19.9302 42.8167C19.9315 41.5172 20.754 40.3077 21.9568 39.2567C23.1805 38.1874 24.9186 37.1732 27.0296 36.2672L27.0596 36.2543L27.0906 36.2441L27.0961 36.2423C28.7107 35.71 30.3438 35.1716 32.3357 34.6333L33.3939 34.3473L33.2771 35.4372C32.7497 40.3601 32.75 45.6358 33.2768 50.3771L33.3878 51.3763L32.3984 51.198ZM58.4023 35.6178L58.2893 34.6004L59.2934 34.7993C61.1267 35.1623 62.9693 35.7079 64.6404 36.4408C66.753 37.262 68.4936 38.2783 69.7212 39.3727C70.9298 40.4501 71.7489 41.7039 71.7489 42.9975C71.7489 44.2988 70.9201 45.509 69.7212 46.5778C68.5009 47.6657 66.7692 48.7233 64.675 49.7162L64.6329 49.7362L64.5885 49.7508L64.5831 49.7526C62.9686 50.2848 61.3354 50.8232 59.3434 51.3616L58.2852 51.6476L58.402 50.5577C58.9294 45.6348 58.9291 40.3591 58.4023 35.6178ZM54.59 33.7308L55.1287 33.8279L55.2005 34.3706C55.9375 39.9428 55.9379 46.0511 55.2001 51.4499L55.1263 51.9898L54.59 52.0864C52.5688 52.4506 50.3562 52.6313 48.1671 52.6313H47.4171V51.8813V33.9359V33.1859H48.1671C50.3562 33.1859 52.5688 33.3666 54.59 33.7308ZM37.5527 29.5245C37.9178 27.6993 38.484 25.8702 39.2184 24.2172C40.3161 21.6986 41.6249 19.5924 43.2467 18.4057L44.4396 17.5328V19.0109V29.3163V30.0663H43.6896C41.9205 30.0663 40.1627 30.2397 38.3621 30.418L37.3541 30.5178L37.5527 29.5245ZM47.4171 19.0109V17.3952L48.6512 18.4381C50.0368 19.609 51.3545 21.6832 52.6206 24.1797L52.6457 24.2292L52.6632 24.2818C52.7243 24.4649 52.7857 24.6484 52.8474 24.8328C53.3221 26.2514 53.8145 27.7229 54.2922 29.4743L54.5785 30.5242L53.4954 30.418L53.4605 30.4146C51.6535 30.2375 49.9074 30.0663 48.1671 30.0663H47.4171V29.3163V19.0109ZM47.4171 56.501V55.751H48.1671C49.9184 55.751 51.6761 55.5776 53.4769 55.3993L54.4849 55.2995L54.2863 56.2927C53.921 58.119 53.3543 59.9491 52.6193 61.6029L52.6124 61.6184L52.6048 61.6337C51.355 64.1331 50.0375 66.2077 48.6512 67.3791L47.4171 68.422V66.8063V56.501ZM44.2442 66.8063V68.422L43.0101 67.3791C41.623 66.2069 40.3225 64.1299 39.0585 61.6375L39.0334 61.588L39.0159 61.5354C38.9548 61.3523 38.8934 61.1687 38.8317 60.9842C38.357 59.5658 37.8646 58.0943 37.3869 56.343L37.1003 55.2919L38.1844 55.3993C39.9853 55.5776 41.7429 55.751 43.4942 55.751H44.2442V56.501V66.8063ZM44.2442 51.8813V52.6313H43.4942C41.2992 52.6313 39.2862 52.4496 37.083 52.0884L36.5338 51.9984L36.4608 51.4466C35.7238 45.8745 35.7234 39.7662 36.4613 34.3674L36.535 33.8274L37.0714 33.7308C39.0926 33.3666 41.3051 33.1859 43.4942 33.1859H44.2442V33.9359V51.8813ZM22.4956 35.1071L20.6581 36.2414L21.3969 34.2123C23.9973 27.0705 29.7442 21.3988 36.9532 18.8373L38.8668 18.1573L37.8545 19.9178C36.2655 22.6813 34.8695 26.3348 33.977 30.7099L33.8772 31.199L33.3875 31.2958C28.9344 32.1758 25.266 33.397 22.4956 35.1071ZM53.6451 19.9443L52.5041 18.1368L54.5243 18.8351C61.9301 21.3951 67.6696 27.0701 70.0924 34.2285L70.7148 36.0673L69.0178 35.1245C66.2144 33.5671 62.5226 32.1706 58.0961 31.2958L57.6065 31.199L57.5067 30.7099C56.6092 26.3105 55.3712 22.6787 53.6451 19.9443ZM69.1658 50.7101L71.0032 49.5759L70.2645 51.6049C67.6643 58.7461 61.9355 64.4184 54.7075 66.9802L52.8095 67.6529L53.8051 65.9025C55.3789 63.1353 56.7923 59.4799 57.6844 55.1073L57.7841 54.6182L58.2738 54.5215C62.7269 53.6414 66.3953 52.4202 69.1658 50.7101ZM38.0162 66.0506L39.2001 67.926L37.121 67.154C29.7504 64.4175 23.9956 58.7524 21.5708 51.7721L20.9262 49.9163L22.6435 50.8704C25.447 52.4278 29.1387 53.8243 33.5652 54.6991L34.0549 54.7959L34.1546 55.285C35.0521 59.6844 36.2902 63.3162 38.0162 66.0506ZM74.9219 42.9975C74.9219 27.0761 61.8004 14.2529 45.8395 14.2529C29.8787 14.2529 16.7572 27.0761 16.7572 42.9975C16.7572 58.9188 29.8787 71.742 45.8395 71.742C61.9577 71.742 74.9219 58.9214 74.9219 42.9975Z" fill="#074D31" stroke="white" stroke-width="1.5"/>
<path d="M49.7617 105.501V102.559H46.7664V105.501H49.7617Z" fill="#074D31" stroke="white" stroke-width="1.5"/>
<path d="M40.5938 105.501V102.559H37.5985V105.501H40.5938Z" fill="#074D31" stroke="white" stroke-width="1.5"/>
<path d="M31.4219 105.501V102.559H28.4266V105.501H31.4219Z" fill="#074D31" stroke="white" stroke-width="1.5"/>
<path d="M22.2578 105.501V102.559H19.2625V105.501H22.2578Z" fill="#074D31" stroke="white" stroke-width="1.5"/>
<path d="M106.922 5.82378V2.88184H103.927V5.82378H106.922Z" fill="#074D31" stroke="white" stroke-width="1.5"/>
<path d="M97.75 5.82378V2.88184H94.7547V5.82378H97.75Z" fill="#074D31" stroke="white" stroke-width="1.5"/>
<path d="M88.5859 5.82378V2.88184H85.5907V5.82378H88.5859Z" fill="#074D31" stroke="white" stroke-width="1.5"/>
<path d="M79.418 5.82378V2.88184H76.4227V5.82378H79.418Z" fill="#074D31" stroke="white" stroke-width="1.5"/>
<path d="M12.8949 6.79099L12.8939 6.77139V6.75176C12.8939 3.44239 10.1813 0.75 6.82104 0.75C3.46076 0.75 0.748163 3.44239 0.748163 6.75176C0.748163 10.0611 3.46076 12.7535 6.82104 12.7535C10.2359 12.7535 13.0649 10.0356 12.8949 6.79099ZM3.74344 6.75176C3.74344 5.09009 5.14903 3.69195 6.82104 3.69195C8.48565 3.69195 9.91641 5.08276 9.91641 6.75176C9.91641 8.42437 8.4642 9.81157 6.82104 9.81157C5.1705 9.81157 3.74344 8.41711 3.74344 6.75176Z" fill="#074D31" stroke="white" stroke-width="1.5"/>
</svg>
