<svg width="458" height="324" viewBox="0 0 458 324" fill="none" xmlns="http://www.w3.org/2000/svg">
<path d="M120.4 233V206.2H59V180.6L113.4 93.4H149V183H166.6V206.2H149V233H120.4ZM83 183H120.4V124.4H118.4L83 183ZM228.922 235.4C210.655 235.4 197.122 229.067 188.322 216.4C179.522 203.733 175.122 186 175.122 163.2C175.122 140.4 179.522 122.667 188.322 110C197.122 97.3333 210.655 91 228.922 91C247.189 91 260.722 97.3333 269.522 110C278.322 122.667 282.722 140.4 282.722 163.2C282.722 186 278.322 203.733 269.522 216.4C260.722 229.067 247.189 235.4 228.922 235.4ZM228.922 210C236.922 210 242.455 207.067 245.522 201.2C248.589 195.333 250.122 187.067 250.122 176.4V150C250.122 139.333 248.589 131.067 245.522 125.2C242.455 119.333 236.922 116.4 228.922 116.4C220.922 116.4 215.389 119.333 212.322 125.2C209.255 131.067 207.722 139.333 207.722 150V176.4C207.722 187.067 209.255 195.333 212.322 201.2C215.389 207.067 220.922 210 228.922 210ZM352.244 233V206.2H290.844V180.6L345.244 93.4H380.844V183H398.444V206.2H380.844V233H352.244ZM314.844 183H352.244V124.4H350.244L314.844 183Z" fill="#384250"/>
<path d="M441.328 39.6667C441.328 39.2986 441.627 39.0001 441.995 39.0001H442.001C442.369 39.0001 442.667 39.2986 442.667 39.6667C442.667 40.0349 442.369 40.3334 442.001 40.3334H441.995C441.627 40.3334 441.328 40.0349 441.328 39.6667Z" fill="#D2D6DB"/>
<path d="M441.5 37.6667C441.5 37.9429 441.724 38.1667 442 38.1667C442.276 38.1667 442.5 37.9429 442.5 37.6667V35.0001C442.5 34.7239 442.276 34.5001 442 34.5001C441.724 34.5001 441.5 34.7239 441.5 35.0001V37.6667Z" fill="#D2D6DB"/>
<path fill-rule="evenodd" clip-rule="evenodd" d="M440.908 30.3434C441.618 30.1079 442.382 30.1079 443.092 30.3434C443.799 30.578 444.354 31.1344 444.911 31.916C445.467 32.6951 446.08 33.7815 446.872 35.1817L446.903 35.2367C447.694 36.6372 448.308 37.7235 448.691 38.6044C449.075 39.4896 449.267 40.2539 449.114 40.9882C448.96 41.7275 448.581 42.3997 448.028 42.9079C447.477 43.4148 446.727 43.6286 445.782 43.7313C444.843 43.8334 443.614 43.8334 442.032 43.8334H441.967C440.386 43.8334 439.157 43.8334 438.218 43.7313C437.273 43.6286 436.522 43.4148 435.971 42.9079C435.419 42.3997 435.04 41.7275 434.886 40.9882C434.733 40.2539 434.925 39.4896 435.309 38.6044C435.692 37.7235 436.305 36.6372 437.097 35.2367L437.128 35.1817C437.919 33.7815 438.533 32.6951 439.089 31.916C439.646 31.1344 440.201 30.578 440.908 30.3434ZM442.777 31.2925C442.272 31.1248 441.728 31.1248 441.223 31.2925C440.826 31.4244 440.426 31.7631 439.903 32.4967C439.382 33.2277 438.793 34.2677 437.983 35.7014C437.173 37.1349 436.585 38.1757 436.226 39.0027C435.866 39.8312 435.776 40.3587 435.865 40.7845C435.977 41.3215 436.252 41.8069 436.648 42.1719C436.96 42.4585 437.446 42.6415 438.326 42.7372C439.205 42.8327 440.379 42.8334 442 42.8334C443.621 42.8334 444.795 42.8327 445.674 42.7372C446.554 42.6415 447.04 42.4585 447.351 42.1719C447.748 41.8069 448.023 41.3215 448.135 40.7845C448.224 40.3587 448.133 39.8312 447.774 39.0027C447.414 38.1757 446.827 37.1349 446.017 35.7014C445.207 34.2677 444.618 33.2277 444.097 32.4967C443.574 31.7631 443.174 31.4244 442.777 31.2925Z" fill="#D2D6DB"/>
<path d="M323.328 275.667C323.328 275.299 323.627 275 323.995 275H324.001C324.369 275 324.667 275.299 324.667 275.667C324.667 276.035 324.369 276.333 324.001 276.333H323.995C323.627 276.333 323.328 276.035 323.328 275.667Z" fill="#D2D6DB"/>
<path d="M323.5 273.667C323.5 273.943 323.724 274.167 324 274.167C324.276 274.167 324.5 273.943 324.5 273.667V271C324.5 270.724 324.276 270.5 324 270.5C323.724 270.5 323.5 270.724 323.5 271V273.667Z" fill="#D2D6DB"/>
<path fill-rule="evenodd" clip-rule="evenodd" d="M322.908 266.343C323.618 266.108 324.382 266.108 325.092 266.343C325.799 266.578 326.354 267.134 326.911 267.916C327.467 268.695 328.08 269.781 328.872 271.182L328.903 271.237C329.694 272.637 330.308 273.723 330.691 274.604C331.075 275.49 331.267 276.254 331.114 276.988C330.96 277.727 330.581 278.4 330.028 278.908C329.477 279.415 328.727 279.629 327.782 279.731C326.843 279.833 325.614 279.833 324.032 279.833H323.967C322.386 279.833 321.157 279.833 320.218 279.731C319.273 279.629 318.522 279.415 317.971 278.908C317.419 278.4 317.04 277.727 316.886 276.988C316.733 276.254 316.925 275.49 317.309 274.604C317.692 273.723 318.305 272.637 319.097 271.237L319.128 271.182C319.919 269.781 320.533 268.695 321.089 267.916C321.646 267.134 322.201 266.578 322.908 266.343ZM324.777 267.292C324.272 267.125 323.728 267.125 323.223 267.292C322.826 267.424 322.426 267.763 321.903 268.497C321.382 269.228 320.793 270.268 319.983 271.701C319.173 273.135 318.585 274.176 318.226 275.003C317.866 275.831 317.776 276.359 317.865 276.784C317.977 277.322 318.252 277.807 318.648 278.172C318.96 278.459 319.446 278.641 320.326 278.737C321.205 278.833 322.379 278.833 324 278.833C325.621 278.833 326.795 278.833 327.674 278.737C328.554 278.641 329.04 278.459 329.351 278.172C329.748 277.807 330.023 277.322 330.135 276.784C330.224 276.359 330.133 275.831 329.774 275.003C329.414 274.176 328.827 273.135 328.017 271.701C327.207 270.268 326.618 269.228 326.097 268.497C325.574 267.763 325.174 267.424 324.777 267.292Z" fill="#D2D6DB"/>
<path fill-rule="evenodd" clip-rule="evenodd" d="M85.4702 282.47C85.7631 282.177 86.2379 282.177 86.5308 282.47L93.0005 288.939L99.4702 282.47C99.7631 282.177 100.238 282.177 100.531 282.47C100.824 282.763 100.824 283.237 100.531 283.53L94.0611 290L100.531 296.47C100.824 296.763 100.824 297.237 100.531 297.53C100.238 297.823 99.7631 297.823 99.4702 297.53L93.0005 291.061L86.5308 297.53C86.2379 297.823 85.7631 297.823 85.4702 297.53C85.1773 297.237 85.1773 296.763 85.4702 296.47L91.9398 290L85.4702 283.53C85.1773 283.237 85.1773 282.763 85.4702 282.47Z" fill="#9DA4AE"/>
<path fill-rule="evenodd" clip-rule="evenodd" d="M18.9802 133.98C19.1754 133.784 19.492 133.784 19.6873 133.98L24.0004 138.293L28.3135 133.98C28.5088 133.784 28.8254 133.784 29.0206 133.98C29.2159 134.175 29.2159 134.492 29.0206 134.687L24.7075 139L29.0206 143.313C29.2159 143.508 29.2159 143.825 29.0206 144.02C28.8254 144.215 28.5088 144.215 28.3135 144.02L24.0004 139.707L19.6873 144.02C19.492 144.215 19.1754 144.215 18.9802 144.02C18.7849 143.825 18.7849 143.508 18.9802 143.313L23.2933 139L18.9802 134.687C18.7849 134.492 18.7849 134.175 18.9802 133.98Z" fill="#D2D6DB"/>
<path d="M214.53 37.4697C214.237 37.1768 213.763 37.1768 213.47 37.4696C213.177 37.7625 213.177 38.2374 213.47 38.5303L215.939 41.0003L213.47 43.4697C213.177 43.7626 213.177 44.2375 213.47 44.5304C213.763 44.8232 214.238 44.8232 214.531 44.5303L217 42.061L219.469 44.5303C219.762 44.8232 220.237 44.8232 220.53 44.5304C220.823 44.2375 220.823 43.7626 220.53 43.4697L218.061 41.0003L220.53 38.5303C220.823 38.2374 220.823 37.7625 220.53 37.4696C220.237 37.1768 219.763 37.1768 219.47 37.4697L217 39.9396L214.53 37.4697Z" fill="#9DA4AE"/>
<path fill-rule="evenodd" clip-rule="evenodd" d="M217 51.75C211.063 51.75 206.25 46.9371 206.25 41C206.25 35.0629 211.063 30.25 217 30.25C222.937 30.25 227.75 35.0629 227.75 41C227.75 46.9371 222.937 51.75 217 51.75ZM207.75 41C207.75 46.1086 211.891 50.25 217 50.25C222.109 50.25 226.25 46.1086 226.25 41C226.25 35.8914 222.109 31.75 217 31.75C211.891 31.75 207.75 35.8914 207.75 41Z" fill="#9DA4AE"/>
<path d="M151.353 313.646C151.158 313.451 150.842 313.451 150.646 313.646C150.451 313.842 150.451 314.158 150.646 314.353L152.293 316L150.647 317.646C150.452 317.842 150.452 318.158 150.647 318.353C150.842 318.549 151.159 318.549 151.354 318.353L153 316.707L154.646 318.353C154.841 318.549 155.158 318.549 155.353 318.353C155.548 318.158 155.548 317.842 155.353 317.646L153.707 316L155.353 314.353C155.549 314.158 155.549 313.842 155.353 313.646C155.158 313.451 154.842 313.451 154.646 313.646L153 315.293L151.353 313.646Z" fill="#D2D6DB"/>
<path fill-rule="evenodd" clip-rule="evenodd" d="M153 323.167C149.042 323.167 145.833 319.958 145.833 316C145.833 312.042 149.042 308.833 153 308.833C156.958 308.833 160.167 312.042 160.167 316C160.167 319.958 156.958 323.167 153 323.167ZM146.833 316C146.833 319.406 149.594 322.167 153 322.167C156.406 322.167 159.167 319.406 159.167 316C159.167 312.594 156.406 309.833 153 309.833C149.594 309.833 146.833 312.594 146.833 316Z" fill="#D2D6DB"/>
<path d="M449.53 126.53C449.823 126.237 449.823 125.763 449.53 125.47C449.237 125.177 448.763 125.177 448.47 125.47L446 127.939L443.53 125.47C443.237 125.177 442.763 125.177 442.47 125.47C442.177 125.763 442.177 126.238 442.47 126.531L444.939 129L442.47 131.469C442.177 131.762 442.177 132.237 442.47 132.53C442.763 132.823 443.237 132.823 443.53 132.53L446 130.061L448.47 132.53C448.763 132.823 449.237 132.823 449.53 132.53C449.823 132.237 449.823 131.763 449.53 131.47L447.06 129L449.53 126.53Z" fill="#9DA4AE"/>
<path fill-rule="evenodd" clip-rule="evenodd" d="M446.057 118.75H445.943C443.752 118.75 442.031 118.75 440.688 118.931C439.311 119.116 438.219 119.503 437.361 120.361C436.503 121.219 436.116 122.311 435.931 123.688C435.75 125.031 435.75 126.752 435.75 128.943V129.057C435.75 131.248 435.75 132.969 435.931 134.312C436.116 135.689 436.503 136.781 437.361 137.639C438.219 138.497 439.311 138.884 440.688 139.069C442.031 139.25 443.752 139.25 445.943 139.25H446.057C448.248 139.25 449.969 139.25 451.312 139.069C452.689 138.884 453.781 138.497 454.639 137.639C455.497 136.781 455.884 135.689 456.069 134.312C456.25 132.969 456.25 131.248 456.25 129.057V128.943C456.25 126.752 456.25 125.031 456.069 123.688C455.884 122.311 455.497 121.219 454.639 120.361C453.781 119.503 452.689 119.116 451.312 118.931C449.969 118.75 448.248 118.75 446.057 118.75ZM438.422 121.422C438.955 120.889 439.678 120.58 440.888 120.417C442.12 120.252 443.74 120.25 446 120.25C448.26 120.25 449.88 120.252 451.112 120.417C452.322 120.58 453.045 120.889 453.578 121.422C454.111 121.955 454.42 122.678 454.583 123.888C454.748 125.12 454.75 126.74 454.75 129C454.75 131.26 454.748 132.88 454.583 134.112C454.42 135.322 454.111 136.045 453.578 136.578C453.045 137.111 452.322 137.42 451.112 137.583C449.88 137.748 448.26 137.75 446 137.75C443.74 137.75 442.12 137.748 440.888 137.583C439.678 137.42 438.955 137.111 438.422 136.578C437.889 136.045 437.58 135.322 437.417 134.112C437.252 132.88 437.25 131.26 437.25 129C437.25 126.74 437.252 125.12 437.417 123.888C437.58 122.678 437.889 121.955 438.422 121.422Z" fill="#9DA4AE"/>
<path d="M410.03 278.53C410.323 278.237 410.323 277.763 410.03 277.47C409.737 277.177 409.263 277.177 408.97 277.47L406.5 279.939L404.03 277.47C403.737 277.177 403.263 277.177 402.97 277.47C402.677 277.763 402.677 278.238 402.97 278.531L405.439 281L402.97 283.469C402.677 283.762 402.677 284.237 402.97 284.53C403.263 284.823 403.737 284.823 404.03 284.53L406.5 282.061L408.97 284.53C409.263 284.823 409.737 284.823 410.03 284.53C410.323 284.237 410.323 283.763 410.03 283.47L407.56 281L410.03 278.53Z" fill="#9DA4AE"/>
<path fill-rule="evenodd" clip-rule="evenodd" d="M406.557 270.75H406.443C404.252 270.75 402.531 270.75 401.188 270.931C399.811 271.116 398.719 271.503 397.861 272.361C397.003 273.219 396.616 274.311 396.431 275.688C396.25 277.031 396.25 278.752 396.25 280.943V281.057C396.25 283.248 396.25 284.969 396.431 286.312C396.616 287.689 397.003 288.781 397.861 289.639C398.719 290.497 399.811 290.884 401.188 291.069C402.531 291.25 404.252 291.25 406.443 291.25H406.557C408.748 291.25 410.469 291.25 411.812 291.069C413.189 290.884 414.281 290.497 415.139 289.639C415.997 288.781 416.384 287.689 416.569 286.312C416.75 284.969 416.75 283.248 416.75 281.057V280.943C416.75 278.752 416.75 277.031 416.569 275.688C416.384 274.311 415.997 273.219 415.139 272.361C414.281 271.503 413.189 271.116 411.812 270.931C410.469 270.75 408.748 270.75 406.557 270.75ZM398.922 273.422C399.455 272.889 400.178 272.58 401.388 272.417C402.62 272.252 404.24 272.25 406.5 272.25C408.76 272.25 410.38 272.252 411.612 272.417C412.822 272.58 413.545 272.889 414.078 273.422C414.611 273.955 414.92 274.678 415.083 275.888C415.248 277.12 415.25 278.74 415.25 281C415.25 283.26 415.248 284.88 415.083 286.112C414.92 287.322 414.611 288.045 414.078 288.578C413.545 289.111 412.822 289.42 411.612 289.583C410.38 289.748 408.76 289.75 406.5 289.75C404.24 289.75 402.62 289.748 401.388 289.583C400.178 289.42 399.455 289.111 398.922 288.578C398.389 288.045 398.08 287.322 397.917 286.112C397.752 284.88 397.75 283.26 397.75 281C397.75 278.74 397.752 277.12 397.917 275.888C398.08 274.678 398.389 273.955 398.922 273.422Z" fill="#9DA4AE"/>
<path d="M285.533 13.8334C284.773 13.8334 284.2 13.2534 283.973 13.0268C283.667 12.7201 282.733 11.7934 283.407 10.6334C283.52 10.4334 283.68 10.2734 283.973 9.98008L285.14 8.81341C285.52 8.43341 285.82 8.13343 285.82 8.0001C285.82 7.86677 285.52 7.56679 285.14 7.18679L283.967 6.01345C283.673 5.72011 283.513 5.56009 283.4 5.36009C282.733 4.20009 283.66 3.27344 283.967 2.96678C284.273 2.66011 285.2 1.72675 286.36 2.40008C286.56 2.51342 286.72 2.67344 287.013 2.96678L288.18 4.13344C288.56 4.51344 288.86 4.81341 288.993 4.81341C289.127 4.81341 289.427 4.51344 289.807 4.13344L290.973 2.96678C291.267 2.67344 291.427 2.51342 291.627 2.40008C292.78 1.73342 293.713 2.66011 294.02 2.96678C294.327 3.27344 295.26 4.20009 294.587 5.36009C294.473 5.56009 294.313 5.72011 294.02 6.01345L292.853 7.18011C292.473 7.56011 292.173 7.86009 292.173 7.99343C292.173 8.12676 292.473 8.42678 292.853 8.80678L294.02 9.97345C294.313 10.2668 294.473 10.4268 294.587 10.6268C295.253 11.7868 294.327 12.7135 294.02 13.0201C293.713 13.3268 292.787 14.2601 291.627 13.5868C291.427 13.4734 291.267 13.3135 290.973 13.0201L289.807 11.8535C289.427 11.4735 289.127 11.1734 288.993 11.1734C288.86 11.1734 288.56 11.4735 288.18 11.8535L287.013 13.0201C286.72 13.3135 286.56 13.4734 286.36 13.5868C286.067 13.7534 285.787 13.8201 285.533 13.8201V13.8334ZM285.533 3.16677C285.313 3.16677 285.053 3.30011 284.68 3.67344C284.1 4.25344 284.093 4.55342 284.267 4.86009C284.313 4.94675 284.453 5.08012 284.673 5.30678L285.84 6.47345C286.447 7.08012 286.813 7.44676 286.813 7.99343C286.813 8.54009 286.447 8.90678 285.84 9.51345L284.673 10.6801C284.447 10.9068 284.313 11.0401 284.26 11.1268C284.087 11.4334 284.093 11.7334 284.667 12.3134C285.247 12.8934 285.547 12.9001 285.853 12.7268C285.94 12.6801 286.073 12.5401 286.3 12.3201L287.467 11.1534C288.073 10.5468 288.44 10.1801 288.987 10.1801C289.533 10.1801 289.9 10.5468 290.507 11.1534L291.673 12.3201C291.9 12.5468 292.033 12.6801 292.12 12.7334C292.427 12.9068 292.727 12.9001 293.307 12.3268C293.887 11.7468 293.893 11.4468 293.72 11.1401C293.673 11.0534 293.533 10.9201 293.313 10.6934L292.147 9.52675C291.54 8.92009 291.173 8.55344 291.173 8.00677C291.173 7.46011 291.54 7.09342 292.147 6.48675L293.32 5.31341C293.547 5.08675 293.68 4.95343 293.733 4.86676C293.907 4.56009 293.9 4.26011 293.327 3.68011C292.747 3.10011 292.447 3.09345 292.14 3.26678C292.053 3.31345 291.92 3.45344 291.693 3.67344L290.527 4.84011C289.92 5.44677 289.553 5.81341 289.007 5.81341C288.46 5.81341 288.093 5.44677 287.487 4.84011L286.32 3.67344C286.093 3.44677 285.96 3.31344 285.873 3.26011C285.767 3.20011 285.66 3.16009 285.54 3.16009L285.533 3.16677Z" fill="#D2D6DB"/>
<path d="M63.7999 87.7503C62.6599 87.7503 61.8 86.8803 61.46 86.5403C61 86.0803 59.5999 84.6903 60.6099 82.9503C60.7799 82.6503 61.02 82.4102 61.46 81.9702L63.21 80.2202C63.78 79.6502 64.2299 79.2003 64.2299 79.0003C64.2299 78.8003 63.78 78.3503 63.21 77.7803L61.4499 76.0203C61.0099 75.5803 60.7699 75.3403 60.5999 75.0403C59.5999 73.3003 60.9899 71.9103 61.4499 71.4503C61.9099 70.9903 63.2999 69.5902 65.0399 70.6002C65.3399 70.7702 65.58 71.0103 66.02 71.4503L67.77 73.2003C68.34 73.7703 68.7899 74.2202 68.9899 74.2202C69.1899 74.2202 69.64 73.7703 70.21 73.2003L71.96 71.4503C72.4 71.0103 72.6399 70.7702 72.9399 70.6002C74.6699 69.6002 76.07 70.9903 76.53 71.4503C76.99 71.9103 78.3899 73.3003 77.3799 75.0403C77.2099 75.3403 76.97 75.5803 76.53 76.0203L74.78 77.7703C74.21 78.3403 73.7599 78.7903 73.7599 78.9903C73.7599 79.1903 74.21 79.6403 74.78 80.2103L76.53 81.9603C76.97 82.4003 77.2099 82.6403 77.3799 82.9403C78.3799 84.6803 76.99 86.0703 76.53 86.5303C76.07 86.9903 74.6799 88.3903 72.9399 87.3803C72.6399 87.2103 72.4 86.9703 71.96 86.5303L70.21 84.7803C69.64 84.2103 69.1899 83.7603 68.9899 83.7603C68.7899 83.7603 68.34 84.2103 67.77 84.7803L66.02 86.5303C65.58 86.9703 65.3399 87.2103 65.0399 87.3803C64.5999 87.6303 64.1799 87.7303 63.7999 87.7303V87.7503ZM63.7999 71.7503C63.4699 71.7503 63.08 71.9503 62.52 72.5103C61.65 73.3803 61.64 73.8303 61.9 74.2903C61.97 74.4203 62.1799 74.6203 62.5099 74.9603L64.2599 76.7103C65.1699 77.6203 65.7199 78.1703 65.7199 78.9903C65.7199 79.8103 65.1699 80.3603 64.2599 81.2703L62.5099 83.0203C62.1699 83.3603 61.97 83.5603 61.89 83.6903C61.63 84.1503 61.6399 84.6002 62.4999 85.4702C63.3699 86.3402 63.82 86.3503 64.28 86.0903C64.41 86.0203 64.6099 85.8103 64.9499 85.4803L66.6999 83.7303C67.6099 82.8203 68.1599 82.2703 68.9799 82.2703C69.7999 82.2703 70.3499 82.8203 71.2599 83.7303L73.0099 85.4803C73.3499 85.8203 73.5499 86.0202 73.6799 86.1002C74.1399 86.3602 74.59 86.3503 75.46 85.4903C76.33 84.6203 76.34 84.1703 76.08 83.7103C76.01 83.5803 75.7999 83.3803 75.4699 83.0403L73.7199 81.2903C72.8099 80.3803 72.2599 79.8303 72.2599 79.0103C72.2599 78.1903 72.8099 77.6403 73.7199 76.7303L75.4799 74.9702C75.8199 74.6302 76.0199 74.4303 76.0999 74.3003C76.3599 73.8403 76.3499 73.3903 75.4899 72.5203C74.6199 71.6503 74.17 71.6403 73.71 71.9003C73.58 71.9703 73.3799 72.1803 73.0399 72.5103L71.2899 74.2603C70.3799 75.1703 69.8299 75.7202 69.0099 75.7202C68.1899 75.7202 67.6399 75.1703 66.7299 74.2603L64.9799 72.5103C64.6399 72.1703 64.4399 71.9703 64.3099 71.8903C64.1499 71.8003 63.9899 71.7403 63.8099 71.7403L63.7999 71.7503Z" fill="#9DA4AE"/>
<path fill-rule="evenodd" clip-rule="evenodd" d="M269 319.75C263.063 319.75 258.25 314.937 258.25 309C258.25 303.063 263.063 298.25 269 298.25C274.937 298.25 279.75 303.063 279.75 309C279.75 314.937 274.937 319.75 269 319.75ZM259.75 309C259.75 314.109 263.891 318.25 269 318.25C271.284 318.25 273.375 317.422 274.989 316.05L261.95 303.011C260.578 304.625 259.75 306.716 259.75 309ZM276.05 314.989C277.422 313.375 278.25 311.284 278.25 309C278.25 303.891 274.109 299.75 269 299.75C266.716 299.75 264.625 300.578 263.011 301.95L276.05 314.989Z" fill="#9DA4AE"/>
<path fill-rule="evenodd" clip-rule="evenodd" d="M363 47.75C357.063 47.75 352.25 42.9371 352.25 37C352.25 31.0629 357.063 26.25 363 26.25C368.937 26.25 373.75 31.0629 373.75 37C373.75 42.9371 368.937 47.75 363 47.75ZM353.75 37C353.75 42.1086 357.891 46.25 363 46.25C365.284 46.25 367.375 45.422 368.989 44.0497L355.95 31.011C354.578 32.6247 353.75 34.7157 353.75 37ZM370.05 42.989C371.422 41.3753 372.25 39.2843 372.25 37C372.25 31.8914 368.109 27.75 363 27.75C360.716 27.75 358.625 28.578 357.011 29.9503L370.05 42.989Z" fill="#9DA4AE"/>
<path fill-rule="evenodd" clip-rule="evenodd" d="M450 213.167C446.042 213.167 442.833 209.958 442.833 206C442.833 202.042 446.042 198.833 450 198.833C453.958 198.833 457.167 202.042 457.167 206C457.167 209.958 453.958 213.167 450 213.167ZM443.833 206C443.833 209.406 446.594 212.167 450 212.167C451.523 212.167 452.917 211.615 453.993 210.7L445.3 202.007C444.385 203.083 443.833 204.477 443.833 206ZM454.7 209.993C455.615 208.917 456.167 207.523 456.167 206C456.167 202.594 453.406 199.833 450 199.833C448.477 199.833 447.083 200.385 446.007 201.3L454.7 209.993Z" fill="#D2D6DB"/>
<path d="M9.03033 221.47C8.73744 221.177 8.26256 221.177 7.96967 221.47C7.67678 221.763 7.67678 222.237 7.96967 222.53L10.4393 225L7.96967 227.47C7.67678 227.763 7.67678 228.237 7.96967 228.53C8.26256 228.823 8.73744 228.823 9.03033 228.53L11.5 226.061L13.9697 228.53C14.2626 228.823 14.7374 228.823 15.0303 228.53C15.3232 228.237 15.3232 227.763 15.0303 227.47L12.5607 225L15.0303 222.53C15.3232 222.237 15.3232 221.763 15.0303 221.47C14.7374 221.177 14.2626 221.177 13.9697 221.47L11.5 223.939L9.03033 221.47Z" fill="#9DA4AE"/>
<path fill-rule="evenodd" clip-rule="evenodd" d="M1.75 225C1.75 219.615 6.11522 215.25 11.5 215.25C16.8848 215.25 21.25 219.615 21.25 225C21.25 227.422 20.3666 229.639 18.9043 231.344L23.0303 235.47C23.3232 235.763 23.3232 236.237 23.0303 236.53C22.7374 236.823 22.2626 236.823 21.9697 236.53L17.8437 232.404C16.1385 233.867 13.9224 234.75 11.5 234.75C6.11522 234.75 1.75 230.385 1.75 225ZM11.5 216.75C6.94365 216.75 3.25 220.444 3.25 225C3.25 229.556 6.94365 233.25 11.5 233.25C16.0563 233.25 19.75 229.556 19.75 225C19.75 220.444 16.0563 216.75 11.5 216.75Z" fill="#9DA4AE"/>
<path d="M110.687 25.9797C110.492 25.7844 110.175 25.7844 109.98 25.9797C109.784 26.175 109.784 26.4915 109.98 26.6868L111.626 28.3333L109.98 29.9797C109.784 30.175 109.784 30.4915 109.98 30.6868C110.175 30.8821 110.492 30.8821 110.687 30.6868L112.333 29.0404L113.98 30.6868C114.175 30.8821 114.492 30.8821 114.687 30.6868C114.882 30.4915 114.882 30.175 114.687 29.9797L113.04 28.3333L114.687 26.6868C114.882 26.4915 114.882 26.175 114.687 25.9797C114.492 25.7844 114.175 25.7844 113.98 25.9797L112.333 27.6261L110.687 25.9797Z" fill="#D2D6DB"/>
<path fill-rule="evenodd" clip-rule="evenodd" d="M105.833 28.3333C105.833 24.7434 108.743 21.8333 112.333 21.8333C115.923 21.8333 118.833 24.7434 118.833 28.3333C118.833 29.9482 118.244 31.4256 117.269 32.5624L120.02 35.313C120.215 35.5083 120.215 35.8249 120.02 36.0201C119.825 36.2154 119.508 36.2154 119.313 36.0201L116.562 33.2695C115.426 34.2443 113.948 34.8333 112.333 34.8333C108.743 34.8333 105.833 31.9231 105.833 28.3333ZM112.333 22.8333C109.296 22.8333 106.833 25.2957 106.833 28.3333C106.833 31.3708 109.296 33.8333 112.333 33.8333C115.371 33.8333 117.833 31.3708 117.833 28.3333C117.833 25.2957 115.371 22.8333 112.333 22.8333Z" fill="#D2D6DB"/>
</svg>
