<svg width="120" height="113" viewBox="0 0 120 113" fill="none" xmlns="http://www.w3.org/2000/svg">
<path d="M97.5808 62.2341C92.8804 62.2341 89.0684 58.4005 89.0684 53.6915C89.0684 48.9824 92.8804 45.1575 97.5808 45.1575C102.273 45.1575 106.093 48.9824 106.093 53.6915C106.098 58.4005 102.273 62.2341 97.5808 62.2341ZM97.5808 48.1588C94.5277 48.1588 92.0481 50.6384 92.0481 53.7001C92.0481 56.7532 94.5277 59.2414 97.5808 59.2414C100.625 59.2414 103.105 56.7532 103.105 53.7001C103.105 50.6384 100.625 48.1588 97.5808 48.1588ZM68.5117 53.4758C68.5117 58.1762 64.6867 62.0098 59.9993 62.0098C55.2989 62.0098 51.4782 58.1762 51.4782 53.4758C51.4782 48.7668 55.2989 44.9332 59.9993 44.9332C64.691 44.9375 68.5117 48.7668 68.5117 53.4758ZM54.4666 53.4758C54.4666 56.5289 56.9462 59.0171 59.9993 59.0171C63.0438 59.0171 65.5233 56.5289 65.5233 53.4758C65.5233 50.4141 63.0438 47.9346 59.9993 47.9346C56.9462 47.9346 54.4666 50.4141 54.4666 53.4758ZM22.4091 45.1618C27.1095 45.1618 30.9302 48.9954 30.9302 53.7044C30.9302 58.4134 27.1052 62.2384 22.4091 62.2384C17.7174 62.2384 13.8967 58.4134 13.8967 53.7044C13.8924 48.9911 17.7174 45.1618 22.4091 45.1618ZM22.4091 59.2327C25.4622 59.2327 27.9418 56.7532 27.9418 53.6915C27.9418 50.6384 25.4622 48.1502 22.4091 48.1502C19.3647 48.1502 16.8851 50.6384 16.8851 53.6915C16.8851 56.7532 19.3647 59.2327 22.4091 59.2327ZM0.528664 83.1271L9.26533 68.2281C9.28258 68.2023 9.29984 68.1764 9.30846 68.1462C10.8911 65.8003 12.6677 64.8085 15.0567 64.9077H28.1272L37.4719 55.2309C37.6962 54.6488 38.0627 54.1141 38.5457 53.6915C40.0938 52.3288 42.4656 52.4668 43.9447 53.9976L54.2683 64.6964H65.7087L76.041 53.9976C77.5201 52.4668 79.8918 52.3331 81.4399 53.6915C81.9229 54.1141 82.2895 54.6488 82.5051 55.2309L91.8627 64.9163H104.933C107.322 64.8085 109.095 65.8133 110.682 68.1462C110.699 68.1721 110.716 68.198 110.725 68.2281L119.461 83.1271C119.987 84.024 120.134 85.0633 119.875 86.0637C119.617 87.0642 118.978 87.9094 118.094 88.4355C117.495 88.7848 116.839 88.953 116.18 88.953C114.899 88.953 113.618 88.2975 112.851 87.1159L107.085 78.3232V106.81C107.085 109.846 104.614 112.317 101.587 112.317C100.013 112.317 98.5899 111.644 97.5851 110.579C96.5847 111.653 95.1573 112.317 93.5833 112.317C90.5475 112.317 88.0852 109.846 88.0852 106.81V86.5424C88.0852 86.5338 88.0852 86.5338 88.0852 86.5338V73.4719L78.693 62.7214L69.5079 73.2606V106.59C69.5079 109.635 67.0369 112.106 64.0097 112.106C62.4271 112.106 60.9997 111.433 59.9993 110.359C58.9988 111.433 57.5715 112.106 55.9975 112.106C52.9703 112.106 50.4993 109.626 50.4993 106.59V73.2519L41.3056 62.7214L31.922 73.4719V106.801C31.922 109.846 29.4511 112.317 26.4239 112.317C24.8413 112.317 23.4268 111.644 22.4221 110.579C21.4216 111.644 19.9856 112.317 18.4117 112.317C15.3844 112.317 12.9135 109.846 12.9135 106.801V78.3318L7.15663 87.1159C6.37611 88.2975 5.10828 88.953 3.81892 88.953C3.16345 88.953 2.50368 88.7848 1.90428 88.4355C1.01595 87.918 0.390663 87.0728 0.131927 86.0723C-0.135437 85.0633 0.00688171 84.024 0.528664 83.1271ZM79.4735 55.9468C79.0725 55.5889 78.5162 55.7484 78.1928 56.0805L67.4207 67.2363C67.1534 67.5123 66.7653 67.6934 66.347 67.6934H53.643C53.2247 67.6934 52.8452 67.5123 52.5692 67.2363L41.7972 56.0805C41.4737 55.7484 40.9218 55.5975 40.5164 55.9468C40.3396 56.0977 40.2404 56.3133 40.2232 56.5462C40.2059 56.7877 40.2835 57.0119 40.4388 57.1801L53.1169 71.6995C53.3411 71.9669 53.4834 72.3076 53.4834 72.6827V84.8132H66.5108V72.6827C66.5108 72.3076 66.6531 71.9669 66.886 71.6995L79.5641 57.1801C79.715 57.0119 79.7883 56.7877 79.7711 56.5462C79.7495 56.3176 79.6503 56.102 79.4735 55.9468ZM101.583 109.333C102.971 109.333 104.088 108.203 104.088 106.81V88.0344H99.0642V106.806C99.0685 108.203 100.198 109.333 101.583 109.333ZM93.5704 109.333C94.9589 109.333 96.0844 108.203 96.0844 106.81V88.0344H91.0649V106.806C91.0649 108.203 92.1948 109.333 93.5704 109.333ZM90.6984 71.9281C90.9226 72.1954 91.0649 72.5361 91.0649 72.9113V85.0331H104.092V73.3209C104.092 72.4973 104.765 71.8246 105.589 71.8246C106.115 71.8246 106.572 72.0919 106.844 72.4973L115.343 85.4729C115.593 85.8567 116.115 86.1198 116.576 85.8481C116.775 85.7317 116.917 85.5463 116.969 85.3091C117.029 85.0762 117.003 84.8434 116.878 84.645L108.167 69.7849C107.038 68.129 106.154 67.8444 105.007 67.9047C104.981 67.9047 104.955 67.9047 104.925 67.9047H91.2202C90.8019 67.9047 90.4224 67.7365 90.1464 67.4476L81.9445 58.9611C81.9014 59.0214 81.8453 59.0861 81.7935 59.1508L80.6637 60.4488L90.6984 71.9281ZM64.0011 109.109C65.381 109.109 66.5065 107.979 66.5065 106.594V87.8102H61.4827V106.586C61.487 107.97 62.6125 109.109 64.0011 109.109ZM55.9889 109.109C57.3774 109.109 58.5029 107.979 58.5029 106.594V87.8102H53.4791V106.586C53.4834 107.97 54.6089 109.109 55.9889 109.109ZM26.4196 109.333C27.7995 109.333 28.925 108.203 28.925 106.81V88.0344H23.9012V106.806C23.9012 108.203 25.031 109.333 26.4196 109.333ZM18.4074 109.333C19.7959 109.333 20.9128 108.203 20.9128 106.81V88.0344H15.889V106.806C15.8976 108.203 17.0188 109.333 18.4074 109.333ZM3.01684 85.3134C3.06859 85.5463 3.2152 85.736 3.40926 85.8524C3.87498 86.1198 4.39246 85.861 4.6555 85.4773L13.1593 72.5059C13.4181 72.1049 13.8838 71.8332 14.4056 71.8332C15.2292 71.8332 15.9019 72.5059 15.9019 73.3296V85.0417H28.925V72.9199C28.925 72.5447 29.0673 72.2041 29.2915 71.9367L39.3176 60.4574L38.1878 59.168C38.136 59.1034 38.08 59.043 38.0368 58.9783L29.8349 67.4649C29.5589 67.7409 29.1794 67.922 28.7611 67.922H15.0567C15.0308 67.922 15.005 67.9133 14.9748 67.9133C13.8277 67.853 12.9437 68.1462 11.8139 69.8021L3.10309 84.6536C2.99097 84.8477 2.95216 85.0805 3.01684 85.3134ZM77.3303 14.6186L68.5937 21.5916L71.5734 32.3809C71.7373 32.9803 71.5131 33.6271 71.0085 33.9937C70.5083 34.3602 69.827 34.3775 69.3095 34.0282L59.9993 27.8616L50.6805 34.0368C50.4303 34.2007 50.1414 34.2783 49.8568 34.2783C49.5506 34.2783 49.2402 34.1877 48.9814 33.9937C48.4812 33.6271 48.257 32.9803 48.4165 32.3809L51.3877 21.5916L42.6596 14.6186C42.1766 14.2348 41.9783 13.5794 42.168 12.98C42.3664 12.3892 42.9011 11.9795 43.5307 11.9493L54.6866 11.4491L58.5935 0.974575C58.8134 0.392417 59.3568 0.00862456 59.9691 0H59.9993H60.0295C60.6375 0.0129368 61.1765 0.392417 61.3965 0.974575L65.3163 11.4491L76.4636 11.9493C77.0889 11.9752 77.6279 12.3892 77.8263 12.98C78.0117 13.5794 77.8133 14.2348 77.3303 14.6186ZM64.1908 14.403C63.6 14.3771 63.0696 13.989 62.867 13.4284L60.0036 5.76552L57.1316 13.4284C56.9246 13.9933 56.3985 14.3771 55.8078 14.403L47.6446 14.7609L54.0354 19.8624C54.5011 20.2375 54.6995 20.8585 54.5356 21.4363L52.3579 29.3235L59.18 24.8129C59.4214 24.6533 59.7147 24.5627 60.0036 24.5627C60.2882 24.5627 60.5771 24.6533 60.8272 24.8129L67.6406 29.3235L65.4629 21.4363C65.3034 20.8542 65.4974 20.2375 65.9632 19.8624L72.354 14.7609L64.1908 14.403ZM41.7109 23.0707L35.1476 28.3187L37.3857 36.4215C37.5539 37.0295 37.334 37.6678 36.8208 38.0343C36.3206 38.4008 35.6392 38.4181 35.1217 38.0688L28.1316 33.4417L21.1327 38.0688C20.8826 38.237 20.5937 38.3189 20.3091 38.3189C19.9943 38.3189 19.6924 38.2197 19.4337 38.0343C18.9335 37.6678 18.7092 37.0209 18.8688 36.4215L21.1068 28.3101L14.5436 23.0707C14.052 22.6783 13.8622 22.0314 14.052 21.432C14.2503 20.8412 14.785 20.4273 15.406 20.4014L23.7848 20.0262L26.7301 12.1477C26.9543 11.5655 27.5106 11.1817 28.1359 11.1817C28.7525 11.1817 29.3174 11.5655 29.533 12.1477L32.4783 20.0262L40.8571 20.4014C41.4824 20.4273 42.0214 20.8412 42.2111 21.432C42.3879 22.0314 42.1939 22.6869 41.7109 23.0707ZM31.3528 22.9801C30.7534 22.9543 30.223 22.5662 30.0203 22.0056L28.1229 16.9473L26.2341 22.0056C26.0272 22.5705 25.5011 22.9543 24.9017 22.9801L19.5199 23.2216L23.7373 26.5895C24.2031 26.9647 24.4014 27.5727 24.2376 28.1549L22.8059 33.3641L27.2993 30.3843C27.5494 30.2248 27.8383 30.1428 28.1229 30.1428C28.4075 30.1428 28.6965 30.2248 28.9466 30.3843L33.4486 33.3641L32.0169 28.1549C31.8574 27.5727 32.0514 26.9647 32.5171 26.5895L36.7346 23.2216L31.3528 22.9801ZM105.451 23.0707L98.896 28.3187L101.125 36.4215C101.294 37.0295 101.069 37.6678 100.569 38.0343C100.302 38.224 99.9957 38.3189 99.6852 38.3189C99.4006 38.3189 99.1117 38.237 98.8615 38.0774L91.8713 33.4417L84.8682 38.0774C84.3507 38.4181 83.6694 38.4095 83.1692 38.0429C82.6689 37.6764 82.4447 37.0295 82.6043 36.4301L84.8423 28.3187L78.279 23.0707C77.7961 22.6869 77.5977 22.0314 77.7874 21.4406C77.9858 20.8412 78.5205 20.4273 79.1501 20.4014L87.5289 20.0348L90.4655 12.1563C90.6898 11.5742 91.2461 11.1817 91.8713 11.1817C92.488 11.1817 93.0443 11.5742 93.2685 12.1563L96.2138 20.0348L104.593 20.4014C105.218 20.4273 105.757 20.8412 105.942 21.4406C106.141 22.0314 105.942 22.6869 105.451 23.0707ZM95.0926 22.9801C94.4932 22.9543 93.9628 22.5662 93.7601 22.0056L91.8713 16.9473L89.9739 22.0056C89.767 22.5705 89.2409 22.9543 88.6501 22.9801L83.2597 23.2216L87.4771 26.5895C87.9429 26.9647 88.1498 27.5727 87.986 28.1549L86.5457 33.3641L91.0477 30.3843C91.5479 30.0523 92.1948 30.0523 92.695 30.3843L97.1884 33.3684L95.7567 28.1592C95.5972 27.577 95.7912 26.969 96.2656 26.5938L100.483 23.2259L95.0926 22.9801Z" fill="#074D31"/>
</svg>
