<svg width="16" height="18" viewBox="0 0 16 18" fill="none" xmlns="http://www.w3.org/2000/svg">
<path d="M7.93929 17.1248C7.89012 17.1248 7.84093 17.1189 7.79093 17.1073C7.45593 17.0256 7.25012 16.6873 7.33179 16.3523C7.41595 16.0065 7.81841 14.8214 9.45508 14.1106C9.47424 14.1023 9.49424 14.0947 9.51424 14.0881C9.53841 14.0772 9.56674 14.0647 9.60091 14.0531C10.2976 13.7964 11.1601 13.3598 11.4876 13.0964C11.5035 13.084 11.5201 13.0715 11.5376 13.0606L13.8668 11.5406C13.9076 11.5031 13.9068 11.4848 13.9059 11.4781C13.9026 11.4181 13.8351 11.2923 13.6926 11.1998C12.6468 10.504 11.6801 10.9081 10.2118 11.6564C10.1109 11.7081 10.0101 11.7597 9.90926 11.8097C9.11509 12.2031 8.13679 12.1448 7.35262 11.6581C6.60845 11.1965 6.16431 10.4272 6.16431 9.60141C6.16431 8.77558 6.60847 8.00062 7.41431 7.45395C8.54431 6.68812 10.2418 6.44563 11.3809 6.88397L13.1826 7.40976C13.3509 7.45976 13.5251 7.44063 13.6742 7.35646C13.8192 7.27479 13.9218 7.14313 13.9635 6.9848C14.0418 6.6923 13.8784 6.38976 13.5842 6.27809L11.6201 5.54559C11.6201 5.54559 11.6168 5.5439 11.6143 5.54306L10.8726 5.31561C10.2626 5.13311 9.82176 5.06556 9.49259 5.10556C8.93676 5.17473 7.45014 5.83144 6.64347 6.22894C6.33431 6.38144 5.9593 6.25476 5.8068 5.94476C5.6543 5.63559 5.7809 5.26059 6.0909 5.10809C6.3234 4.99309 8.39257 3.98309 9.3409 3.86476C9.84923 3.80309 10.4509 3.88481 11.2359 4.11981L11.9943 4.35231C12.0026 4.35481 12.011 4.35728 12.0193 4.36061C12.026 4.36311 12.0335 4.3656 12.0401 4.3681L12.0518 4.37225C12.2043 4.42725 12.3676 4.41975 12.5126 4.35141C12.6643 4.28058 12.7776 4.1523 12.8326 3.99147C12.9401 3.6823 12.7876 3.34562 12.4851 3.22145L10.9026 2.56723L10.7676 2.51727C10.3201 2.35227 10.0734 2.26223 9.85091 2.20973C9.57424 2.1464 9.26763 2.11725 8.94263 2.12558L8.91927 2.12729C8.8376 2.13229 8.7918 2.13563 8.61263 2.1723C8.60596 2.17396 8.59928 2.1748 8.59261 2.17563C8.41511 2.20563 8.31591 2.23892 8.09757 2.31308L7.66927 2.45892C6.24344 2.94392 5.65264 3.14476 5.03931 3.59059C3.41347 4.77642 2.42759 6.1264 2.17342 6.9389C1.90259 7.80556 1.90259 8.87058 1.90259 10.9939L1.90259 16.5023C1.90259 16.8473 1.62259 17.1273 1.27759 17.1273C0.932588 17.1273 0.652588 16.8473 0.652588 16.5023L0.652588 10.9939C0.652588 8.74474 0.652562 7.61559 0.980062 6.56642C1.4484 5.07309 3.00347 3.52891 4.30347 2.58058C5.0718 2.02308 5.8051 1.77313 7.26676 1.27646L7.69759 1.12974C7.93342 1.04974 8.10512 0.992238 8.37345 0.945572C8.61095 0.898072 8.70758 0.888964 8.83675 0.88063L8.87012 0.878107C8.87928 0.878107 8.88756 0.877232 8.89673 0.876398C9.33256 0.864732 9.74846 0.903951 10.1335 0.992284C10.4326 1.06228 10.7051 1.16226 11.1993 1.34393L11.3459 1.39813C11.3534 1.40146 11.3618 1.40391 11.3693 1.40724L12.9618 2.06561C13.8768 2.44144 14.3401 3.46644 14.0151 4.39894C13.9418 4.61477 13.8309 4.81144 13.6909 4.98227L14.026 5.10727C14.926 5.44811 15.4184 6.39228 15.1734 7.30478C15.0459 7.79062 14.7318 8.1964 14.2893 8.44557C13.8426 8.69724 13.3251 8.75557 12.8318 8.6089L11.0059 8.07643C10.9868 8.0706 10.9676 8.06397 10.9493 8.05731C10.1876 7.75314 8.91759 7.94728 8.11759 8.48895C7.65259 8.80395 7.41675 9.17891 7.41675 9.60141C7.41675 9.99808 7.63424 10.3606 8.01424 10.5964C8.43341 10.8565 8.94675 10.8931 9.35425 10.6914C9.45008 10.6431 9.54846 10.5931 9.64762 10.5431C10.9893 9.85973 12.6593 9.00893 14.3843 10.1564C14.8418 10.4548 15.1326 10.9265 15.1576 11.4148C15.1801 11.844 14.9951 12.2397 14.6384 12.5289C14.6218 12.5422 14.6043 12.5548 14.5868 12.5664L12.2493 14.0923C11.7468 14.4848 10.7509 14.964 10.0459 15.224L10.0343 15.2306C9.99593 15.2506 9.95595 15.2664 9.91512 15.2781C9.67679 15.3881 8.74259 15.8664 8.55176 16.6498C8.48259 16.9356 8.22673 17.1273 7.94507 17.1273L7.93929 17.1248ZM10.0068 15.2348C10.0068 15.2348 10.0068 15.2348 10.0059 15.2348C10.0059 15.2348 10.0059 15.2348 10.0068 15.2348Z" fill="white"/>
</svg>
