<svg width="28" height="28" viewBox="0 0 28 28" fill="none" xmlns="http://www.w3.org/2000/svg">
<path d="M14.8748 4.66675C14.8748 4.1835 14.4831 3.79175 13.9998 3.79175C13.5166 3.79175 13.1248 4.1835 13.1248 4.66675V13.1251H4.6665C4.18325 13.1251 3.7915 13.5168 3.7915 14.0001C3.7915 14.4833 4.18325 14.8751 4.6665 14.8751H13.1248V23.3334C13.1248 23.8167 13.5166 24.2084 13.9998 24.2084C14.4831 24.2084 14.8748 23.8167 14.8748 23.3334V14.8751H23.3332C23.8164 14.8751 24.2082 14.4833 24.2082 14.0001C24.2082 13.5168 23.8164 13.1251 23.3332 13.1251H14.8748V4.66675Z" fill="#067647"/>
</svg>
