<svg width="24" height="24" viewBox="0 0 24 24" fill="none" xmlns="http://www.w3.org/2000/svg">
<path d="M11.1384 2.52956C11.3532 2.40004 11.6594 2.25 12.0001 2.25C12.3407 2.25 12.6469 2.40003 12.8618 2.52956C13.0973 2.6715 13.3368 2.86009 13.5664 3.06296C14.0273 3.47022 14.5194 3.99892 14.9617 4.50829C15.4072 5.02139 15.817 5.5323 16.1145 5.91358C16.2636 6.10462 16.3852 6.26404 16.4699 6.3761C16.5122 6.43215 16.5453 6.47641 16.5681 6.50691L16.5942 6.54211L16.6031 6.55411L16.6038 6.5551C16.8495 6.88862 16.7783 7.35827 16.4448 7.6039C16.1113 7.84952 15.6418 7.77829 15.3962 7.44481L15.3889 7.43494L15.3653 7.40325C15.3444 7.37516 15.3132 7.33348 15.2729 7.28015C15.1924 7.17346 15.0756 7.02038 14.932 6.83642C14.6443 6.4677 14.2518 5.9786 13.829 5.4917C13.403 5.00108 12.9611 4.52978 12.5732 4.18703C12.3783 4.0149 12.2148 3.89099 12.0874 3.81418C12.0502 3.79175 12.0213 3.77654 12.0001 3.76634C11.9789 3.77654 11.95 3.79175 11.9128 3.81419C11.7854 3.891 11.6218 4.01491 11.427 4.18704C11.0391 4.52978 10.5971 5.00108 10.1711 5.4917C9.74836 5.9786 9.35583 6.46769 9.06808 6.8364C8.92452 7.02036 8.80774 7.17344 8.72716 7.28013C8.68688 7.33346 8.65569 7.37514 8.63475 7.40323L8.6112 7.43492L8.60418 7.44441C8.35853 7.77788 7.88879 7.84948 7.55529 7.60386C7.22177 7.35822 7.15052 6.88873 7.39616 6.55521L7.3989 6.55149L7.40587 6.54207L7.43203 6.50687C7.45476 6.47637 7.48789 6.43211 7.53022 6.37606C7.61487 6.264 7.73648 6.10458 7.88557 5.91355C8.18312 5.53227 8.59297 5.02137 9.03847 4.50828C9.48073 3.99891 9.97287 3.47021 10.4338 3.06296C10.6634 2.86009 10.9029 2.6715 11.1384 2.52956Z" fill="#1B8354"/>
<path fill-rule="evenodd" clip-rule="evenodd" d="M9.25 12C9.25 10.4812 10.4812 9.25 12 9.25C13.5188 9.25 14.75 10.4812 14.75 12C14.75 13.5188 13.5188 14.75 12 14.75C10.4812 14.75 9.25 13.5188 9.25 12ZM12 10.75C11.3096 10.75 10.75 11.3096 10.75 12C10.75 12.6904 11.3096 13.25 12 13.25C12.6904 13.25 13.25 12.6904 13.25 12C13.25 11.3096 12.6904 10.75 12 10.75Z" fill="#1B8354"/>
<path d="M8.60384 16.5552C8.3582 16.2218 7.88873 16.1505 7.55523 16.3962C7.2217 16.6418 7.15056 17.1114 7.39619 17.445L7.39882 17.4485L7.40579 17.4579L7.43195 17.4931C7.45468 17.5236 7.48781 17.5679 7.53014 17.624C7.61478 17.736 7.7364 17.8954 7.88548 18.0865C8.18303 18.4678 8.59287 18.9787 9.03836 19.4918C9.48061 20.0011 9.97275 20.5298 10.4337 20.9371C10.6633 21.14 10.9028 21.3285 11.1382 21.4705C11.3531 21.6 11.6593 21.7501 12 21.75C12.3406 21.75 12.6468 21.6 12.8617 21.4705C13.0971 21.3285 13.3366 21.14 13.5662 20.9371C14.0272 20.5298 14.5193 20.0011 14.9616 19.4918C15.4071 18.9787 15.8169 18.4678 16.1145 18.0865C16.2635 17.8955 16.3852 17.736 16.4698 17.624C16.5121 17.5679 16.5453 17.5237 16.568 17.4932L16.5942 17.458L16.6011 17.4486L16.6039 17.4448C16.8495 17.1113 16.7783 16.6418 16.4447 16.3962C16.1112 16.1506 15.6415 16.2222 15.3959 16.5556L15.3946 16.5574L15.3888 16.5651L15.3653 16.5968C15.3443 16.6249 15.3131 16.6666 15.2729 16.7199C15.1923 16.8266 15.0755 16.9797 14.9319 17.1636C14.6442 17.5324 14.2517 18.0215 13.8289 18.5084C13.4029 18.999 12.961 19.4703 12.573 19.813C12.3782 19.9851 12.2147 20.109 12.0872 20.1859C12.05 20.2083 12.0211 20.2235 11.9999 20.2337C11.9788 20.2235 11.9499 20.2083 11.9127 20.1859C11.7852 20.1091 11.6217 19.9851 11.4269 19.813C11.039 19.4703 10.597 18.999 10.171 18.5083C9.74827 18.0214 9.35575 17.5324 9.06801 17.1636C8.92445 16.9797 8.80768 16.8266 8.7271 16.7199C8.68682 16.6666 8.65562 16.6249 8.63469 16.5968L8.61114 16.5651L8.60541 16.5574L8.60384 16.5552Z" fill="#1B8354"/>
</svg>
