<svg width="384" height="318" viewBox="0 0 384 318" fill="none" xmlns="http://www.w3.org/2000/svg">
<rect width="384" height="318" rx="5" fill="#A6ADB1"/>
<path d="M240.813 100.238C237.875 114.924 238.081 132.213 232.387 143.267C224.271 159.035 206.519 168.749 192.116 168.749C176.785 168.749 159.805 158.288 151.844 140.793C147.051 130.307 141.666 103.459 140.327 89.906C136.513 51.1029 154.085 29.1249 192.708 28.3004C235.531 27.3986 248.207 63.2386 240.813 100.238Z" fill="#8D8D8D"/>
<path d="M142.669 87.3035C136.64 84.0055 131.152 84.5724 132.26 91.6837C133.368 98.795 134.991 117.99 138.83 121.263C142.669 124.561 146.508 125.643 148.699 121.804C150.889 117.99 142.669 87.3035 142.669 87.3035Z" fill="#8D8D8D"/>
<path d="M238.57 84.2891C244.599 80.9911 250.087 81.558 248.979 88.6693C247.872 95.7806 246.248 114.976 242.409 118.248C238.57 121.546 234.731 122.628 232.541 118.789C230.351 114.976 238.57 84.2891 238.57 84.2891Z" fill="#8D8D8D"/>
<path d="M157.947 138.165C159.596 153.521 159.055 176.53 155.757 188.047C156.298 188.588 169.851 216.467 195.771 214.895C220.094 213.426 229.189 186.398 229.189 186.398C229.189 186.398 223.624 157.592 227.54 139.814C230.992 124.148 157.947 138.165 157.947 138.165Z" fill="#8D8D8D"/>
<path d="M321.972 223.269C318.545 213.401 302.648 207.81 302.648 207.81L237.59 180.756L226.098 163.441L192.912 183.693L159.52 163.209L149.111 180.524L84.6966 205.001C84.6966 205.001 74.5965 208.866 68.1551 216.158C65.4754 219.275 54.8342 255.837 52 317.906H333C330.166 255.837 323.338 227.16 321.972 223.269Z" fill="#8D8D8D"/>
<path d="M159.649 38.0914C157.922 23.9203 166.193 17.9169 193.788 22.5289C210.433 25.3116 229.422 32.8352 231.148 23.3792C231.792 19.7978 240.166 39.2766 229.422 45.28C223.393 48.6553 165.884 41.8274 165.884 41.8274L159.649 38.0914Z" fill="#8D8D8D"/>
<path d="M161.581 36.6741C159.442 34.0976 152.563 32.3713 148.698 36.2361C144.833 40.101 132.491 55.4573 138.495 86.376C144.498 117.295 152.563 90.3439 152.563 90.3439L161.143 38.3747L161.581 36.6741Z" fill="#8D8D8D"/>
<path d="M228.134 38.1943C230.711 37.2152 235.426 35.6177 238.441 40.977C242.074 47.4699 247.897 65.2482 242.409 87.5612C235.967 113.816 233.7 85.9638 233.7 85.9638L221.178 43.7597L228.134 38.1943Z" fill="#8D8D8D"/>
</svg>
