<svg width="22" height="20" viewBox="0 0 22 20" fill="none" xmlns="http://www.w3.org/2000/svg">
<path d="M13.8519 6.66667V5H12.2222C12.0061 5 11.7989 5.0878 11.6461 5.24408C11.4933 5.40036 11.4074 5.61232 11.4074 5.83333V14.1667C11.4074 14.3877 11.4933 14.5996 11.6461 14.7559C11.7989 14.9122 12.0061 15 12.2222 15H13.8519V13.3333C13.8519 12.8913 14.0235 12.4674 14.3292 12.1548C14.6348 11.8423 15.0493 11.6667 15.4815 11.6667H20.3704C20.8026 11.6667 21.2171 11.8423 21.5227 12.1548C21.8283 12.4674 22 12.8913 22 13.3333V18.3333C22 18.7754 21.8283 19.1993 21.5227 19.5118C21.2171 19.8244 20.8026 20 20.3704 20H15.4815C15.0493 20 14.6348 19.8244 14.3292 19.5118C14.0235 19.1993 13.8519 18.7754 13.8519 18.3333V16.6667H12.2222C11.5739 16.6667 10.9522 16.4033 10.4937 15.9344C10.0353 15.4656 9.77778 14.8297 9.77778 14.1667V10.8333H6.51852V11.6667C6.51852 12.1087 6.34683 12.5326 6.04121 12.8452C5.7356 13.1577 5.32109 13.3333 4.88889 13.3333H1.62963C1.19743 13.3333 0.782922 13.1577 0.477307 12.8452C0.171693 12.5326 0 12.1087 0 11.6667V8.33333C0 7.89131 0.171693 7.46738 0.477307 7.15482C0.782922 6.84226 1.19743 6.66667 1.62963 6.66667H4.88889C5.32109 6.66667 5.7356 6.84226 6.04121 7.15482C6.34683 7.46738 6.51852 7.89131 6.51852 8.33333V9.16667H9.77778V5.83333C9.77778 5.17029 10.0353 4.53441 10.4937 4.06557C10.9522 3.59672 11.5739 3.33333 12.2222 3.33333H13.8519V1.66667C13.8519 1.22464 14.0235 0.800716 14.3292 0.488155C14.6348 0.175595 15.0493 0 15.4815 0H20.3704C20.8026 0 21.2171 0.175595 21.5227 0.488155C21.8283 0.800716 22 1.22464 22 1.66667V6.66667C22 7.10869 21.8283 7.53262 21.5227 7.84518C21.2171 8.15774 20.8026 8.33333 20.3704 8.33333H15.4815C15.0493 8.33333 14.6348 8.15774 14.3292 7.84518C14.0235 7.53262 13.8519 7.10869 13.8519 6.66667Z" fill="#067647"/>
</svg>
