<svg width="24" height="24" viewBox="0 0 24 24" fill="none" xmlns="http://www.w3.org/2000/svg">
<path fill-rule="evenodd" clip-rule="evenodd" d="M5.31677 1.28632C5.88346 1.40345 6.33476 1.78419 6.61515 2.28722L7.50836 3.88966C7.83737 4.47986 8.11424 4.97655 8.29505 5.40832C8.48686 5.86634 8.60078 6.318 8.5487 6.81736C8.49663 7.31672 8.29197 7.73516 8.0098 8.14375C7.74379 8.52892 7.3704 8.9578 6.92669 9.46742L4.69884 12.0265C6.46568 14.9224 9.07461 17.5325 11.9736 19.3012L14.5326 17.0733C15.0422 16.6296 15.4711 16.2562 15.8563 15.9902C16.2649 15.708 16.6833 15.5034 17.1827 15.4513C17.682 15.3992 18.1337 15.5132 18.5917 15.705C19.0235 15.8858 19.5202 16.1627 20.1104 16.4917L21.7128 17.3849C22.2158 17.6653 22.5966 18.1166 22.7137 18.6832C22.832 19.2558 22.6575 19.8314 22.2719 20.3044C20.873 22.0208 18.6317 23.1136 16.2805 22.6393C14.8353 22.3478 13.4093 21.8621 11.6846 20.873C8.21921 18.8856 5.11214 15.7768 3.12706 12.3155C2.13795 10.5907 1.65223 9.16476 1.36069 7.7195C0.886392 5.36827 1.97923 3.12699 3.69559 1.72809C4.16862 1.34255 4.74417 1.16798 5.31677 1.28632ZM13.3707 20.0737C14.5371 20.6484 15.5516 20.9621 16.5771 21.1689C18.2732 21.5111 19.9854 20.7355 21.1092 19.3568C21.2568 19.1757 21.2577 19.0494 21.2447 18.9869C21.2306 18.9184 21.1733 18.8015 20.9825 18.6951L19.416 17.8219C18.7803 17.4676 18.3572 17.233 18.0123 17.0885C17.6849 16.9515 17.4971 16.9267 17.3382 16.9432C17.1794 16.9598 17.0007 17.0228 16.7087 17.2245C16.401 17.437 16.0354 17.7538 15.4865 18.2317L13.3707 20.0737ZM3.92636 10.6293L5.76835 8.51352C6.24618 7.96466 6.56306 7.599 6.77553 7.29135C6.97721 6.99931 7.04023 6.82062 7.05679 6.66178C7.07336 6.50294 7.04857 6.31509 6.91148 5.98773C6.76705 5.64285 6.53243 5.21968 6.17812 4.58404L5.30494 3.01753C5.19856 2.82669 5.08158 2.76942 5.01317 2.75528C4.95066 2.74236 4.82429 2.74326 4.64326 2.89081C3.26448 4.01457 2.48894 5.72684 2.83107 7.42289C3.03795 8.44847 3.35164 9.46294 3.92636 10.6293Z" fill="#1B8354"/>
</svg>
