<svg width="103" height="66" viewBox="0 0 103 66" fill="none" xmlns="http://www.w3.org/2000/svg">
<path d="M71.543 52.2835L72.6574 52.8677C72.7578 52.9192 72.8813 52.878 72.925 52.7725L74.0137 50.2812C74.06 50.1783 74.0059 50.0573 73.9004 50.0213L72.714 49.6018C69.2628 48.3819 65.8425 47.0514 62.4583 45.6102C62.3064 45.5458 62.1469 45.69 62.1983 45.847C62.3399 46.2973 62.4814 46.7503 62.6255 47.2007C62.641 47.247 62.6693 47.2856 62.7105 47.3088C65.6006 49.0511 68.5448 50.7085 71.543 52.2835Z" fill="#0D4AE6"/>
<path d="M81.6287 49.2518L82.8563 49.5349C82.9644 49.5606 83.0724 49.4911 83.093 49.3805L83.5897 46.8017C83.6103 46.6937 83.5357 46.5881 83.4276 46.5701L82.182 46.3771C75.1355 45.2911 68.1379 43.7907 61.2407 41.8708C61.0915 41.8296 60.9551 41.9711 61.0014 42.1204C61.1223 42.4961 61.2433 42.8693 61.3642 43.2451C61.3823 43.3042 61.4286 43.3506 61.4852 43.3712C68.0659 45.708 74.7958 47.6742 81.6287 49.2518Z" fill="#0D4AE6"/>
<path d="M67.4148 41.3199C69.9267 41.7883 72.4462 42.2052 74.9786 42.5733C80.0383 43.3042 85.134 43.8343 90.2503 44.1534L91.4624 44.2281C91.5988 44.2358 91.7146 44.1303 91.7198 43.9939L91.8099 41.4923C91.815 41.3559 91.7069 41.2427 91.5705 41.2401L90.3558 41.2273C85.3115 41.1758 80.2622 40.9184 75.2282 40.4578C72.7113 40.2261 70.1969 39.9456 67.6876 39.6111C65.1784 39.2765 62.6769 38.8905 60.1805 38.4555C60.0003 38.4246 59.8511 38.5971 59.9077 38.7721C60.0106 39.0835 60.1136 39.3949 60.2165 39.7063C60.2423 39.7886 60.3117 39.8478 60.3941 39.8684C62.7232 40.396 65.0652 40.8824 67.4148 41.3199Z" fill="#0D4AE6"/>
<path d="M68.5729 37.6062C71.777 37.9022 74.9888 38.1106 78.2084 38.2419C84.6449 38.4992 91.102 38.4246 97.5463 38.0102L98.7353 37.933C98.8846 37.9227 98.9952 37.7941 98.9824 37.6448L98.7739 35.2102C98.761 35.0609 98.6298 34.9528 98.4805 34.9683L97.2967 35.0944C90.9785 35.7635 84.6192 36.1032 78.2496 36.1135C75.066 36.1187 71.8799 36.0415 68.6964 35.8819C65.5129 35.7223 62.3319 35.4727 59.1561 35.1561L59.0969 35.151C58.9039 35.133 58.7572 35.3183 58.819 35.501C58.9142 35.7815 59.0069 36.062 59.1021 36.3426C59.133 36.4378 59.2179 36.5073 59.3183 36.5227C62.3911 36.9551 65.4769 37.3231 68.5729 37.6062Z" fill="#0D4AE6"/>
<path d="M101.603 31.2391L102.779 31.041C102.926 31.0152 103.023 30.8763 102.995 30.7296L102.545 28.3336C102.517 28.1869 102.375 28.0916 102.231 28.1225L101.062 28.3644C86.9798 31.2777 72.5136 32.4693 58.0784 31.9597L57.9986 31.9572C57.8133 31.9494 57.6769 32.1322 57.7387 32.3097C57.8313 32.5825 57.924 32.8528 58.0166 33.1256C58.0501 33.2259 58.1427 33.298 58.2508 33.3057C72.6809 34.3274 87.2706 33.6609 101.603 31.2391Z" fill="#0D4AE6"/>
<path d="M83.0783 16.8941L84.1979 16.4901C84.3394 16.4386 84.4089 16.2816 84.3549 16.1426L83.4567 13.8521C83.4026 13.7132 83.2431 13.6462 83.1041 13.7054L82.0077 14.1713C73.2421 17.8927 64.1496 20.9012 54.8538 23.1711L54.8435 23.1737C54.6891 23.2123 54.6042 23.3718 54.6557 23.5211C54.7483 23.781 54.8564 24.0821 54.9259 24.2803C54.9697 24.4038 55.0958 24.4759 55.2244 24.4527C64.6309 22.6872 74.0399 20.1523 83.0783 16.8941Z" fill="#0D4AE6"/>
<path d="M76.3892 13.4119L77.4727 12.9255C77.6091 12.8637 77.6682 12.7016 77.6013 12.5652L76.5127 10.3442C76.4458 10.2078 76.2811 10.1563 76.1473 10.2284C68.9541 14.1093 61.4907 17.509 53.7957 20.3657C53.6593 20.4172 53.5898 20.5665 53.6387 20.7054C53.7313 20.9576 53.8214 21.2098 53.9115 21.4621C53.9604 21.5959 54.1019 21.6679 54.2383 21.6268C61.7789 19.3877 69.1831 16.6469 76.3892 13.4119Z" fill="#0D4AE6"/>
<path d="M71.9342 9.28145L72.9611 8.68438C73.0923 8.60974 73.1335 8.43989 73.0512 8.31121L71.7232 6.21373C71.6434 6.08506 71.471 6.0516 71.3475 6.1391C65.3819 10.2877 59.1615 14.0812 52.6993 17.4655C52.5809 17.5272 52.5268 17.6662 52.5731 17.7923C52.6658 18.0471 52.7584 18.2993 52.8537 18.5541C52.9051 18.6982 53.0699 18.7677 53.2088 18.7085C59.6171 15.947 65.8734 12.8047 71.9342 9.28145Z" fill="#0D4AE6"/>
<path d="M64.8882 7.19686L65.8482 6.50199C65.9717 6.41191 65.9949 6.23948 65.8997 6.11852L64.3221 4.15745C64.2268 4.03907 64.0518 4.02363 63.9386 4.12657C59.9573 7.7193 55.8164 11.1473 51.5005 14.3669C51.4052 14.4364 51.3692 14.5625 51.4104 14.6731C51.5082 14.9356 51.606 15.1981 51.7038 15.4606C51.763 15.6151 51.9457 15.682 52.0898 15.597C56.4701 12.9926 60.7422 10.1925 64.8882 7.19686Z" fill="#0D4AE6"/>
<path d="M59.5811 4.43007L60.4201 3.5988C60.5282 3.49071 60.5256 3.31313 60.4098 3.21019L58.4951 1.51934C58.3793 1.4164 58.2017 1.43441 58.1091 1.55795C55.6024 4.84699 52.985 8.0614 50.2365 11.1703C50.1721 11.2449 50.1515 11.3479 50.1876 11.4405C50.2956 11.7262 50.4063 12.0119 50.5144 12.2975C50.5787 12.47 50.7975 12.5266 50.9365 12.4056C53.9012 9.85261 56.7862 7.1941 59.5811 4.43007Z" fill="#0D4AE6"/>
<path d="M53.6025 2.89373C52.6631 4.60516 51.6903 6.29343 50.6918 7.95854L50.4653 8.33429C50.3958 8.44752 50.2542 8.49385 50.1333 8.44238L49.5053 8.17472C49.3844 8.12325 49.3175 7.98943 49.3535 7.86075L49.4693 7.43611C49.9737 5.57798 50.4395 3.71213 50.8719 1.84628L51.1344 0.706178C51.1704 0.549189 51.3377 0.459113 51.4896 0.518306L54.0297 1.49112C54.1815 1.54774 54.2459 1.72532 54.1687 1.86687L53.6025 2.89373Z" fill="#0D4AE6"/>
<path d="M56.2202 27.3376C66.0127 26.4934 75.8413 24.8154 85.4073 22.3885C85.5514 22.3525 85.6389 22.2032 85.5977 22.0591L84.9389 19.6889C84.8977 19.5447 84.7459 19.4624 84.6043 19.5061C75.2468 22.4503 65.6396 24.643 55.8882 26.025C55.7235 26.0482 55.6206 26.2155 55.6746 26.375C55.7699 26.6478 55.878 26.9618 55.9474 27.16C55.986 27.2732 56.0993 27.3478 56.2202 27.3376Z" fill="#0D4AE6"/>
<path d="M61.0689 30.2431C72.6551 30.0424 83.8502 28.7942 95.0788 26.4806C95.2255 26.4497 95.3181 26.3056 95.2847 26.1614L94.7494 23.7757C94.7159 23.629 94.5692 23.5389 94.4251 23.5775C82.1851 26.671 69.6029 28.4751 56.9357 28.9435C56.7581 28.9512 56.6371 29.1262 56.6938 29.2961C56.7864 29.5611 56.8765 29.8262 56.9691 30.0913C57.0052 30.1994 57.1081 30.2714 57.2213 30.2714C58.5056 30.2714 59.7872 30.2637 61.0689 30.2431Z" fill="#0D4AE6"/>
<path d="M40.7503 65.4988C38.851 65.4988 37.626 64.1554 37.626 62.0759V61.0593C37.626 58.9799 38.8536 57.6365 40.7503 57.6365H43.0176C43.0923 57.6365 43.1515 57.6957 43.1515 57.7703V58.7148C43.1515 58.7894 43.0923 58.8486 43.0176 58.8486L40.7503 58.7534C39.5536 58.7534 38.8664 59.595 38.8664 61.0593V62.0759C38.8664 63.5429 39.5536 64.3818 40.7503 64.3818H42.2481C42.2996 64.3818 42.3408 64.3407 42.3408 64.2892V62.4748C42.3408 62.395 42.2687 62.3333 42.1889 62.3436L40.5702 62.4928C40.4904 62.5031 40.4183 62.4414 40.4183 62.3616V61.3399C40.4183 61.2652 40.4775 61.206 40.5521 61.206H43.257C43.3316 61.206 43.3908 61.2652 43.3908 61.3399V65.4036C43.3908 65.455 43.3496 65.4962 43.2982 65.4962H40.7503V65.4988Z" fill="#0D4AE6"/>
<path d="M45.0814 51.8202H43.756C43.5526 51.4857 43.2206 50.7805 42.971 50.3687C41.7794 48.3871 40.9919 47.2315 39.0489 47.2315H37.8033C37.7647 47.2315 37.7312 47.2624 37.7312 47.3036V48.3896C37.7312 48.4334 37.7672 48.4643 37.811 48.4591L38.8816 48.333C39.0128 48.3176 39.1441 48.3124 39.2753 48.3227C40.2971 48.4076 40.7629 49.0974 41.9107 51.007C42.0317 51.2077 42.1732 51.5963 42.3096 51.8228H36.4933C36.3749 50.2735 35.6955 48.3999 32.6252 48.3999H27.0611C27.0379 48.3999 27.0251 48.369 27.0431 48.3536L29.2487 46.2072C29.2898 46.166 29.2898 46.1017 29.2487 46.0605L28.3016 45.1083C28.2578 45.0646 28.1883 45.0671 28.1497 45.1135L25.2133 48.5929C25.2004 48.6084 25.1978 48.6315 25.2081 48.6496L25.6508 49.4551C25.6585 49.4705 25.6765 49.4808 25.6945 49.4808H32.6252C34.5554 49.4808 35.1344 50.5257 35.2528 51.8228C33.2943 51.8228 27.5012 51.8202 23.9599 51.8202C23.9934 50.3172 23.3886 48.7654 22.5882 47.9804C22.0786 47.4811 21.4507 47.2572 20.8176 47.3499C20.2257 47.4348 19.7084 47.7539 19.3275 48.2738C18.7201 49.0999 18.576 50.2529 18.7021 51.0301C18.8823 52.1496 19.8474 52.9011 21.1033 52.9011C21.2088 52.9011 21.672 52.9011 22.3746 52.9011C22.1121 53.5883 21.4198 54.1853 19.2451 54.2034C19.1937 54.2034 19.1499 54.2445 19.1499 54.296V55.189C19.1499 55.2405 19.1937 55.2843 19.2451 55.2843C21.5459 55.274 23.332 54.8365 23.8081 52.9011C27.9027 52.9011 45.3027 52.9037 46.3167 52.9037C46.3424 52.9037 46.363 52.8831 46.363 52.8574L46.5148 45.0517C46.5148 45.0105 46.484 44.9771 46.4428 44.9771H45.0453C45.0041 44.9771 44.9707 45.0105 44.9733 45.0517L45.1251 51.7739C45.1303 51.7971 45.1097 51.8202 45.0814 51.8202ZM22.5702 51.8176C21.7595 51.8176 21.2191 51.8176 21.1033 51.8176C20.622 51.8176 20.0224 51.4445 19.922 50.832C19.8371 50.3095 19.9477 49.5143 20.3235 49.0047C20.5088 48.7525 20.7275 48.611 20.9926 48.5723C21.0261 48.5672 21.0595 48.5646 21.093 48.5646C21.3091 48.5646 21.5202 48.665 21.7235 48.8632C22.2022 49.3264 22.614 50.5 22.5702 51.8176Z" fill="#0D4AE6"/>
<path d="M47.9821 52.8932H49.081C49.1196 52.8932 49.1505 52.8623 49.1505 52.8237L49.3023 45.0437C49.3023 45.0051 49.2714 44.9717 49.2328 44.9717H47.8302C47.7916 44.9717 47.7607 45.0026 47.7607 45.0437L47.9126 52.8237C47.9126 52.8623 47.9435 52.8932 47.9821 52.8932Z" fill="#0D4AE6"/>
<path d="M6.3002 53.9458C6.22814 53.9458 6.16895 54.005 6.16895 54.0771V55.1811C6.16895 55.2532 6.22814 55.3124 6.3002 55.3124H7.40427C7.47633 55.3124 7.53552 55.2532 7.53552 55.1811V54.0771C7.53552 54.005 7.47633 53.9458 7.40427 53.9458H6.3002Z" fill="#0D4AE6"/>
<path d="M3.96621 53.9458C3.89415 53.9458 3.83496 54.005 3.83496 54.0771V55.1811C3.83496 55.2532 3.89415 55.3124 3.96621 55.3124H5.07028C5.14234 55.3124 5.20153 55.2532 5.20153 55.1811V54.0771C5.20153 54.005 5.14234 53.9458 5.07028 53.9458H3.96621Z" fill="#0D4AE6"/>
<path d="M43.4658 35.3466C43.5379 35.3466 43.597 35.2874 43.597 35.2153V34.1112C43.597 34.0392 43.5379 33.98 43.4658 33.98H42.3617C42.2897 33.98 42.2305 34.0392 42.2305 34.1112V35.2153C42.2305 35.2874 42.2897 35.3466 42.3617 35.3466H43.4658Z" fill="#0D4AE6"/>
<path d="M41.1338 35.3466C41.2058 35.3466 41.265 35.2874 41.265 35.2153V34.1112C41.265 34.0392 41.2058 33.98 41.1338 33.98H40.0297C39.9576 33.98 39.8984 34.0392 39.8984 34.1112V35.2153C39.8984 35.2874 39.9576 35.3466 40.0297 35.3466H41.1338Z" fill="#0D4AE6"/>
<path d="M45.0658 40.2055H42.4459C42.4124 40.2055 42.3867 40.1798 42.3867 40.1463L42.5231 36.479C42.5231 36.4352 42.4871 36.3992 42.4433 36.3992H41.0639C41.0176 36.3992 40.9815 36.4378 40.9841 36.4841L41.1437 40.1463C41.1462 40.1772 41.1231 40.203 41.0922 40.203C40.4334 40.203 39.512 40.203 38.4929 40.2004C38.5598 38.6871 37.9756 37.143 37.1701 36.3554C36.6528 35.8485 36.0094 35.622 35.3557 35.7172C34.7638 35.8021 34.2465 36.1212 33.8656 36.6411C33.2582 37.4672 33.1141 38.6202 33.2402 39.3974C33.4203 40.5169 34.3854 41.2684 35.6413 41.2684C35.8035 41.2684 36.2642 41.2684 36.8612 41.2684C36.5575 41.9324 35.8189 42.5526 33.7806 42.5707C33.7317 42.5707 33.6906 42.6118 33.6906 42.6607V43.5641C33.6906 43.613 33.7317 43.6541 33.7832 43.6541C36.3568 43.6387 37.8598 42.9129 38.3153 41.271C39.4142 41.271 46.2883 41.2736 46.2883 41.2736C46.332 41.2736 46.3655 41.2401 46.3681 41.1964L46.5199 33.4627C46.5199 33.3984 46.471 33.3469 46.4067 33.3469H45.0916C45.0272 33.3469 44.9783 33.3984 44.9783 33.4627L45.1276 40.1412C45.1302 40.1772 45.1018 40.2055 45.0658 40.2055ZM37.1031 40.203C36.3877 40.203 35.8266 40.203 35.6413 40.203C35.1601 40.203 34.5604 39.8169 34.4626 39.2018C34.3777 38.6794 34.4884 37.8842 34.8641 37.3746C35.0494 37.1224 35.2682 36.9808 35.5333 36.9422C35.5719 36.9371 35.6079 36.9345 35.6465 36.9345C35.8781 36.9345 36.0994 37.0374 36.3079 37.2408C36.8689 37.7889 37.1649 39.0268 37.1031 40.203Z" fill="#0D4AE6"/>
<path d="M14.1883 43.654C15.65 43.654 16.6435 43.1702 17.1376 42.2154C17.292 41.9194 17.3872 41.6029 17.449 41.2734H29.1099C29.1485 41.2734 29.1794 41.2426 29.1794 41.204V40.6558C29.1794 38.0796 28.8191 36.3913 27.0304 35.9332C25.0488 35.4237 23.0156 37.4954 21.5641 39.1914L21.716 36.4711C21.7186 36.4325 21.6877 36.4016 21.6491 36.4016H20.2413C20.2027 36.4016 20.1744 36.4325 20.1744 36.4711L20.3237 40.1462C20.3263 40.1797 20.2979 40.208 20.2645 40.208H17.5494L17.7012 33.4189C17.7012 33.3802 17.6703 33.3494 17.6317 33.3494H16.2265C16.1879 33.3494 16.157 33.3802 16.157 33.4214L16.3089 39.5569C16.3089 40.3289 16.3115 41.1242 16.0387 41.6492C15.8662 41.9812 15.4853 42.5757 14.1857 42.5757C11.9853 42.5757 12.3275 40.2903 12.3945 39.5208C12.3996 39.4719 12.361 39.4308 12.3121 39.4308H10.9095C10.8632 39.4308 10.8271 39.4668 10.8271 39.5131C10.8271 40.4139 10.8374 41.4484 11.2389 42.2179C11.7331 43.1702 12.7265 43.654 14.1883 43.654ZM26.7242 37.13C27.3418 37.2895 27.5529 37.7991 27.6275 40.2054H22.1844C24.5984 37.1763 26.14 36.9807 26.7242 37.13Z" fill="#0D4AE6"/>
<path d="M47.7607 33.4627L47.9126 41.1886C47.9126 41.2324 47.9486 41.2658 47.9898 41.2658H49.0733C49.117 41.2658 49.1505 41.2324 49.1505 41.1886L49.3023 33.4627C49.3023 33.3984 49.2534 33.3469 49.1891 33.3469H47.874C47.8096 33.3469 47.7607 33.3984 47.7607 33.4627Z" fill="#0D4AE6"/>
<path d="M14.7853 47.2932C13.8022 47.2932 9.03075 47.3035 8.44912 47.3035C8.41052 47.3035 8.37706 47.3241 8.35905 47.3576L7.95756 48.1116C7.93698 48.1476 7.94212 48.194 7.97043 48.2274C8.80942 49.2028 9.31127 50.3429 9.4348 50.9786C9.46826 51.1459 9.66385 51.8099 8.88406 51.8099H3.69313C1.90964 51.8099 1.90707 50.9297 1.87876 49.3058C1.87876 49.1719 1.87618 48.6392 1.87618 48.4127C1.87618 48.3407 1.81956 48.284 1.7475 48.284H0.460711C0.38865 48.284 0.332031 48.3407 0.332031 48.4127C0.332031 48.6443 0.332031 49.1874 0.334605 49.3263C0.35262 50.4845 0.393797 52.8908 3.69313 52.8908H8.88148C11.0536 52.8908 10.9069 51.272 10.8014 50.7392C10.665 50.0495 10.297 49.1642 9.78481 48.3844C10.6418 48.3818 11.8076 48.3793 12.8113 48.3793C12.2323 49.244 11.9543 50.4716 12.1525 51.3492C12.3172 52.0852 12.8834 52.9628 14.6412 52.9628C15.4004 52.9628 17.4206 52.9628 17.4206 50.8345C17.4232 49.0149 16.435 47.2932 14.7853 47.2932ZM14.6437 51.8768C13.5062 51.8768 13.411 51.3003 13.3595 51.0738C13.2437 50.5642 13.411 49.648 13.8897 48.9918C14.0776 48.7344 14.3864 48.423 14.811 48.3741C15.7092 48.4024 16.0309 49.8102 16.0309 50.8293C16.0335 51.29 16.1879 51.8768 14.6437 51.8768Z" fill="#0D4AE6"/>
<path d="M31.8865 33.3469H30.4916C30.4504 33.3469 30.417 33.3804 30.417 33.4216L30.5688 41.1912C30.5688 41.2324 30.6023 41.2633 30.6435 41.2633H31.7347C31.7758 41.2633 31.8067 41.2298 31.8093 41.1912L31.9611 33.4216C31.9611 33.3804 31.9277 33.3469 31.8865 33.3469Z" fill="#0D4AE6"/>
<path d="M44.6309 62.0681C44.6309 64.1475 45.8585 65.491 47.7552 65.491C48.185 65.491 48.8824 65.5038 49.1707 65.4987C49.2427 65.4987 49.3019 65.4369 49.3019 65.3648V64.4152C49.3019 64.3406 49.2427 64.2814 49.1681 64.2814C48.8953 64.2814 48.2596 64.374 47.7552 64.374C46.5585 64.374 45.8713 63.5325 45.8713 62.0681V61.0309C45.8713 59.564 46.5585 58.725 47.7552 58.725C48.2596 58.725 48.8953 58.8176 49.1681 58.8176C49.2427 58.8176 49.3019 58.7585 49.3019 58.6838V57.7342C49.3019 57.6621 49.2453 57.6029 49.1707 57.6003C48.8824 57.5952 48.185 57.6081 47.7552 57.6081C45.8559 57.6081 44.6309 58.9515 44.6309 61.0309V62.0681Z" fill="#0D4AE6"/>
<path d="M31.7139 62.0629C31.7139 64.1424 32.9415 65.4858 34.8382 65.4858C35.268 65.4858 35.9654 65.4987 36.2537 65.4935C36.3257 65.4935 36.3849 65.4318 36.3849 65.3597V64.41C36.3849 64.3354 36.3257 64.2762 36.2511 64.2762C35.9783 64.2762 35.3426 64.3689 34.8382 64.3689C33.6415 64.3689 32.9543 63.5273 32.9543 62.0629V61.0309C32.9543 59.564 33.6415 58.725 34.8382 58.725C35.3426 58.725 35.9783 58.8176 36.2511 58.8176C36.3257 58.8176 36.3849 58.7585 36.3849 58.6838V57.7342C36.3849 57.6621 36.3283 57.6029 36.2537 57.6003C35.9654 57.5952 35.268 57.6081 34.8382 57.6081C32.9389 57.6081 31.7139 58.9515 31.7139 61.0309V62.0629Z" fill="#0D4AE6"/>
</svg>
