<svg width="29" height="28" viewBox="0 0 29 28" fill="none" xmlns="http://www.w3.org/2000/svg">
<path fill-rule="evenodd" clip-rule="evenodd" d="M14.3327 1.45898C12.5608 1.45898 11.1243 2.8954 11.1243 4.66732C11.1243 5.07296 11.2 5.46175 11.3378 5.81973L6.94375 9.11526C6.40465 8.70404 5.73055 8.45898 4.99935 8.45898C3.22744 8.45898 1.79102 9.8954 1.79102 11.6673C1.79102 13.4392 3.22743 14.8757 4.99935 14.8757C6.77126 14.8757 8.20768 13.4392 8.20768 11.6673C8.20768 11.2617 8.13207 10.8729 7.99423 10.5149L12.3883 7.21937C12.9274 7.63059 13.6015 7.87565 14.3327 7.87565C15.2719 7.87565 16.116 7.47197 16.7021 6.8303L20.5135 8.73599C20.4768 8.93002 20.4577 9.12996 20.4577 9.33398C20.4577 11.1059 21.8941 12.5423 23.666 12.5423C25.4379 12.5423 26.8743 11.1059 26.8743 9.33398C26.8743 7.56207 25.4379 6.12565 23.666 6.12565C22.7268 6.12565 21.8827 6.52933 21.2966 7.171L17.4852 5.26531C17.5219 5.07128 17.541 4.87134 17.541 4.66732C17.541 2.8954 16.1046 1.45898 14.3327 1.45898ZM12.8743 4.66732C12.8743 3.8619 13.5273 3.20898 14.3327 3.20898C15.1381 3.20898 15.791 3.8619 15.791 4.66732C15.791 4.90338 15.7356 5.12397 15.6378 5.31912C15.3973 5.79918 14.9023 6.12565 14.3327 6.12565C13.8562 6.12565 13.433 5.89802 13.1655 5.54186C12.9825 5.2982 12.8743 4.99665 12.8743 4.66732ZM22.3609 8.68218C22.6014 8.20212 23.0964 7.87565 23.666 7.87565C24.4714 7.87565 25.1243 8.52857 25.1243 9.33398C25.1243 10.1394 24.4714 10.7923 23.666 10.7923C22.8606 10.7923 22.2077 10.1394 22.2077 9.33398C22.2077 9.09793 22.2631 8.87733 22.3609 8.68218ZM3.54102 11.6673C3.54102 10.8619 4.19393 10.209 4.99935 10.209C5.47588 10.209 5.89898 10.4366 6.16653 10.7928C6.34956 11.0364 6.45768 11.338 6.45768 11.6673C6.45768 12.4727 5.80476 13.1257 4.99935 13.1257C4.19393 13.1257 3.54102 12.4727 3.54102 11.6673Z" fill="#009951"/>
<path d="M14.3327 9.62565C14.8159 9.62565 15.2077 10.0174 15.2077 10.5007V22.1673C15.2077 22.6506 14.8159 23.0423 14.3327 23.0423C13.8494 23.0423 13.4577 22.6506 13.4577 22.1673V10.5007C13.4577 10.0174 13.8494 9.62565 14.3327 9.62565Z" fill="#009951"/>
<path d="M4.99935 16.6257C5.4826 16.6257 5.87435 17.0174 5.87435 17.5007L5.87435 22.1673C5.87435 22.6506 5.4826 23.0423 4.99935 23.0423C4.5161 23.0423 4.12435 22.6506 4.12435 22.1673L4.12435 17.5007C4.12435 17.0174 4.5161 16.6257 4.99935 16.6257Z" fill="#009951"/>
<path d="M25.9993 26.5423C26.4826 26.5423 26.8743 26.1506 26.8743 25.6673C26.8743 25.1841 26.4826 24.7923 25.9993 24.7923H2.66602C2.18276 24.7923 1.79102 25.1841 1.79102 25.6673C1.79102 26.1506 2.18276 26.5423 2.66602 26.5423H25.9993Z" fill="#009951"/>
<path d="M23.666 14.2923C24.1493 14.2923 24.541 14.6841 24.541 15.1673V22.1673C24.541 22.6506 24.1493 23.0423 23.666 23.0423C23.1828 23.0423 22.791 22.6506 22.791 22.1673V15.1673C22.791 14.6841 23.1828 14.2923 23.666 14.2923Z" fill="#009951"/>
</svg>
