<svg width="15" height="28" viewBox="0 0 15 28" fill="none" xmlns="http://www.w3.org/2000/svg">
<path d="M8.70704 2.26567C8.68575 1.24343 8.09681 0.680553 7.80731 0H7.51496C7.22262 0.690477 6.62091 1.25902 6.61523 2.31104C6.63652 3.33329 7.22404 3.89616 7.51355 4.57672H7.80731C8.09823 3.89191 8.69284 3.3262 8.70704 2.28836C8.70562 2.28127 8.70704 2.27276 8.70704 2.26567Z" fill="#1B8354"/>
<path d="M7.79282 5.32422H7.53738C7.43946 5.94522 7.31741 6.96038 7.18827 8.72131C6.98818 11.4435 7.03785 13.2994 7.04068 14.3557C7.0492 18.5794 7.48487 28.0008 7.48487 28.0008H7.84533C7.84533 28.0008 8.28101 18.5794 8.28952 14.3557C8.29236 13.2994 8.35906 11.4449 8.14193 8.72131C8.00144 6.9618 7.89216 5.94806 7.79282 5.32422Z" fill="#1B8354"/>
<path d="M6.11764 5.84766H5.86645C5.78414 6.35382 5.67345 7.24421 5.56843 8.69038C5.26758 12.8815 5.31299 13.2983 5.31299 14.3531C5.31299 21.204 5.84658 27.1631 5.85652 27.2213H6.10203C6.11196 27.1631 6.64555 21.2055 6.64555 14.3531C6.64555 13.2969 6.65549 12.9013 6.38869 8.68896C6.29929 7.24421 6.19427 6.34531 6.11764 5.84766Z" fill="#1B8354"/>
<path d="M4.40059 6.77148H4.17353C4.08554 7.23369 3.99046 8.21908 3.86842 9.73331C3.67825 12.084 3.6669 13.3005 3.66406 14.3554C3.68109 18.2445 3.85139 22.1321 4.16785 26.0212H4.42188C4.73976 22.1321 4.91006 18.2445 4.92567 14.3554C4.92141 13.2991 4.91148 11.9451 4.72132 9.73331C4.59076 8.21908 4.49142 7.23228 4.40059 6.77148Z" fill="#1B8354"/>
<path d="M2.7974 8.82422H2.49654C2.44545 9.02697 2.02539 11.9902 2.02539 14.3537C2.02539 19.5217 2.47526 23.0903 2.53486 23.4958H2.76902C2.77043 23.483 3.2799 19.5217 3.2799 14.3537C3.2799 11.9902 2.84991 9.02697 2.7974 8.82422Z" fill="#1B8354"/>
<path d="M1.28906 11.043H1.01658C1.01658 11.043 0.710052 13.0152 0.654706 14.3763C0.512792 17.8372 1.05064 20.782 1.05064 20.782H1.25216C1.25216 20.782 1.7375 17.8386 1.62113 14.3763C1.57572 13.0152 1.28906 11.043 1.28906 11.043Z" fill="#1B8354"/>
<path d="M9.20428 5.84766H9.45547C9.53778 6.35382 9.64847 7.24421 9.75348 8.69038C10.0558 12.8829 10.0103 13.2983 10.0103 14.3546C10.0103 21.2055 9.47675 27.1645 9.46682 27.2227H9.22131C9.21138 27.1645 8.67778 21.2069 8.67778 14.3546C8.67778 13.2983 8.66785 12.9027 8.93464 8.69038C9.02263 7.24421 9.12765 6.34531 9.20428 5.84766Z" fill="#1B8354"/>
<path d="M10.9201 6.77148H11.1472C11.2352 7.23369 11.3303 8.21908 11.4523 9.73331C11.6425 12.084 11.6538 13.3005 11.6567 14.3554C11.6396 18.2445 11.4693 22.1321 11.1529 26.0212H10.9003C10.5824 22.1321 10.4121 18.2445 10.3965 14.3554C10.4007 13.2991 10.4107 11.9451 10.6008 9.73331C10.73 8.21908 10.8293 7.23228 10.9201 6.77148Z" fill="#1B8354"/>
<path d="M12.5255 8.82422H12.8263C12.8774 9.02697 13.2975 11.9902 13.2975 14.3537C13.2975 19.5217 12.8476 23.0903 12.788 23.4958H12.5539C12.5524 23.483 12.043 19.5217 12.043 14.3537C12.043 11.9902 12.4715 9.02697 12.5255 8.82422Z" fill="#1B8354"/>
<path d="M14.045 11.043H14.3175C14.3175 11.043 14.6241 13.0152 14.6794 14.3763C14.8213 17.8372 14.2835 20.782 14.2835 20.782H14.0819C14.0819 20.782 13.598 17.8386 13.713 14.3763C13.7584 13.0152 14.045 11.043 14.045 11.043Z" fill="#1B8354"/>
<path d="M9.20233 5.85156H9.45351C9.53582 6.35772 9.64652 7.24811 9.75153 8.69429C10.0538 12.8868 10.0084 13.3022 10.0084 14.3585C10.0084 21.2094 9.4748 27.1685 9.46487 27.2266H9.21936C9.20942 27.1685 8.67583 21.2108 8.67583 14.3585C8.67583 13.3022 8.6659 12.9066 8.93269 8.69429C9.0221 7.24811 9.12711 6.34922 9.20233 5.85156Z" fill="#1B8354"/>
<path d="M10.9196 6.77344H11.1467C11.2347 7.23565 11.3297 8.22103 11.4518 9.73526C11.6419 12.086 11.6533 13.3025 11.6561 14.3573C11.6391 18.2464 11.4688 22.1341 11.1523 26.0231H10.8983C10.5804 22.1341 10.4101 18.2464 10.3945 14.3573C10.3988 13.3011 10.4087 11.9471 10.5989 9.73526C10.7294 8.22103 10.8302 7.23423 10.9196 6.77344Z" fill="#1B8354"/>
<path d="M12.5235 8.82812H12.8244C12.8755 9.03087 13.2955 11.9941 13.2955 14.3576C13.2955 19.5256 12.8457 23.0942 12.7861 23.4997H12.5519C12.5505 23.4884 12.041 19.5256 12.041 14.3576C12.041 11.9941 12.471 9.03087 12.5235 8.82812Z" fill="#1B8354"/>
<path d="M14.0337 11.043H14.3062C14.3062 11.043 14.6127 13.0152 14.668 14.3763C14.81 17.8372 14.2721 20.782 14.2721 20.782H14.0706C14.0706 20.782 13.5852 17.8386 13.7016 14.3763C13.747 13.0152 14.0337 11.043 14.0337 11.043Z" fill="#1B8354"/>
</svg>
