<svg width="20" height="20" viewBox="0 0 20 20" fill="none" xmlns="http://www.w3.org/2000/svg">
<path fill-rule="evenodd" clip-rule="evenodd" d="M7.95727 1.04175H7.87575C6.54053 1.04174 5.48273 1.04173 4.64588 1.14065C3.78674 1.2422 3.07949 1.4554 2.4887 1.94025C2.28827 2.10473 2.10449 2.28852 1.94 2.48894C1.45516 3.07973 1.24196 3.78698 1.1404 4.64612C1.04149 5.48297 1.04149 6.54077 1.0415 7.87599V7.95751C1.04149 9.29273 1.04149 10.3505 1.1404 11.1874C1.24196 12.0465 1.45516 12.7538 1.94 13.3446C2.10449 13.545 2.28827 13.7288 2.4887 13.8932C3.04859 14.3527 3.71308 14.5683 4.5127 14.676C5.16176 14.7635 5.94304 14.7847 6.88376 14.79C6.89462 15.3083 6.91866 15.7636 6.97194 16.1599C7.07279 16.91 7.28853 17.5415 7.79013 18.0431C8.29173 18.5447 8.92329 18.7605 9.67338 18.8613C10.3959 18.9584 11.3145 18.9584 12.4541 18.9584H13.3789C14.5186 18.9584 15.4372 18.9584 16.1596 18.8613C16.9097 18.7605 17.5413 18.5447 18.0429 18.0431C18.5445 17.5415 18.7602 16.91 18.8611 16.1599C18.9582 15.4374 18.9582 14.5188 18.9582 13.3791V12.4544C18.9582 11.3147 18.9582 10.3961 18.8611 9.67362C18.7602 8.92353 18.5445 8.29197 18.0429 7.79037C17.5413 7.28878 16.9097 7.07303 16.1596 6.97219C15.7634 6.91891 15.3081 6.89486 14.7897 6.884C14.7844 5.94328 14.7632 5.162 14.6758 4.51295C14.568 3.71332 14.3525 3.04883 13.893 2.48894C13.7285 2.28852 13.5447 2.10474 13.3443 1.94025C12.7535 1.4554 12.0463 1.2422 11.1871 1.14065C10.3503 1.04173 9.29249 1.04174 7.95727 1.04175ZM13.5396 6.87509C13.534 5.94994 13.5132 5.24578 13.437 4.67988C13.3463 4.00674 13.1845 3.59603 12.9267 3.28193C12.8142 3.1448 12.6885 3.01906 12.5513 2.90651C12.2202 2.63473 11.7815 2.46961 11.0404 2.38201C10.2855 2.29277 9.3016 2.29175 7.91651 2.29175C6.53141 2.29175 5.54754 2.29277 4.79261 2.38201C4.05148 2.46961 3.61286 2.63473 3.28169 2.90651C3.14456 3.01905 3.01881 3.1448 2.90627 3.28193C2.63448 3.6131 2.46937 4.05172 2.38176 4.79286C2.29253 5.54778 2.2915 6.53166 2.2915 7.91675C2.2915 9.30184 2.29253 10.2857 2.38176 11.0406C2.46937 11.7818 2.63448 12.2204 2.90627 12.5516C3.01881 12.6887 3.14456 12.8144 3.28169 12.927C3.59578 13.1848 4.00649 13.3465 4.67964 13.4372C5.24554 13.5135 5.94969 13.5343 6.87485 13.5398C6.87484 13.4867 6.87484 13.4332 6.87484 13.3791V12.4544C6.87482 11.3147 6.87481 10.3961 6.97194 9.67362C7.07279 8.92353 7.28853 8.29197 7.79013 7.79037C8.29173 7.28878 8.92329 7.07303 9.67338 6.97218C10.3959 6.87505 11.3145 6.87506 12.4541 6.87508H13.3789C13.433 6.87508 13.4865 6.87508 13.5396 6.87509ZM8.67401 8.67426C8.90465 8.44362 9.22846 8.29325 9.83994 8.21104C10.4694 8.12641 11.3037 8.12508 12.4998 8.12508H13.3332C14.5294 8.12508 15.3636 8.12641 15.9931 8.21104C16.6046 8.29325 16.9284 8.44362 17.159 8.67426C17.3896 8.90489 17.54 9.2287 17.6222 9.84018C17.7068 10.4696 17.7082 11.3039 17.7082 12.5001V13.3334C17.7082 14.5296 17.7068 15.3639 17.6222 15.9933C17.54 16.6048 17.3896 16.9286 17.159 17.1592C16.9284 17.3899 16.6045 17.5402 15.9931 17.6225C15.3636 17.7071 14.5294 17.7084 13.3332 17.7084H12.4998C11.3037 17.7084 10.4694 17.7071 9.83994 17.6225C9.22846 17.5402 8.90465 17.3899 8.67401 17.1592C8.44338 16.9286 8.293 16.6048 8.21079 15.9933C8.12616 15.3639 8.12484 14.5296 8.12484 13.3334V12.5001C8.12484 11.3039 8.12617 10.4696 8.21079 9.84018C8.29301 9.2287 8.44338 8.90489 8.67401 8.67426Z" fill="#1B8354"/>
</svg>
