<svg width="134" height="133" viewBox="0 0 134 133" fill="none" xmlns="http://www.w3.org/2000/svg">
<path d="M22.5741 124.942C21.7944 124.942 21.1619 124.309 21.1619 123.53V110.007C21.1619 109.227 21.7944 108.595 22.5741 108.595H26.2968L16.2516 94.8527L6.20638 108.592H9.93429C10.7139 108.592 11.3465 109.225 11.3465 110.004V123.527C11.3465 124.307 10.7139 124.939 9.93429 124.939C9.15463 124.939 8.52212 124.307 8.52212 123.527V111.417H3.42852C2.30808 111.453 1.59812 110.053 2.28743 109.171L15.1131 91.6256C15.6397 90.8614 16.866 90.8614 17.3927 91.6256L30.2183 109.171C30.9076 110.053 30.1977 111.453 29.0773 111.417H23.9862V123.527C23.9862 124.309 23.3537 124.942 22.5741 124.942Z" fill="#074D31" stroke="#14573A"/>
<path d="M124.253 124.942C123.473 124.942 122.841 124.309 122.841 123.53V110.007C122.841 109.227 123.473 108.595 124.253 108.595H127.976L117.931 94.8527L107.885 108.592H111.608C112.388 108.592 113.02 109.225 113.02 110.004V123.527C113.02 124.307 112.388 124.939 111.608 124.939C110.828 124.939 110.196 124.307 110.196 123.527V111.417H105.102C103.982 111.453 103.272 110.053 103.961 109.171L116.787 91.6256C117.314 90.8614 118.54 90.8614 119.067 91.6256L131.892 109.171C132.581 110.053 131.872 111.453 130.751 111.417H125.657V123.527C125.665 124.309 125.033 124.942 124.253 124.942Z" fill="#074D31" stroke="#14573A"/>
<path d="M85.5426 124.237C86.5563 124.237 87.3781 123.415 87.3781 122.401C87.3781 121.388 86.5563 120.566 85.5426 120.566C84.5288 120.566 83.707 121.388 83.707 122.401C83.707 123.415 84.5288 124.237 85.5426 124.237Z" fill="#1B8354" stroke="#1B8354"/>
<path d="M65.8199 78.5312C66.8337 78.5312 67.6555 77.7094 67.6555 76.6957C67.6555 75.6819 66.8337 74.8601 65.8199 74.8601C64.8062 74.8601 63.9844 75.6819 63.9844 76.6957C63.9844 77.7094 64.8062 78.5312 65.8199 78.5312Z" fill="#1B8354" stroke="#1B8354"/>
<path d="M131.769 129.178H50.0437V86.501C50.0437 84.1156 49.3363 81.8127 47.9964 79.8404L41.2093 69.839C40.1895 68.3365 39.65 66.581 39.65 64.7635V54.8525C41.026 56.0143 42.7996 56.7139 44.7332 56.7139C47.4207 56.7139 49.7984 55.3611 51.2287 53.2984C52.6589 55.3611 55.0366 56.7139 57.7241 56.7139C60.0838 56.7139 62.2962 55.6348 63.7781 53.8637C66.2049 56.1898 69.4345 57.6768 73.0023 57.8601C70.7331 60.243 67.6067 64.2885 65.7479 69.9216C65.5026 70.6626 65.9054 71.4603 66.6463 71.7056C67.3873 71.9508 68.185 71.5481 68.4302 70.8071C71.2391 62.2903 77.3886 57.6484 77.448 57.6046C78.54 56.8533 77.9333 55.0126 76.6089 55.0565H73.7407C67.8158 55.0565 62.9158 50.5773 62.2188 44.815H90.7435C92.8295 44.815 94.5282 46.5215 94.5282 48.6178V59.0141C94.5282 61.2447 93.9964 63.4752 92.9895 65.4631L85.4149 80.429V80.4315C84.5785 82.0838 84.137 83.9374 84.137 85.7885V114.595C84.137 115.374 84.7695 116.007 85.5492 116.007C86.3289 116.007 86.9614 115.374 86.9614 114.595V85.7859C86.9614 84.3737 87.2996 82.9616 87.9372 81.7017V81.6991L95.5092 66.7385C96.7149 64.3556 97.3525 61.6862 97.3525 59.0141V48.6152C97.3525 45.2565 94.8457 42.4735 91.6109 42.0449V37.2405C91.6109 32.8671 88.0637 29.3096 83.7033 29.3096C81.4934 29.3096 79.4926 30.2261 78.0546 31.6976C76.8877 28.7752 74.0376 26.7021 70.7124 26.7021C67.3873 26.7021 64.5345 28.7726 63.3702 31.6976C61.9348 30.2261 59.934 29.3096 57.7241 29.3096C54.3989 29.3096 51.5462 31.3801 50.3819 34.3051C48.9465 32.8336 46.9457 31.9171 44.7358 31.9171C40.3754 31.9171 36.8282 35.4746 36.8282 39.8479V64.7609C36.8282 67.1464 37.5356 69.4492 38.8755 71.4216L45.6626 81.4229C46.6824 82.9254 47.2219 84.681 47.2219 86.4984V129.176H2.41217C1.63251 129.176 1 129.808 1 130.588C1 131.368 1.63251 132 2.41217 132H131.769C132.548 132 133.181 131.368 133.181 130.588C133.181 129.808 132.548 129.178 131.769 129.178ZM78.6226 37.243C78.6226 34.4265 80.9022 32.1365 83.7059 32.1365C86.5096 32.1365 88.7892 34.4265 88.7892 37.243V41.9881H78.6226V37.243ZM65.6317 34.6356C65.6317 31.819 67.9113 29.5291 70.715 29.5291C73.5187 29.5291 75.7983 31.819 75.7983 34.6356V41.9881H65.6317V34.6356ZM52.6408 37.243C52.6408 34.4265 54.9204 32.1365 57.7241 32.1365C60.5278 32.1365 62.8074 34.4265 62.8074 37.243V41.9881H60.724C59.9443 41.9881 59.3118 42.6206 59.3118 43.4003C59.3118 46.475 60.2748 49.3278 61.909 51.6745C60.9693 53.0402 59.4022 53.8896 57.7241 53.8896C54.9204 53.8896 52.6408 51.5996 52.6408 48.783V37.243ZM39.65 39.8505C39.65 37.0339 41.9296 34.744 44.7332 34.744C47.5369 34.744 49.8165 37.0339 49.8165 39.8505V48.783C49.8165 51.5996 47.5369 53.8896 44.7332 53.8896C41.9296 53.8896 39.65 51.5996 39.65 48.783V39.8505Z" fill="#1B8354" stroke="#1B8354"/>
<path d="M37.6671 101.846C37.3031 101.846 36.9417 101.707 36.6654 101.431L23.832 88.5584C23.3389 88.0628 23.2821 87.2805 23.6978 86.7177L30.3326 77.7981C29.0289 75.361 27.9678 72.7974 27.1727 70.1487L16.2006 68.548C15.5062 68.4474 14.9924 67.851 14.9924 67.1514V48.9481C14.9924 48.2459 15.5062 47.6521 16.2006 47.5514L27.1727 45.9508C27.9704 43.3046 29.0289 40.7385 30.3326 38.3014L23.6978 29.3818C23.2795 28.8215 23.3363 28.0367 23.832 27.541L36.6654 14.6689C37.1611 14.1706 37.9485 14.1138 38.5113 14.5347L47.3999 21.185C49.8267 19.8787 52.3825 18.8176 55.021 18.0173L56.6165 7.00655C56.7171 6.31209 57.3135 5.79834 58.0131 5.79834H76.1622C76.8644 5.79834 77.4581 6.31467 77.5588 7.00655L79.1543 18.0173C81.7902 18.815 84.346 19.8787 86.7753 21.185L95.664 14.5347C96.2268 14.1138 97.0142 14.1706 97.5099 14.6689L110.343 27.541C110.836 28.0367 110.893 28.819 110.478 29.3818L103.843 38.3014C105.146 40.7385 106.207 43.302 107.003 45.9508L117.975 47.5514C118.669 47.6521 119.183 48.2485 119.183 48.9481V67.1514C119.183 67.8536 118.669 68.4474 117.975 68.548L107.003 70.1487C106.205 72.7949 105.146 75.361 103.843 77.7981L110.478 86.7177C110.896 87.2779 110.839 88.0628 110.343 88.5584L97.5099 101.431C97.0142 101.929 96.2268 101.986 95.664 101.565L92.1813 98.9599C91.5566 98.4927 91.4301 97.6071 91.8973 96.9824C92.3646 96.3576 93.2501 96.2311 93.8749 96.6984L96.3765 98.5701L107.485 87.4277L101.036 78.7559C100.703 78.3067 100.665 77.7052 100.938 77.2198C102.485 74.4755 103.698 71.5453 104.54 68.5067C104.689 67.9672 105.144 67.567 105.696 67.487L116.361 65.9302V50.1692L105.696 48.6125C105.141 48.5325 104.689 48.1323 104.54 47.5928C103.698 44.5541 102.487 41.624 100.938 38.8797C100.665 38.3943 100.701 37.7902 101.036 37.3436L107.485 28.6718L96.3765 17.5294L87.7383 23.9938C87.2891 24.3295 86.6824 24.3682 86.1945 24.0919C83.4579 22.5404 80.5381 21.3244 77.5098 20.4828C76.9702 20.3331 76.5726 19.8787 76.49 19.3262L74.9385 8.62525H59.2343L57.6827 19.3262C57.6026 19.8787 57.2025 20.3331 56.6629 20.4828C53.6346 21.327 50.7148 22.5404 47.9782 24.0919C47.4903 24.3682 46.8836 24.3295 46.4344 23.9938L37.7962 17.5294L26.6873 28.6718L33.1363 37.3436C33.4693 37.7928 33.5081 38.3943 33.2344 38.8797C31.688 41.624 30.4746 44.5541 29.633 47.5928C29.4833 48.1323 29.0289 48.5325 28.4764 48.6125L17.8116 50.1692V65.9302L28.4764 67.487C29.0315 67.567 29.4833 67.9672 29.633 68.5067C30.4746 71.5453 31.6854 74.4755 33.2344 77.2198C33.5081 77.7052 33.4719 78.3093 33.1363 78.7559L26.6873 87.4277L37.7962 98.5701L40.2978 96.6984C40.9226 96.2311 41.8081 96.3576 42.2754 96.9824C42.7426 97.6071 42.6161 98.4927 41.9914 98.9599L38.5087 101.565C38.2609 101.753 37.964 101.846 37.6671 101.846Z" fill="#074D31" stroke="#14573A"/>
<path d="M5.14708 20.9242L6.21589 14.4907L1.69541 9.94439C0.877027 9.17506 1.3727 7.68286 2.48798 7.5512L8.70202 6.61922L11.4902 0.792428C11.9523 -0.260887 13.5762 -0.260887 14.0383 0.792428L16.8265 6.61922L23.0405 7.5512C24.1558 7.68286 24.6489 9.17506 23.8331 9.94439L19.3075 14.4907L20.3763 20.9242C20.6009 22.042 19.292 22.974 18.3109 22.3983L12.763 19.3881L7.21499 22.3983C5.92933 22.8914 4.98702 21.758 5.14708 20.9242ZM5.666 9.93148L8.73042 13.014C9.05055 13.3367 9.1977 13.7936 9.12283 14.2403L8.40771 18.5361L12.0892 16.5405C12.51 16.3133 13.016 16.3133 13.4368 16.5405L17.1182 18.5361L16.4031 14.2403C16.3282 13.7911 16.4754 13.3341 16.7955 13.014L19.8599 9.93148L15.6647 9.30156C15.2 9.23186 14.8025 8.93755 14.6011 8.51416L12.763 4.67524L10.9248 8.51416C10.7235 8.93755 10.3233 9.23186 9.86119 9.30156L5.666 9.93148Z" fill="#1B8354"/>
<path d="M113.986 20.9243L115.055 14.4908L110.532 9.94195C109.716 9.17262 110.209 7.68042 111.325 7.54876L117.539 6.61678L120.327 0.789986C120.789 -0.263329 122.413 -0.263329 122.875 0.789986L125.663 6.61678L131.877 7.54876C132.993 7.68042 133.486 9.17262 132.67 9.94195L128.147 14.4908L129.216 20.9243C129.44 22.0422 128.131 22.9741 127.15 22.3984L121.602 19.3882L116.054 22.3984C114.766 22.8915 113.826 21.7582 113.986 20.9243ZM114.503 9.93162L117.567 13.0141C117.887 13.3368 118.034 13.7938 117.96 14.2404L117.244 18.5363L120.926 16.5407C121.347 16.3135 121.853 16.3135 122.274 16.5407L125.955 18.5363L125.24 14.2404C125.165 13.7912 125.312 13.3342 125.632 13.0141L128.697 9.93162L124.501 9.3017C124.037 9.232 123.639 8.93769 123.438 8.5143L121.6 4.67538L119.762 8.5143C119.56 8.93769 119.16 9.232 118.698 9.3017L114.503 9.93162Z" fill="#1B8354"/>
</svg>
