<svg width="24" height="25" viewBox="0 0 24 25" fill="none" xmlns="http://www.w3.org/2000/svg">
<path fill-rule="evenodd" clip-rule="evenodd" d="M6.18213 2.75C6.19946 2.75 6.21686 2.75 6.23431 2.75L17.8178 2.75C18.5884 2.74997 19.2426 2.74994 19.7587 2.8203C20.3049 2.89478 20.8273 3.06291 21.2272 3.5031C21.6306 3.94714 21.741 4.48226 21.7494 5.02927C21.7573 5.54013 21.6757 6.17472 21.5805 6.91461L21.5735 6.9685C21.5399 7.23033 21.4893 7.48356 21.384 7.73711C21.2771 7.99453 21.1298 8.21377 20.9464 8.43165C19.9667 9.59554 18.1454 11.6989 15.5814 13.6144C15.54 13.6454 15.4876 13.7188 15.4776 13.829C15.2285 16.5819 15.0094 18.0385 14.8513 18.8823C14.6803 19.7948 13.9843 20.4264 13.3841 20.8612C13.0701 21.0888 12.7367 21.2937 12.4398 21.4744C12.416 21.4889 12.3925 21.5032 12.3693 21.5173C12.0919 21.686 11.8561 21.8294 11.659 21.9687C11.1185 22.3509 10.4949 22.3241 10.0183 22.0464C9.56847 21.7844 9.25196 21.3065 9.18796 20.766C9.0475 19.5796 8.79286 17.2569 8.51176 13.8226C8.50274 13.7124 8.48553 13.6805 8.4841 13.6778C8.48311 13.6759 8.48058 13.6713 8.47219 13.6621C8.4628 13.6517 8.44403 13.6335 8.40835 13.6068C5.84952 11.6937 4.03182 9.594 3.05351 8.43162C2.8708 8.21453 2.71921 8.00051 2.61112 7.74022C2.50531 7.48541 2.46019 7.23089 2.42644 6.96849C2.42412 6.95047 2.42181 6.93251 2.41951 6.9146C2.32429 6.17472 2.24262 5.54013 2.25053 5.02927C2.259 4.48226 2.36942 3.94714 2.7728 3.5031C3.17269 3.06291 3.69502 2.89478 4.2413 2.8203C4.75741 2.74994 5.41157 2.74997 6.18213 2.75ZM4.44394 4.30655C4.05984 4.35892 3.94414 4.44449 3.88307 4.51171C3.82551 4.57507 3.75601 4.68665 3.75035 5.05249C3.74432 5.44212 3.81012 5.96812 3.91418 6.77712C3.9431 7.00193 3.96843 7.09754 3.99643 7.16496C4.02215 7.22691 4.06773 7.30722 4.20114 7.46572C5.15942 8.60431 6.88846 10.5976 9.30654 12.4054C9.50081 12.5507 9.67905 12.7305 9.808 12.9726C9.93505 13.2112 9.98704 13.4594 10.0068 13.7002C10.2863 17.1158 10.5391 19.4204 10.6776 20.5896C10.6818 20.6253 10.6948 20.6604 10.7147 20.6911C10.7352 20.7224 10.7579 20.7413 10.7733 20.7503C10.7753 20.7515 10.777 20.7524 10.7785 20.7531C10.7821 20.7512 10.7869 20.7483 10.793 20.744C11.0351 20.5728 11.3161 20.402 11.5813 20.2409C11.6077 20.2248 11.634 20.2089 11.66 20.193C11.9588 20.0112 12.2446 19.8345 12.504 19.6466C13.0508 19.2503 13.319 18.9151 13.3769 18.6061C13.5234 17.8243 13.7372 16.4181 13.9837 13.6938C14.0289 13.1947 14.274 12.7188 14.6837 12.4127C17.1067 10.6025 18.8392 8.60571 19.7988 7.4657C19.9152 7.32745 19.9669 7.23831 19.9988 7.1616C20.0323 7.08102 20.0604 6.9744 20.0858 6.77712C20.1899 5.96812 20.2557 5.44212 20.2496 5.05249C20.244 4.68665 20.1745 4.57507 20.1169 4.51171C20.0558 4.44449 19.9401 4.35892 19.556 4.30655C19.1534 4.25165 18.6027 4.25 17.7657 4.25H6.23431C5.39726 4.25 4.8466 4.25165 4.44394 4.30655ZM10.7707 20.7566C10.7707 20.7566 10.7712 20.7564 10.7721 20.7562L10.7707 20.7566Z" fill="white"/>
</svg>
