<svg width="28" height="28" viewBox="0 0 28 28" fill="none" xmlns="http://www.w3.org/2000/svg">
<path fill-rule="evenodd" clip-rule="evenodd" d="M13.2407 2.24036C14.3286 1.19755 16.0056 1.19755 17.0934 2.24036C17.8106 2.92777 18.6989 3.88412 19.4133 4.9902C20.1213 6.08644 20.7087 7.40709 20.7087 8.80484C20.7087 11.4967 18.6122 14.2916 15.1671 14.2916C11.722 14.2916 9.62541 11.4967 9.62541 8.80483C9.62541 7.40709 10.2128 6.08644 10.9208 4.9902C11.6352 3.88412 12.5236 2.92777 13.2407 2.24036ZM15.8824 3.50369C15.4715 3.10977 14.8626 3.10977 14.4517 3.50369C13.7889 4.13899 13.0044 4.98968 12.3909 5.93965C11.771 6.89945 11.3754 7.88385 11.3754 8.80483C11.3754 10.6598 12.8132 12.5416 15.1671 12.5416C17.521 12.5416 18.9587 10.6598 18.9587 8.80484C18.9587 7.88385 18.5632 6.89945 17.9433 5.93965C17.3297 4.98968 16.5452 4.13899 15.8824 3.50369Z" fill="#067647"/>
<path d="M3.79207 16.3333C3.79207 15.85 4.18382 15.4583 4.66707 15.4583L7.46103 15.4583C7.93532 15.4583 8.40415 15.565 8.8307 15.7714L11.213 16.9241C11.4003 17.0147 11.6084 17.0626 11.8205 17.0626H13.0369C14.0138 17.0626 14.8977 17.5238 15.4501 18.2475L20.2647 16.7682L20.2665 16.7677C21.5854 16.3576 22.9977 16.8509 23.8061 17.9703C24.5311 18.9744 24.2509 20.4228 23.1622 21.051L14.394 26.1101C13.6299 26.551 12.724 26.6601 11.8788 26.4093L4.41782 24.1953C3.95454 24.0579 3.69041 23.5709 3.82788 23.1076C3.96536 22.6443 4.45236 22.3802 4.91565 22.5176L12.3767 24.7316C12.7583 24.8448 13.1683 24.7969 13.5195 24.5943L22.2876 19.5352C22.4525 19.4401 22.5227 19.1823 22.3873 18.9948C22.006 18.4668 21.3656 18.2582 20.7852 18.439L20.7819 18.44L16.0403 19.8969C16.0415 19.9307 16.0421 19.9647 16.0421 19.9989C16.0421 20.4552 15.7314 20.8284 15.323 20.9414L12.3586 21.761C11.623 21.9643 10.8352 21.894 10.1485 21.5617L7.60177 20.3295C7.16676 20.1191 6.98474 19.5958 7.19521 19.1608C7.40569 18.7258 7.92895 18.5438 8.36396 18.7542L10.9107 19.9864C11.2133 20.1329 11.5643 20.1649 11.8923 20.0743L14.1489 19.4503C13.9434 19.0787 13.5345 18.8126 13.0369 18.8126H11.8205C11.3462 18.8126 10.8774 18.7058 10.4508 18.4994L8.06851 17.3467C7.88117 17.2561 7.67309 17.2083 7.46103 17.2083H4.66707C4.18382 17.2083 3.79207 16.8165 3.79207 16.3333Z" fill="#067647"/>
</svg>
