<svg width="146" height="56" viewBox="0 0 146 56" fill="none" xmlns="http://www.w3.org/2000/svg">
<g clip-path="url(#clip0_19498_2848)">
<g clip-path="url(#clip1_19498_2848)">
<path d="M45.55 36.9001C45.06 36.9001 44.82 36.6101 44.57 36.2801C44.32 35.9501 44.19 35.5001 44.19 34.9501C44.19 34.4501 44.32 34.0701 44.57 33.8101C44.81 33.5701 45.12 33.4301 45.49 33.4201C46.36 33.4201 47.4 33.5901 47.4 33.5901V32.4101C47.4 32.4101 46.36 32.2401 45.49 32.2401C45.11 32.2401 44.76 32.3101 44.43 32.4301C44.09 32.5501 43.79 32.7301 43.55 32.9701C43.3 33.2001 43.11 33.4901 42.98 33.8301C42.84 34.1701 42.78 34.5501 42.78 34.9701C42.78 35.1401 42.8 35.3201 42.85 35.4901C42.89 35.6701 42.95 35.8301 43.02 35.9901C43.09 36.1501 43.17 36.3001 43.25 36.4301C43.33 36.5601 43.55 36.7901 43.63 36.8701V36.9201H37.13C37.01 36.9201 36.89 36.9001 36.77 36.8601C36.65 36.8201 36.54 36.7501 36.44 36.6501C36.34 36.5601 36.27 36.4401 36.21 36.2901C36.15 36.1501 36.12 35.9701 36.12 35.7701V29.5801L34.71 30.1301V36.0001C34.71 36.1801 34.68 36.3301 34.63 36.4501C34.57 36.5701 34.5 36.6601 34.42 36.7301C34.34 36.8001 34.25 36.8501 34.15 36.8801C34.05 36.9101 33.97 36.9201 33.89 36.9201H32.78V32.2201L31.37 32.7701V36.9201H30.04V38.1301H33.75C33.88 38.1301 34.02 38.1301 34.19 38.1101C34.36 38.0901 34.53 38.0601 34.71 38.0101C34.89 37.9601 35.07 37.8901 35.25 37.7901C35.43 37.7001 35.59 37.5701 35.73 37.4001C35.89 37.6001 36.11 37.7701 36.4 37.9201C36.69 38.0601 36.98 38.1301 37.28 38.1301H37.78C37.78 38.1301 37.81 38.1301 37.83 38.1301C37.85 38.1301 37.86 38.1301 37.88 38.1301H48.11V36.9201H45.55V36.9001Z" fill="#14573A"/>
<path d="M55.9001 35.7501V29.5601L54.4901 30.1101V35.9801C54.4901 36.1601 54.4601 36.3101 54.4101 36.4301C54.3501 36.5501 54.2801 36.6401 54.2001 36.7101C54.1201 36.7801 54.0301 36.8301 53.9301 36.8601C53.8301 36.8901 53.7501 36.9001 53.6701 36.9001H52.5601V32.2001L51.1501 32.7501V36.9001H49.8201V38.1101H53.5301C53.6601 38.1101 53.8001 38.1101 53.9701 38.0901C54.1401 38.0701 54.3101 38.0401 54.4901 37.9901C54.6701 37.9401 54.8501 37.8801 55.0301 37.7701C55.5001 37.4901 55.9101 36.9701 55.9101 35.7501H55.9001Z" fill="#14573A"/>
<path d="M58.9801 29.5601L57.6201 30.1001V38.1101H58.9801V29.5601Z" fill="#14573A"/>
<path d="M67.2702 32.98C67.0102 32.73 66.7002 32.55 66.3402 32.42C65.9802 32.3 65.5702 32.23 65.1302 32.23C64.6902 32.23 64.2802 32.29 63.9202 32.42C63.5602 32.54 63.2502 32.73 62.9902 32.98C62.7302 33.23 62.5302 33.53 62.3902 33.9C62.2502 34.27 62.1802 34.69 62.1802 35.18C62.1802 35.67 62.2502 36.09 62.3902 36.46C62.5302 36.83 62.7302 37.13 62.9902 37.38C63.2502 37.63 63.5602 37.81 63.9202 37.94C64.2802 38.06 64.6902 38.13 65.1302 38.13C65.5702 38.13 65.9802 38.07 66.3402 37.94C66.7002 37.81 67.0102 37.63 67.2702 37.38C67.5302 37.13 67.7302 36.83 67.8702 36.46C68.0102 36.09 68.0802 35.67 68.0802 35.18C68.0802 34.69 68.0102 34.27 67.8702 33.9C67.7302 33.53 67.5302 33.23 67.2702 32.98ZM66.2902 36.42C66.0302 36.75 65.6402 36.91 65.1202 36.91C64.6002 36.91 64.2102 36.75 63.9502 36.42C63.6902 36.09 63.5602 35.68 63.5602 35.18C63.5602 34.68 63.6902 34.27 63.9502 33.94C64.2102 33.61 64.6002 33.45 65.1202 33.45C65.6402 33.45 66.0302 33.61 66.2902 33.94C66.5502 34.27 66.6802 34.68 66.6802 35.18C66.6802 35.68 66.5502 36.09 66.2902 36.42Z" fill="#14573A"/>
<path d="M70.6801 40.4602C70.9901 39.9902 71.1501 39.3102 71.1501 38.4302V32.2202L69.7901 32.7602V38.4402C69.7901 38.7802 69.77 39.0602 69.73 39.2702C69.69 39.4802 69.6301 39.6402 69.5601 39.7602C69.4901 39.8702 69.4 39.9502 69.3 39.9902C69.2 40.0302 69.08 40.0502 68.94 40.0502H68.05V41.1902H69.09C69.84 41.1902 70.3701 40.9502 70.6801 40.4802V40.4602Z" fill="#14573A"/>
<path d="M74.2201 29.5601L72.8601 30.1101V37.9901H74.2201V29.5601Z" fill="#14573A"/>
<path d="M76.8502 40.46C77.1602 39.99 77.3202 39.31 77.3202 38.43V32.23L75.9602 32.77V38.43C75.9602 38.77 75.9402 39.05 75.9002 39.26C75.8602 39.47 75.8002 39.63 75.7302 39.75C75.6602 39.86 75.5702 39.94 75.4702 39.98C75.3702 40.02 75.2502 40.04 75.1102 40.04H74.2202V41.18H75.2602C76.0102 41.18 76.5402 40.94 76.8502 40.47V40.46Z" fill="#14573A"/>
<path d="M77.3202 29.5601V31.2001L75.9602 30.6601V29.5601H77.3202Z" fill="#14573A"/>
<path d="M67.1002 29.5601V31.2001L65.7402 30.6601V29.5601H67.1002Z" fill="#14573A"/>
<path d="M64.5102 29.5601V31.2001L63.1501 30.6601V29.5601H64.5102Z" fill="#14573A"/>
<path d="M51.9302 40.6903C51.7902 40.6903 51.6802 40.6503 51.6002 40.5603C51.5202 40.4703 51.4802 40.3503 51.4802 40.2003C51.4802 40.0503 51.5202 39.9403 51.5902 39.8503C51.6602 39.7703 51.7502 39.7303 51.8602 39.7303C52.1902 39.7303 52.5802 39.7903 52.5802 39.7903V39.3403C52.5802 39.3403 52.1902 39.2803 51.8602 39.2803C51.5602 39.2803 51.3202 39.3503 51.1602 39.5003C50.9902 39.6503 50.9102 39.8603 50.9102 40.1303C50.9102 40.2203 50.9302 40.3103 50.9602 40.4003C51.0002 40.4903 51.0402 40.5703 51.1002 40.6303V40.6803H50.6902V41.1603H52.8102V40.6803H51.9302V40.6903Z" fill="#14573A"/>
<path d="M84.5 34.25C84.41 33.82 84.25 33.45 84.03 33.15C83.81 32.85 83.52 32.62 83.15 32.46C82.78 32.3 82.33 32.23 81.79 32.23C81.25 32.23 80.8 32.31 80.44 32.48C80.08 32.65 79.8 32.87 79.59 33.15C79.38 33.43 79.23 33.75 79.15 34.11C79.07 34.47 79.02 34.98 79.02 35.37C79.02 35.78 79.09 36.16 79.23 36.49C79.37 36.83 79.57 37.12 79.82 37.36C80.07 37.6 80.37 37.79 80.72 37.92C81.07 38.05 81.45 38.11 81.87 38.11H82.24C82.57 37.99 83.16 37.49 83.16 37.49C83.05 38.87 82.82 40.02 80.87 40.02H79.74V41.17H81.05C81.72 41.17 82.28 41.08 82.73 40.89C83.18 40.71 83.55 40.41 83.83 40.01C84.11 39.6 84.31 38.81 84.43 38.18C84.55 37.54 84.61 36.77 84.61 35.87C84.61 35.32 84.56 34.69 84.47 34.26L84.5 34.25ZM83.22 36.91H81.88C81.39 36.91 81.02 36.79 80.79 36.55C80.56 36.31 80.44 35.92 80.44 35.38C80.44 35.14 80.46 34.78 80.51 34.55C80.55 34.33 80.63 34.13 80.74 33.97C80.85 33.81 80.99 33.68 81.17 33.58C81.35 33.48 81.57 33.43 81.84 33.43C82.37 33.43 82.74 33.62 82.94 34C83.14 34.38 83.24 35.07 83.24 35.8C83.24 36.21 83.23 36.57 83.2 36.9L83.22 36.91Z" fill="#14573A"/>
<path d="M28.67 33.85C28.52 33.49 28.32 33.19 28.05 32.95C27.78 32.71 27.47 32.53 27.11 32.41C26.75 32.29 26.35 32.23 25.92 32.23C25.49 32.23 25.09 32.29 24.73 32.42C24.37 32.54 24.05 32.73 23.79 32.98C23.52 33.23 23.32 33.53 23.17 33.88C23.02 34.24 22.95 34.62 22.95 35.09C22.95 35.39 23.06 35.96 23.25 36.3C23.35 36.46 24.06 36.86 24.27 36.93C24.09 36.91 23.73 36.95 23.73 36.95C23.64 36.96 23.56 36.98 23.48 37C23.47 37 23.45 37 23.44 37.01C23.21 37.06 23.01 37.14 22.83 37.23C22.58 37.36 22.37 37.52 22.21 37.73C21.89 38.14 21.73 38.66 21.73 39.29V41.17H23.09V39.28C23.09 39.13 23.11 38.99 23.14 38.85C23.18 38.71 23.24 38.58 23.34 38.48C23.44 38.37 23.56 38.28 23.73 38.22C23.89 38.16 24.1 38.13 24.36 38.13H25.94C26.39 38.13 26.79 38.07 27.16 37.95C27.53 37.83 27.84 37.66 28.1 37.42C28.36 37.18 28.56 36.88 28.7 36.52C28.84 36.16 28.91 35.59 28.91 35.1C28.91 34.61 28.84 34.22 28.69 33.86L28.67 33.85ZM27.08 36.48C26.81 36.79 26.43 36.95 25.92 36.95C25.41 36.95 25.02 36.79 24.76 36.48C24.49 36.17 24.36 35.6 24.36 35.09C24.36 34.58 24.49 34.19 24.75 33.87C25.01 33.55 25.4 33.4 25.92 33.4C26.44 33.4 26.83 33.56 27.09 33.87C27.35 34.19 27.48 34.57 27.48 35.09C27.48 35.61 27.35 36.17 27.08 36.48Z" fill="#14573A"/>
<path d="M8.4901 45.6104V53.4004H7.1401V47.9304C7.0301 48.2204 6.8901 48.5704 6.6501 49.0404L5.0001 52.2704H3.8201L2.2001 49.0404C1.9501 48.5604 1.7801 48.2104 1.6701 47.9104V53.4004H0.350098V45.6104H1.8301L3.6001 49.0404C3.9401 49.7004 4.2601 50.3904 4.4301 50.9004C4.6001 50.3804 4.9201 49.6904 5.2601 49.0404L7.0401 45.6104H8.4901Z" fill="#14573A"/>
<path d="M9.6001 48.0905L10.9001 47.9604V53.4005H9.6001V48.0905Z" fill="#14573A"/>
<path d="M16.82 49.5702V53.4102H15.52V50.0002C15.52 49.2202 15.3 48.9702 14.67 48.9702C14.25 48.9702 13.77 49.1102 13.31 49.3402V53.4202H12.01V48.1102L13.31 47.9802V48.5002C13.83 48.2002 14.48 47.9302 15.19 47.9302C16.19 47.9302 16.83 48.4102 16.83 49.5902L16.82 49.5702Z" fill="#14573A"/>
<path d="M17.9302 48.0905L19.2202 47.9604V53.4005H17.9302V48.0905Z" fill="#14573A"/>
<path d="M20.3301 52.8404L20.8801 51.9604C21.5201 52.4204 22.1501 52.5704 22.7001 52.5704C23.3401 52.5704 23.6601 52.3504 23.6601 51.9704C23.6601 51.6604 23.4601 51.4304 22.5501 51.1904L22.1901 51.0904C21.0701 50.7904 20.5701 50.3304 20.5701 49.5004C20.5701 48.5504 21.4401 47.9004 22.6501 47.9004C23.3501 47.9004 24.0601 48.0604 24.7801 48.4804L24.2701 49.3504C23.6001 49.0004 23.2001 48.8904 22.6701 48.8904C22.1401 48.8904 21.8901 49.1104 21.8901 49.4204C21.8901 49.7104 22.0701 49.8404 22.7301 50.0104L23.1101 50.1104C24.4201 50.4604 24.9601 50.9904 24.9601 51.8504C24.9601 52.8204 24.2101 53.5604 22.7201 53.5604C21.7201 53.5604 20.9801 53.3104 20.3201 52.8404H20.3301Z" fill="#14573A"/>
<path d="M29.7101 53.2004C29.3901 53.3704 28.9201 53.5604 28.2701 53.5604C27.3701 53.5604 26.6201 53.0604 26.6201 51.8504V49.1004H25.6001V48.0804H26.6201V46.8804L27.9201 46.6904V48.0804H29.5801L29.4501 49.1004H27.9201V51.6504C27.9201 52.2504 28.1501 52.5004 28.5601 52.5004C28.8201 52.5004 29.0501 52.4304 29.3501 52.3104L29.7101 53.2004Z" fill="#14573A"/>
<path d="M34.3301 48.0202L34.1101 49.3402C33.9101 49.2702 33.6801 49.2002 33.3801 49.2002C32.9701 49.2002 32.5501 49.3202 32.1201 49.9502V53.4102H30.8201V48.0802L32.1201 47.9602V48.7202C32.5201 48.1802 33.0501 47.9102 33.6301 47.9102C33.8801 47.9102 34.0901 47.9502 34.3301 48.0202Z" fill="#14573A"/>
<path d="M40.1102 48.0806V48.1506L38.2702 53.5206C37.7202 55.1406 37.0402 55.7906 35.8202 55.7906C35.3402 55.7906 34.9502 55.6806 34.7002 55.6006L35.0402 54.6506C35.2702 54.7206 35.4802 54.7606 35.7102 54.7606C36.2102 54.7606 36.6202 54.6306 37.0202 53.5706L37.0802 53.4006H36.7302L34.7102 48.1506V48.0806H36.0802L37.1902 51.2406C37.3202 51.6106 37.4202 51.9306 37.4902 52.2006C37.5702 51.9006 37.6702 51.5506 37.7702 51.2406L38.7802 48.0806H40.1102Z" fill="#14573A"/>
<path d="M19.2401 45.6104V47.2504L17.8801 46.7104V45.6104H19.2401Z" fill="#14573A"/>
<path d="M10.9301 45.6104V47.2504L9.57007 46.7104V45.6104H10.9301Z" fill="#14573A"/>
<path d="M42.54 50.8205C42.54 48.8405 43.81 47.9805 45.23 47.9805C46.97 47.9805 47.86 49.1705 47.86 50.8505C47.86 52.8305 46.6 53.5805 45.18 53.5805C43.44 53.5805 42.55 52.5005 42.55 50.8105L42.54 50.8205ZM46.65 50.8505C46.65 49.7705 46.19 49.0305 45.22 49.0305C44.25 49.0305 43.73 49.7605 43.73 50.8105C43.73 51.8605 44.19 52.5405 45.16 52.5405C46.13 52.5405 46.64 51.9105 46.64 50.8605L46.65 50.8505Z" fill="#14573A"/>
<path d="M51.15 47.7304V48.6604H52.68L52.55 49.6804H51.16V53.4304H49.86V49.6804H48.97V48.6604H49.86V47.7604C49.86 46.5204 50.58 45.6304 51.88 45.6304C52.4 45.6304 52.79 45.7104 53.15 45.8604L52.83 46.8804C52.54 46.7604 52.28 46.7104 51.99 46.7104C51.45 46.7104 51.16 47.0904 51.16 47.7304H51.15Z" fill="#14573A"/>
<path d="M64.2301 45.6401V53.4301H62.8801V47.9601C62.7701 48.2501 62.6301 48.6001 62.3901 49.0701L60.7401 52.3001H59.5601L57.9401 49.0701C57.6901 48.5901 57.5201 48.2401 57.4101 47.9401V53.4301H56.0901V45.6401H57.5701L59.3401 49.0701C59.6801 49.7301 60.0001 50.4201 60.1701 50.9301C60.3401 50.4101 60.6601 49.7201 61.0001 49.0701L62.7801 45.6401H64.2301Z" fill="#14573A"/>
<path d="M70.2201 51.0202H66.6401C66.7001 52.1502 67.3601 52.5602 68.0901 52.5602C68.7201 52.5602 69.1401 52.3802 69.6601 52.0802L70.1201 52.9202C69.6001 53.2802 68.8801 53.5802 67.9901 53.5802C66.5401 53.5802 65.3301 52.8502 65.3301 50.8302C65.3301 49.1602 66.2301 47.9302 67.9401 47.9302C69.4701 47.9302 70.2501 48.9302 70.2501 50.2102C70.2501 50.4102 70.2401 50.7302 70.2101 51.0202H70.2201ZM66.7001 50.1202H69.0101V50.0802C69.0101 49.2102 68.5801 48.8702 67.9601 48.8702C67.2301 48.8702 66.8301 49.3502 66.7001 50.1202Z" fill="#14573A"/>
<path d="M76.41 45.6201V53.4201H75.2701L75.19 53.0201C74.65 53.3701 74.08 53.5701 73.5201 53.5701C72.0701 53.5701 71.3 52.5701 71.3 50.8801C71.3 48.8501 72.6101 47.9201 74.0701 47.9201C74.4301 47.9201 74.7901 47.9801 75.1301 48.0801V45.7501L76.4301 45.6201H76.41ZM73.8601 52.5501C74.2701 52.5501 74.6701 52.4301 75.1101 52.1701V49.0601C74.8301 48.9601 74.5401 48.9201 74.2101 48.9201C73.3201 48.9201 72.6501 49.5501 72.6501 50.8901C72.6501 52.0601 73.0901 52.5601 73.8601 52.5601V52.5501Z" fill="#14573A"/>
<path d="M77.52 48.1105L78.82 47.9805V53.4305H77.52V48.1105Z" fill="#14573A"/>
<path d="M84.6402 49.7002V53.4302H83.5102L83.4102 52.9902C82.7802 53.4502 82.1602 53.5902 81.5502 53.5902C80.5802 53.5902 79.9302 53.0102 79.9302 52.1402C79.9302 50.7802 81.5002 50.2002 83.3402 50.1602V49.9602C83.3402 49.2902 83.1402 48.9902 82.4702 48.9902C81.9302 48.9902 81.3402 49.1802 80.6902 49.6002L80.1602 48.7702C80.9102 48.2502 81.7002 47.9502 82.6602 47.9502C83.9302 47.9502 84.6302 48.4502 84.6302 49.7202L84.6402 49.7002ZM81.9702 52.5702C82.4002 52.5702 82.8502 52.4502 83.3402 52.1602V51.0102C82.0902 51.0702 81.2802 51.3902 81.2802 51.9802C81.2802 52.3602 81.5202 52.5702 81.9702 52.5702Z" fill="#14573A"/>
<path d="M78.85 45.6401V47.2701L77.49 46.7301V45.6401H78.85Z" fill="#14573A"/>
<path d="M131.63 14.2001C130.81 11.3201 128.58 9.03014 125.73 8.13014C126.58 7.86014 127.49 7.72014 128.43 7.72014C129.1 7.72014 129.76 7.79014 130.39 7.94014C130.58 7.98014 130.7 7.75014 130.57 7.62014C130.18 7.24014 129.75 6.90014 129.3 6.60014C127.89 5.67014 126.19 5.12014 124.37 5.12014C124.31 5.12014 124.25 5.12014 124.19 5.12014C125.05 4.41014 126.05 3.86014 127.14 3.52014C127.32 3.46014 127.31 3.20014 127.12 3.16014C126.51 3.03014 125.88 2.96014 125.23 2.96014C124.11 2.96014 123.04 3.16014 122.06 3.54014C122.34 2.64014 122.9 1.86014 123.63 1.30014C123.78 1.19014 123.68 0.950137 123.5 0.960137C122.01 1.05014 120.73 1.87014 120.01 2.90014C119.97 1.91014 119.59 0.980137 119.03 0.270137C118.96 0.180137 118.81 0.180137 118.74 0.270137C118.17 0.980137 117.8 1.91014 117.76 2.90014C117.03 1.86014 115.76 1.05014 114.27 0.960137C114.09 0.950137 113.99 1.18014 114.14 1.30014C114.87 1.86014 115.42 2.64014 115.71 3.54014C114.72 3.17014 113.66 2.96014 112.54 2.96014C111.89 2.96014 111.26 3.03014 110.65 3.16014C110.47 3.20014 110.45 3.46014 110.63 3.52014C111.72 3.87014 112.72 4.42014 113.58 5.12014C113.52 5.12014 113.46 5.12014 113.4 5.12014C111.58 5.12014 109.89 5.66014 108.47 6.60014C108.02 6.90014 107.59 7.24014 107.2 7.62014C107.06 7.75014 107.2 7.98014 107.38 7.94014C108.01 7.80014 108.67 7.72014 109.34 7.72014C110.28 7.72014 111.19 7.87014 112.04 8.13014C109.19 9.03014 106.96 11.3201 106.14 14.2001C106.09 14.3901 106.32 14.5301 106.46 14.3801C107.9 12.8501 109.88 11.8301 112.1 11.6301C109.84 13.0901 107.85 15.9701 108.06 19.5901C108.07 19.7901 108.35 19.8401 108.43 19.6501C109.36 17.3101 111.25 15.4501 113.63 14.5901C112.22 16.1501 111.36 18.2301 111.36 20.5001C111.36 21.5401 111.54 22.5401 111.87 23.4701C111.94 23.6601 112.21 23.6301 112.24 23.4301C112.55 20.6001 114.25 18.1801 116.64 16.8701L116.95 16.6901C116.95 16.6901 117.05 16.6901 117.06 16.7401C117.15 17.1801 117.46 18.3901 117.46 21.9601C117.46 26.4101 117.1 35.0201 117.06 35.3801C117.06 35.4001 117.06 35.4201 117.08 35.4301L118.87 36.7401C118.87 36.7401 118.92 36.7501 118.94 36.7401L120.72 35.4301C120.72 35.4301 120.75 35.4001 120.74 35.3701C120.7 35.0001 120.34 26.4001 120.34 21.9501C120.34 18.3801 120.65 17.1701 120.74 16.7301C120.75 16.6801 120.81 16.6501 120.85 16.6801L121.16 16.8601C123.55 18.1701 125.25 20.5801 125.56 23.4201C125.58 23.6201 125.86 23.6401 125.93 23.4601C126.26 22.5301 126.44 21.5301 126.44 20.4901C126.44 18.2201 125.58 16.1501 124.17 14.5801C126.55 15.4401 128.44 17.2901 129.37 19.6401C129.44 19.8301 129.72 19.7801 129.74 19.5801C129.95 15.9601 127.96 13.0801 125.7 11.6201C127.92 11.8201 129.9 12.8401 131.34 14.3701C131.48 14.5101 131.71 14.3701 131.66 14.1901L131.63 14.2001Z" fill="#14573A"/>
<path d="M124.9 49.3899C124.8 49.4899 124.69 49.5799 124.58 49.6599C124.49 49.7299 124.39 49.7799 124.29 49.8199C124.2 49.8499 124.11 49.8699 124.02 49.8599C123.93 49.8599 123.85 49.8199 123.78 49.7699C123.68 49.6999 123.62 49.5899 123.54 49.4999C123.43 49.3599 123.29 49.2399 123.13 49.1499C122.95 49.0499 122.75 48.9899 122.55 48.9699C122.36 48.9499 122.17 48.9699 121.98 49.0299C121.98 49.0299 121.98 49.0299 121.97 49.0299C121.8 49.0799 121.63 49.1699 121.49 49.2799C121.35 49.3899 121.24 49.5199 121.15 49.6699C121.07 49.7999 121.02 49.9399 120.98 50.0799C120.91 50.3599 120.94 50.6699 121.03 50.9499C121.31 51.7799 122.22 52.0999 123.05 52.0399C124.18 51.9599 125.32 50.6099 125.41 50.4999C125.65 50.2099 125.67 49.5699 125.24 49.0399C125.13 49.1599 125.02 49.2799 124.9 49.3999V49.3899Z" fill="#14573A"/>
<path d="M116.58 49.6799C116.49 49.5299 116.38 49.3999 116.24 49.2899C116.1 49.1799 115.94 49.0899 115.76 49.0399C115.76 49.0399 115.76 49.0399 115.75 49.0399C115.57 48.9799 115.37 48.9699 115.18 48.9799C114.98 48.9999 114.78 49.0599 114.6 49.1599C114.44 49.2499 114.3 49.3699 114.19 49.5099C114.11 49.5999 114.05 49.7099 113.95 49.7799C113.88 49.8299 113.8 49.8599 113.71 49.8699C113.62 49.8699 113.53 49.8599 113.44 49.8299C113.33 49.7899 113.24 49.7299 113.15 49.6699C113.04 49.5899 112.93 49.4999 112.83 49.3999C112.71 49.2899 112.6 49.1699 112.49 49.0399C112.05 49.5699 112.08 50.2099 112.32 50.4999C112.41 50.6099 113.55 51.9599 114.68 52.0399C115.52 52.0999 116.42 51.7799 116.7 50.9499C116.79 50.6699 116.82 50.3699 116.75 50.0799C116.72 49.9399 116.66 49.7999 116.58 49.6699V49.6799Z" fill="#14573A"/>
<path d="M145.86 33.5401C135.67 29.5301 125.89 34.0901 118.86 39.1301C111.83 34.0801 102.05 29.5301 91.86 33.5401C91.62 33.6301 91.7 33.9901 91.96 33.9701C100.9 33.2701 107.97 35.2001 116.36 41.0301C113.84 43.0501 111.8 44.9801 110.4 46.3201C110.18 46.0201 109.82 45.5501 109.63 45.3301C109.54 45.2201 108.4 43.8701 107.27 43.7901C106.43 43.7301 105.53 44.0501 105.25 44.8801C105.16 45.1601 105.13 45.4601 105.2 45.7501C105.23 45.8901 105.29 46.0301 105.37 46.1601C105.46 46.3101 105.57 46.4401 105.71 46.5501C105.85 46.6601 106.01 46.7501 106.19 46.8001C106.19 46.8001 106.19 46.8001 106.2 46.8001C106.38 46.8601 106.58 46.8701 106.77 46.8601C106.97 46.8401 107.17 46.7801 107.35 46.6801C107.51 46.5901 107.65 46.4701 107.76 46.3301C107.84 46.2401 107.9 46.1301 108 46.0601C108.07 46.0101 108.15 45.9801 108.24 45.9701C108.33 45.9701 108.42 45.9801 108.51 46.0101C108.62 46.0501 108.71 46.1101 108.8 46.1701C109.15 46.4101 109.77 47.1901 109.91 47.3801C110.04 47.5401 110.19 47.7301 110.32 47.9001C110.33 47.9201 110.49 48.1201 110.5 48.1401C110.5 48.1401 109.06 47.6101 108.84 47.8101C107.78 48.8101 106.94 49.6001 106.17 50.3001C105.95 50.5001 105.71 50.7001 105.46 50.8701C105.26 51.0101 105.05 51.1301 104.83 51.2401C104.65 51.3201 104.46 51.3901 104.27 51.4401C104.1 51.4801 103.93 51.5001 103.76 51.4901C103.6 51.4901 103.45 51.4701 103.3 51.4401C103.15 51.4101 103.01 51.3601 102.87 51.3101C102.73 51.2601 102.6 51.1901 102.47 51.1301C102.34 51.0601 102.21 50.9901 102.06 50.9301C101.93 50.8801 101.79 50.8501 101.64 50.8401C101.55 50.8401 101.46 50.8401 101.37 50.8401C101.1 50.8701 100.84 50.9601 100.62 51.1201C100.39 51.2801 100.21 51.5101 100.1 51.7601C99.99 52.0001 99.95 52.2701 99.98 52.5401C100.01 52.8101 100.11 53.0801 100.27 53.3001C100.38 53.4601 100.53 53.6001 100.68 53.7301C100.85 53.8701 101.04 53.9801 101.24 54.0701C101.46 54.1701 101.68 54.2501 101.92 54.3201C102.17 54.3901 102.43 54.4301 102.69 54.4601C102.97 54.4901 103.25 54.5001 103.52 54.4901C103.65 54.4901 103.77 54.4801 103.9 54.4601C105.7 54.2801 107.47 52.7501 108.38 51.8901C112.2 48.2901 115.64 45.3001 118.85 42.8601C122.06 45.3001 125.5 48.2901 129.32 51.8901C130.23 52.7501 132 54.2801 133.8 54.4601C133.92 54.4701 134.05 54.4801 134.18 54.4901C134.46 54.5001 134.74 54.4901 135.01 54.4601C135.27 54.4301 135.53 54.3901 135.78 54.3201C136.01 54.2601 136.24 54.1801 136.46 54.0701C136.66 53.9801 136.85 53.8601 137.02 53.7301C137.18 53.6101 137.32 53.4601 137.43 53.3001C137.59 53.0801 137.69 52.8101 137.72 52.5401C137.75 52.2801 137.7 52.0101 137.6 51.7601C137.49 51.5101 137.3 51.2801 137.08 51.1201C136.86 50.9601 136.6 50.8701 136.33 50.8401C136.24 50.8401 136.15 50.8301 136.06 50.8401C135.92 50.8501 135.78 50.8801 135.64 50.9301C135.5 50.9801 135.37 51.0601 135.23 51.1301C135.1 51.2001 134.97 51.2601 134.83 51.3101C134.69 51.3601 134.55 51.4101 134.4 51.4401C134.25 51.4701 134.09 51.4901 133.94 51.4901C133.77 51.4901 133.6 51.4701 133.43 51.4401C133.24 51.4001 133.05 51.3301 132.87 51.2401C132.65 51.1401 132.44 51.0101 132.24 50.8701C131.99 50.7001 131.76 50.5001 131.53 50.3001C130.76 49.6001 129.92 48.8101 128.86 47.8101C128.64 47.6001 127.2 48.1401 127.2 48.1401C127.21 48.1201 127.37 47.9201 127.38 47.9001C127.51 47.7301 127.66 47.5501 127.79 47.3801C127.94 47.1901 128.56 46.4101 128.9 46.1701C128.99 46.1101 129.09 46.0501 129.19 46.0101C129.28 45.9801 129.37 45.9601 129.46 45.9701C129.55 45.9701 129.63 46.0101 129.7 46.0601C129.8 46.1301 129.86 46.2401 129.94 46.3301C130.05 46.4701 130.19 46.5901 130.35 46.6801C130.53 46.7801 130.73 46.8401 130.93 46.8601C131.12 46.8801 131.31 46.8601 131.5 46.8001C131.5 46.8001 131.5 46.8001 131.51 46.8001C131.68 46.7501 131.85 46.6601 131.99 46.5501C132.12 46.4401 132.24 46.3101 132.33 46.1601C132.41 46.0301 132.46 45.8901 132.5 45.7501C132.57 45.4701 132.54 45.1601 132.45 44.8801C132.17 44.0501 131.26 43.7301 130.43 43.7901C129.3 43.8701 128.16 45.2201 128.07 45.3301C127.88 45.5501 127.52 46.0101 127.3 46.3201C125.9 44.9801 123.86 43.0501 121.34 41.0301C129.74 35.2001 136.81 33.2701 145.74 33.9701C146 33.9901 146.08 33.6301 145.84 33.5401H145.86Z" fill="#14573A"/>
</g>
</g>
<defs>
<clipPath id="clip0_19498_2848">
<rect width="145.65" height="55.6" fill="white" transform="translate(0.350098 0.200195)"/>
</clipPath>
<clipPath id="clip1_19498_2848">
<rect width="145.65" height="55.6" fill="white" transform="translate(0.350098 0.200195)"/>
</clipPath>
</defs>
</svg>
