<svg width="29" height="28" viewBox="0 0 29 28" fill="none" xmlns="http://www.w3.org/2000/svg">
<path fill-rule="evenodd" clip-rule="evenodd" d="M6.45638 8.74935C6.45638 7.2996 7.63163 6.12435 9.08138 6.12435C10.5311 6.12435 11.7064 7.2996 11.7064 8.74935C11.7064 10.1991 10.5311 11.3743 9.08138 11.3743C7.63163 11.3743 6.45638 10.1991 6.45638 8.74935ZM9.08138 7.87435C8.59813 7.87435 8.20638 8.2661 8.20638 8.74935C8.20638 9.2326 8.59813 9.62435 9.08138 9.62435C9.56463 9.62435 9.95638 9.2326 9.95638 8.74935C9.95638 8.2661 9.56463 7.87435 9.08138 7.87435Z" fill="#009951"/>
<path fill-rule="evenodd" clip-rule="evenodd" d="M14.2647 2.04102H14.3981C16.9539 2.041 18.9614 2.04099 20.5287 2.25171C22.1348 2.46764 23.4091 2.91918 24.4103 3.92041C25.4115 4.92165 25.8631 6.19594 26.079 7.80204C26.2897 9.36936 26.2897 11.3768 26.2897 13.9326V14.066C26.2897 16.6219 26.2897 18.6293 26.079 20.1967C25.8631 21.8028 25.4115 23.0771 24.4103 24.0783C23.4091 25.0795 22.1348 25.5311 20.5287 25.747C18.9614 25.9577 16.9539 25.9577 14.3981 25.9577H14.2647C11.7089 25.9577 9.70139 25.9577 8.13407 25.747C6.52797 25.5311 5.25368 25.0795 4.25245 24.0783C3.25121 23.0771 2.79967 21.8028 2.58374 20.1967C2.37302 18.6293 2.37303 16.6219 2.37305 14.0661V13.9326C2.37303 11.3768 2.37302 9.36936 2.58374 7.80204C2.79967 6.19594 3.25121 4.92165 4.25245 3.92041C5.25368 2.91918 6.52797 2.46764 8.13407 2.25171C9.70139 2.04099 11.7089 2.041 14.2647 2.04102ZM8.36726 3.9861C6.95521 4.17595 6.11177 4.53597 5.48988 5.15785C4.868 5.77974 4.50798 6.62318 4.31813 8.03523C4.12491 9.47244 4.12305 11.3622 4.12305 13.9993C4.12305 16.6365 4.12491 18.5263 4.31813 19.9635C4.50798 21.3755 4.868 22.219 5.48988 22.8408C5.6552 23.0062 5.83617 23.153 6.03932 23.283C6.19476 23.0952 6.35138 22.9055 6.50921 22.7142C8.74945 20.0001 11.2343 16.9895 14.0548 15.0983C15.7055 13.9915 17.5222 13.2284 19.5265 13.1342C21.13 13.0588 22.7984 13.4141 24.5397 14.2898C24.5397 14.194 24.5397 14.0972 24.5397 13.9993C24.5397 11.3622 24.5379 9.47244 24.3446 8.03523C24.1548 6.62318 23.7948 5.77974 23.1729 5.15785C22.551 4.53597 21.7075 4.17595 20.2955 3.9861C18.8583 3.79287 16.9685 3.79102 14.3314 3.79102C11.6943 3.79102 9.80447 3.79287 8.36726 3.9861ZM24.5332 16.2823C22.7167 15.1975 21.0886 14.8127 19.6087 14.8823C18.0112 14.9574 16.4993 15.5662 15.0294 16.5518C12.44 18.2881 10.1397 21.0706 7.87922 23.805C7.84794 23.8429 7.81666 23.8807 7.7854 23.9185C7.968 23.9537 8.1616 23.9849 8.36726 24.0126C9.80447 24.2058 11.6943 24.2077 14.3314 24.2077C16.9685 24.2077 18.8583 24.2058 20.2955 24.0126C21.7075 23.8228 22.551 23.4627 23.1729 22.8408C23.7948 22.219 24.1548 21.3755 24.3446 19.9635C24.4769 18.9799 24.5195 17.7843 24.5332 16.2823Z" fill="#009951"/>
</svg>
