<svg width="29" height="28" viewBox="0 0 29 28" fill="none" xmlns="http://www.w3.org/2000/svg">
<path fill-rule="evenodd" clip-rule="evenodd" d="M5.55015 1.95349C4.65107 1.95349 3.92224 2.68232 3.92224 3.5814C3.92224 4.48047 4.65107 5.2093 5.55015 5.2093C6.44922 5.2093 7.17805 4.48047 7.17805 3.5814C7.17805 2.68232 6.44922 1.95349 5.55015 1.95349ZM1.96875 3.5814C1.96875 1.60345 3.5722 0 5.55015 0C7.52809 0 9.13154 1.60345 9.13154 3.5814C9.13154 5.55934 7.52809 7.16279 5.55015 7.16279C3.5722 7.16279 1.96875 5.55934 1.96875 3.5814Z" fill="#067647"/>
<path fill-rule="evenodd" clip-rule="evenodd" d="M23.7826 17.5814C22.8834 17.5814 22.1547 18.3102 22.1547 19.2093C22.1547 20.1085 22.8834 20.8372 23.7826 20.8372C24.6817 20.8372 25.4105 20.1085 25.4105 19.2093C25.4105 18.3102 24.6817 17.5814 23.7826 17.5814ZM20.2012 19.2093C20.2012 17.2314 21.8046 15.6279 23.7826 15.6279C25.7605 15.6279 27.364 17.2314 27.364 19.2093C27.364 21.1873 25.7605 22.7907 23.7826 22.7907C21.8046 22.7907 20.2012 21.1873 20.2012 19.2093Z" fill="#067647"/>
<path fill-rule="evenodd" clip-rule="evenodd" d="M1.31641 9.44154C1.31641 7.10396 3.21138 5.20898 5.54896 5.20898C7.88655 5.20898 9.78152 7.10396 9.78152 9.44154V10.0927C9.78152 11.3514 8.76115 12.3718 7.50245 12.3718H3.59548C2.33678 12.3718 1.31641 11.3514 1.31641 10.0927V9.44154ZM5.54896 7.16247C4.29027 7.16247 3.26989 8.18284 3.26989 9.44154V10.0927C3.26989 10.2725 3.41566 10.4183 3.59548 10.4183H7.50245C7.68226 10.4183 7.82803 10.2725 7.82803 10.0927V9.44154C7.82803 8.18284 6.80766 7.16247 5.54896 7.16247Z" fill="#067647"/>
<path fill-rule="evenodd" clip-rule="evenodd" d="M19.5488 25.0695C19.5488 22.7319 21.4438 20.8369 23.7814 20.8369C26.1189 20.8369 28.0139 22.7319 28.0139 25.0695V25.7206C28.0139 26.9793 26.9936 27.9997 25.7349 27.9997H21.8279C20.5692 27.9997 19.5488 26.9793 19.5488 25.7206V25.0695ZM23.7814 22.7904C22.5227 22.7904 21.5023 23.8108 21.5023 25.0695V25.7206C21.5023 25.9005 21.648 26.0462 21.8279 26.0462H25.7349C25.9147 26.0462 26.0605 25.9005 26.0605 25.7206V25.0695C26.0605 23.8108 25.0401 22.7904 23.7814 22.7904Z" fill="#067647"/>
<path fill-rule="evenodd" clip-rule="evenodd" d="M11.084 0.976744C11.084 0.437308 11.5213 0 12.0607 0H27.6886C28.2281 0 28.6654 0.437308 28.6654 0.976744V8.7907C28.6654 9.33013 28.2281 9.76744 27.6886 9.76744H18.4639L15.2514 12.1767C14.9554 12.3987 14.5595 12.4345 14.2286 12.2689C13.8977 12.1036 13.6886 11.7653 13.6886 11.3953V9.76744H12.0607C11.5213 9.76744 11.084 9.33013 11.084 8.7907V0.976744ZM13.0375 1.95349V7.81395H14.6654C15.2048 7.81395 15.6421 8.25126 15.6421 8.7907V9.44186L17.5522 8.0093C17.7213 7.88249 17.9269 7.81395 18.1383 7.81395H26.7119V1.95349H13.0375Z" fill="#067647"/>
<path fill-rule="evenodd" clip-rule="evenodd" d="M0.666016 16.6047C0.666016 16.0653 1.10332 15.6279 1.64276 15.6279H9.45671C9.99615 15.6279 10.4335 16.0653 10.4335 16.6047C10.4335 17.1441 9.99615 17.5814 9.45671 17.5814H2.6195V23.4419H11.1931C11.4045 23.4419 11.6101 23.5104 11.7792 23.6372L13.6893 25.0698V24.4186C13.6893 23.8792 14.1266 23.4419 14.666 23.4419H16.2939V17.5814H14.666C14.1266 17.5814 13.6893 17.1441 13.6893 16.6047C13.6893 16.0653 14.1266 15.6279 14.666 15.6279H17.2707C17.8101 15.6279 18.2474 16.0653 18.2474 16.6047V24.4186C18.2474 24.9581 17.8101 25.3954 17.2707 25.3954H15.6428V27.0233C15.6428 27.3933 15.4337 27.7315 15.1028 27.8969C14.7719 28.0624 14.376 28.0266 14.08 27.8047L10.8676 25.3954H1.64276C1.10332 25.3954 0.666016 24.9581 0.666016 24.4186V16.6047Z" fill="#067647"/>
<path fill-rule="evenodd" clip-rule="evenodd" d="M14.9922 4.88397C14.9922 4.34453 15.4295 3.90723 15.9689 3.90723H18.5736C19.113 3.90723 19.5503 4.34453 19.5503 4.88397C19.5503 5.42341 19.113 5.86071 18.5736 5.86071H15.9689C15.4295 5.86071 14.9922 5.42341 14.9922 4.88397Z" fill="#067647"/>
<path fill-rule="evenodd" clip-rule="evenodd" d="M14.3413 20.5119C14.3413 19.9725 13.904 19.5352 13.3646 19.5352H10.7599C10.2205 19.5352 9.7832 19.9725 9.7832 20.5119C9.7832 21.0513 10.2205 21.4886 10.7599 21.4886H13.3646C13.904 21.4886 14.3413 21.0513 14.3413 20.5119Z" fill="#067647"/>
<path fill-rule="evenodd" clip-rule="evenodd" d="M21.5039 4.88397C21.5039 4.34453 21.9412 3.90723 22.4807 3.90723H23.783C24.3224 3.90723 24.7597 4.34453 24.7597 4.88397C24.7597 5.42341 24.3224 5.86071 23.783 5.86071H22.4807C21.9412 5.86071 21.5039 5.42341 21.5039 4.88397Z" fill="#067647"/>
<path fill-rule="evenodd" clip-rule="evenodd" d="M7.82808 20.5119C7.82808 19.9725 7.39077 19.5352 6.85134 19.5352H5.54901C5.00957 19.5352 4.57227 19.9725 4.57227 20.5119C4.57227 21.0513 5.00957 21.4886 5.54901 21.4886H6.85134C7.39077 21.4886 7.82808 21.0513 7.82808 20.5119Z" fill="#067647"/>
</svg>
