<svg width="18" height="18" viewBox="0 0 18 18" fill="none" xmlns="http://www.w3.org/2000/svg">
<path fill-rule="evenodd" clip-rule="evenodd" d="M4.62492 8.99999C4.62492 6.58375 6.58367 4.62499 8.99992 4.62499C11.4162 4.62499 13.3749 6.58375 13.3749 8.99999C13.3749 11.4162 11.4162 13.375 8.99992 13.375C6.58367 13.375 4.62492 11.4162 4.62492 8.99999ZM8.99992 5.87499C7.27403 5.87499 5.87492 7.2741 5.87492 8.99999C5.87492 10.7259 7.27403 12.125 8.99992 12.125C10.7258 12.125 12.1249 10.7259 12.1249 8.99999C12.1249 7.2741 10.7258 5.87499 8.99992 5.87499Z" fill="white"/>
<path d="M13.5898 5.24999C14.05 5.24999 14.4231 4.8769 14.4231 4.41666C14.4231 3.95642 14.05 3.58333 13.5898 3.58333H13.5823C13.122 3.58333 12.7489 3.95642 12.7489 4.41666C12.7489 4.8769 13.122 5.24999 13.5823 5.24999H13.5898Z" fill="white"/>
<path fill-rule="evenodd" clip-rule="evenodd" d="M9.04756 0.458328C10.8731 0.458317 12.3071 0.458309 13.4266 0.608823C14.5738 0.763062 15.484 1.08559 16.1992 1.80076C16.9143 2.51592 17.2369 3.42613 17.3911 4.57335C17.5416 5.69286 17.5416 7.12675 17.5416 8.95233V9.04763C17.5416 10.8732 17.5416 12.3071 17.3911 13.4266C17.2369 14.5739 16.9143 15.4841 16.1992 16.1992C15.484 16.9144 14.5738 17.2369 13.4266 17.3912C12.3071 17.5417 10.8732 17.5417 9.04759 17.5417H8.95228C7.1267 17.5417 5.69278 17.5417 4.57327 17.3912C3.42606 17.2369 2.51585 16.9144 1.80068 16.1992C1.08551 15.4841 0.762986 14.5739 0.608747 13.4266C0.458232 12.3071 0.458241 10.8732 0.458252 9.04764L0.458252 8.95235C0.458241 7.12676 0.458232 5.69286 0.608747 4.57335C0.762986 3.42613 1.08551 2.51592 1.80068 1.80076C2.51585 1.08559 3.42606 0.763062 4.57327 0.608823C5.69278 0.458309 7.12667 0.458317 8.95224 0.458328L9.04756 0.458328ZM4.73983 1.84768C3.73123 1.98328 3.12877 2.24044 2.68456 2.68464C2.24036 3.12884 1.9832 3.7313 1.8476 4.73991C1.70958 5.76649 1.70825 7.11635 1.70825 8.99999C1.70825 10.8836 1.70958 12.2335 1.8476 13.2601C1.9832 14.2687 2.24036 14.8711 2.68456 15.3153C3.12877 15.7596 3.73123 16.0167 4.73983 16.1523C5.76641 16.2903 7.11627 16.2917 8.99992 16.2917C10.8836 16.2917 12.2334 16.2903 13.26 16.1523C14.2686 16.0167 14.8711 15.7596 15.3153 15.3153C15.7595 14.8711 16.0166 14.2687 16.1522 13.2601C16.2903 12.2335 16.2916 10.8836 16.2916 8.99999C16.2916 7.11635 16.2903 5.76649 16.1522 4.73991C16.0166 3.7313 15.7595 3.12884 15.3153 2.68464C14.8711 2.24044 14.2686 1.98328 13.26 1.84768C12.2334 1.70966 10.8836 1.70833 8.99992 1.70833C7.11627 1.70833 5.76641 1.70966 4.73983 1.84768Z" fill="white"/>
</svg>
