<svg width="25" height="24" viewBox="0 0 25 24" fill="none" xmlns="http://www.w3.org/2000/svg">
<path fill-rule="evenodd" clip-rule="evenodd" d="M12.1661 1.75C11.5105 1.74997 10.9463 1.74994 10.4832 1.81162C9.9818 1.87841 9.52544 2.02501 9.11944 2.36641C8.72329 2.69952 8.47941 3.13087 8.28216 3.62555C8.1097 4.05806 7.95038 4.60022 7.76434 5.25H4.97818C3.52916 5.25 2.66906 6.32293 2.31196 7.40879C1.95771 8.486 1.99805 9.81185 2.51355 10.7921C2.53669 10.8361 2.56018 10.8798 2.584 10.9231C2.58011 10.9614 2.57911 11.0004 2.58123 11.04L2.73394 13.9003L2.7363 13.9522C2.8163 15.7125 2.87974 17.1084 3.07445 18.199C3.27499 19.3224 3.63082 20.227 4.37086 20.9342C5.11089 21.6413 6.03078 21.9557 7.16204 22.1051C8.26042 22.25 9.65768 22.25 11.4198 22.25H13.2405C15.0026 22.25 16.3999 22.25 17.4983 22.1051C18.6295 21.9557 19.5494 21.6413 20.2895 20.9342C21.0295 20.227 21.3853 19.3224 21.5859 18.199C21.7806 17.1084 21.844 15.7125 21.924 13.9522L21.9262 13.9033L21.9265 13.8973L22.0791 11.04C22.0812 11.0004 22.0802 10.9614 22.0763 10.9232C22.1002 10.8799 22.1237 10.8362 22.1468 10.7921C22.6623 9.81185 22.7026 8.486 22.3484 7.40879C21.9913 6.32293 21.1312 5.25 19.6822 5.25H16.8957C16.7097 4.60022 16.5504 4.05806 16.3779 3.62555C16.1806 3.13087 15.9368 2.69952 15.5406 2.36641C15.1346 2.02501 14.6783 1.87841 14.1769 1.81162C13.7137 1.74994 13.1496 1.74997 12.494 1.75H12.1661ZM15.3343 5.25C15.2029 4.80116 15.0948 4.45763 14.9846 4.18113C14.8309 3.79567 14.7029 3.62179 14.5752 3.51447C14.4575 3.41544 14.3041 3.34182 13.9788 3.29849C13.6263 3.25154 13.1628 3.25 12.447 3.25H12.2131C11.4973 3.25 11.0338 3.25154 10.6812 3.29849C10.356 3.34182 10.2026 3.41544 10.0848 3.51447C9.95719 3.62179 9.82918 3.79567 9.67548 4.18113C9.56522 4.45763 9.45716 4.80116 9.32578 5.25H15.3343ZM3.73689 7.8774C3.48738 8.63609 3.54552 9.53177 3.84117 10.094C5.35307 12.969 8.83697 14.25 12.3302 14.25C15.8234 14.25 19.3073 12.969 20.8192 10.094C21.1148 9.53177 21.173 8.63609 20.9235 7.87739C20.6768 7.12736 20.2309 6.75 19.6822 6.75H4.97818C4.42943 6.75 3.98354 7.12736 3.73689 7.8774ZM13.0802 15.7317C15.7322 15.6022 18.5074 14.7757 20.4743 12.9629L20.4283 13.8233L20.4281 13.8292C20.345 15.6568 20.2845 16.9535 20.1092 17.9354C19.9377 18.896 19.6727 19.4488 19.2532 19.8497C18.8336 20.2506 18.2693 20.4903 17.302 20.618C16.3131 20.7485 15.015 20.75 13.1855 20.75H11.4748C9.64536 20.75 8.34718 20.7485 7.35834 20.618C6.39097 20.4903 5.8267 20.2506 5.40716 19.8497C4.98761 19.4488 4.72259 18.896 4.5511 17.9354C4.37581 16.9535 4.31535 15.6568 4.23228 13.8292L4.18603 12.9628C6.15286 14.7757 8.9282 15.6022 11.5802 15.7317V16.5C11.5802 16.9142 11.916 17.25 12.3302 17.25C12.7444 17.25 13.0802 16.9142 13.0802 16.5V15.7317Z" fill="#067647"/>
</svg>
