<svg width="37" height="24" viewBox="0 0 37 24" fill="none" xmlns="http://www.w3.org/2000/svg">
<path d="M36.7511 23.995C35.785 23.995 34.8629 24.0126 33.9421 23.9819C33.7215 23.9746 33.4891 23.8284 33.2889 23.7042C30.4215 21.9212 27.5614 20.1236 24.6882 18.348C24.3126 18.1156 24.1548 17.8657 24.1563 17.417C24.1723 13.8145 24.1723 10.2135 24.1563 6.61104C24.1548 6.16822 24.2951 5.90808 24.6751 5.67425C27.4665 3.95119 30.233 2.18868 33.0346 0.48463C33.4803 0.214261 34.0561 0.0958834 34.5866 0.0388867C35.2823 -0.0356473 35.9911 0.0198879 36.7496 0.0198879C36.7511 8.00672 36.7511 15.9497 36.7511 23.995Z" fill="#087647"/>
<path d="M22.5757 0.0217117C22.5757 8.05093 22.5757 15.9808 22.5757 23.9954C21.6243 23.9954 20.7065 24.0114 19.7902 23.9822C19.6016 23.9764 19.3883 23.8273 19.2392 23.6899C17.3101 21.904 15.3824 20.1152 13.4796 18.3016C13.2823 18.113 13.1493 17.7594 13.1479 17.4817C13.1259 13.8281 13.123 10.1744 13.1522 6.52079C13.1552 6.2095 13.3612 5.82368 13.5951 5.60154C15.3912 3.88725 17.2282 2.21389 19.0273 0.503991C19.4116 0.138628 19.7989 -0.0148246 20.3221 0.012943C21.0455 0.0509407 21.7748 0.0217117 22.5757 0.0217117Z" fill="#087647"/>
<path d="M11.5514 0.0216451C11.5514 8.03479 11.5514 15.9807 11.5514 23.9938C10.6102 23.9938 9.71287 24.0158 8.81846 23.9748C8.63432 23.9661 8.39756 23.7556 8.2938 23.5759C7.2854 21.8309 6.29161 20.0757 5.31975 18.3103C5.17652 18.0501 5.11076 17.714 5.11076 17.4129C5.09614 13.809 5.09468 10.205 5.11368 6.60256C5.11514 6.25766 5.21014 5.87622 5.37674 5.5737C6.315 3.87403 7.27371 2.18167 8.2675 0.511232C8.40633 0.278861 8.76585 0.0640273 9.03768 0.0435669C9.85609 -0.0163526 10.6833 0.0216451 11.5514 0.0216451Z" fill="#087647"/>
<path d="M0.582031 0.0449219C1.58751 0.0449219 2.53161 0.0449219 3.53563 0.0449219C3.53563 8.01276 3.53563 15.9587 3.53563 23.9499C2.5623 23.9499 1.60066 23.9499 0.582031 23.9499C0.582031 16.0054 0.582031 8.05953 0.582031 0.0449219Z" fill="#087647"/>
</svg>
