<svg width="25" height="27" viewBox="0 0 25 27" fill="none" xmlns="http://www.w3.org/2000/svg">
<path fill-rule="evenodd" clip-rule="evenodd" d="M10.3073 10.2291C10.192 10.2291 10.084 10.1577 10.0424 10.0437L8.19271 4.9836C8.15269 4.87283 8.1847 4.74841 8.27354 4.67216C8.36239 4.5951 8.49045 4.58145 8.59289 4.63764L10.2225 5.52942L11.7096 3.43362C11.8 3.306 11.9761 3.2763 12.1034 3.367C12.2306 3.4577 12.2594 3.63429 12.1698 3.76192L10.537 6.0632C10.4546 6.17959 10.2977 6.21571 10.172 6.14748L8.98108 5.49651L10.5722 9.85025C10.6259 9.99633 10.5514 10.1593 10.405 10.2139C10.3721 10.2243 10.3401 10.2291 10.3073 10.2291Z" fill="#067647" stroke="#1B8354" stroke-width="0.4"/>
<path fill-rule="evenodd" clip-rule="evenodd" d="M14.4544 10.2291C14.4224 10.2291 14.3888 10.2235 14.3576 10.2123C14.2111 10.1585 14.1359 9.99555 14.1895 9.84866L15.7814 5.49412L14.5897 6.1459C14.464 6.21493 14.3072 6.178 14.2247 6.06161L12.5927 3.76033C12.5023 3.63271 12.5319 3.45612 12.6592 3.36541C12.7864 3.27471 12.9625 3.30441 13.053 3.43204L14.5401 5.52783L16.1704 4.63606C16.2737 4.57987 16.4009 4.59351 16.4898 4.67057C16.5786 4.74763 16.6106 4.87124 16.5706 4.98201L14.7201 10.0421C14.6777 10.1585 14.5697 10.2291 14.4544 10.2291Z" fill="#067647" stroke="#1B8354" stroke-width="0.4"/>
<path fill-rule="evenodd" clip-rule="evenodd" d="M12.3803 1.70145C11.9129 1.70145 11.5319 2.08352 11.5319 2.55309C11.5319 3.02266 11.9129 3.40474 12.3803 3.40474C12.8485 3.40474 13.2295 3.02266 13.2295 2.55309C13.2295 2.08352 12.8485 1.70145 12.3803 1.70145ZM12.3803 3.97062C11.6008 3.97062 10.9669 3.3349 10.9669 2.55309C10.9669 1.77128 11.6008 1.13556 12.3803 1.13556C13.1599 1.13556 13.7938 1.77128 13.7938 2.55309C13.7946 3.3349 13.1607 3.97062 12.3803 3.97062Z" fill="#067647" stroke="#1B8354" stroke-width="0.4"/>
<path fill-rule="evenodd" clip-rule="evenodd" d="M10.0838 10.2291C9.86852 10.2291 9.69323 10.4049 9.69323 10.6209C9.69323 10.8368 9.86852 11.0126 10.0838 11.0126H14.8493C15.0638 11.0126 15.2391 10.8368 15.2391 10.6201C15.2391 10.4041 15.0638 10.2291 14.8493 10.2291H10.0838ZM14.8493 11.5785H10.0838C9.55717 11.5785 9.12897 11.1482 9.12897 10.6201C9.12897 10.0919 9.55717 9.66165 10.0838 9.66165H14.8493C15.3759 9.66165 15.8041 10.0911 15.8041 10.6201C15.8033 11.149 15.3743 11.5793 14.8493 11.5785Z" fill="#067647" stroke="#1B8354" stroke-width="0.4"/>
<path fill-rule="evenodd" clip-rule="evenodd" d="M14.5038 12.9285H10.4235C10.1426 12.9285 9.91446 12.6997 9.91446 12.418V11.2959C9.91446 11.1393 10.0409 11.0125 10.197 11.0125C10.3531 11.0125 10.4795 11.1385 10.4795 11.2959V12.3618H14.4486V11.2959C14.4486 11.1393 14.5751 11.0125 14.7311 11.0125C14.8872 11.0125 15.0137 11.1385 15.0137 11.2959V12.4172C15.0129 12.6989 14.7848 12.9285 14.5038 12.9285Z" fill="#067647" stroke="#1B8354" stroke-width="0.4"/>
<path fill-rule="evenodd" clip-rule="evenodd" d="M8.45772 22.0815C8.4153 22.0815 8.37208 22.0718 8.33126 22.051C8.192 21.9811 8.13597 21.811 8.2056 21.6713C9.6775 18.7303 10.4234 15.9699 10.4234 13.4679V12.6452C10.4234 12.4886 10.5499 12.3618 10.706 12.3618C10.8621 12.3618 10.9885 12.4886 10.9885 12.6452V13.4679C10.9885 16.059 10.2226 18.9045 8.71064 21.9249C8.66102 22.0237 8.56097 22.0815 8.45772 22.0815Z" fill="#067647" stroke="#1B8354" stroke-width="0.4"/>
<path fill-rule="evenodd" clip-rule="evenodd" d="M16.4736 22.0815C16.3703 22.0815 16.2703 22.0237 16.2214 21.9249C14.7095 18.9045 13.9436 16.059 13.9436 13.4679V12.6452C13.9436 12.4886 14.0692 12.3618 14.2261 12.3618C14.3822 12.3618 14.5078 12.4886 14.5078 12.6452V13.4679C14.5078 15.9699 15.2546 18.7303 16.7265 21.6713C16.7961 21.8118 16.7401 21.9811 16.6008 22.051C16.56 22.0718 16.5168 22.0815 16.4736 22.0815Z" fill="#067647" stroke="#1B8354" stroke-width="0.4"/>
<path fill-rule="evenodd" clip-rule="evenodd" d="M17.7274 23.8249C17.5713 23.8249 17.4448 23.6981 17.4448 23.5415V22.1336C17.4448 22.1047 17.4216 22.0815 17.392 22.0815H7.52175C7.49294 22.0815 7.46973 22.1047 7.46973 22.1336V23.5415C7.46973 23.6981 7.34327 23.8249 7.1872 23.8249C7.03112 23.8249 6.90466 23.6981 6.90466 23.5415V22.1336C6.90466 21.7925 7.18079 21.5156 7.52095 21.5156H17.3912C17.7314 21.5156 18.0083 21.7925 18.0083 22.1336V23.5415C18.0091 23.6981 17.8826 23.8249 17.7274 23.8249Z" fill="#067647" stroke="#1B8354" stroke-width="0.4"/>
<path fill-rule="evenodd" clip-rule="evenodd" d="M6.43179 25.2978H18.4775V23.8249H6.43179V25.2978ZM18.5039 25.8645H6.40618C6.10924 25.8645 5.86752 25.6221 5.86752 25.3251V23.7992C5.86752 23.5014 6.10924 23.2598 6.40618 23.2598H18.5039C18.8008 23.2598 19.0417 23.5022 19.0417 23.7992V25.3251C19.0425 25.6221 18.8008 25.8645 18.5039 25.8645Z" fill="#067647" stroke="#1B8354" stroke-width="0.4"/>
<path fill-rule="evenodd" clip-rule="evenodd" d="M4.91372 10.2291C3.70675 10.2291 2.72549 11.2132 2.72549 12.4237C2.72549 13.6333 3.70755 14.6182 4.91372 14.6182C6.11989 14.6182 7.10196 13.6333 7.10196 12.4237C7.10116 11.2132 6.11989 10.2291 4.91372 10.2291ZM4.91372 15.1841C3.39541 15.1841 2.16122 13.9455 2.16122 12.4237C2.16122 10.901 3.39621 9.66324 4.91372 9.66324C6.43124 9.66324 7.66622 10.9018 7.66622 12.4237C7.66622 13.9455 6.43044 15.1841 4.91372 15.1841Z" fill="#067647" stroke="#1B8354" stroke-width="0.4"/>
<path fill-rule="evenodd" clip-rule="evenodd" d="M3.1633 15.1841C2.92158 15.1841 2.72549 15.3808 2.72549 15.6232C2.72549 15.8648 2.92158 16.0622 3.1633 16.0622H6.66335C6.90426 16.0622 7.10116 15.8656 7.10116 15.6232C7.10116 15.3808 6.90426 15.1841 6.66335 15.1841H3.1633ZM6.66335 16.6281H3.1633C2.61024 16.6281 2.16122 16.177 2.16122 15.6232C2.16122 15.0685 2.61104 14.6182 3.1633 14.6182H6.66335C7.21561 14.6182 7.66542 15.0693 7.66542 15.6232C7.66623 16.177 7.21641 16.6281 6.66335 16.6281Z" fill="#067647" stroke="#1B8354" stroke-width="0.4"/>
<path fill-rule="evenodd" clip-rule="evenodd" d="M6.15071 24.7135H1.10353C0.814589 24.7135 0.580078 24.4783 0.580078 24.1893V22.6899C0.580078 22.4002 0.814589 22.165 1.10353 22.165H7.1872C7.34327 22.165 7.46973 22.2918 7.46973 22.4483C7.46973 22.6048 7.34327 22.7317 7.1872 22.7317H1.14514V24.1476H6.15071C6.30678 24.1476 6.43324 24.2744 6.43324 24.4309C6.43324 24.5867 6.30678 24.7135 6.15071 24.7135Z" fill="#067647" stroke="#1B8354" stroke-width="0.4"/>
<path fill-rule="evenodd" clip-rule="evenodd" d="M1.61725 22.7317C1.57403 22.7317 1.53081 22.722 1.48999 22.7012C1.35072 22.6305 1.2955 22.4604 1.36513 22.3207L1.53241 21.99C2.41362 20.2482 2.87864 18.2961 2.87864 16.3447C2.87864 16.1882 3.0043 16.0614 3.16118 16.0614C3.31725 16.0614 3.44291 16.1882 3.44291 16.3447C3.44291 18.3844 2.95708 20.4256 2.03585 22.246L1.86937 22.5768C1.81974 22.6747 1.7205 22.7317 1.61725 22.7317Z" fill="#067647" stroke="#1B8354" stroke-width="0.4"/>
<path fill-rule="evenodd" clip-rule="evenodd" d="M7.88412 22.0815C7.77847 22.0815 7.67682 22.0213 7.6288 21.9194C6.81242 20.188 6.38101 18.2599 6.38101 16.3447C6.38101 16.1882 6.50667 16.0614 6.66355 16.0614C6.81962 16.0614 6.94608 16.1874 6.94608 16.3447C6.94608 18.1773 7.35907 20.021 8.13944 21.677C8.20587 21.8182 8.14585 21.9868 8.00498 22.0542C7.96576 22.0727 7.92414 22.0815 7.88412 22.0815Z" fill="#067647" stroke="#1B8354" stroke-width="0.4"/>
<path fill-rule="evenodd" clip-rule="evenodd" d="M20.0007 10.2291C18.7938 10.2291 17.8125 11.2132 17.8125 12.4237C17.8125 13.6333 18.7938 14.6182 20.0007 14.6182C21.2069 14.6182 22.189 13.6333 22.189 12.4237C22.189 11.2132 21.2069 10.2291 20.0007 10.2291ZM20.0007 15.1841C18.4824 15.1841 17.2482 13.9455 17.2482 12.4237C17.2482 10.901 18.4832 9.66324 20.0007 9.66324C21.5182 9.66324 22.7532 10.9018 22.7532 12.4237C22.7532 13.9455 21.5182 15.1841 20.0007 15.1841Z" fill="#067647" stroke="#1B8354" stroke-width="0.4"/>
<path fill-rule="evenodd" clip-rule="evenodd" d="M18.2503 15.1841C18.0086 15.1841 17.8125 15.3808 17.8125 15.6232C17.8125 15.8648 18.0086 16.0622 18.2503 16.0622H21.7504C21.9913 16.0622 22.1882 15.8656 22.1882 15.6232C22.1882 15.3808 21.9913 15.1841 21.7504 15.1841H18.2503ZM21.7504 16.6281H18.2503C17.6972 16.6281 17.2482 16.177 17.2482 15.6232C17.2482 15.0685 17.698 14.6182 18.2503 14.6182H21.7504C22.3026 14.6182 22.7524 15.0693 22.7524 15.6232C22.7524 16.177 22.3026 16.6281 21.7504 16.6281Z" fill="#067647" stroke="#1B8354" stroke-width="0.4"/>
<path fill-rule="evenodd" clip-rule="evenodd" d="M23.8102 24.7135H18.7622C18.6061 24.7135 18.4797 24.5867 18.4797 24.4301C18.4797 24.2736 18.6061 24.1468 18.7622 24.1468H23.7678V22.7309H17.7265C17.5704 22.7309 17.444 22.6041 17.444 22.4475C17.444 22.291 17.5704 22.1642 17.7265 22.1642H23.8094C24.0975 22.1642 24.332 22.3994 24.332 22.6891V24.1885C24.3336 24.4783 24.0983 24.7135 23.8102 24.7135Z" fill="#067647" stroke="#1B8354" stroke-width="0.4"/>
<path fill-rule="evenodd" clip-rule="evenodd" d="M17.0302 22.0815C16.9894 22.0815 16.9485 22.0727 16.9093 22.0542C16.7684 21.9876 16.7076 21.819 16.7748 21.677C17.556 20.021 17.969 18.1773 17.969 16.3447C17.969 16.1882 18.0955 16.0614 18.2515 16.0614C18.4076 16.0614 18.5341 16.1874 18.5341 16.3447C18.5341 18.2607 18.1019 20.188 17.2863 21.9194C17.2375 22.0213 17.1358 22.0815 17.0302 22.0815Z" fill="#067647" stroke="#1B8354" stroke-width="0.4"/>
<path fill-rule="evenodd" clip-rule="evenodd" d="M23.2953 22.7317C23.192 22.7317 23.0928 22.6755 23.0432 22.5767L22.8551 22.2059C21.9474 20.4127 21.468 18.402 21.468 16.3905V16.3455C21.468 16.189 21.5945 16.0622 21.7506 16.0622C21.9066 16.0622 22.0331 16.189 22.0331 16.3455V16.3905C22.0331 18.3129 22.4917 20.2353 23.3593 21.9499L23.5474 22.3207C23.6178 22.4596 23.5626 22.6305 23.4233 22.7012C23.3817 22.7212 23.3377 22.7317 23.2953 22.7317Z" fill="#067647" stroke="#1B8354" stroke-width="0.4"/>
</svg>
