<svg width="20" height="20" viewBox="0 0 20 20" fill="none" xmlns="http://www.w3.org/2000/svg">
<path d="M16.2231 3.83121C14.7844 2.33393 12.4412 2.33393 11.0025 3.83121L10.4079 4.45004C10.1688 4.69894 10.1767 5.09459 10.4256 5.33375C10.6745 5.5729 11.0701 5.565 11.3093 5.3161L11.9039 4.69727C12.8507 3.71191 14.3749 3.71191 15.3217 4.69727C16.282 5.69668 16.282 7.32699 15.3217 8.3264L12.6222 11.1359C12.4725 11.2918 12.3094 11.422 12.1376 11.5276C11.2142 12.0952 10.0048 11.969 9.2044 11.1359C9.07419 11.0004 8.96177 10.8536 8.867 10.6984C8.68711 10.4038 8.30247 10.3108 8.00787 10.4907C7.71327 10.6705 7.62028 11.0552 7.80017 11.3498C7.94144 11.5811 8.10912 11.8001 8.30304 12.002C9.51513 13.2634 11.3732 13.4647 12.7922 12.5925C13.0544 12.4313 13.3004 12.2342 13.5236 12.002L16.2231 9.19246C17.6482 7.70925 17.6482 5.31442 16.2231 3.83121Z" fill="#1B8354"/>
<path d="M11.6975 7.99787C10.2588 6.5006 7.91554 6.5006 6.47688 7.99787L3.77736 10.8074C2.35221 12.2906 2.35221 14.6854 3.77736 16.1686C5.21602 17.6659 7.55928 17.6659 8.99794 16.1686L9.59275 15.5496C9.83191 15.3007 9.82401 14.905 9.57511 14.6659C9.32621 14.4267 8.93056 14.4346 8.69141 14.6835L8.09659 15.3026C7.14981 16.2879 5.6255 16.2879 4.67871 15.3026C3.71842 14.3032 3.71842 12.6728 4.67871 11.6734L7.37823 8.86394C8.32501 7.87858 9.84932 7.87858 10.7961 8.86394C10.9263 8.99942 11.0387 9.14621 11.1334 9.30137C11.3133 9.59596 11.698 9.68892 11.9926 9.50902C12.2872 9.32911 12.3801 8.94446 12.2002 8.64987C12.059 8.41858 11.8913 8.19965 11.6975 7.99787Z" fill="#1B8354"/>
</svg>
