<svg width="20" height="20" viewBox="0 0 20 20" fill="none" xmlns="http://www.w3.org/2000/svg">
<path fill-rule="evenodd" clip-rule="evenodd" d="M1.04175 3.54166C1.04175 2.16095 2.16104 1.04166 3.54175 1.04166C4.92246 1.04166 6.04175 2.16095 6.04175 3.54166C6.04175 4.92238 4.92246 6.04166 3.54175 6.04166C2.16104 6.04166 1.04175 4.92238 1.04175 3.54166ZM3.54175 2.29166C2.85139 2.29166 2.29175 2.85131 2.29175 3.54166C2.29175 4.23202 2.85139 4.79166 3.54175 4.79166C4.2321 4.79166 4.79175 4.23202 4.79175 3.54166C4.79175 2.85131 4.2321 2.29166 3.54175 2.29166Z" fill="white"/>
<path fill-rule="evenodd" clip-rule="evenodd" d="M3.29613 7.29167H3.78738C4.14806 7.29162 4.47875 7.29159 4.74776 7.32775C5.04399 7.36758 5.3571 7.46129 5.61462 7.71881C5.87214 7.97633 5.96584 8.28943 6.00567 8.58566C6.04184 8.85467 6.0418 9.18536 6.04176 9.54604L6.04176 16.704C6.0418 17.0646 6.04184 17.3953 6.00567 17.6643C5.96584 17.9606 5.87214 18.2737 5.61462 18.5312C5.3571 18.7887 5.04399 18.8824 4.74776 18.9223C4.47875 18.9584 4.14806 18.9584 3.78737 18.9583H3.29613C2.93545 18.9584 2.60476 18.9584 2.33575 18.9223C2.03951 18.8824 1.72641 18.7887 1.46889 18.5312C1.21137 18.2737 1.11766 17.9606 1.07784 17.6643C1.04167 17.3953 1.04171 17.0646 1.04175 16.704L1.04175 9.54605C1.04171 9.18537 1.04167 8.85467 1.07784 8.58566C1.11766 8.28943 1.21137 7.97633 1.46889 7.71881C1.72641 7.46129 2.03951 7.36758 2.33575 7.32775C2.60476 7.29159 2.93545 7.29162 3.29613 7.29167ZM2.35279 8.6027L2.35481 8.60155C2.35642 8.60071 2.35919 8.59937 2.36339 8.59764C2.38154 8.59017 2.42184 8.57742 2.50231 8.56661C2.67791 8.543 2.92291 8.54167 3.33342 8.54167H3.75009C4.16059 8.54167 4.4056 8.543 4.5812 8.56661C4.66167 8.57742 4.70197 8.59017 4.72012 8.59764C4.72432 8.59937 4.72708 8.60071 4.72869 8.60155L4.73072 8.6027L4.73187 8.60473C4.73271 8.60634 4.73406 8.6091 4.73579 8.61331C4.74326 8.63146 4.756 8.67176 4.76682 8.75222C4.79043 8.92783 4.79175 9.17283 4.79175 9.58334L4.79175 16.6667C4.79175 17.0772 4.79043 17.3222 4.76682 17.4978C4.756 17.5782 4.74326 17.6185 4.73579 17.6367C4.73406 17.6409 4.73271 17.6437 4.73187 17.6453L4.73072 17.6473L4.72869 17.6485C4.72708 17.6493 4.72432 17.6506 4.72012 17.6524C4.70197 17.6598 4.66167 17.6726 4.5812 17.6834C4.4056 17.707 4.16059 17.7083 3.75009 17.7083H3.33342C2.92291 17.7083 2.67791 17.707 2.50231 17.6834C2.42184 17.6726 2.38154 17.6598 2.36339 17.6524C2.35919 17.6506 2.35642 17.6493 2.35481 17.6485L2.35278 17.6473L2.35164 17.6453C2.3508 17.6437 2.34945 17.6409 2.34772 17.6367C2.34025 17.6185 2.32751 17.5782 2.31669 17.4978C2.29308 17.3222 2.29175 17.0772 2.29175 16.6667L2.29175 9.58334C2.29175 9.17283 2.29308 8.92783 2.31669 8.75222C2.32751 8.67176 2.34025 8.63146 2.34772 8.61331C2.34945 8.6091 2.3508 8.60634 2.35164 8.60473L2.35279 8.6027Z" fill="white"/>
<path fill-rule="evenodd" clip-rule="evenodd" d="M9.54613 7.29167C9.78745 7.29165 10.7593 7.29163 10.9438 7.30853C11.1433 7.32681 11.3606 7.36882 11.5699 7.49127C11.7859 7.61765 11.9658 7.79751 12.0922 8.01354L12.1022 8.03095C12.7603 7.56625 13.5547 7.29187 14.414 7.29187C16.6601 7.29187 18.9585 9.20372 18.9585 11.6669L18.9574 16.2879C18.9573 16.6485 18.9573 16.9792 18.921 17.2481C18.8812 17.5443 18.7874 17.8573 18.5299 18.1148C18.2724 18.3722 17.9593 18.4659 17.6632 18.5057C17.3942 18.5419 17.0636 18.5418 16.703 18.5418H16.2127C15.8521 18.5418 15.5214 18.5419 15.2524 18.5057C14.9561 18.4659 14.643 18.3722 14.3855 18.1146C14.128 17.8571 14.0343 17.544 13.9945 17.2478C13.9583 16.9788 13.9583 16.6481 13.9584 16.2874L13.9584 12.5001C13.9584 12.1188 13.6763 11.8751 13.4066 11.8751C12.9756 11.8751 12.7439 12.0404 12.5847 12.3048C12.3975 12.6157 12.2918 13.1074 12.2918 13.7501L12.2918 16.704C12.2918 17.0647 12.2918 17.3953 12.2557 17.6644C12.2158 17.9606 12.1221 18.2737 11.8646 18.5312C11.6071 18.7887 11.294 18.8824 10.9978 18.9223C10.7288 18.9584 10.3981 18.9584 10.0374 18.9583H9.54611C9.18544 18.9584 8.85475 18.9584 8.58575 18.9223C8.28951 18.8824 7.97641 18.7887 7.71889 18.5312C7.46137 18.2737 7.36766 17.9606 7.32784 17.6643C7.29167 17.3953 7.29171 17.0646 7.29175 16.704L7.29175 9.54605C7.29171 9.18537 7.29167 8.85467 7.32784 8.58566C7.36766 8.28943 7.46137 7.97633 7.71889 7.71881C7.97641 7.46129 8.28951 7.36758 8.58575 7.32775C8.85476 7.29159 9.18545 7.29162 9.54613 7.29167ZM9.58342 8.54166C9.17291 8.54166 8.9279 8.54299 8.7523 8.5666C8.69592 8.56441 8.57986 8.59846 8.56668 8.75222C8.54308 8.92782 8.54175 9.17282 8.54175 9.58333L8.54175 16.6667C8.54175 17.0772 8.54308 17.3222 8.56668 17.4978C8.57674 17.5994 8.69462 17.6639 8.7523 17.6834C8.9279 17.707 9.17291 17.7083 9.58342 17.7083H10.0001C10.4106 17.7083 10.6556 17.707 10.8312 17.6834C10.8885 17.6689 11.0059 17.6115 11.0168 17.4978C11.0404 17.3222 11.0418 17.0772 11.0418 16.6667L11.0418 13.7501C11.0418 13.0121 11.1562 12.2538 11.5139 11.6599C11.8996 11.0195 12.5379 10.6251 13.4066 10.6251C14.4367 10.6251 15.2084 11.5007 15.2084 12.5001V16.2501C15.2084 16.6606 15.2097 16.9056 15.2333 17.0812C15.2333 17.2129 15.3129 17.235 15.3751 17.2522C15.3915 17.2568 15.4067 17.261 15.4189 17.2668C15.5945 17.2904 15.8395 17.2918 16.25 17.2918L16.6657 17.2918C17.0761 17.2918 17.3211 17.2904 17.4966 17.2668C17.5544 17.2454 17.6725 17.1783 17.6822 17.0813C17.7059 16.9057 17.7073 16.6608 17.7074 16.2503L17.7085 11.6667C17.7084 9.98779 16.0674 8.54186 14.414 8.54186C13.5161 8.54186 12.7037 8.98089 12.1642 9.69003C12.0018 9.90351 11.7213 9.98956 11.4671 9.90388C11.213 9.81819 11.0418 9.57987 11.0418 9.31164C11.0418 9.0375 11.0412 8.87415 11.0301 8.75366C11.0233 8.62761 10.8937 8.56758 10.8298 8.55331C10.7093 8.54228 10.5459 8.54166 10.2718 8.54166L9.58342 8.54166Z" fill="white"/>
</svg>
