<svg width="24" height="24" viewBox="0 0 24 24" fill="none" xmlns="http://www.w3.org/2000/svg">
<path d="M7.75 10C7.75 9.58579 7.41421 9.25 7 9.25C6.58579 9.25 6.25 9.58579 6.25 10L6.25 17C6.25 17.4142 6.58579 17.75 7 17.75C7.41421 17.75 7.75 17.4142 7.75 17L7.75 10Z" fill="#161616"/>
<path d="M11 9.25C11.4141 9.25 11.7499 9.58564 11.75 9.99973C12.3767 9.52896 13.1558 9.25 14 9.25C16.0711 9.25 17.75 10.9289 17.75 13V17C17.75 17.4142 17.4142 17.75 17 17.75C16.5858 17.75 16.25 17.4142 16.25 17V13C16.25 11.7574 15.2426 10.75 14 10.75C12.7574 10.75 11.75 11.7574 11.75 13V17C11.75 17.4142 11.4142 17.75 11 17.75C10.5858 17.75 10.25 17.4142 10.25 17L10.25 10C10.25 9.58579 10.5858 9.25 11 9.25Z" fill="#161616"/>
<path d="M8.00806 7C8.00806 7.55229 7.56034 8 7.00806 8H6.99907C6.44679 8 5.99907 7.55228 5.99907 7C5.99907 6.44771 6.44679 6 6.99907 6H7.00806C7.56034 6 8.00806 6.44771 8.00806 7Z" fill="#161616"/>
<path fill-rule="evenodd" clip-rule="evenodd" d="M12.0572 1.75H11.9428C9.75214 1.74999 8.03143 1.74998 6.68802 1.93059C5.31137 2.11568 4.21911 2.50271 3.36091 3.36091C2.50272 4.21911 2.11568 5.31137 1.93059 6.68802C1.74998 8.03144 1.74999 9.75212 1.75 11.9428V12.0572C1.74999 14.2479 1.74998 15.9686 1.93059 17.312C2.11568 18.6886 2.50272 19.7809 3.36091 20.6391C4.21911 21.4973 5.31137 21.8843 6.68802 22.0694C8.03144 22.25 9.7521 22.25 11.9428 22.25H12.0572C14.2479 22.25 15.9686 22.25 17.312 22.0694C18.6886 21.8843 19.7809 21.4973 20.6391 20.6391C21.4973 19.7809 21.8843 18.6886 22.0694 17.312C22.25 15.9686 22.25 14.2479 22.25 12.0572V11.9428C22.25 9.75214 22.25 8.03144 22.0694 6.68802C21.8843 5.31137 21.4973 4.21911 20.6391 3.36091C19.7809 2.50271 18.6886 2.11568 17.312 1.93059C15.9686 1.74998 14.2479 1.74999 12.0572 1.75ZM4.42157 4.42157C4.95462 3.88853 5.67757 3.57994 6.8879 3.41722C8.11979 3.25159 9.73963 3.25 12 3.25C14.2604 3.25 15.8802 3.25159 17.1121 3.41722C18.3224 3.57994 19.0454 3.88853 19.5784 4.42157C20.1115 4.95462 20.4201 5.67757 20.5828 6.88789C20.7484 8.11979 20.75 9.73963 20.75 12C20.75 14.2604 20.7484 15.8802 20.5828 17.1121C20.4201 18.3224 20.1115 19.0454 19.5784 19.5784C19.0454 20.1115 18.3224 20.4201 17.1121 20.5828C15.8802 20.7484 14.2604 20.75 12 20.75C9.73963 20.75 8.11979 20.7484 6.8879 20.5828C5.67757 20.4201 4.95462 20.1115 4.42157 19.5784C3.88853 19.0454 3.57994 18.3224 3.41722 17.1121C3.25159 15.8802 3.25 14.2604 3.25 12C3.25 9.73963 3.25159 8.11979 3.41722 6.8879C3.57994 5.67757 3.88853 4.95462 4.42157 4.42157Z" fill="#161616"/>
</svg>
