<svg width="24" height="28" viewBox="0 0 24 28" fill="none" xmlns="http://www.w3.org/2000/svg">
<path fill-rule="evenodd" clip-rule="evenodd" d="M12 8.75C9.65279 8.75 7.75 10.6528 7.75 13C7.75 15.3472 9.65279 17.25 12 17.25C14.3472 17.25 16.25 15.3472 16.25 13C16.25 10.6528 14.3472 8.75 12 8.75ZM9.25 13C9.25 11.4812 10.4812 10.25 12 10.25C13.5188 10.25 14.75 11.4812 14.75 13C14.75 14.5188 13.5188 15.75 12 15.75C10.4812 15.75 9.25 14.5188 9.25 13Z" fill="#1B8354"/>
<path fill-rule="evenodd" clip-rule="evenodd" d="M12.001 3.25C8.17489 3.25 4.52456 5.51303 2.99665 9.08468C1.57469 12.4086 2.34447 15.2373 3.94723 17.6595C5.26128 19.6454 7.17786 21.4178 8.90693 23.0168C9.2366 23.3217 9.55961 23.6204 9.87017 23.9129L9.87182 23.9145C10.4468 24.4528 11.2107 24.75 12.001 24.75C12.7914 24.75 13.5553 24.4528 14.1303 23.9145C14.4238 23.6396 14.7281 23.3592 15.0385 23.0732C16.7864 21.4628 18.7299 19.672 20.0577 17.6609C21.6586 15.2362 22.4256 12.4045 21.0055 9.08468C19.4775 5.51303 15.8272 3.25 12.001 3.25ZM4.37575 9.67465C5.65457 6.68528 8.74166 4.75 12.001 4.75C15.2604 4.75 18.3475 6.68528 19.6263 9.67465C20.7984 12.4144 20.207 14.7124 18.806 16.8344C17.5884 18.6786 15.8049 20.3242 14.0516 21.9418C13.7339 22.235 13.4172 22.5272 13.1051 22.8195C12.8127 23.0932 12.4172 23.25 12.001 23.25C11.5852 23.25 11.19 23.0934 10.8977 22.8201C10.5652 22.5069 10.2275 22.1942 9.88891 21.8806C8.15804 20.2778 6.40275 18.6523 5.19817 16.8318C3.7958 14.7124 3.2022 12.4179 4.37575 9.67465Z" fill="#1B8354"/>
</svg>
