<svg width="106" height="41" viewBox="0 0 106 41" fill="none" xmlns="http://www.w3.org/2000/svg">
<path d="M32.6127 27.1634C32.2508 27.1634 32.0685 26.9811 31.8888 26.8014C31.7065 26.4394 31.5268 26.0774 31.5268 25.7128C31.5268 25.5305 31.7091 25.1685 31.8888 24.9888C32.0711 24.8066 32.2508 24.6269 32.6127 24.6269C32.9747 24.6269 33.519 24.6269 33.881 24.8092V23.9029C33.519 23.9029 32.9747 23.7206 32.6127 23.7206C32.2508 23.7206 32.0685 23.9029 31.7065 23.9029C31.5242 24.0852 31.3445 24.0852 31.1622 24.2649C30.9799 24.4472 30.8002 24.6269 30.6179 24.9888V26.0774C30.6179 26.2597 30.6179 26.4394 30.8002 26.4394C30.8002 26.6217 30.8002 26.8014 30.9825 26.8014C30.9825 26.9229 31.0433 27.0436 31.1648 27.1634H26.2714C26.0891 27.1634 26.0891 26.9811 25.9095 26.9811C25.9095 26.9811 25.9095 26.7988 25.7272 26.7988V21.9054L24.6386 22.2674V26.7988C24.6386 26.9203 24.5778 26.9811 24.4563 26.9811C24.4563 27.1026 24.3955 27.1634 24.274 27.1634H23.3677V23.7206L22.2818 24.0826V27.1634H21.3755V28.0697H24.274C24.4563 28.0697 24.636 28.0697 24.636 27.8874H25.1803C25.1803 27.7051 25.3626 27.7051 25.5423 27.5254C25.5423 27.7077 25.7246 27.8874 25.9042 27.8874C26.0865 28.0697 26.2662 28.0697 26.6282 28.0697H34.4201V27.1634H32.6075H32.6127Z" fill="white"/>
<path d="M40.0426 26.2568V21.9077L39.1363 22.2697V26.4365C39.1363 26.6188 39.1363 26.7984 38.954 26.7984C38.954 26.92 38.8933 26.9807 38.7717 26.9807C38.7717 27.1023 38.711 27.163 38.5894 27.163H37.6832V23.7202L36.5972 24.0822V27.163H35.6909V28.0693H39.1337C39.1337 27.887 39.316 27.887 39.4957 27.887C39.8577 27.525 40.04 27.1604 40.04 26.2568" fill="white"/>
<path d="M42.3969 21.9077L41.3109 22.2697V28.0693H42.3969V21.9077Z" fill="white"/>
<path d="M47.6523 26.8014C47.108 27.3457 46.384 27.3457 45.8397 26.8014C45.6574 26.6191 45.6574 26.2571 45.6574 25.8951C45.6574 25.5331 45.6574 25.3508 45.8397 24.9888C46.384 24.6268 47.108 24.6268 47.6523 24.9888C47.8346 25.3508 47.8346 25.5331 47.8346 25.8951C47.8346 26.2571 47.8346 26.6191 47.6523 26.8014ZM48.3762 24.2649C48.1939 24.0826 47.8319 24.0826 47.6523 23.9029C47.108 23.7206 46.384 23.7206 45.8397 23.9029C45.6574 24.0852 45.4777 24.0852 45.2954 24.2649C44.9334 24.4471 44.9334 24.8091 44.7511 24.9888C44.7511 25.3508 44.5688 25.7128 44.5688 25.8951C44.5688 26.2571 44.5688 26.6191 44.7511 26.8014C44.9334 27.1634 44.9334 27.3457 45.1131 27.5254C45.2928 27.705 45.6574 27.8873 45.8371 27.8873C46.3814 28.0696 47.1054 28.0696 47.6497 27.8873C47.8319 27.8873 48.0116 27.705 48.3736 27.5254C48.5559 27.3431 48.5559 27.1634 48.7356 26.8014C48.9179 26.6191 48.9179 26.2571 48.9179 25.8951C48.9179 25.7128 48.9179 25.3508 48.7356 24.9888C48.7356 24.8065 48.5533 24.4445 48.3736 24.2649" fill="white"/>
<path d="M50.733 29.6998C51.095 29.3378 51.095 28.7935 51.095 28.2492V23.7205L50.1887 24.0825V28.7935C50.0064 28.9758 50.0064 29.1555 50.0064 29.1555C50.0064 29.3378 49.8241 29.3378 49.8241 29.3378C49.6418 29.3378 49.6418 29.5201 49.4621 29.5201H48.9178V30.2441H49.6418C50.0038 30.4264 50.5481 30.0618 50.7278 29.6998" fill="white"/>
<path d="M53.2696 21.9077L52.3633 22.2697V27.887H53.2696V21.9077Z" fill="white"/>
<path d="M55.2618 29.6998C55.4441 29.3378 55.6238 28.7935 55.6238 28.2492V23.7205L54.5378 24.0825V29.1555C54.4163 29.277 54.2956 29.3378 54.1758 29.3378C54.1758 29.3378 54.1758 29.5201 53.9935 29.5201H53.2695V30.2441H53.9935C54.5378 30.4264 55.0821 30.0618 55.2618 29.6998Z" fill="white"/>
<path d="M55.6238 21.9077V22.9963L54.5378 22.6343V21.9077H55.6238Z" fill="white"/>
<path d="M48.1966 21.9077V22.9963L47.2903 22.6343V21.9077H48.1966Z" fill="white"/>
<path d="M46.384 21.9077V22.9963L45.2954 22.6343V21.9077H46.384Z" fill="white"/>
<path d="M37.1415 29.8819H36.9592C36.9592 29.6996 36.7769 29.6996 36.7769 29.5199L36.9592 29.3377L37.1415 29.1554C37.3238 29.1554 37.5035 29.1554 37.6858 29.3377V28.9757H37.1415C36.9592 28.9757 36.7795 28.9757 36.5972 29.158C36.5972 29.158 36.4149 29.3403 36.4149 29.5199V29.7022C36.5972 29.7022 36.5972 29.8845 36.5972 29.8845H36.2352V30.2465H37.8655V29.8845H37.1415V29.8819Z" fill="white"/>
<path d="M59.7906 27.1633H58.8843C58.702 27.1633 58.34 27.1633 58.1603 26.981C57.978 26.619 57.7983 26.4367 57.7983 26.0747C57.7983 25.8924 57.7983 25.7127 57.9806 25.5304C57.9806 25.3481 57.9806 25.1684 58.1629 24.9861L58.3452 24.8038C58.5275 24.6216 58.7072 24.6216 58.8895 24.6216C59.2515 24.6216 59.6135 24.8038 59.6135 24.9835C59.7958 25.5278 59.9755 25.8898 59.9755 26.4341C59.9755 26.6164 59.9755 26.9784 59.7932 27.1581M60.8791 25.171C60.6968 24.9887 60.6968 24.6268 60.5171 24.4471C60.3348 24.2648 60.1552 24.0851 59.7932 23.9028C59.6109 23.9028 59.2489 23.7205 58.8869 23.7205C58.5249 23.7205 58.1629 23.9028 57.8009 23.9028C57.6186 24.0851 57.4389 24.2648 57.2566 24.4471C57.0743 24.6294 57.0743 24.9914 56.8947 25.171V26.0773C56.8947 26.4393 56.8947 26.6216 57.0769 26.9836C57.0769 27.1659 57.2592 27.3456 57.4389 27.5279C57.6212 27.7102 57.8009 27.8899 58.1629 27.8899C58.3452 28.0722 58.7072 28.0722 58.8869 28.0722H59.2489C59.4312 27.8899 59.6109 27.7102 59.7932 27.5279C59.7932 28.6164 59.6109 29.5201 58.1629 29.5201H57.4389V30.2441H58.3452C58.7072 30.2441 59.0692 30.2441 59.6135 30.0618C59.7958 29.8795 60.1578 29.6998 60.3374 29.5175C60.5197 28.9732 60.6994 28.6112 60.6994 28.0669C60.8817 27.5227 60.8817 26.9784 60.8817 26.4367V25.1684" fill="white"/>
<path d="M19.2061 26.8013C19.0239 27.1633 18.6619 27.1633 18.2999 27.1633C18.1176 27.1633 17.7556 27.1633 17.5759 26.8013C17.2139 26.619 17.2139 26.257 17.2139 25.895C17.2139 25.533 17.3962 25.171 17.5759 24.9887C17.9379 24.4445 18.6645 24.4445 19.2061 24.9887C19.3884 25.171 19.5681 25.533 19.5681 25.895C19.5681 26.257 19.3858 26.619 19.2061 26.8013ZM20.2921 24.9887C20.2921 24.6268 20.1098 24.4445 19.9301 24.2648C19.7478 24.0825 19.3858 24.0825 19.2061 23.9028C19.0239 23.9028 18.6619 23.7205 18.2999 23.7205C18.1176 23.7205 17.7556 23.9028 17.5759 23.9028C17.2139 23.9028 17.0316 24.0851 16.8519 24.2648C16.6696 24.4471 16.4899 24.6268 16.3076 24.9887C16.3076 25.171 16.1253 25.533 16.1253 25.895C16.1253 26.0773 16.3076 26.4393 16.4873 26.8013C16.6696 26.9836 16.8493 26.9836 17.2113 27.1633H16.4873C16.4873 27.1633 16.305 27.3456 16.1253 27.3456C15.9457 27.3456 15.7634 27.5279 15.7634 27.7076C15.4014 28.0696 15.4014 28.4315 15.4014 28.7961V30.2467H16.3076V28.6164C16.3076 28.4341 16.4899 28.4341 16.4899 28.2545C16.4899 28.2545 16.6722 28.0722 16.8519 28.0722H18.3025C18.6645 28.0722 19.0265 28.0722 19.2088 27.8899C19.5707 27.8899 19.753 27.7076 19.9327 27.5279C20.115 27.3456 20.2947 27.1659 20.2947 26.8039C20.477 26.6216 20.477 26.2596 20.477 25.8976C20.477 25.5356 20.477 25.1736 20.2947 24.9914" fill="white"/>
<path d="M5.79694 33.5047V39.1221H4.71098V35.135C4.71098 35.497 4.52868 35.6793 4.34899 36.0413L3.26302 38.3981H2.35675L1.08849 36.0413C1.08849 35.6793 0.906195 35.497 0.726503 35.135V39.1221H-0.182373V33.5047H0.903591L2.17185 36.0413C2.35415 36.4032 2.53384 36.9475 2.71614 37.3095C2.89843 36.9475 3.07812 36.4032 3.44011 36.0413L4.70837 33.5047H5.79434H5.79694Z" fill="white"/>
<path d="M6.521 35.3172L7.42727 35.1349V39.122H6.521V35.3172Z" fill="white"/>
<path d="M11.7763 36.4032V39.122H10.87V36.5855C10.87 36.0412 10.6877 35.8615 10.146 35.8615C9.78405 36.0438 9.60176 36.0438 9.23977 36.2235V39.122H8.3335V35.3172L9.23977 35.1349V35.4969C9.60176 35.3146 10.146 35.1349 10.508 35.1349C11.232 35.1349 11.5966 35.4969 11.7763 36.0412V36.4032Z" fill="white"/>
<path d="M12.5004 35.3172L13.5889 35.1349V39.122H12.5004V35.3172Z" fill="white"/>
<path d="M14.3129 38.7597L14.6749 38.0357C15.0368 38.3977 15.5811 38.58 15.9431 38.58C16.4874 38.58 16.6671 38.3977 16.6671 38.0357C16.6671 37.8534 16.6671 37.6737 15.9431 37.4914H15.7608C14.8545 37.3091 14.4926 36.9471 14.4926 36.4055C14.4926 35.6815 15.2165 35.1372 15.9431 35.1372C16.4874 35.1372 17.0317 35.3195 17.5734 35.4992L17.2114 36.2232C16.8494 36.0409 16.4874 35.8612 16.1254 35.8612C15.7634 35.8612 15.4014 36.0435 15.4014 36.2232C15.4014 36.4029 15.5837 36.5852 16.1254 36.7675H16.3077C17.3963 36.9498 17.7583 37.3117 17.7583 38.0357C17.7583 38.58 17.214 39.304 16.128 39.304C15.404 39.304 14.8598 39.1217 14.3155 38.7597" fill="white"/>
<path d="M21.0162 38.9426C20.8339 39.1249 20.4719 39.3046 20.1099 39.3046C19.3859 39.3046 18.8417 38.7603 18.8417 38.2186V36.0441H18.1177V35.3201H18.8417V34.4138L19.7479 34.2315V35.3201H21.0162L20.8339 36.0441H19.7453V37.8566C19.7453 38.2186 19.9276 38.4009 20.2896 38.4009H20.8339L21.0162 38.9452V38.9426Z" fill="white"/>
<path d="M24.4589 35.3172L24.2766 36.2235C24.0943 36.0412 23.9146 36.0412 23.7323 36.0412C23.3704 36.0412 23.0084 36.2235 22.8261 36.5855V39.122H21.9198V35.3172L22.8261 35.1349V35.6792C23.0084 35.3172 23.55 35.1349 23.912 35.1349C24.0943 35.1349 24.274 35.1349 24.4563 35.3172" fill="white"/>
<path d="M28.6258 35.3168L27.3575 39.3039C26.8132 40.3898 26.4512 40.9341 25.5449 40.9341C25.183 40.9341 25.0007 40.9341 24.6387 40.7518L25.0007 40.0279C25.183 40.2102 25.3626 40.2102 25.3626 40.2102C25.7246 40.2102 26.0866 40.0279 26.4486 39.3039V39.1216H26.2663L24.8158 35.3168H25.722L26.446 37.4913C26.6283 37.8533 26.6283 38.0356 26.808 38.2153C26.808 38.033 26.808 37.8533 26.9903 37.4913L27.7143 35.3168H28.6205H28.6258Z" fill="white"/>
<path d="M13.5889 33.5047V34.5933L12.5004 34.2313V33.5047H13.5889Z" fill="white"/>
<path d="M7.42727 33.5047V34.5933L6.521 34.2313V33.5047H7.42727Z" fill="white"/>
<path d="M33.3367 37.3095C33.3367 36.4032 32.9747 35.8589 32.4304 35.8589C31.7064 35.8589 31.3444 36.4032 31.3444 37.3095C31.3444 38.0334 31.5267 38.3954 32.2507 38.3954C32.9747 38.3954 33.3393 38.0334 33.3393 37.3095H33.3367ZM30.4382 37.3095C30.2559 36.2235 30.9824 35.3172 32.0684 35.1349H32.4304C33.519 35.1349 34.2429 36.0412 34.2429 37.3095C34.2429 38.3954 33.3367 39.3017 32.2507 39.3017C31.3444 39.3017 30.4382 38.3954 30.4382 37.3095Z" fill="white"/>
<path d="M36.5999 34.9553V35.6793H37.6884V36.4032H36.5999V39.1221H35.6936V36.4032H34.9696V35.6793H35.6936V35.135C35.6936 34.2287 36.2379 33.5047 36.9618 33.5047H37.1441C37.5061 33.5047 37.6884 33.5047 38.0504 33.687L37.8681 34.411C37.6858 34.411 37.5061 34.2287 37.1441 34.2287C36.7822 34.2287 36.5999 34.5907 36.5999 34.9527" fill="white"/>
<path d="M46.2016 33.5047V39.1221H45.113V35.135C45.113 35.497 44.9307 35.6793 44.751 36.0413L43.6651 38.3981H42.7588L41.4906 36.0413C41.4906 35.6793 41.3083 35.497 41.1286 35.135V39.1221H40.2223V33.5047H41.3109L42.5791 36.0413C42.7614 36.4032 42.9411 36.9475 43.1234 37.3095C43.3057 36.9475 43.4854 36.4032 43.8474 36.0413L45.1156 33.5047H46.2042H46.2016Z" fill="white"/>
<path d="M47.8319 36.7675H49.6444C49.6444 36.2232 49.2824 35.8612 48.9205 35.8612C48.3762 35.8612 48.0142 36.2232 47.8345 36.7675M50.371 37.4914H47.8345C47.8345 38.2154 48.3788 38.5774 48.9205 38.5774C49.2824 38.5774 49.6444 38.3951 50.009 38.2154L50.371 38.7597C50.009 39.1217 49.4647 39.304 48.9205 39.304C47.8345 39.304 46.9282 38.58 46.9282 37.6737V37.3117C46.9282 36.0435 47.6522 35.1372 48.7408 35.1372C49.647 35.1372 50.371 35.6815 50.5533 36.5878V36.7701C50.5533 36.9524 50.5533 37.132 50.371 37.494" fill="white"/>
<path d="M53.0872 38.5778C53.4492 38.5778 53.8112 38.3955 53.9935 38.2158V36.0413C53.8112 35.859 53.6315 35.859 53.2695 35.859C52.7252 35.859 52.1835 36.4032 52.1835 37.3095C52.1835 38.2158 52.5455 38.5778 53.0898 38.5778M54.8998 33.5047V39.1221H54.1758L53.9935 38.9398C53.6315 39.1221 53.2695 39.3017 52.9075 39.3017C51.8216 39.3017 51.2773 38.5778 51.2773 37.3095C51.095 36.2235 51.8216 35.3173 52.9075 35.135H53.2695C53.4518 35.135 53.8138 35.135 53.9935 35.3173V33.687L54.8998 33.5047Z" fill="white"/>
<path d="M55.806 35.3172L56.7123 35.1349V39.122H55.806V35.3172Z" fill="white"/>
<path d="M58.8842 38.5777C59.2462 38.5777 59.6082 38.3954 59.9728 38.2157V37.4917C59.0665 37.4917 58.5222 37.674 58.5222 38.2157C58.5222 38.398 58.7045 38.5777 58.8842 38.5777ZM60.8791 36.4032V39.122H60.1551L59.9728 38.76C59.6108 39.122 59.0665 39.3043 58.7045 39.3043C58.1603 39.3043 57.616 38.9423 57.4363 38.398V38.2157C57.4363 37.3095 58.7045 36.7652 59.9728 36.7652V36.5829C59.9728 36.2209 59.7905 35.8589 59.4285 35.8589C58.8842 35.8589 58.3426 36.0412 57.978 36.4032L57.616 35.6792C58.1603 35.3172 58.8842 35.1349 59.4285 35.1349C60.3348 35.1349 60.8791 35.4969 60.8791 36.4032Z" fill="white"/>
<path d="M56.7123 33.5047V34.773L55.806 34.2313V33.5047H56.7123Z" fill="white"/>
<path d="M94.9451 10.6732C94.4008 8.68099 92.7679 7.04813 90.596 6.32416C91.8617 5.96217 92.9502 5.96217 94.0336 6.14186H94.2159V5.95957C93.8539 5.59758 93.6716 5.41528 93.3096 5.23559C92.221 4.50901 90.9554 4.14702 89.6845 4.14702H89.5074C90.2288 3.60274 90.958 3.24075 91.6794 3.05845L91.8617 2.87616C91.8617 2.69386 91.6794 2.69386 91.6794 2.69386C90.4137 2.51156 89.1428 2.51156 88.0595 3.05585C88.2366 2.33187 88.6038 1.78759 89.1428 1.4256C89.2644 1.30407 89.2644 1.2433 89.1428 1.2433V1.06101C88.0595 1.2433 87.1558 1.60529 86.6115 2.51156C86.6115 1.78759 86.2443 1.2433 85.885 0.69902L85.7079 0.516724V0.69902C85.1636 1.2433 84.9813 1.78759 84.9813 2.51156C84.2547 1.60529 83.3484 1.2433 82.4448 1.06101C82.2677 1.06101 82.2677 1.2433 82.2677 1.2433V1.4256C82.8068 1.78759 83.174 2.33187 83.351 3.05585C82.2677 2.51156 80.9968 2.51156 79.7312 2.69386C79.7312 2.69386 79.5489 2.87616 79.7312 2.87616V3.05845C80.4525 3.24075 81.1817 3.60274 81.9031 4.14702H81.726C80.4551 4.14702 79.1895 4.50901 78.1009 5.23559C77.7389 5.41789 77.5566 5.77987 77.1946 5.95957V6.14186H77.3769C77.916 6.14186 78.2832 5.95957 78.8275 5.95957C79.5489 5.95957 80.0931 6.14186 80.8197 6.32155C78.6426 7.04553 77.0097 8.67838 76.4655 10.6706C76.4655 10.7921 76.5262 10.8529 76.6477 10.8529C77.7363 9.76435 79.1843 9.04037 80.8171 8.85807C78.8249 10.1263 77.7363 12.3009 77.9134 14.6577C77.9134 14.7792 77.9742 14.84 78.0957 14.84V14.6577C78.8223 13.0274 80.2728 11.7592 81.9005 11.0326C80.8171 12.3009 80.2728 13.7514 80.2728 15.1994C80.2728 16.1056 80.4499 16.8296 80.6348 17.3739C80.6348 17.5562 80.8171 17.5562 80.8171 17.5562L80.9942 17.3739C81.1765 15.3817 82.2651 13.7488 84.075 12.6629H84.2521C84.2521 12.4806 84.4344 12.4806 84.4344 12.6629C84.6167 13.7488 84.7964 15.0197 84.6167 16.2879C84.6167 19.5484 84.4344 25.8897 84.4344 26.072L85.7053 26.9783L86.9709 26.072C86.9709 25.8897 86.7886 19.5484 86.7886 16.2879C86.6115 15.0197 86.7886 13.7514 86.9709 12.6629C86.9709 12.4806 87.1532 12.4806 87.1532 12.6629H87.3303C89.1402 13.7488 90.2288 15.3817 90.596 17.3739C90.596 17.4954 90.655 17.5562 90.7731 17.5562V17.3739C91.1351 16.8296 91.1351 16.1056 91.1351 15.1994C91.1351 13.7488 90.596 12.1186 89.5074 11.0326C91.3174 11.5769 92.583 13.0248 93.3122 14.6577H93.4945C93.6716 12.3009 92.583 10.1289 90.596 8.85807C92.2236 9.04037 93.6716 9.76435 94.7602 10.8529H94.9425V10.6706" fill="white"/>
<path d="M90.0517 36.2233L89.8694 36.4056L89.6871 36.5879H89.51C89.3885 36.5879 89.3277 36.5272 89.3277 36.4056C89.2062 36.4056 89.1454 36.3449 89.1454 36.2233C88.9684 36.2233 88.9683 36.041 88.7834 36.041C88.5985 36.041 88.6064 35.8587 88.4215 35.8587H87.8772L87.6949 36.041C87.5178 36.2233 87.3329 36.403 87.3329 36.5853C87.1558 36.9473 87.1558 37.1296 87.3329 37.3093C87.5152 37.8536 88.0595 38.2156 88.7834 38.0333C89.51 37.851 90.0543 37.489 90.4163 36.9473C90.5986 36.5853 90.5986 36.2233 90.4163 35.8613C90.234 36.0436 90.234 36.2233 90.0543 36.2233" fill="white"/>
<path d="M84.0724 36.4034L83.8901 36.2211C83.713 36.0388 83.5281 36.0388 83.5281 36.0388C83.3458 35.8565 83.1662 35.8565 82.9839 36.0388H82.6219C82.5003 36.1604 82.3797 36.281 82.2599 36.4008C82.2599 36.4008 82.2599 36.5831 82.0776 36.5831H81.5333C81.5333 36.4008 81.351 36.4008 81.351 36.2211C81.2329 36.2211 81.1739 36.1604 81.1739 36.0388C80.8119 36.4008 80.8119 36.7628 80.9916 36.9451C81.3536 37.6691 82.0802 38.0311 82.6245 38.2134C83.3458 38.2134 83.8901 37.8514 84.075 37.3071C84.2521 37.1248 84.2521 36.7628 84.075 36.4008L84.0724 36.4034Z" fill="white"/>
<path d="M105.273 24.8092C97.8436 21.9107 90.7757 25.1712 85.7052 28.7963C80.6296 25.1712 73.5617 21.9107 66.1371 24.8092C66.1371 24.8092 65.9548 24.8092 66.1371 24.9915C72.6554 24.6295 77.7311 25.8978 83.8901 30.0645C82.0801 31.5151 80.6296 32.9631 79.541 34.0516C79.3587 33.6896 79.179 33.325 78.9967 33.325C78.6348 32.7808 77.9082 32.2391 77.3691 32.0568C76.6425 32.0568 76.0982 32.4188 75.9185 32.9631C75.7362 33.1454 75.7362 33.325 75.7362 33.5073C75.7362 33.6896 75.9185 33.8693 75.9185 33.8693C75.9185 34.0516 76.0956 34.0516 76.0956 34.2313C76.2779 34.2313 76.4576 34.4136 76.4576 34.4136H77.0019C77.0019 34.4136 77.1842 34.4136 77.3691 34.2313C77.5462 34.2313 77.5462 34.049 77.7311 34.049V33.8667C77.9082 33.6844 78.0931 33.6844 78.2754 33.8667H78.4525C78.6348 34.2287 78.9967 34.411 79.179 34.773L79.541 35.135L79.7233 35.3173C79.7233 35.3173 78.6348 34.9553 78.4525 35.135C77.7311 35.859 77.0019 36.4032 76.4602 36.9475C76.2831 37.1298 76.0982 37.1298 75.9211 37.3095C75.9211 37.4918 75.7388 37.4918 75.5539 37.6715H75.192C75.0097 37.6715 74.83 37.8538 74.83 37.8538C74.6477 37.6715 74.4628 37.6715 74.4628 37.6715H74.1008L73.7388 37.4892L73.5565 37.3069H73.0122C72.8351 37.3069 72.6502 37.3069 72.4731 37.4892C72.2908 37.6715 72.1059 37.8512 72.1059 38.0335C71.9289 38.2158 71.9289 38.3955 71.9289 38.5778C72.1059 38.7601 72.1059 38.9398 72.2908 39.1221L72.4731 39.3044C72.6502 39.4867 72.8351 39.4867 72.8351 39.6663C73.0122 39.6663 73.1971 39.8486 73.3794 39.8486H74.83C76.0956 39.8486 77.3665 38.7627 78.0905 38.0361C80.4447 35.6793 82.9838 33.5073 85.7026 31.5125C88.2339 33.5073 90.7731 35.6793 93.3096 38.0361C93.8539 38.7601 95.1195 39.8486 96.5701 39.8486H98.0206C98.2029 39.8486 98.2029 39.6663 98.3878 39.6663C98.5649 39.484 98.7498 39.484 98.9269 39.3044L99.1092 39.1221C99.2915 38.9398 99.2915 38.7601 99.2915 38.5778V38.0335C99.1092 37.8512 99.1092 37.6715 98.9243 37.4892C98.7472 37.3069 98.5623 37.3069 98.3852 37.3069H97.8409C97.6587 37.3069 97.6587 37.4892 97.4738 37.4892L97.2967 37.6715H96.9347C96.8132 37.6715 96.6908 37.7323 96.5675 37.8538C96.5675 37.8538 96.3904 37.6715 96.2055 37.6715H95.8435C95.6612 37.4892 95.4815 37.4892 95.2992 37.3095C95.1169 37.1272 94.9372 37.1272 94.9372 36.9475C94.2107 36.4032 93.6664 35.8616 92.945 35.135C92.7627 34.9527 91.6741 35.3173 91.6741 35.3173L91.8564 35.135L92.2184 34.773C92.4007 34.411 92.7627 34.2287 92.945 33.8667H93.1221C93.2436 33.7452 93.366 33.6844 93.4893 33.6844V33.8667C93.6073 33.8667 93.6664 33.9275 93.6664 34.049C93.8487 34.049 93.8487 34.2313 94.0284 34.2313C94.2107 34.4136 94.3956 34.4136 94.3956 34.4136H94.9398C94.9398 34.4136 95.1169 34.2313 95.3018 34.2313C95.3018 34.2313 95.4841 34.049 95.4841 33.8693L95.6612 33.687V32.9631C95.2992 32.4188 94.7549 32.0568 94.2107 32.2391C93.4893 32.4214 92.945 32.7834 92.4007 33.325C92.2184 33.5073 92.0387 33.8693 91.8564 34.0516C90.9502 33.1453 89.3199 31.6948 87.5074 30.2468C93.6664 26.0801 98.742 24.6295 105.266 25.1738L105.443 24.9915C105.443 24.87 105.384 24.8092 105.266 24.8092" fill="white"/>
</svg>
