<svg width="21" height="29" viewBox="0 0 21 29" fill="none" xmlns="http://www.w3.org/2000/svg">
<path d="M10.6112 21.5025C9.15232 20.3198 9.3167 20.3401 9.53588 18.7452C9.82355 16.6637 10.077 14.5281 9.87834 12.4534C9.57697 9.20268 6.09067 7.2631 3.04273 8.41874C2.8441 8.49308 2.73451 8.81071 2.58382 9.0067C2.79615 9.15538 2.99478 9.40543 3.22081 9.4257C3.93314 9.49329 4.67971 9.35812 5.35095 9.52708C6.19341 9.72982 7.17971 9.9596 7.76191 10.5273C9.33725 12.0681 9.3578 17.0692 8.13177 18.6438C6.11807 17.8801 4.20711 17.0962 2.24821 16.4542C1.8167 16.3123 1.20711 16.6907 0.686564 16.8326C1.12492 17.0827 1.54958 17.38 2.00848 17.576C3.48108 18.1978 5.04958 18.6371 6.42629 19.4075C7.803 20.1779 7.71396 20.5564 6.68656 21.8201C5.35095 23.4624 3.70026 24.5369 1.63862 25.0843C1.26876 25.1857 1.00848 25.6858 0.693413 26.0034C1.11807 26.0575 1.63177 26.2873 1.94684 26.1318C3.62492 25.2938 5.29615 24.4288 6.86465 23.4218C7.57697 22.969 8.06328 22.1648 8.70026 21.4687C8.93314 21.7323 9.09752 21.8945 9.23451 22.0769C9.39204 22.2932 9.52903 22.523 9.69341 22.7798C7.52218 25.3749 5.11807 27.4024 1.65917 27.8687C1.303 27.9092 0.994783 28.3417 0.666016 28.5986C1.04958 28.7405 1.43999 29.0311 1.80985 28.9973C4.17286 28.8013 6.20026 27.8281 7.93314 26.2467C8.8304 25.4222 9.70711 24.5775 10.8441 23.5097C11.3509 24.1382 11.7551 24.7261 12.2482 25.2195C14.1934 27.1726 16.4263 28.6594 19.2688 28.9635C19.714 29.0108 20.1934 28.7202 20.6523 28.5783C20.2619 28.3417 19.8989 27.9633 19.4811 27.8957C16.077 27.3078 13.6729 25.3006 11.5564 22.6784C11.9674 22.2324 12.303 21.8607 12.714 21.4079C14.4194 23.8611 16.5085 25.5642 19.3715 26.1454C19.7551 26.2197 20.1934 26.0305 20.6044 25.9629C20.2756 25.6655 19.9948 25.206 19.6112 25.0978C17.5222 24.5099 15.8099 23.4286 14.4605 21.7255C13.7277 20.7997 13.6044 20.009 14.7756 19.4683C16.2619 18.779 17.8167 18.2248 19.3304 17.5895C19.7962 17.3936 20.2208 17.103 20.666 16.8597C20.1523 16.6975 19.5701 16.3055 19.1249 16.4204C17.7551 16.7718 16.4126 17.2584 15.1044 17.799C14.4331 18.0761 13.8578 18.5695 13.1044 19.0493C12.3646 16.9137 12.1112 14.9674 12.4742 12.9197C12.9126 10.4462 13.94 9.52032 16.4948 9.43922C17.0633 9.41895 17.6455 9.47977 18.2071 9.40543C18.4057 9.3784 18.6112 9.08104 18.714 8.85802C18.7482 8.78368 18.4605 8.49984 18.2688 8.4255C15.4331 7.35771 12.0427 8.91208 11.5701 11.8722C11.2208 14.0888 11.4263 16.4542 11.7893 18.6844C12.0085 20.0427 11.8304 20.8334 10.6112 21.5025ZM6.86465 0.315727C7.89204 2.01202 8.82355 3.63398 9.8441 5.20186C10.3099 5.91823 11.0016 5.87768 11.4605 5.16807C12.4674 3.60018 13.4057 1.98499 14.4126 0.322485C14.1249 0.187322 13.7825 -0.0356964 13.7414 0.00485241C12.6729 1.24835 11.6386 2.51212 10.5153 3.86375C9.96739 3.02574 9.52218 2.19449 8.92629 1.49164C8.44684 0.917202 8.2756 -0.393878 6.86465 0.315727ZM14.0633 6.12097C13.9605 6.01284 13.8646 5.90471 13.7619 5.79658C14.5496 4.83017 15.3646 3.89079 16.1112 2.89734C16.3372 2.59322 16.3715 2.14718 16.4948 1.76197C16.0975 1.85658 15.5427 1.81603 15.3235 2.05933C14.4537 3.03926 13.6112 4.0665 12.9194 5.17483C12.6523 5.6006 12.5838 6.49267 12.8578 6.79679C13.2003 7.17524 14.0016 7.35095 14.5701 7.29689C15.6455 7.19552 16.7071 6.89816 17.7551 6.60756C18.1181 6.50619 18.4126 6.16152 18.7414 5.92499C18.3852 5.79658 18.0085 5.5195 17.6729 5.56005C16.4605 5.68845 15.2619 5.92499 14.0633 6.12097ZM7.52903 5.85065C7.44684 5.94526 7.3715 6.03312 7.2893 6.12773C5.99478 5.91823 4.70711 5.66818 3.40574 5.5195C3.15232 5.49246 2.8578 5.82361 2.57697 5.99257C2.78245 6.18855 2.95369 6.50619 3.20026 6.56701C4.43999 6.87788 5.68656 7.19552 6.94684 7.35771C7.42629 7.41854 8.14547 7.19552 8.41259 6.85085C8.67287 6.51294 8.70711 5.71548 8.47423 5.35054C7.71396 4.17463 6.8167 3.07305 5.89889 2.00526C5.70026 1.77549 5.20711 1.789 4.85095 1.69439C4.93999 2.0796 4.91944 2.53916 5.13862 2.83651C5.89204 3.87051 6.72766 4.85044 7.52903 5.85065Z" fill="#067647"/>
</svg>
