<svg width="25" height="24" viewBox="0 0 25 24" fill="none" xmlns="http://www.w3.org/2000/svg">
<path fill-rule="evenodd" clip-rule="evenodd" d="M15.42 2.78681C13.467 2.73773 11.533 2.73773 9.57999 2.7868L9.52182 2.78826C7.997 2.82655 6.77002 2.85735 5.7867 3.0286C4.7572 3.20789 3.92048 3.55177 3.21362 4.26132C2.50971 4.9679 2.16764 5.7926 1.99176 6.8054C1.82429 7.76978 1.79878 8.9668 1.76719 10.4496L1.76593 10.5084C1.74469 11.5047 1.74469 12.4953 1.76594 13.4916L1.76719 13.5504C1.79879 15.0332 1.82429 16.2302 1.99176 17.1946C2.16764 18.2074 2.50972 19.0321 3.21362 19.7387C3.92048 20.4482 4.7572 20.7921 5.7867 20.9714C6.77001 21.1426 7.99697 21.1735 9.52177 21.2117L9.57999 21.2132C11.533 21.2623 13.467 21.2623 15.42 21.2132L15.4782 21.2117C17.003 21.1735 18.23 21.1426 19.2133 20.9714C20.2428 20.7921 21.0795 20.4482 21.7864 19.7387C22.4903 19.0321 22.8324 18.2074 23.0082 17.1946C23.1757 16.2302 23.2012 15.0332 23.2328 13.5503L23.2341 13.4916C23.2553 12.4953 23.2553 11.5047 23.2341 10.5084L23.2328 10.4497C23.2012 8.96683 23.1757 7.76979 23.0082 6.80542C22.8324 5.79261 22.4903 4.96792 21.7864 4.26134C21.0795 3.55179 20.2428 3.20791 19.2133 3.02862C18.23 2.85737 17.003 2.82656 15.4782 2.78827L15.42 2.78681ZM9.61766 4.28633C11.5456 4.23789 13.4544 4.23789 15.3823 4.28633C16.979 4.32645 18.0947 4.35638 18.9559 4.50637C19.7835 4.65049 20.2994 4.89411 20.7237 5.31998C20.8977 5.49459 21.0405 5.68255 21.1582 5.89829L15.2173 9.26444C13.9621 9.9757 13.2003 10.25 12.5001 10.25C11.7999 10.25 11.0381 9.9757 9.78285 9.26444L3.84181 5.8982C3.9595 5.68249 4.10237 5.49455 4.27629 5.31997C4.70055 4.89409 5.21652 4.65048 6.04405 4.50636C6.90529 4.35637 8.02099 4.32644 9.61766 4.28633ZM3.42102 7.38383C3.31754 8.17564 3.29468 9.17647 3.26559 10.5404C3.2448 11.5154 3.2448 12.4846 3.2656 13.4596C3.29877 15.0152 3.32385 16.0984 3.46964 16.938C3.60923 17.7418 3.84907 18.2512 4.27629 18.68C4.70056 19.1059 5.21653 19.3495 6.04406 19.4936C6.9053 19.6436 8.021 19.6736 9.61767 19.7137C11.5456 19.7621 13.4544 19.7621 15.3823 19.7137C16.979 19.6736 18.0947 19.6436 18.9559 19.4936C19.7835 19.3495 20.2994 19.1059 20.7237 18.68C21.1509 18.2512 21.3908 17.7418 21.5304 16.938C21.6762 16.0984 21.7012 15.0152 21.7344 13.4596C21.7552 12.4846 21.7552 11.5154 21.7344 10.5404C21.7053 9.17653 21.6825 8.17574 21.579 7.38394L15.9568 10.5695C14.6635 11.3023 13.6126 11.75 12.5001 11.75C11.3876 11.75 10.3367 11.3023 9.04339 10.5695L3.42102 7.38383Z" fill="#161616"/>
</svg>
