<svg width="28" height="28" viewBox="0 0 28 28" fill="none" xmlns="http://www.w3.org/2000/svg">
<path d="M11.1532 12.6984C12.2965 13.3716 13.147 13.7088 13.9975 13.7088C14.8492 13.7088 15.6997 13.3728 16.8442 12.6984L20.2765 10.6684C20.693 10.4234 20.8307 9.88678 20.5845 9.47028C20.3395 9.05378 19.8029 8.91604 19.3864 9.16221L15.9552 11.1911C14.2355 12.2026 13.7595 12.2026 12.0422 11.1911L8.60986 9.16107C8.19453 8.91491 7.6578 9.0537 7.41163 9.46903C7.16547 9.88436 7.30437 10.4211 7.71971 10.6673L11.1532 12.6984Z" fill="#1B8354"/>
<path fill-rule="evenodd" clip-rule="evenodd" d="M10.5917 24.7431C11.7374 24.7723 12.8679 24.7875 13.9984 24.7875C15.1289 24.7875 16.2594 24.7723 17.4051 24.7431L17.4067 24.743C21.1833 24.6474 23.2643 24.5947 24.8332 23.0269C26.3989 21.4484 26.4421 19.4231 26.5202 15.7446C26.5447 14.5698 26.5447 13.4288 26.5202 12.2539C26.4421 8.57545 26.3989 6.54892 24.8297 4.96809C23.2629 3.40359 21.1816 3.34999 17.4039 3.25432C15.1114 3.19599 12.8831 3.19599 10.5906 3.25432L10.589 3.25436C6.81231 3.35 4.73135 3.4027 3.1624 4.97048C1.59674 6.54898 1.55357 8.57431 1.47541 12.2528C1.45091 13.4276 1.45091 14.5686 1.47541 15.7435C1.55357 19.422 1.59677 21.4485 3.16593 23.0293C4.73277 24.5938 6.81403 24.6474 10.5917 24.7431ZM4.40495 21.7926C3.33045 20.7111 3.2966 19.1419 3.22427 15.7061C3.19977 14.5558 3.19977 13.4381 3.22427 12.2889C3.2966 8.85309 3.33042 7.28516 4.40142 6.20483C5.47349 5.13275 7.09028 5.09177 10.634 5.00195C12.8973 4.94362 15.0975 4.9436 17.3596 5.00193C20.904 5.09176 22.521 5.13377 23.5908 6.20243C24.6653 7.28393 24.699 8.85309 24.7714 12.2889C24.7959 13.4393 24.7959 14.5569 24.7714 15.7061C24.699 19.1419 24.6652 20.71 23.5942 21.7903C22.5223 22.8623 20.9057 22.9032 17.3628 22.993L17.3608 22.9931C15.0974 23.0514 12.8983 23.0514 10.6361 22.9931C7.0918 22.9033 5.47478 22.8613 4.40495 21.7926Z" fill="#1B8354"/>
</svg>
