<svg width="23" height="22" viewBox="0 0 23 22" fill="none" xmlns="http://www.w3.org/2000/svg">
<path d="M11.4003 9.27598C11.6196 9.30545 11.8998 9.38125 12.1356 9.61707C12.3714 9.85285 12.4473 10.133 12.4768 10.3524C12.5019 10.5396 12.5019 10.7614 12.5018 10.9665L12.5018 15.001C12.5018 15.4152 12.166 15.751 11.7518 15.751C11.3376 15.751 11.0018 15.4152 11.0018 15.001V11.001C11.0018 10.9019 11.0017 10.8216 11.0006 10.7521C10.9312 10.751 10.8508 10.751 10.7518 10.751C10.3376 10.751 10.0018 10.4152 10.0018 10.001C10.0018 9.58678 10.3376 9.25099 10.7518 9.25099L10.7862 9.25099C10.9913 9.25091 11.2131 9.25082 11.4003 9.27598Z" fill="#067647"/>
<path d="M11.5018 6.00098C10.9495 6.00098 10.5018 6.44869 10.5018 7.00098C10.5018 7.55326 10.9495 8.00098 11.5018 8.00098H11.5108C12.0631 8.00098 12.5108 7.55326 12.5108 7.00098C12.5108 6.44869 12.0631 6.00098 11.5108 6.00098H11.5018Z" fill="#067647"/>
<path fill-rule="evenodd" clip-rule="evenodd" d="M11.5099 21.751H11.3399C10.2899 21.671 9.62991 20.921 9.09991 20.311L9.08902 20.2985C8.75307 19.9132 8.43628 19.5497 8.09991 19.431C7.74506 19.3029 7.2639 19.3399 6.75219 19.3793L6.69554 19.3837C5.80128 19.4534 4.689 19.5401 3.83992 18.691C3.01391 17.865 3.08718 16.7586 3.1469 15.8567L3.14992 15.811L3.1516 15.7887C3.19101 15.267 3.22809 14.7761 3.09991 14.431C2.96991 14.091 2.60992 13.771 2.21992 13.431C1.60992 12.901 0.859914 12.241 0.779914 11.191C0.689914 9.94104 1.52992 9.20102 2.21992 8.61102L2.23286 8.59974C2.61808 8.26394 2.98135 7.94726 3.10992 7.61102C3.23809 7.26594 3.20101 6.77505 3.16161 6.25336L3.15992 6.23102C3.08992 5.32102 3.00991 4.19101 3.84991 3.35101C4.70991 2.49101 5.83992 2.58101 6.73992 2.66101L6.83481 2.6684C7.32035 2.7064 7.78126 2.74248 8.10992 2.61102C8.44992 2.48102 8.76992 2.12102 9.10992 1.73102C9.63992 1.12102 10.2999 0.371016 11.3499 0.291016H11.6899C12.7381 0.370122 13.3951 1.11413 13.9221 1.71086L13.9399 1.73102L13.9508 1.74352C14.2868 2.1289 14.6036 2.49231 14.9399 2.61102C15.2948 2.73916 15.7759 2.70212 16.2876 2.66273L16.3099 2.66101C17.2099 2.58101 18.3399 2.49101 19.1999 3.35101C20.0599 4.22101 19.9699 5.34103 19.8899 6.24103L19.8825 6.33579C19.8445 6.82137 19.8084 7.28234 19.9399 7.61102C20.0641 7.9357 20.407 8.24213 20.7686 8.56516L20.8199 8.61102C21.4299 9.14102 22.1799 9.80101 22.2599 10.851C22.3499 12.101 21.4999 12.851 20.8199 13.441C20.4499 13.761 20.1099 14.061 19.9599 14.381C19.7914 14.7379 19.8391 15.2617 19.8886 15.8065L19.8899 15.821C19.9699 16.721 20.0599 17.841 19.1999 18.701C18.3599 19.541 17.2299 19.4611 16.3199 19.3911L16.2975 19.3894C15.7758 19.35 15.285 19.3129 14.9399 19.441C14.5999 19.571 14.2799 19.931 13.9399 20.321C13.4099 20.931 12.7499 21.681 11.6999 21.761H11.5199L11.5099 21.751ZM7.45991 17.8311C7.84991 17.8311 8.23992 17.871 8.61992 18.011C9.29038 18.2601 9.75902 18.7843 10.1752 19.2499L10.2299 19.311C10.7199 19.871 11.0399 20.211 11.4499 20.241H11.5799C11.9899 20.211 12.3099 19.871 12.7999 19.311L12.8071 19.3029C13.2352 18.815 13.7138 18.2696 14.4099 18.011C15.0699 17.771 15.7599 17.821 16.4299 17.871C17.2699 17.931 17.8099 17.951 18.1399 17.621C18.4899 17.271 18.4699 16.741 18.3999 15.921L18.3989 15.9097C18.3392 15.2225 18.2717 14.4471 18.5999 13.731C18.8784 13.1243 19.3844 12.6858 19.8326 12.2973L19.8399 12.291C20.4399 11.771 20.8099 11.421 20.7699 10.941C20.7399 10.531 20.3999 10.211 19.8399 9.72101L19.8315 9.71365C19.3437 9.28553 18.7984 8.80703 18.5299 8.11102C18.2822 7.44722 18.3388 6.73439 18.3885 6.10858L18.3899 6.09106C18.4599 5.26106 18.4799 4.74104 18.1299 4.38104C17.7799 4.03104 17.2499 4.05103 16.4199 4.12103L16.4025 4.12241C15.7767 4.17211 15.0638 4.22872 14.3999 3.98102C13.7295 3.73199 13.2608 3.20775 12.8446 2.74219L12.7899 2.68103C12.2999 2.12103 11.9799 1.78104 11.5699 1.75104H11.4299C11.0299 1.78104 10.7099 2.12103 10.2199 2.68103L10.2128 2.68917C9.7846 3.17711 9.30604 3.72246 8.60992 3.98102C7.94607 4.22872 7.23315 4.17211 6.60732 4.12241L6.58992 4.12103C5.75992 4.05103 5.23992 4.03104 4.87992 4.38104C4.54992 4.71104 4.56992 5.25106 4.62992 6.09106C4.67992 6.76106 4.72992 7.45102 4.48992 8.11102C4.22992 8.81102 3.66992 9.30101 3.17992 9.72101C2.55992 10.261 2.21992 10.581 2.24992 11.061C2.27992 11.471 2.61992 11.7911 3.17992 12.2811L3.21394 12.3109C3.6956 12.7333 4.23592 13.2072 4.48992 13.8911C4.72992 14.5511 4.67992 15.241 4.62992 15.911C4.56992 16.751 4.54992 17.291 4.87992 17.621C5.22992 17.971 5.75992 17.951 6.58992 17.881C6.64748 17.8768 6.70596 17.8721 6.76524 17.8673C6.98387 17.8496 7.21407 17.8311 7.44992 17.8311H7.45991Z" fill="#067647"/>
</svg>
