<svg width="28" height="28" viewBox="0 0 28 28" fill="none" xmlns="http://www.w3.org/2000/svg">
<path d="M18.1365 17.6111H17.1607C17.1145 17.6111 17.0683 17.6053 17.0221 17.5878C16.9817 17.5703 16.9413 17.547 16.9067 17.512C16.872 17.477 16.8489 17.442 16.8316 17.3953C16.8143 17.3545 16.8027 17.3078 16.8027 17.2611V16.2695C16.8027 16.2228 16.8143 16.1762 16.8316 16.1353C16.8489 16.0945 16.8778 16.0537 16.9067 16.0187C16.9413 15.9837 16.976 15.9603 17.0221 15.9428C17.0626 15.9253 17.1088 15.9137 17.1607 15.9195H18.1365C18.1827 15.9195 18.2289 15.9253 18.2693 15.9428C18.3098 15.9603 18.3502 15.9837 18.3848 16.0187C18.4195 16.0537 18.4426 16.0887 18.4599 16.1353C18.4772 16.1762 18.4888 16.2228 18.4888 16.2695V17.2611C18.4888 17.3078 18.4772 17.3545 18.4599 17.3953C18.4426 17.4361 18.4137 17.477 18.3848 17.512C18.3502 17.547 18.3155 17.5703 18.2693 17.5878C18.2289 17.6053 18.1827 17.617 18.1365 17.6111Z" fill="#067647"/>
<path d="M15.201 11.6027H14.2194C14.1732 11.6027 14.127 11.5911 14.0866 11.5736C14.0462 11.5561 14.0058 11.5269 13.9711 11.4977C13.9365 11.4627 13.9134 11.4277 13.8961 11.3811C13.8787 11.3402 13.8672 11.2936 13.8672 11.2469V10.2552C13.8672 10.1619 13.9076 10.0744 13.9711 10.0044C14.0346 9.94025 14.127 9.89941 14.2194 9.89941H15.201C15.2934 9.89941 15.3858 9.93441 15.4493 10.0044C15.5186 10.0686 15.5532 10.1619 15.5532 10.2552V11.2469C15.5532 11.2936 15.5417 11.3402 15.5243 11.3811C15.507 11.4219 15.4781 11.4627 15.4493 11.4977C15.4146 11.5327 15.38 11.5561 15.3338 11.5736C15.2934 11.5969 15.2472 11.6086 15.201 11.6027Z" fill="#067647"/>
<path d="M3.37686 18.0657H2.40104C2.30866 18.0657 2.21628 18.0307 2.15276 17.9607C2.08925 17.8907 2.04883 17.8032 2.04883 17.7098V16.7182C2.04883 16.6248 2.08347 16.5315 2.15276 16.4673C2.22205 16.4032 2.30866 16.3682 2.40104 16.3682H3.37686C3.42305 16.3682 3.46924 16.374 3.50966 16.3915C3.55008 16.409 3.5905 16.4323 3.62514 16.4673C3.65979 16.5023 3.68288 16.5373 3.70021 16.584C3.71753 16.6248 3.72908 16.6715 3.72908 16.7182V17.7098C3.72908 17.8032 3.68866 17.8965 3.62514 17.9607C3.55585 18.0307 3.46924 18.0657 3.37686 18.0657Z" fill="#067647"/>
<path d="M13.7436 19.7746H12.762C12.7158 19.7746 12.6696 19.763 12.6292 19.7455C12.5888 19.728 12.5484 19.6988 12.5137 19.6696C12.4791 19.6346 12.456 19.5996 12.4387 19.553C12.4213 19.5121 12.4098 19.4655 12.4156 19.4188V18.433C12.4156 18.3863 12.4213 18.3396 12.4387 18.2988C12.456 18.258 12.4791 18.2171 12.5137 18.1821C12.5484 18.1471 12.583 18.1238 12.6292 18.1063C12.6696 18.0888 12.7158 18.0771 12.762 18.0771H13.7436C13.836 18.0771 13.9284 18.118 13.9919 18.1821C14.0554 18.2463 14.0958 18.3396 14.0958 18.433V19.4188C14.0958 19.5121 14.0612 19.6055 13.9919 19.6696C13.9226 19.7338 13.836 19.7746 13.7436 19.7746Z" fill="#067647"/>
<path d="M8.7967 13.4172H7.81511C7.72272 13.4172 7.63034 13.3822 7.56682 13.3122C7.50331 13.2422 7.46289 13.1547 7.46289 13.0614V12.0697C7.46289 11.9764 7.49754 11.883 7.56682 11.8189C7.63611 11.7547 7.72272 11.7139 7.81511 11.7139H8.7967C8.84289 11.7139 8.88908 11.7255 8.9295 11.743C8.96992 11.7605 9.01034 11.7897 9.04498 11.8189C9.07962 11.8539 9.10272 11.8889 9.12004 11.9355C9.13736 11.9764 9.14891 12.023 9.14891 12.0697V13.0614C9.14891 13.108 9.14314 13.1547 9.12004 13.1955C9.10272 13.2364 9.07962 13.2772 9.04498 13.3122C9.01034 13.3472 8.97569 13.3705 8.9295 13.388C8.88331 13.4055 8.83711 13.4172 8.7967 13.4172Z" fill="#067647"/>
<path d="M2.63643 9.31607H1.45276C1.34305 9.31024 1.23912 9.26357 1.15828 9.18774C1.07744 9.1119 1.03702 9.00107 1.03125 8.89024V7.70024C1.03702 7.58941 1.08322 7.48441 1.15828 7.40275C1.23334 7.32691 1.34305 7.28025 1.45276 7.27441H2.63643C2.74614 7.28025 2.85007 7.32691 2.93091 7.40275C3.00597 7.47858 3.05217 7.58941 3.05794 7.70024V8.89024C3.05217 9.00107 3.00597 9.10607 2.93091 9.18774C2.85585 9.2694 2.74614 9.31024 2.63643 9.31607Z" fill="#067647"/>
<path d="M14.0311 24.1617H12.8531C12.7377 24.1559 12.6337 24.1034 12.5529 24.0217C12.4721 23.9401 12.4316 23.8292 12.4316 23.7126V22.5401C12.4374 22.4293 12.4836 22.3243 12.5587 22.2426C12.6337 22.1668 12.7434 22.1201 12.8531 22.1143H14.0311C14.1465 22.1143 14.2562 22.1609 14.3371 22.2368C14.4179 22.3184 14.4699 22.4234 14.4757 22.5401V23.7476C14.4757 23.8642 14.4295 23.9809 14.3428 24.0626C14.262 24.1442 14.1465 24.1967 14.0311 24.1967" fill="#067647"/>
<path d="M8.80905 4.22322H7.37131C7.30202 4.22322 7.23851 4.21155 7.17499 4.18238C7.11148 4.15905 7.05374 4.11822 7.00755 4.07155C6.96135 4.02488 6.92094 3.96655 6.89784 3.90238C6.87474 3.83822 6.85742 3.77405 6.85742 3.70405V2.24573C6.85742 2.17573 6.86897 2.11156 6.89784 2.04739C6.92094 1.98323 6.96135 1.92489 7.00755 1.87823C7.05374 1.83156 7.11148 1.79073 7.17499 1.7674C7.23851 1.74406 7.30202 1.72656 7.37131 1.72656H8.80905C8.87834 1.72656 8.94185 1.73823 9.00537 1.7674C9.06888 1.79656 9.12662 1.83156 9.17281 1.87823C9.21901 1.92489 9.25942 1.98323 9.28252 2.04739C9.30562 2.11156 9.32294 2.17573 9.32294 2.24573V3.70405C9.32294 3.77405 9.31139 3.83822 9.28252 3.90238C9.25942 3.96655 9.21901 4.02488 9.17281 4.07155C9.12085 4.11822 9.06311 4.15322 9.00537 4.18238C8.94185 4.20572 8.87256 4.22322 8.80905 4.22322Z" fill="#067647"/>
<path d="M15.1978 2.48499H13.7658C13.6966 2.48499 13.633 2.47332 13.5695 2.44415C13.506 2.42082 13.4483 2.37999 13.4021 2.33332C13.3559 2.28666 13.3155 2.22832 13.2924 2.16416C13.2693 2.09999 13.252 2.03582 13.252 1.96582V0.519164C13.252 0.449164 13.2635 0.384998 13.2924 0.320832C13.3212 0.256665 13.3559 0.198332 13.4021 0.151666C13.4483 0.104999 13.506 0.0641663 13.5695 0.0408331C13.633 0.0174999 13.6966 0 13.7658 0H15.1978C15.2671 0 15.3306 0.0116666 15.3941 0.0408331C15.4576 0.0641663 15.5154 0.104999 15.5616 0.151666C15.6078 0.198332 15.6482 0.256665 15.6713 0.320832C15.6944 0.384998 15.7117 0.449164 15.7117 0.519164V1.96582C15.7117 2.03582 15.7001 2.09999 15.6713 2.16416C15.6482 2.22832 15.6078 2.28666 15.5616 2.33332C15.5154 2.37999 15.4576 2.42082 15.3941 2.44415C15.3306 2.47332 15.2613 2.48499 15.1978 2.48499Z" fill="#067647"/>
<path d="M18.9858 13.2478H17.8079C17.6924 13.2478 17.5827 13.2011 17.5019 13.1253C17.421 13.0436 17.3691 12.9387 17.3633 12.822V11.6553C17.3691 11.5387 17.421 11.4337 17.5019 11.352C17.5827 11.2703 17.6924 11.2295 17.8079 11.2295H18.9858C19.1013 11.2295 19.211 11.2762 19.2918 11.352C19.3726 11.4337 19.4246 11.5387 19.4304 11.6553V12.8453C19.4246 12.962 19.3784 13.067 19.2918 13.1486C19.211 13.2303 19.1013 13.2711 18.9858 13.2711" fill="#067647"/>
<path d="M7.02154 10.0504H5.86096C5.75125 10.0446 5.64732 9.99789 5.56648 9.91623C5.49142 9.84039 5.44523 9.72956 5.43945 9.61873V8.4229C5.44523 8.31207 5.49142 8.20707 5.56648 8.1254C5.64154 8.04957 5.75125 8.0029 5.86096 7.99707H7.03886C7.14857 8.0029 7.2525 8.04957 7.33334 8.1254C7.41418 8.20124 7.46037 8.31207 7.46037 8.4229V9.61873C7.4546 9.72956 7.4084 9.83456 7.33334 9.91623C7.25828 9.99206 7.15434 10.0387 7.03886 10.0446" fill="#067647"/>
<path d="M20.2654 9.49673H19.0875C19.0298 9.49673 18.9778 9.48507 18.9258 9.46757C18.8739 9.44423 18.8277 9.41507 18.7873 9.37423C18.7469 9.3334 18.718 9.28674 18.6949 9.23424C18.6718 9.18174 18.666 9.12924 18.666 9.0709V7.88091C18.666 7.82258 18.6776 7.77008 18.6949 7.71758C18.718 7.66508 18.7469 7.61841 18.7873 7.57758C18.8277 7.53674 18.8739 7.50758 18.9258 7.48424C18.9778 7.46091 19.0298 7.45508 19.0875 7.45508H20.2654C20.3232 7.45508 20.3751 7.46674 20.4271 7.48424C20.4791 7.50174 20.5253 7.53674 20.5657 7.57758C20.6061 7.61841 20.635 7.66508 20.6581 7.71758C20.6812 7.77008 20.6927 7.82258 20.6869 7.88091V9.0709C20.6869 9.12924 20.6754 9.18174 20.6581 9.23424C20.6407 9.28674 20.6061 9.3334 20.5657 9.37423C20.5253 9.41507 20.4791 9.44423 20.4271 9.46757C20.3751 9.4909 20.3174 9.50257 20.2654 9.49673Z" fill="#067647"/>
<path d="M1.62251 14.3384H0.444602C0.386861 14.3442 0.329121 14.3325 0.277154 14.315C0.225188 14.2975 0.173221 14.2625 0.132803 14.2217C0.0923847 14.1809 0.0577405 14.1342 0.0346443 14.0817C0.0115481 14.0292 0 13.9709 0 13.9125V12.705C0 12.5884 0.0461924 12.4717 0.132803 12.3901C0.21364 12.3084 0.329121 12.2617 0.444602 12.2617H1.62251C1.73799 12.2617 1.85347 12.3084 1.93431 12.3901C2.01514 12.4717 2.06133 12.5884 2.06133 12.705V13.895C2.05556 14.0117 2.00359 14.1167 1.92276 14.1984C1.84192 14.28 1.73221 14.3209 1.61673 14.3209" fill="#067647"/>
<path d="M22.3288 16.3327H20.9026C20.7698 16.3327 20.637 16.2744 20.5447 16.1811C20.4523 16.0819 20.3945 15.9536 20.3945 15.8194V14.3786C20.3945 14.2444 20.4465 14.1102 20.5447 14.0169C20.637 13.9177 20.7698 13.8652 20.9026 13.8652H22.3288C22.4616 13.8652 22.5944 13.9236 22.6868 14.0169C22.7792 14.1161 22.837 14.2444 22.837 14.3786V15.8194C22.837 15.9536 22.7792 16.0877 22.6868 16.1811C22.5944 16.2744 22.4616 16.3327 22.3288 16.3327Z" fill="#067647"/>
<path d="M18.2019 22.0965H16.7757C16.6429 22.0965 16.5101 22.0381 16.4177 21.9448C16.3253 21.8456 16.2676 21.7173 16.2676 21.5831V20.1598C16.2676 20.0256 16.3253 19.8915 16.4177 19.7981C16.5101 19.7048 16.6429 19.6465 16.7757 19.6465H18.2019C18.2712 19.6465 18.3347 19.6582 18.3982 19.6815C18.4617 19.7048 18.5195 19.7457 18.5656 19.7923C18.6118 19.839 18.6523 19.8973 18.6811 19.9615C18.71 20.0256 18.7215 20.0898 18.7215 20.1598V21.6006C18.7215 21.7348 18.6638 21.869 18.5714 21.9623C18.479 22.0615 18.3462 22.114 18.2134 22.114" fill="#067647"/>
<path d="M4.97141 23.1403H3.551C3.48171 23.1403 3.4182 23.1286 3.35468 23.0995C3.29117 23.0761 3.23343 23.0353 3.18723 22.9886C3.14104 22.942 3.10062 22.8836 3.07753 22.8195C3.05443 22.7553 3.03711 22.6911 3.03711 22.6211V21.1862C3.03711 21.1162 3.04866 21.052 3.07753 20.9878C3.10062 20.9237 3.14104 20.8653 3.18723 20.8187C3.23343 20.772 3.29117 20.7312 3.35468 20.7078C3.4182 20.6845 3.48171 20.667 3.551 20.667H4.97141C5.0407 20.667 5.10422 20.6787 5.16773 20.7078C5.23125 20.7312 5.28899 20.772 5.33518 20.8187C5.38137 20.8653 5.42179 20.9237 5.44489 20.9878C5.46798 21.052 5.48531 21.1162 5.48531 21.1862V22.6211C5.48531 22.6911 5.47376 22.7553 5.44489 22.8195C5.42179 22.8836 5.38137 22.942 5.33518 22.9886C5.28899 23.0353 5.23125 23.0761 5.16773 23.0995C5.10422 23.1286 5.0407 23.1403 4.97141 23.1403Z" fill="#067647"/>
<path d="M20.1845 6.34694H17.6958C17.4591 6.34694 17.2339 6.25361 17.0665 6.08445C16.899 5.91528 16.8066 5.68778 16.8066 5.44862V2.93446C16.8066 2.6953 16.899 2.4678 17.0665 2.29863C17.2339 2.12947 17.4591 2.03613 17.6958 2.03613H20.1845C20.4212 2.03613 20.6464 2.12947 20.8138 2.29863C20.9813 2.4678 21.0737 2.6953 21.0737 2.93446V5.44278C21.0737 5.68195 20.9813 5.90945 20.8138 6.07861C20.6464 6.24778 20.4212 6.34111 20.1845 6.34694Z" fill="#067647"/>
<path d="M24.8876 9.40931H22.399C22.1622 9.40931 21.937 9.31598 21.7696 9.14682C21.6022 8.97765 21.5098 8.75015 21.5098 8.51099V5.96766C21.5098 5.7285 21.6022 5.501 21.7696 5.33184C21.937 5.16267 22.1622 5.06934 22.399 5.06934H24.8876C25.1243 5.06934 25.3495 5.16267 25.517 5.33184C25.6844 5.501 25.7768 5.7285 25.7768 5.96766V8.48182C25.7768 8.72098 25.6844 8.94848 25.517 9.11765C25.3495 9.28682 25.1243 9.38015 24.8876 9.38015" fill="#067647"/>
<path d="M10.1845 27.0666H7.69584C7.45911 27.0666 7.23392 26.9733 7.06647 26.8041C6.89903 26.635 6.80664 26.4075 6.80664 26.1683V23.6483C6.80664 23.4092 6.89903 23.1817 7.06647 23.0125C7.23392 22.8433 7.45911 22.75 7.69584 22.75H10.1845C10.4212 22.75 10.6464 22.8433 10.8138 23.0125C10.9813 23.1817 11.0737 23.4092 11.0737 23.6483V26.1625C11.0737 26.4016 10.9813 26.6291 10.8138 26.7983C10.6464 26.9675 10.4154 27.0608 10.1845 27.0666Z" fill="#067647"/>
<path d="M27.1102 15.0676H24.6216C24.3849 15.0676 24.1597 14.9743 23.9923 14.8051C23.8248 14.636 23.7324 14.4085 23.7324 14.1693V11.6493C23.7324 11.4101 23.8248 11.1826 23.9923 11.0135C24.1597 10.8443 24.3849 10.751 24.6216 10.751H27.1102C27.347 10.751 27.5722 10.8443 27.7396 11.0135C27.9071 11.1826 27.9994 11.4101 27.9994 11.6493V14.1576C27.9994 14.3968 27.9071 14.6243 27.7396 14.7935C27.5722 14.9626 27.347 15.056 27.1102 15.056" fill="#067647"/>
<path d="M26.3838 20.802H23.9009C23.6642 20.802 23.439 20.7087 23.2716 20.5395C23.1041 20.3703 23.0117 20.1428 23.0117 19.9037V17.3837C23.0117 17.1445 23.1041 16.917 23.2716 16.7478C23.439 16.5787 23.6642 16.4854 23.9009 16.4854H26.3838C26.6205 16.4854 26.8457 16.5787 27.0131 16.7478C27.1806 16.917 27.273 17.1445 27.273 17.3837V19.8978C27.273 20.137 27.1806 20.3645 27.0131 20.5337C26.8457 20.7028 26.6205 20.7962 26.3838 20.802Z" fill="#067647"/>
<path d="M13.5673 9.02953H11.0787C10.8419 9.02953 10.6167 8.9362 10.4493 8.76704C10.2818 8.59787 10.1895 8.37037 10.1895 8.13121V5.61122C10.1895 5.37205 10.2818 5.14455 10.4493 4.97539C10.6167 4.80622 10.8419 4.71289 11.0787 4.71289H13.5673C13.804 4.71289 14.0292 4.80622 14.1966 4.97539C14.3641 5.14455 14.4565 5.37205 14.4565 5.61122V8.12537C14.4565 8.36454 14.3641 8.59204 14.1966 8.7612C14.0292 8.93037 13.804 9.0237 13.5673 9.02953Z" fill="#067647"/>
<path d="M23.2802 25.509H20.7974C20.5607 25.509 20.3355 25.4157 20.168 25.2465C20.0006 25.0774 19.9082 24.8499 19.9082 24.6107V22.0907C19.9082 21.8515 20.0006 21.624 20.168 21.4549C20.3355 21.2857 20.5607 21.1924 20.7974 21.1924H23.2802C23.517 21.1924 23.7422 21.2857 23.9096 21.4549C24.0771 21.624 24.1695 21.8515 24.1695 22.0907V24.6049C24.1695 24.844 24.0771 25.0715 23.9096 25.2407C23.7422 25.4099 23.517 25.5032 23.2802 25.509Z" fill="#067647"/>
<path d="M18.4481 28.0003H15.9595C15.7228 28.0003 15.4976 27.907 15.3301 27.7378C15.1627 27.5686 15.0703 27.3411 15.0703 27.102V24.5936C15.0703 24.3545 15.1627 24.127 15.3301 23.9578C15.4976 23.7886 15.7228 23.6953 15.9595 23.6953H18.4481C18.6849 23.6953 18.9101 23.7886 19.0775 23.9578C19.2449 24.127 19.3373 24.3545 19.3373 24.5936V27.102C19.3373 27.3411 19.2449 27.5686 19.0775 27.7378C18.9101 27.907 18.6849 28.0003 18.4481 28.0003Z" fill="#067647"/>
<path d="M9.995 20.8479H7.50639C7.26965 20.8479 7.04447 20.7546 6.87702 20.5854C6.70957 20.4162 6.61719 20.1887 6.61719 19.9496V17.4296C6.61719 17.1904 6.70957 16.9629 6.87702 16.7937C7.04447 16.6246 7.26965 16.5312 7.50639 16.5312H9.995C10.2317 16.5312 10.4569 16.6246 10.6244 16.7937C10.7918 16.9629 10.8842 17.1904 10.8842 17.4296V19.9437C10.8842 20.1829 10.7918 20.4104 10.6244 20.5796C10.4569 20.7487 10.2317 20.8421 9.995 20.8479Z" fill="#067647"/>
<path d="M14.9418 17.0745H11.9451C11.6621 17.0745 11.385 16.9578 11.1829 16.7595C10.9808 16.5553 10.8711 16.2812 10.8711 15.9953V12.9737C10.8711 12.6879 10.9866 12.4079 11.1829 12.2095C11.385 12.0054 11.6564 11.8945 11.9451 11.8945H14.9418C15.2247 11.8945 15.5019 12.0112 15.704 12.2095C15.9061 12.4137 16.0158 12.6879 16.0158 12.9737V15.9953C16.0158 16.2812 15.9003 16.5612 15.704 16.7595C15.4961 16.9637 15.2247 17.0745 14.9418 17.0745Z" fill="#067647"/>
</svg>
