<svg width="28" height="28" viewBox="0 0 28 28" fill="none" xmlns="http://www.w3.org/2000/svg">
<path d="M14.1609 21.0635L16.8877 27.6852H11.1152L13.842 21.0635H14.1609Z" fill="#087647"/>
<path d="M14.1917 0H13.809C11.6882 4.04772 12.039 8.17403 13.0117 12.1039C13.4103 13.6954 14.0004 16.0533 14.0004 16.0533C14.0004 16.0533 14.5904 13.7151 14.989 12.1039C15.9617 8.19368 16.3125 4.04772 14.1917 0Z" fill="#087647"/>
<path d="M27.8415 17.6842C27.9212 17.468 27.9212 17.4484 28.0009 17.2126C24.716 12.988 21.3514 13.6954 18.1781 15.6799C16.8706 16.4856 14.957 17.6842 14.957 17.6842H27.8574H27.8415Z" fill="#087647"/>
<path d="M23.7916 28.0004C23.967 27.9021 23.983 27.8825 24.1584 27.7842C24.1584 22.4986 21.6389 20.7891 18.5932 20.1407C17.3494 19.8656 15.5156 19.4727 15.5156 19.4727L23.7916 28.0004Z" fill="#087647"/>
<path d="M24.7023 6.77846C24.6704 6.54267 24.6545 6.52302 24.6226 6.28723C20.4607 5.04934 18.5153 7.64302 17.2715 11.1406C16.7612 12.575 16.0117 14.6774 16.0117 14.6774L24.7023 6.79811V6.77846Z" fill="#087647"/>
<path d="M13.0439 17.6842C13.0439 17.6842 11.1304 16.4856 9.82278 15.6799C6.63356 13.6954 3.26894 12.988 0 17.2126C0.0797303 17.4287 0.0797303 17.4484 0.159461 17.6842H13.0598H13.0439Z" fill="#087647"/>
<path d="M12.4865 19.4727C12.4865 19.4727 10.6527 19.8656 9.40893 20.1407C6.36323 20.7891 3.84375 22.4986 3.84375 27.7842C4.01916 27.8825 4.0351 27.9021 4.21051 28.0004L12.4865 19.4727Z" fill="#087647"/>
<path d="M11.9758 14.6584C11.9758 14.6584 11.2263 12.5559 10.716 11.1215C9.47223 7.64364 7.52681 5.03031 3.36489 6.2682C3.33299 6.50399 3.31705 6.52364 3.28516 6.75943L11.9758 14.6387V14.6584Z" fill="#087647"/>
</svg>
