<svg width="150" height="141" viewBox="0 0 150 141" fill="none" xmlns="http://www.w3.org/2000/svg">
<path d="M14.0625 112.5C13.441 112.499 12.8451 112.252 12.4056 111.813C11.9661 111.373 11.7191 110.777 11.7187 110.156V103.125H2.34374C2.03591 103.125 1.73106 103.064 1.44662 102.947C1.16219 102.829 0.903747 102.656 0.686075 102.439C0.468403 102.221 0.295771 101.962 0.17805 101.678C0.0603276 101.394 -0.000175234 101.089 3.81211e-07 100.781V25.7811C-0.000175234 25.4733 0.0603276 25.1684 0.17805 24.884C0.295771 24.5996 0.468403 24.3411 0.686075 24.1235C0.903747 23.9058 1.16219 23.7331 1.44662 23.6154C1.73106 23.4977 2.03591 23.4372 2.34374 23.4374H110.156C110.464 23.4372 110.769 23.4977 111.053 23.6154C111.337 23.7331 111.596 23.9058 111.814 24.1235C112.031 24.3411 112.204 24.5996 112.322 24.884C112.439 25.1684 112.5 25.4733 112.5 25.7811V63.3153C112.5 63.9369 112.253 64.5331 111.813 64.9726C111.374 65.4122 110.778 65.6591 110.156 65.6591C109.534 65.6591 108.938 65.4122 108.499 64.9726C108.059 64.5331 107.812 63.9369 107.812 63.3153V28.1249H4.68749V98.4372H14.0625C14.3703 98.437 14.6751 98.4975 14.9596 98.6152C15.244 98.7329 15.5025 98.9056 15.7201 99.1232C15.9378 99.3409 16.1104 99.5993 16.2282 99.8838C16.3459 100.168 16.4064 100.473 16.4062 100.781V106.363L31.7618 98.6843C32.0873 98.5218 32.4462 98.4371 32.8101 98.4372H72.6927C73.3143 98.4372 73.9104 98.6841 74.3499 99.1236C74.7895 99.5632 75.0364 100.159 75.0364 100.781C75.0364 101.402 74.7895 101.999 74.3499 102.438C73.9104 102.878 73.3143 103.125 72.6927 103.125H33.364L15.1107 112.252C14.7852 112.415 14.4263 112.499 14.0625 112.5Z" fill="#104531"/>
<path d="M138.281 53.9061C137.917 53.9059 137.558 53.8213 137.233 53.6589L123.667 46.8749H110.156C109.534 46.8749 108.938 46.6279 108.499 46.1884C108.059 45.7489 107.812 45.1527 107.812 44.5311C107.812 43.9095 108.059 43.3134 108.499 42.8738C108.938 42.4343 109.534 42.1874 110.156 42.1874H124.221C124.585 42.1873 124.944 42.272 125.269 42.4346L135.937 47.7698V44.5311C135.937 44.2233 135.998 43.9184 136.115 43.634C136.233 43.3496 136.406 43.0911 136.623 42.8735C136.841 42.6558 137.099 42.4831 137.384 42.3654C137.668 42.2477 137.973 42.1872 138.281 42.1874H145.312V4.68749H42.1875V25.7812C42.1875 26.4028 41.9406 26.9989 41.501 27.4384C41.0615 27.878 40.4653 28.1249 39.8437 28.1249C39.2221 28.1249 38.626 27.878 38.1865 27.4384C37.7469 26.9989 37.5 26.4028 37.5 25.7812V2.34374C37.4998 2.03591 37.5603 1.73106 37.678 1.44662C37.7958 1.16219 37.9684 0.903747 38.1861 0.686075C38.4037 0.468403 38.6622 0.295771 38.9466 0.178049C39.2311 0.0603275 39.5359 -0.000175234 39.8437 3.81212e-07H147.656C147.964 -0.000175234 148.269 0.0603275 148.553 0.178049C148.837 0.295771 149.096 0.468403 149.314 0.686075C149.531 0.903747 149.704 1.16219 149.822 1.44662C149.939 1.73106 150 2.03591 150 2.34374V44.5311C150 44.839 149.939 45.1438 149.822 45.4282C149.704 45.7127 149.531 45.9711 149.314 46.1888C149.096 46.4065 148.837 46.5791 148.553 46.6968C148.269 46.8145 147.964 46.875 147.656 46.8749H140.625V51.5623C140.624 52.1838 140.377 52.7798 139.938 53.2192C139.498 53.6587 138.902 53.9057 138.281 53.9061Z" fill="#1C8354"/>
<path d="M63.3172 42.1875H16.4424C15.8208 42.1875 15.2246 41.9406 14.7851 41.501C14.3456 41.0615 14.0986 40.4653 14.0986 39.8437C14.0986 39.2221 14.3456 38.626 14.7851 38.1865C15.2246 37.7469 15.8208 37.5 16.4424 37.5H63.3172C63.9388 37.5 64.535 37.7469 64.9745 38.1865C65.4141 38.626 65.661 39.2221 65.661 39.8437C65.661 40.4653 65.4141 41.0615 64.9745 41.501C64.535 41.9406 63.9388 42.1875 63.3172 42.1875Z" fill="#104531"/>
<path d="M35.1923 51.5625H16.4424C15.8208 51.5625 15.2246 51.3156 14.7851 50.876C14.3456 50.4365 14.0986 49.8403 14.0986 49.2187C14.0986 48.5971 14.3456 48.001 14.7851 47.5615C15.2246 47.1219 15.8208 46.875 16.4424 46.875H35.1923C35.8139 46.875 36.4101 47.1219 36.8496 47.5615C37.2891 48.001 37.5361 48.5971 37.5361 49.2187C37.5361 49.8403 37.2891 50.4365 36.8496 50.876C36.4101 51.3156 35.8139 51.5625 35.1923 51.5625Z" fill="#104531"/>
<path d="M96.0931 51.5625H44.5674C43.9458 51.5625 43.3496 51.3156 42.9101 50.876C42.4706 50.4365 42.2236 49.8403 42.2236 49.2187C42.2236 48.5971 42.4706 48.001 42.9101 47.5615C43.3496 47.1219 43.9458 46.875 44.5674 46.875H96.0931C96.7147 46.875 97.3108 47.1219 97.7504 47.5615C98.1899 48.001 98.4368 48.5971 98.4368 49.2187C98.4368 49.8403 98.1899 50.4365 97.7504 50.876C97.3108 51.3156 96.7147 51.5625 96.0931 51.5625Z" fill="#104531"/>
<path d="M42.2236 70.3124H16.4424C15.8208 70.3124 15.2246 70.0654 14.7851 69.6259C14.3456 69.1864 14.0986 68.5902 14.0986 67.9686C14.0986 67.347 14.3456 66.7509 14.7851 66.3113C15.2246 65.8718 15.8208 65.6249 16.4424 65.6249H42.2236C42.8452 65.6249 43.4413 65.8718 43.8808 66.3113C44.3204 66.7509 44.5673 67.347 44.5673 67.9686C44.5673 68.5902 44.3204 69.1864 43.8808 69.6259C43.4413 70.0654 42.8452 70.3124 42.2236 70.3124Z" fill="#104531"/>
<path d="M92.0785 70.3124H51.5986C50.977 70.3124 50.3809 70.0654 49.9413 69.6259C49.5018 69.1864 49.2549 68.5902 49.2549 67.9686C49.2549 67.347 49.5018 66.7509 49.9413 66.3113C50.3809 65.8718 50.977 65.6249 51.5986 65.6249H92.0785C92.7001 65.6249 93.2963 65.8718 93.7358 66.3113C94.1754 66.7509 94.4223 67.347 94.4223 67.9686C94.4223 68.5902 94.1754 69.1864 93.7358 69.6259C93.2963 70.0654 92.7001 70.3124 92.0785 70.3124Z" fill="#104531"/>
<path d="M70.3393 60.9374H16.4424C15.8208 60.9374 15.2246 60.6904 14.7851 60.2509C14.3456 59.8114 14.0986 59.2152 14.0986 58.5936C14.0986 57.972 14.3456 57.3759 14.7851 56.9363C15.2246 56.4968 15.8208 56.2499 16.4424 56.2499H70.3393C70.9609 56.2499 71.557 56.4968 71.9966 56.9363C72.4361 57.3759 72.683 57.972 72.683 58.5936C72.683 59.2152 72.4361 59.8114 71.9966 60.2509C71.557 60.6904 70.9609 60.9374 70.3393 60.9374Z" fill="#104531"/>
<path d="M96.0936 60.9374H79.7148C79.0932 60.9374 78.4971 60.6904 78.0576 60.2509C77.618 59.8114 77.3711 59.2152 77.3711 58.5936C77.3711 57.972 77.618 57.3759 78.0576 56.9363C78.4971 56.4968 79.0932 56.2499 79.7148 56.2499H96.0936C96.7152 56.2499 97.3113 56.4968 97.7509 56.9363C98.1904 57.3759 98.4373 57.972 98.4373 58.5936C98.4373 59.2152 98.1904 59.8114 97.7509 60.2509C97.3113 60.6904 96.7152 60.9374 96.0936 60.9374Z" fill="#104531"/>
<path d="M96.0934 42.1875H72.6926C72.071 42.1875 71.4749 41.9406 71.0353 41.501C70.5958 41.0615 70.3489 40.4653 70.3489 39.8437C70.3489 39.2221 70.5958 38.626 71.0353 38.1865C71.4749 37.7469 72.071 37.5 72.6926 37.5H96.0934C96.715 37.5 97.3112 37.7469 97.7507 38.1865C98.1902 38.626 98.4372 39.2221 98.4372 39.8437C98.4372 40.4653 98.1902 41.0615 97.7507 41.501C97.3112 41.9406 96.715 42.1875 96.0934 42.1875Z" fill="#104531"/>
<path d="M63.3172 79.6872H16.4424C15.8208 79.6872 15.2246 79.4403 14.7851 79.0008C14.3456 78.5612 14.0986 77.9651 14.0986 77.3435C14.0986 76.7219 14.3456 76.1258 14.7851 75.6862C15.2246 75.2467 15.8208 74.9998 16.4424 74.9998H63.3172C63.9388 74.9998 64.535 75.2467 64.9745 75.6862C65.4141 76.1258 65.661 76.7219 65.661 77.3435C65.661 77.9651 65.4141 78.5612 64.9745 79.0008C64.535 79.4403 63.9388 79.6872 63.3172 79.6872Z" fill="#104531"/>
<path d="M35.1923 89.0621H16.4424C15.8208 89.0621 15.2246 88.8152 14.7851 88.3757C14.3456 87.9361 14.0986 87.34 14.0986 86.7184C14.0986 86.0968 14.3456 85.5006 14.7851 85.0611C15.2246 84.6216 15.8208 84.3746 16.4424 84.3746H35.1923C35.8139 84.3746 36.4101 84.6216 36.8496 85.0611C37.2891 85.5006 37.5361 86.0968 37.5361 86.7184C37.5361 87.34 37.2891 87.9361 36.8496 88.3757C36.4101 88.8152 35.8139 89.0621 35.1923 89.0621Z" fill="#104531"/>
<path d="M75.4298 89.0621H44.5674C43.9458 89.0621 43.3496 88.8152 42.9101 88.3757C42.4706 87.9361 42.2236 87.34 42.2236 86.7184C42.2236 86.0968 42.4706 85.5006 42.9101 85.0611C43.3496 84.6216 43.9458 84.3746 44.5674 84.3746H75.4298C76.0514 84.3746 76.6475 84.6216 77.0871 85.0611C77.5266 85.5006 77.7735 86.0968 77.7735 86.7184C77.7735 87.34 77.5266 87.9361 77.0871 88.3757C76.6475 88.8152 76.0514 89.0621 75.4298 89.0621Z" fill="#104531"/>
<path d="M80.9392 79.6872H72.6926C72.071 79.6872 71.4749 79.4403 71.0353 79.0008C70.5958 78.5612 70.3489 77.9651 70.3489 77.3435C70.3489 76.7219 70.5958 76.1258 71.0353 75.6862C71.4749 75.2467 72.071 74.9998 72.6926 74.9998H80.9392C81.5608 74.9998 82.1569 75.2467 82.5965 75.6862C83.036 76.1258 83.2829 76.7219 83.2829 77.3435C83.2829 77.9651 83.036 78.5612 82.5965 79.0008C82.1569 79.4403 81.5608 79.6872 80.9392 79.6872Z" fill="#104531"/>
<path d="M110.174 140.625C102.298 140.625 94.5977 138.289 88.0485 133.913C81.4992 129.537 76.3947 123.317 73.3804 116.04C70.3661 108.763 69.5775 100.755 71.1141 93.0298C72.6508 85.3045 76.4438 78.2083 82.0135 72.6386C87.5831 67.0689 94.6793 63.2759 102.405 61.7392C110.13 60.2026 118.138 60.9913 125.415 64.0055C132.692 67.0198 138.912 72.1243 143.288 78.6736C147.664 85.2228 150 92.9226 150 100.799C149.987 111.358 145.787 121.481 138.321 128.947C130.855 136.413 120.733 140.612 110.174 140.625ZM110.174 65.6615C103.225 65.6615 96.4311 67.7223 90.6527 71.5833C84.8743 75.4443 80.3706 80.9321 77.7111 87.3527C75.0516 93.7733 74.3557 100.838 75.7115 107.654C77.0674 114.471 80.4139 120.731 85.328 125.646C90.2421 130.56 96.5031 133.906 103.319 135.262C110.135 136.618 117.2 135.922 123.621 133.262C130.042 130.603 135.529 126.099 139.39 120.321C143.251 114.542 145.312 107.749 145.312 100.799C145.301 91.4835 141.596 82.5522 135.009 75.9649C128.421 69.3776 119.49 65.6721 110.174 65.6615Z" fill="#1C8354"/>
<path d="M110.177 124.237C105.541 124.237 101.01 122.862 97.1556 120.287C93.3013 117.712 90.2973 114.051 88.5233 109.769C86.7494 105.486 86.2853 100.774 87.1896 96.2271C88.094 91.6807 90.3261 87.5045 93.6039 84.2267C96.8817 80.9489 101.058 78.7168 105.604 77.8124C110.151 76.9081 114.863 77.3722 119.146 79.1461C123.428 80.9201 127.089 83.9241 129.664 87.7784C132.24 91.6326 133.614 96.164 133.614 100.799C133.607 107.013 131.135 112.97 126.741 117.364C122.348 121.758 116.39 124.23 110.177 124.237ZM110.177 82.0496C106.468 82.0496 102.843 83.1492 99.7598 85.2095C96.6764 87.2698 94.2731 90.1981 92.854 93.6242C91.4349 97.0503 91.0636 100.82 91.787 104.457C92.5105 108.095 94.2963 111.435 96.9185 114.058C99.5407 116.68 102.882 118.466 106.519 119.189C110.156 119.913 113.926 119.541 117.352 118.122C120.778 116.703 123.706 114.3 125.767 111.216C127.827 108.133 128.927 104.508 128.927 100.799C128.921 95.8284 126.944 91.0626 123.429 87.5476C119.914 84.0325 115.148 82.0552 110.177 82.0496Z" fill="#1C8354"/>
<path d="M110.175 89.0623C109.867 89.0625 109.562 89.002 109.277 88.8843C108.993 88.7666 108.735 88.5939 108.517 88.3763C108.299 88.1586 108.127 87.9001 108.009 87.6157C107.891 87.3313 107.831 87.0264 107.831 86.7186V72.6561C107.831 72.0345 108.078 71.4384 108.517 70.9988C108.957 70.5593 109.553 70.3124 110.175 70.3124C110.796 70.3124 111.392 70.5593 111.832 70.9988C112.271 71.4384 112.518 72.0345 112.518 72.6561V86.7186C112.518 87.0264 112.458 87.3313 112.34 87.6157C112.223 87.9001 112.05 88.1586 111.832 88.3763C111.615 88.5939 111.356 88.7666 111.072 88.8843C110.787 89.002 110.482 89.0625 110.175 89.0623Z" fill="#1C8354"/>
<path d="M110.175 131.25C109.867 131.25 109.562 131.189 109.277 131.072C108.993 130.954 108.735 130.781 108.517 130.564C108.299 130.346 108.127 130.088 108.009 129.803C107.891 129.519 107.831 129.214 107.831 128.906V114.843C107.831 114.222 108.078 113.626 108.517 113.186C108.957 112.747 109.553 112.5 110.175 112.5C110.796 112.5 111.392 112.747 111.832 113.186C112.271 113.626 112.518 114.222 112.518 114.843V128.906C112.518 129.214 112.458 129.519 112.34 129.803C112.223 130.088 112.05 130.346 111.832 130.564C111.615 130.781 111.356 130.954 111.072 131.072C110.787 131.189 110.482 131.25 110.175 131.25Z" fill="#1C8354"/>
<path d="M138.302 103.125H124.239C123.618 103.125 123.022 102.878 122.582 102.438C122.143 101.999 121.896 101.403 121.896 100.781C121.896 100.16 122.143 99.5634 122.582 99.1238C123.022 98.6843 123.618 98.4374 124.239 98.4374H138.302C138.924 98.4374 139.52 98.6843 139.959 99.1238C140.399 99.5634 140.646 100.16 140.646 100.781C140.646 101.403 140.399 101.999 139.959 102.438C139.52 102.878 138.924 103.125 138.302 103.125Z" fill="#1C8354"/>
<path d="M96.112 103.125H82.0496C81.428 103.125 80.8318 102.878 80.3923 102.438C79.9527 101.999 79.7058 101.403 79.7058 100.781C79.7058 100.16 79.9527 99.5634 80.3923 99.1238C80.8318 98.6843 81.428 98.4374 82.0496 98.4374H96.112C96.7336 98.4374 97.3298 98.6843 97.7693 99.1238C98.2088 99.5634 98.4558 100.16 98.4558 100.781C98.4558 101.403 98.2088 101.999 97.7693 102.438C97.3298 102.878 96.7336 103.125 96.112 103.125Z" fill="#1C8354"/>
</svg>
