<svg width="29" height="28" viewBox="0 0 29 28" fill="none" xmlns="http://www.w3.org/2000/svg">
<path d="M14.334 16.0371C13.851 16.0371 13.459 15.6452 13.459 15.1621V14.7188C13.459 13.7085 14.061 12.942 14.593 12.2653L14.6059 12.2488C14.7784 12.0286 14.9413 11.8207 15.0643 11.626C15.1565 11.479 15.209 11.2994 15.209 11.1255C15.209 10.6169 14.817 10.2038 14.334 10.2038C13.851 10.2038 13.459 10.6169 13.459 11.1255C13.459 11.6342 13.067 12.0005 12.584 12.0005C12.101 12.0005 11.709 11.6085 11.709 11.1255C11.709 9.65203 12.8862 8.45382 14.334 8.45382C15.7818 8.45382 16.959 9.65203 16.959 11.1255C16.959 11.6307 16.8166 12.1253 16.546 12.5581C16.3686 12.8369 16.1656 13.0959 15.9696 13.3456L15.9658 13.3505C15.5936 13.825 15.209 14.3154 15.209 14.7188V15.1621C15.209 15.6452 14.817 16.0371 14.334 16.0371Z" fill="#1B8354"/>
<path d="M13.4647 17.4955C13.4647 17.9785 13.8625 18.3705 14.3455 18.3705C14.8285 18.3705 15.2205 17.9785 15.2205 17.4955C15.2205 17.0125 14.8285 16.6205 14.3455 16.6205H14.3339C13.8509 16.6205 13.4647 17.0125 13.4647 17.4955Z" fill="#1B8354"/>
<path fill-rule="evenodd" clip-rule="evenodd" d="M5.16977 25.956C5.10677 25.956 5.04378 25.956 4.97961 25.9537L4.88858 25.9514C4.09175 25.9269 3.40227 25.9046 2.98694 25.2396L2.96586 25.2035C2.57273 24.5013 2.9157 23.8549 3.39046 22.9602L3.41156 22.9203C3.80006 22.1912 4.18156 21.182 3.8199 20.4808C2.61706 18.6888 1.95204 16.9155 1.84237 15.2087C1.78171 14.1949 1.78171 13.1705 1.84237 12.1602C2.18421 6.79238 6.44136 2.47801 11.745 2.12335C13.4344 2.01601 15.224 2.01601 16.9215 2.12335C22.2287 2.47918 26.4871 6.79232 26.8277 12.1578C26.8884 13.1717 26.8884 14.196 26.8277 15.2063C26.4859 20.5741 22.2287 24.8873 16.9251 25.2432C15.2241 25.3622 13.4309 25.3622 11.7404 25.2432C11.0649 25.2012 10.3486 25.0378 9.72911 24.7823L9.58555 24.7228L9.51318 24.6931C9.37514 24.6364 9.23974 24.5808 9.13643 24.542C9.05782 24.5954 8.95817 24.6657 8.85636 24.7376L8.79452 24.7812L8.72229 24.8324C7.70496 25.5896 6.53937 25.9583 5.16737 25.9583L5.16977 25.956ZM4.71939 24.1943C4.76819 24.1966 4.81853 24.198 4.86836 24.1993L4.94338 24.2014L5.02861 24.2037C6.10077 24.2282 6.92552 23.9878 7.68619 23.4208C7.68911 23.4191 7.69175 23.417 7.69439 23.415C7.69704 23.413 7.69968 23.411 7.7026 23.4092L7.78189 23.3531L7.78446 23.3513C8.29142 22.9909 8.54668 22.8094 8.89376 22.7558C9.27409 22.6986 9.60192 22.8328 10.2552 23.1023L10.3975 23.1606C10.8374 23.3426 11.3682 23.4628 11.8559 23.4932C13.474 23.6063 15.1832 23.6075 16.8049 23.4932H16.8073C21.2383 23.1968 24.7943 19.5848 25.0813 15.0943C25.1373 14.1703 25.1373 13.1892 25.0813 12.2629C24.7954 7.7747 21.2382 4.16378 16.8084 3.86628C15.1856 3.76478 13.4729 3.76478 11.8583 3.86628C7.43078 4.16262 3.87354 7.77348 3.5877 12.2651C3.5317 13.1891 3.5317 14.1704 3.5877 15.0967C3.67754 16.4979 4.25269 17.9923 5.29452 19.5358C5.30852 19.5568 5.32259 19.5789 5.33542 19.6023C5.95259 20.7176 5.8254 22.1095 4.9574 23.7394L4.93643 23.7778C4.86293 23.9154 4.78589 24.0625 4.71939 24.1943Z" fill="#1B8354"/>
</svg>
