<svg width="22" height="22" viewBox="0 0 22 22" fill="none" xmlns="http://www.w3.org/2000/svg">
<path d="M13.9939 10.9912C13.9939 11.5432 14.4469 11.9912 14.9989 11.9912C15.5509 11.9912 15.9989 11.5432 15.9989 10.9912C15.9989 10.4392 15.5509 9.99121 14.9989 9.99121H14.989C14.437 9.99121 13.9939 10.4392 13.9939 10.9912Z" fill="#1B8354"/>
<path d="M9.9999 10.9912C9.9999 11.5432 10.4479 11.9912 10.9999 11.9912C11.5519 11.9912 11.9999 11.5432 11.9999 10.9912C11.9999 10.4392 11.5519 9.99121 10.9999 9.99121C10.4469 9.99121 9.9999 10.4392 9.9999 10.9912Z" fill="#1B8354"/>
<path d="M6.00391 10.9912C6.00391 11.5432 6.45689 11.9912 7.00889 11.9912C7.56089 11.9912 8.00889 11.5432 8.00889 10.9912C8.00889 10.4392 7.56089 9.99121 7.00889 9.99121H6.99893C6.44693 9.99121 6.00391 10.4392 6.00391 10.9912Z" fill="#1B8354"/>
<path fill-rule="evenodd" clip-rule="evenodd" d="M2.98099 21.2411C3.03599 21.2431 3.08998 21.2431 3.14398 21.2431L3.14193 21.2451C4.31793 21.2451 5.317 20.929 6.189 20.28L6.25091 20.2361C6.26854 20.2237 6.28622 20.2112 6.30382 20.1988C6.39112 20.1372 6.47657 20.0769 6.54398 20.0311C6.63252 20.0643 6.74859 20.112 6.86691 20.1606C6.88756 20.1691 6.90828 20.1776 6.92894 20.1861L7.05199 20.2371C7.58299 20.4561 8.19691 20.5961 8.77591 20.6321C10.2249 20.7341 11.762 20.7341 13.22 20.6321C17.766 20.3271 21.4149 16.6301 21.7079 12.0291C21.7599 11.1631 21.7599 10.2851 21.7079 9.41607C21.4159 4.81707 17.7659 1.12009 13.2169 0.815094C11.7619 0.723094 10.2279 0.723094 8.77992 0.815094C4.23392 1.11909 0.58493 4.81712 0.29193 9.41812C0.23993 10.2841 0.23993 11.1621 0.29193 12.0311C0.38593 13.4941 0.955949 15.0141 1.98695 16.5501C2.29695 17.1511 1.96995 18.0161 1.63695 18.6411L1.61898 18.6751C1.21204 19.4419 0.91795 19.9962 1.25492 20.5981C1.25792 20.6031 1.26093 20.6083 1.26395 20.6136C1.26697 20.6188 1.26998 20.6241 1.27298 20.6291C1.62898 21.1991 2.21996 21.2181 2.90296 21.2391L2.98099 21.2411ZM2.88563 19.7373C2.84292 19.7362 2.79977 19.7351 2.75795 19.7331C2.81494 19.6201 2.88098 19.494 2.94398 19.376L2.96195 19.3431C3.70595 17.9461 3.81497 16.753 3.28597 15.797C3.27497 15.777 3.26291 15.7581 3.25091 15.7401C2.35791 14.4171 1.86493 13.1361 1.78793 11.9351C1.73993 11.1411 1.73993 10.3001 1.78793 9.50806C2.03293 5.65806 5.08199 2.56304 8.87699 2.30904C10.261 2.22204 11.729 2.22204 13.12 2.30904C16.917 2.56404 19.966 5.65911 20.211 9.50611C20.259 10.3001 20.259 11.1411 20.211 11.9331C19.965 15.7821 16.917 18.8781 13.119 19.1321H13.1169C11.7269 19.2301 10.2619 19.2301 8.87494 19.1321C8.45694 19.1061 8.00194 19.003 7.62494 18.847L7.50296 18.797C6.94333 18.5662 6.66186 18.4501 6.33597 18.5001C6.03848 18.546 5.81969 18.7015 5.38517 19.0105L5.38295 19.0121L5.31498 19.0601C5.31248 19.0616 5.31021 19.0634 5.30795 19.0651C5.30568 19.0668 5.30341 19.0686 5.30091 19.0701C4.64891 19.5561 3.94198 19.7611 3.02298 19.7411L2.94994 19.7391C2.92876 19.7384 2.90725 19.7379 2.88563 19.7373Z" fill="#1B8354"/>
</svg>
