<svg width="24" height="24" viewBox="0 0 24 24" fill="none" xmlns="http://www.w3.org/2000/svg">
<path d="M11.9997 1.71436C10.9767 1.71436 9.99566 2.12073 9.27231 2.84409C8.54895 3.56744 8.14258 4.54852 8.14258 5.5715V12.4286C8.14258 12.9352 8.24235 13.4367 8.43619 13.9047C8.63002 14.3727 8.91414 14.7979 9.27231 15.1561C9.63048 15.5142 10.0557 15.7983 10.5237 15.9922C10.9916 16.186 11.4932 16.2858 11.9997 16.2858C12.5062 16.2858 13.0078 16.186 13.4758 15.9922C13.9438 15.7983 14.369 15.5142 14.7271 15.1561C15.0853 14.7979 15.3694 14.3727 15.5633 13.9047C15.7571 13.4367 15.8569 12.9352 15.8569 12.4286V5.5715C15.8569 4.54852 15.4505 3.56744 14.7271 2.84409C14.0038 2.12073 13.0227 1.71436 11.9997 1.71436ZM9.42829 5.5715C9.42829 5.23381 9.4948 4.89944 9.62403 4.58746C9.75326 4.27548 9.94267 3.992 10.1814 3.75322C10.4202 3.51444 10.7037 3.32503 11.0157 3.19581C11.3277 3.06658 11.662 3.00007 11.9997 3.00007C12.3374 3.00007 12.6718 3.06658 12.9838 3.19581C13.2957 3.32503 13.5792 3.51444 13.818 3.75322C14.0568 3.992 14.2462 4.27548 14.3754 4.58746C14.5046 4.89944 14.5711 5.23381 14.5711 5.5715V12.4286C14.5711 12.7663 14.5046 13.1007 14.3754 13.4127C14.2462 13.7247 14.0568 14.0081 13.818 14.2469C13.5792 14.4857 13.2957 14.6751 12.9838 14.8043C12.6718 14.9336 12.3374 15.0001 11.9997 15.0001C11.662 15.0001 11.3277 14.9336 11.0157 14.8043C10.7037 14.6751 10.4202 14.4857 10.1814 14.2469C9.94267 14.0081 9.75326 13.7247 9.62403 13.4127C9.4948 13.1007 9.42829 12.7663 9.42829 12.4286V5.5715ZM6.42829 11.7858C6.42829 11.6153 6.36056 11.4518 6.24 11.3312C6.11944 11.2107 5.95593 11.1429 5.78544 11.1429C5.61494 11.1429 5.45143 11.2107 5.33087 11.3312C5.21031 11.4518 5.14258 11.6153 5.14258 11.7858V12.4286C5.14253 14.136 5.77944 15.782 6.92873 17.0446C8.07802 18.3073 9.65701 19.0957 11.3569 19.2558V21.6429C11.3569 21.8134 11.4246 21.9769 11.5452 22.0975C11.6657 22.2181 11.8292 22.2858 11.9997 22.2858C12.1702 22.2858 12.3337 22.2181 12.4543 22.0975C12.5748 21.9769 12.6426 21.8134 12.6426 21.6429V19.2558C14.3424 19.0957 15.9214 18.3073 17.0707 17.0446C18.22 15.782 18.8569 14.136 18.8569 12.4286V11.7858C18.8569 11.6153 18.7891 11.4518 18.6686 11.3312C18.548 11.2107 18.3845 11.1429 18.214 11.1429C18.0435 11.1429 17.88 11.2107 17.7594 11.3312C17.6389 11.4518 17.5711 11.6153 17.5711 11.7858V12.4286C17.5711 13.9063 16.9842 15.3234 15.9393 16.3682C14.8945 17.4131 13.4774 18.0001 11.9997 18.0001C10.5221 18.0001 9.10497 17.4131 8.06013 16.3682C7.01528 15.3234 6.42829 13.9063 6.42829 12.4286V11.7858Z" fill="black"/>
</svg>
