<svg width="28" height="28" viewBox="0 0 28 28" fill="none" xmlns="http://www.w3.org/2000/svg">
<path fill-rule="evenodd" clip-rule="evenodd" d="M14.0002 17.9584C16.6465 17.9584 18.7918 15.8131 18.7918 13.1667V9.83342C18.7918 7.18705 16.6465 5.04175 14.0002 5.04175C11.3538 5.04175 9.2085 7.18705 9.2085 9.83342V13.1667C9.2085 15.8131 11.3538 17.9584 14.0002 17.9584ZM14.0002 6.29175C12.0442 6.29175 10.4585 7.87741 10.4585 9.83342V13.1667C10.4585 15.1228 12.0442 16.7084 14.0002 16.7084C15.7429 16.7084 17.1917 15.4497 17.4869 13.7917H15.6668C15.3217 13.7917 15.0418 13.5119 15.0418 13.1667C15.0418 12.8216 15.3217 12.5417 15.6668 12.5417H17.5418V10.4584H15.6668C15.3217 10.4584 15.0418 10.1786 15.0418 9.83342C15.0418 9.48824 15.3217 9.20842 15.6668 9.20842H17.4869C17.1917 7.55049 15.7429 6.29175 14.0002 6.29175Z" fill="#161616"/>
<path d="M7.9585 13.1667C7.9585 12.8216 7.67867 12.5417 7.3335 12.5417C6.98832 12.5417 6.7085 12.8216 6.7085 13.1667C6.7085 16.9833 9.64066 20.115 13.3752 20.432V21.7084H11.5002C11.155 21.7084 10.8752 21.9882 10.8752 22.3334C10.8752 22.6786 11.155 22.9584 11.5002 22.9584H16.5002C16.8453 22.9584 17.1252 22.6786 17.1252 22.3334C17.1252 21.9882 16.8453 21.7084 16.5002 21.7084H14.6252V20.432C18.3597 20.115 21.2918 16.9833 21.2918 13.1667C21.2918 12.8216 21.012 12.5417 20.6668 12.5417C20.3217 12.5417 20.0418 12.8216 20.0418 13.1667C20.0418 16.5035 17.3369 19.2084 14.0002 19.2084C10.6634 19.2084 7.9585 16.5035 7.9585 13.1667Z" fill="#161616"/>
</svg>
