<svg width="28" height="28" viewBox="0 0 28 28" fill="none" xmlns="http://www.w3.org/2000/svg">
<path d="M21.584 19.5228H18.6673C18.1843 19.5228 17.7923 19.1308 17.7923 18.6478C17.7923 18.1648 18.1843 17.7728 18.6673 17.7728H21.584C22.067 17.7728 22.459 18.1648 22.459 18.6478C22.459 19.1308 22.067 19.5228 21.584 19.5228Z" fill="#009951"/>
<path d="M15.1673 19.5228H12.2507C11.7677 19.5228 11.3757 19.1308 11.3757 18.6478C11.3757 18.1648 11.7677 17.7728 12.2507 17.7728H15.1673C15.6503 17.7728 16.0423 18.1648 16.0423 18.6478C16.0423 19.1308 15.6503 19.5228 15.1673 19.5228Z" fill="#009951"/>
<path d="M21.584 14.8561H18.6673C18.1843 14.8561 17.7923 14.4641 17.7923 13.9811C17.7923 13.4981 18.1843 13.1061 18.6673 13.1061H21.584C22.067 13.1061 22.459 13.4981 22.459 13.9811C22.459 14.4641 22.067 14.8561 21.584 14.8561Z" fill="#009951"/>
<path d="M15.1673 14.8561H12.2507C11.7677 14.8561 11.3757 14.4641 11.3757 13.9811C11.3757 13.4981 11.7677 13.1061 12.2507 13.1061H15.1673C15.6503 13.1061 16.0423 13.4981 16.0423 13.9811C16.0423 14.4641 15.6503 14.8561 15.1673 14.8561Z" fill="#009951"/>
<path d="M21.584 10.1895H12.2507C11.7677 10.1895 11.3757 9.79745 11.3757 9.31445C11.3757 8.83145 11.7677 8.43945 12.2507 8.43945H21.584C22.067 8.43945 22.459 8.83145 22.459 9.31445C22.459 9.79745 22.067 10.1895 21.584 10.1895Z" fill="#009951"/>
<path fill-rule="evenodd" clip-rule="evenodd" d="M5.25065 24.7728H18.6673C22.0903 24.7728 23.9757 24.7728 25.259 23.4895C26.5423 22.2073 26.5423 20.3208 26.5423 16.8978V11.0645C26.5423 7.64145 26.5423 5.75495 25.259 4.47279C23.9768 3.18945 22.0903 3.18945 18.6673 3.18945H12.834C11.6813 3.18945 11.1027 3.18951 10.5404 3.33301L10.5375 3.33407C10.5346 3.33518 10.5313 3.33643 10.5287 3.33643C9.03068 3.74359 7.84771 4.92667 7.44054 6.42467L7.43893 6.42948C7.43795 6.43205 7.43701 6.4345 7.43701 6.43743C7.33448 6.83518 7.3046 7.2423 7.2959 7.85612H7.00065C4.64048 7.85612 3.33739 7.85619 2.40405 8.80119C1.45905 9.73452 1.45898 11.0365 1.45898 13.3978V20.9811C1.45898 23.0718 3.15998 24.7728 5.25065 24.7728ZM5.25065 23.0228C6.37648 23.0228 7.29232 22.107 7.29232 20.9811V9.60612H7.00065C4.96598 9.60612 4.04898 9.62364 3.64648 10.0331L3.636 10.0436C3.2265 10.4461 3.20898 11.3631 3.20898 13.3978V20.9811C3.20898 22.107 4.12482 23.0228 5.25065 23.0228ZM9.03976 21.1214C9.01429 21.8197 8.79946 22.4704 8.44509 23.0228H18.6673C21.719 23.0228 23.2512 23.0228 24.0224 22.2528C24.7923 21.4829 24.7923 19.9511 24.7923 16.8983V11.0645C24.7923 8.01282 24.7923 6.48064 24.0224 5.70952C23.2524 4.93952 21.7193 4.93945 18.6673 4.93945H12.834C11.833 4.93945 11.3279 4.93945 10.9802 5.02695C10.0842 5.27312 9.37599 5.98133 9.12982 6.87733C9.04232 7.22499 9.04232 7.73012 9.04232 8.73112V20.9811C9.04232 21.0281 9.04146 21.0748 9.03976 21.1214Z" fill="#009951"/>
</svg>
