<svg width="72" height="72" viewBox="0 0 72 72" fill="none" xmlns="http://www.w3.org/2000/svg">
<path fill-rule="evenodd" clip-rule="evenodd" d="M63 20.25V63C63 65.3869 62.0518 67.6761 60.364 69.364C58.6761 71.0518 56.3869 72 54 72H49.5V67.5H54C55.1935 67.5 56.3381 67.0259 57.182 66.182C58.0259 65.3381 58.5 64.1935 58.5 63V20.25H49.5C47.7098 20.25 45.9929 19.5388 44.727 18.273C43.4612 17.0071 42.75 15.2902 42.75 13.5V4.5H18C16.8065 4.5 15.6619 4.97411 14.818 5.81802C13.9741 6.66193 13.5 7.80653 13.5 9V49.5H9V9C9 6.61305 9.94821 4.32387 11.636 2.63604C13.3239 0.948212 15.6131 0 18 0L42.75 0L63 20.25ZM7.2 53.325H0V71.3205H3.5595V65.2815H7.173C8.463 65.2815 9.561 65.022 10.467 64.503C11.382 63.978 12.0765 63.267 12.5505 62.37C13.0446 61.4317 13.2938 60.3838 13.275 59.3235C13.275 58.1985 13.038 57.183 12.564 56.277C12.0892 55.3814 11.3718 54.6375 10.494 54.1305C9.594 53.5905 8.496 53.322 7.2 53.325ZM9.6525 59.3235C9.66778 59.9163 9.53639 60.5037 9.27 61.0335C9.03113 61.4952 8.65764 61.8734 8.199 62.118C7.67478 62.3761 7.09561 62.5028 6.5115 62.487H3.546V56.16H6.516C7.497 56.16 8.265 56.4315 8.82 56.9745C9.375 57.5235 9.6525 58.3065 9.6525 59.3235ZM15.129 53.325V71.3205H21.699C23.505 71.3205 25.002 70.965 26.19 70.254C27.3922 69.5347 28.331 68.4476 28.8675 67.1535C29.4555 65.8035 29.7495 64.1775 29.7495 62.2755C29.7495 60.3855 29.4555 58.773 28.8675 57.438C28.3362 56.1594 27.4067 55.0863 26.217 54.378C25.029 53.676 23.5215 53.325 21.6945 53.325H15.129ZM18.6885 56.2275H21.222C22.335 56.2275 23.2485 56.4555 23.9625 56.9115C24.7029 57.3997 25.2625 58.1175 25.5555 58.9545C25.9095 59.8605 26.0865 60.99 26.0865 62.343C26.1005 63.2405 25.9976 64.136 25.7805 65.007C25.6253 65.6957 25.3245 66.3431 24.8985 66.906C24.507 67.4106 23.9882 67.802 23.3955 68.04C22.7009 68.2996 21.9633 68.4249 21.222 68.409H18.6885V56.2275ZM35.532 64.161V71.3205H31.977V53.325H43.443V56.2635H35.532V61.29H42.759V64.161H35.532Z" fill="#1B8354"/>
</svg>
