<svg width="72" height="75" viewBox="0 0 72 75" fill="none" xmlns="http://www.w3.org/2000/svg">
<path d="M28.5 48.6381V26.3618C28.5004 26.0831 28.5733 25.8097 28.7108 25.5701C28.8483 25.3306 29.0455 25.1337 29.2817 25.0003C29.5179 24.8668 29.7844 24.8016 30.0533 24.8115C30.3222 24.8214 30.5835 24.9061 30.81 25.0566L47.538 36.1916C47.7498 36.3322 47.9241 36.5257 48.0448 36.7543C48.1655 36.983 48.2288 37.2394 48.2288 37.5C48.2288 37.7605 48.1655 38.017 48.0448 38.2456C47.9241 38.4742 47.7498 38.6677 47.538 38.8083L30.81 49.9464C30.5835 50.0969 30.3222 50.1816 30.0533 50.1915C29.7844 50.2014 29.5179 50.1362 29.2817 50.0027C29.0455 49.8693 28.8483 49.6724 28.7108 49.4329C28.5733 49.1934 28.5004 48.9199 28.5 48.6412V48.6381Z" fill="white"/>
<path d="M3 37.5C3 18.6205 17.775 3.31494 36 3.31494C54.225 3.31494 69 18.6205 69 37.5C69 56.3795 54.225 71.6851 36 71.6851C17.775 71.6851 3 56.3795 3 37.5ZM36 7.97654C28.4413 7.97654 21.1922 11.087 15.8475 16.6238C10.5027 22.1605 7.5 29.6699 7.5 37.5C7.5 45.3301 10.5027 52.8395 15.8475 58.3763C21.1922 63.913 28.4413 67.0235 36 67.0235C43.5587 67.0235 50.8078 63.913 56.1525 58.3763C61.4973 52.8395 64.5 45.3301 64.5 37.5C64.5 29.6699 61.4973 22.1605 56.1525 16.6238C50.8078 11.087 43.5587 7.97654 36 7.97654Z" fill="white"/>
</svg>
