<svg width="20" height="20" viewBox="0 0 20 20" fill="none" xmlns="http://www.w3.org/2000/svg">
<path d="M9.79175 6.25C9.79175 5.90482 9.51193 5.625 9.16675 5.625C8.82157 5.625 8.54175 5.90482 8.54175 6.25V8.54167H6.25008C5.9049 8.54167 5.62508 8.82149 5.62508 9.16667C5.62508 9.51184 5.9049 9.79167 6.25008 9.79167H8.54175V12.0833C8.54175 12.4285 8.82157 12.7083 9.16675 12.7083C9.51193 12.7083 9.79175 12.4285 9.79175 12.0833V9.79167H12.0834C12.4286 9.79167 12.7084 9.51184 12.7084 9.16667C12.7084 8.82149 12.4286 8.54167 12.0834 8.54167H9.79175V6.25Z" fill="white"/>
<path fill-rule="evenodd" clip-rule="evenodd" d="M1.04175 9.16667C1.04175 4.67935 4.67943 1.04167 9.16675 1.04167C13.6541 1.04167 17.2917 4.67935 17.2917 9.16667C17.2917 11.1854 16.5556 13.0321 15.337 14.453L18.7754 17.8914C19.0194 18.1355 19.0194 18.5312 18.7754 18.7753C18.5313 19.0194 18.1356 19.0194 17.8915 18.7753L14.4531 15.3369C13.0322 16.5555 11.1854 17.2917 9.16675 17.2917C4.67943 17.2917 1.04175 13.654 1.04175 9.16667ZM9.16675 2.29167C5.36979 2.29167 2.29175 5.36971 2.29175 9.16667C2.29175 12.9636 5.36979 16.0417 9.16675 16.0417C12.9637 16.0417 16.0417 12.9636 16.0417 9.16667C16.0417 5.36971 12.9637 2.29167 9.16675 2.29167Z" fill="white"/>
</svg>
