<svg width="25" height="24" viewBox="0 0 25 24" fill="none" xmlns="http://www.w3.org/2000/svg">
<path d="M18.5 11C17.9477 11 17.5 11.4477 17.5 12C17.5 12.5523 17.9477 13 18.5 13H18.509C19.0613 13 19.509 12.5523 19.509 12C19.509 11.4477 19.0613 11 18.509 11H18.5Z" fill="#161616"/>
<path fill-rule="evenodd" clip-rule="evenodd" d="M13.552 1.25H11.448C10.5495 1.24997 9.8003 1.24995 9.20552 1.32991C8.57773 1.41432 8.01093 1.59999 7.55546 2.05546C7.09999 2.51093 6.91432 3.07773 6.82991 3.70552C6.74995 4.3003 6.74997 5.04951 6.75 5.94799L6.75 7.2544C6.36117 7.25968 6.01709 7.27129 5.71173 7.2968C5.1344 7.34502 4.63151 7.44666 4.16499 7.68655C3.60651 7.97374 3.12704 8.3906 2.77103 8.90269C2.47157 9.33345 2.31377 9.81457 2.20522 10.3696C2.10044 10.9055 2.0314 11.5705 1.94628 12.3904L1.93866 12.4639C1.83644 13.4483 1.75407 14.2417 1.75015 14.8833C1.74612 15.5438 1.82242 16.128 2.09682 16.6653C2.4189 17.296 2.91585 17.8231 3.5278 18.19C4.04485 18.5001 4.62804 18.6291 5.3033 18.6903C5.76638 18.7323 6.31096 18.7447 6.95125 18.7484C6.89076 19.0221 6.8412 19.2644 6.80703 19.4789C6.74759 19.8519 6.72268 20.2066 6.7915 20.5588C6.94953 21.3673 7.44712 22.0768 8.17159 22.4603C8.49394 22.6309 8.84088 22.6935 9.19884 22.7223C9.54456 22.75 9.97142 22.75 10.4811 22.75H14.5189C15.0286 22.75 15.4554 22.75 15.8011 22.7223C16.1591 22.6935 16.506 22.6309 16.8284 22.4603C17.5528 22.0768 18.0504 21.3673 18.2085 20.5588C18.2773 20.2066 18.2524 19.8519 18.1929 19.4789C18.1588 19.2644 18.1092 19.0221 18.0487 18.7484C18.689 18.7447 19.2336 18.7323 19.6967 18.6903C20.372 18.6291 20.9552 18.5001 21.4722 18.19C22.0841 17.8231 22.5811 17.296 22.9032 16.6653C23.1776 16.128 23.2539 15.5438 23.2499 14.8833C23.2459 14.2416 23.1636 13.4483 23.0613 12.4638L23.0537 12.3904C22.9686 11.5705 22.8996 10.9055 22.7948 10.3696C22.6862 9.81457 22.5284 9.33345 22.229 8.90269C21.873 8.3906 21.3935 7.97374 20.835 7.68655C20.3685 7.44666 19.8656 7.34502 19.2883 7.2968C18.9829 7.27129 18.6388 7.25968 18.25 7.2544L18.25 5.94801C18.25 5.04957 18.2501 4.30029 18.1701 3.70552C18.0857 3.07773 17.9 2.51093 17.4445 2.05546C16.9891 1.59999 16.4223 1.41432 15.7945 1.32991C15.1997 1.24995 14.4505 1.24997 13.552 1.25ZM7.60282 16.5244C7.47571 16.7366 7.38576 16.9753 7.30699 17.2496C6.5136 17.2481 5.91787 17.2398 5.43865 17.1964C4.8634 17.1443 4.53792 17.0467 4.29919 16.9036C3.92321 16.6781 3.62427 16.3582 3.43269 15.9831C3.31413 15.7509 3.24677 15.4417 3.25012 14.8924C3.25354 14.3327 3.32749 13.6123 3.43467 12.5799C3.52425 11.7172 3.58701 11.1194 3.67734 10.6575C3.76538 10.2073 3.86848 9.95191 4.00265 9.75892C4.21603 9.45198 4.50668 9.19755 4.85095 9.02052C5.07195 8.90688 5.35589 8.83175 5.83659 8.79159C6.32717 8.75061 6.9552 8.75 7.85396 8.75H17.146C18.0448 8.75 18.6728 8.75061 19.1634 8.79159C19.6441 8.83175 19.9281 8.90688 20.1491 9.02052C20.4933 9.19755 20.784 9.45198 20.9974 9.75892C21.1315 9.95191 21.2346 10.2073 21.3227 10.6575C21.413 11.1194 21.4758 11.7172 21.5653 12.5799C21.6725 13.6123 21.7465 14.3327 21.7499 14.8924C21.7532 15.4417 21.6859 15.7509 21.5673 15.9831C21.3757 16.3582 21.0768 16.6781 20.7008 16.9036C20.4621 17.0467 20.1366 17.1443 19.5614 17.1964C19.0821 17.2398 18.4864 17.2481 17.693 17.2496C17.6142 16.9753 17.5242 16.7366 17.3971 16.5244C17.0905 16.0126 16.627 15.614 16.0705 15.4062C15.6486 15.2487 15.1745 15.2492 14.6016 15.2499H10.3983C9.82548 15.2492 9.35132 15.2487 8.92945 15.4062C8.37298 15.614 7.9095 16.0126 7.60282 16.5244ZM16.75 7.25V6C16.75 5.03599 16.7484 4.38843 16.6835 3.9054C16.6214 3.44393 16.5142 3.24644 16.3839 3.11612C16.2536 2.9858 16.0561 2.87858 15.5946 2.81654C15.1116 2.7516 14.464 2.75 13.5 2.75H11.5C10.536 2.75 9.88843 2.7516 9.40539 2.81654C8.94393 2.87858 8.74644 2.9858 8.61612 3.11612C8.4858 3.24644 8.37858 3.44393 8.31654 3.9054C8.2516 4.38843 8.25 5.03599 8.25 6V7.25H16.75ZM10.5113 16.75C9.76465 16.75 9.58796 16.7615 9.45416 16.8115C9.23319 16.894 9.03098 17.0593 8.88954 17.2954C8.79741 17.4491 8.73831 17.6655 8.55967 18.4408C8.42745 19.0146 8.33724 19.4079 8.28835 19.7148C8.24001 20.0183 8.24416 20.1713 8.26365 20.271C8.34113 20.6674 8.57758 20.978 8.8734 21.1346C8.93367 21.1665 9.04573 21.2052 9.31882 21.2271C9.59733 21.2494 9.96354 21.25 10.5113 21.25H14.4887C15.0364 21.25 15.4026 21.2494 15.6811 21.2271C15.9542 21.2052 16.0663 21.1665 16.1266 21.1346C16.4224 20.978 16.6588 20.6674 16.7363 20.271C16.7558 20.1713 16.76 20.0183 16.7116 19.7148C16.6627 19.4079 16.5725 19.0146 16.4403 18.4408C16.2617 17.6655 16.2025 17.4491 16.1104 17.2954C15.969 17.0593 15.7668 16.894 15.5458 16.8115C15.412 16.7615 15.2353 16.75 14.4887 16.75H10.5113Z" fill="#161616"/>
</svg>
