<svg width="28" height="28" viewBox="0 0 28 28" fill="none" xmlns="http://www.w3.org/2000/svg">
<path d="M7 9.04167H9.33333V7.29167L7 7.29167V9.04167Z" fill="#009951"/>
<path d="M11.6667 9.04167L21 9.04167V7.29167L11.6667 7.29167V9.04167Z" fill="#009951"/>
<path d="M7 14.875H9.33333V13.125H7V14.875Z" fill="#009951"/>
<path d="M11.6667 14.875H21V13.125H11.6667V14.875Z" fill="#009951"/>
<path d="M7 20.7083H9.33333V18.9583H7V20.7083Z" fill="#009951"/>
<path d="M11.6667 20.7083L21 20.7083V18.9583L11.6667 18.9583V20.7083Z" fill="#009951"/>
<path fill-rule="evenodd" clip-rule="evenodd" d="M3.5 2.625C3.01675 2.625 2.625 3.01675 2.625 3.5V24.5C2.625 24.9832 3.01675 25.375 3.5 25.375H24.5C24.9832 25.375 25.375 24.9832 25.375 24.5V3.5C25.375 3.01675 24.9832 2.625 24.5 2.625H3.5ZM4.375 23.625V4.375H23.625V23.625H4.375Z" fill="#009951"/>
</svg>
