<svg width="110" height="113" viewBox="0 0 110 113" fill="none" xmlns="http://www.w3.org/2000/svg">
<path d="M89.0704 112.569H62.8594C61.7512 112.569 60.8531 111.671 60.8531 110.563V71.6489C55.4448 70.6958 51.3223 65.9629 51.3223 60.2869V41.1051C51.3223 33.2328 57.7262 26.8289 65.5985 26.8289H86.3288C94.2011 26.8289 100.605 33.2328 100.605 41.1051V60.2294C100.605 61.3376 99.707 62.2356 98.5988 62.2356C97.4906 62.2356 96.5926 61.3376 96.5926 60.2294V41.1051C96.5926 35.4442 91.9872 30.8388 86.3263 30.8388H65.596C59.9351 30.8388 55.3297 35.4442 55.3297 41.1051V60.2869C55.3297 64.437 58.7068 67.8115 62.8568 67.8115C63.965 67.8115 64.8631 68.7096 64.8631 69.8178V108.559H87.0642V96.4091C87.0642 95.3009 87.9623 94.4029 89.0704 94.4029C90.1786 94.4029 91.0767 95.3009 91.0767 96.4091V110.565C91.0767 111.671 90.1786 112.569 89.0704 112.569Z" fill="#1B8354"/>
<path d="M75.9652 112.569C74.857 112.569 73.959 111.671 73.959 110.563V94.7157C73.959 93.6075 74.857 92.7095 75.9652 92.7095C77.0734 92.7095 77.9715 93.6075 77.9715 94.7157V110.563C77.9715 111.671 77.0734 112.569 75.9652 112.569Z" fill="#1B8354"/>
<path d="M62.8597 71.8242C61.7516 71.8242 60.8535 70.9261 60.8535 69.8179V45.6781C60.8535 44.5699 61.7516 43.6719 62.8597 43.6719C63.9679 43.6719 64.866 44.5699 64.866 45.6781V69.8179C64.866 70.9261 63.9679 71.8242 62.8597 71.8242Z" fill="#1B8354"/>
<path d="M89.0707 62.2333C87.9625 62.2333 87.0645 61.3352 87.0645 60.227V45.6781C87.0645 44.5699 87.9625 43.6719 89.0707 43.6719C90.1789 43.6719 91.0769 44.5699 91.0769 45.6781V60.2295C91.0769 61.3352 90.1789 62.2333 89.0707 62.2333Z" fill="#1B8354"/>
<path d="M75.9638 23.4394C69.5024 23.4394 64.2441 18.1812 64.2441 11.7222C64.2466 5.25823 69.5024 0 75.9638 0C82.4253 0 87.681 5.25823 87.681 11.7197C87.6835 18.1812 82.4253 23.4394 75.9638 23.4394ZM75.9638 4.00996C71.7137 4.00996 68.2541 7.46959 68.2541 11.7197C68.2541 15.9698 71.7112 19.4269 75.9638 19.4269C80.214 19.4269 83.6711 15.9698 83.6711 11.7197C83.6736 7.46959 80.214 4.00996 75.9638 4.00996Z" fill="#1B8354"/>
<path d="M102.782 112.445H6.25708C4.68345 112.445 3.4082 111.491 3.4082 110.315C3.4082 109.139 4.68345 108.185 6.25708 108.185H102.782C104.355 108.185 105.63 109.139 105.63 110.315C105.63 111.491 104.355 112.445 102.782 112.445Z" fill="#1B8354"/>
<path d="M104.93 92.2667H82.0658C79.3366 92.2667 77.1152 90.0453 77.1152 87.3161V71.2262C77.1152 68.4946 79.3366 66.2732 82.0658 66.2732H104.93C107.659 66.2732 109.88 68.4946 109.88 71.2262V87.3161C109.883 90.0453 107.659 92.2667 104.93 92.2667ZM82.0658 70.2857C81.548 70.2857 81.1252 70.7084 81.1252 71.2262V87.3161C81.1252 87.8339 81.548 88.2567 82.0658 88.2567H104.93C105.448 88.2567 105.87 87.8364 105.87 87.3161V71.2262C105.87 70.7084 105.448 70.2857 104.93 70.2857H82.0658Z" fill="#074D31"/>
<path d="M99.7583 70.2856H87.2406C86.1324 70.2856 85.2344 69.3875 85.2344 68.2793V61.6878C85.2344 59.7766 86.7878 58.2231 88.699 58.2231H98.2949C100.206 58.2231 101.762 59.7766 101.762 61.6878V68.2793C101.765 69.3875 100.866 70.2856 99.7583 70.2856ZM89.2468 66.2731H97.7546V62.2331H89.2468V66.2731Z" fill="#074D31"/>
<path d="M93.4983 81.0924C93.3758 81.0924 93.2507 81.0824 93.1281 81.0574L78.7493 78.3582C77.8012 78.1806 77.1133 77.3526 77.1133 76.387V71.7291C77.1133 70.6209 78.0113 69.7229 79.1195 69.7229C80.2277 69.7229 81.1257 70.6209 81.1257 71.7291V74.7235L93.4983 77.0474L105.871 74.7235V71.7291C105.871 70.6209 106.769 69.7229 107.877 69.7229C108.985 69.7229 109.883 70.6209 109.883 71.7291V76.387C109.883 77.3526 109.195 78.1781 108.247 78.3582L93.8686 81.0574C93.746 81.0799 93.6234 81.0924 93.4983 81.0924Z" fill="#074D31"/>
<path d="M79.1217 64.5996H62.8617C61.7535 64.5996 60.8555 63.7016 60.8555 62.5934C60.8555 61.4852 61.7535 60.5872 62.8617 60.5872H79.1217C80.2299 60.5872 81.1279 61.4852 81.1279 62.5934C81.1279 63.7016 80.2274 64.5996 79.1217 64.5996Z" fill="#1B8354"/>
<path d="M32.8654 45.2301C31.1143 45.2301 29.4158 44.5047 28.205 43.2414L19.7899 34.466C17.3258 31.8944 17.4109 27.7994 19.98 25.3329C22.5541 22.8689 26.6491 22.9564 29.1106 25.523L32.1675 28.71L38.824 19.4943C39.8347 18.096 41.3306 17.1754 43.0341 16.9002C44.7377 16.6226 46.4437 17.0328 47.8421 18.0434C49.2379 19.0515 50.1585 20.5475 50.4337 22.251C50.7088 23.9546 50.3036 25.6606 49.2905 27.059L38.0986 42.551C36.9754 44.1069 35.2293 45.08 33.3107 45.2101C33.1531 45.2226 33.0105 45.2301 32.8654 45.2301ZM24.4502 27.5518C23.8398 27.5518 23.2295 27.7769 22.7542 28.2322C21.7811 29.1653 21.7511 30.7162 22.6841 31.6918L31.0993 40.4672C31.5596 40.9475 32.2025 41.2202 32.8654 41.2202L33.0505 41.2127C33.7609 41.1651 34.4213 40.7974 34.8466 40.207L46.0385 24.715C46.4212 24.1847 46.5763 23.5393 46.4712 22.8939C46.3662 22.2485 46.0185 21.6832 45.4881 21.3004C44.9578 20.9152 44.3124 20.7676 43.667 20.8652C43.0216 20.9702 42.4563 21.3204 42.071 21.8483L34.0036 33.0126C33.6559 33.4929 33.1105 33.7981 32.5177 33.8381C31.9173 33.8832 31.3445 33.6555 30.9317 33.2253L26.2088 28.3022C25.736 27.8019 25.0931 27.5518 24.4502 27.5518Z" fill="#074D31"/>
<path d="M31.0261 52.83C19.6866 52.83 10.4609 43.6044 10.4609 32.2624C10.4609 20.9204 19.6866 11.6973 31.0261 11.6973C32.9673 11.6973 34.8859 11.9674 36.7346 12.5028C37.7977 12.8104 38.4106 13.9236 38.1029 14.9868C37.7952 16.0499 36.687 16.6578 35.6189 16.3551C34.133 15.9249 32.587 15.7072 31.0261 15.7072C21.898 15.7072 14.4709 23.1343 14.4709 32.2624C14.4709 41.3905 21.898 48.8176 31.0261 48.8176C36.2993 48.8176 41.1348 46.3936 44.2967 42.1635C44.9596 41.2754 46.2179 41.0928 47.1034 41.7582C47.9915 42.4211 48.1716 43.6769 47.5087 44.565C43.5838 49.8182 37.5776 52.83 31.0261 52.83Z" fill="#074D31"/>
<path d="M31.0253 63.2913C29.4568 63.2913 27.8884 62.8861 26.49 62.0781L24.6739 61.0324C23.9059 60.5897 23.0304 60.3545 22.1424 60.3545H20.0436C16.8141 60.3545 13.8047 58.616 12.1887 55.8192L11.1406 54.0031C10.6978 53.2352 10.0574 52.5948 9.28946 52.1495L7.47334 51.0988C4.67662 49.4879 2.93805 46.476 2.93805 43.2465V41.1477C2.93805 40.2622 2.70291 39.3867 2.26014 38.6162L1.21199 36.8026C-0.403998 34.0033 -0.403998 30.5262 1.21199 27.7295L2.26264 25.9134C2.70541 25.1454 2.94056 24.2724 2.94056 23.3843V21.288C2.94056 18.0561 4.67912 15.0442 7.47584 13.4307L9.29196 12.3826C10.0599 11.9373 10.7003 11.2969 11.1431 10.5314L12.1937 8.71531C13.8097 5.91609 16.8191 4.17753 20.0486 4.17753H22.1474C23.0354 4.17753 23.9109 3.94238 24.6764 3.49961L26.4925 2.45147C29.2892 0.837975 32.7639 0.835474 35.5631 2.45397L37.3792 3.49961C38.1472 3.94238 39.0227 4.17753 39.9108 4.17753H42.0096C45.2415 4.17753 48.2509 5.91609 49.8644 8.71531L50.9125 10.5314C51.3553 11.2994 51.9957 11.9398 52.7637 12.3826L54.5798 13.4332C57.3765 15.0442 59.1151 18.0561 59.1151 21.288V23.3868C59.1151 24.495 58.217 25.3931 57.1088 25.3931C56.0006 25.3931 55.1026 24.495 55.1026 23.3868V21.288C55.1026 19.4844 54.1345 17.8059 52.5735 16.9053L50.7549 15.8547C49.3791 15.0592 48.2309 13.9135 47.4354 12.5352L46.3872 10.719C45.4867 9.15809 43.8082 8.18749 42.0046 8.18749H39.9058C38.3148 8.18749 36.7463 7.76723 35.3705 6.97174L33.5544 5.9261C31.9934 5.02305 30.0547 5.02555 28.4938 5.9236L26.6776 6.97424C25.3018 7.76723 23.7333 8.18749 22.1424 8.18749H20.0436C18.2425 8.18749 16.5614 9.15809 15.6609 10.719L14.6127 12.5352C13.8197 13.911 12.6715 15.0592 11.2932 15.8547L9.47457 16.9053C7.91361 17.8059 6.94552 19.4869 6.94552 21.288V23.3843C6.94552 24.9728 6.52526 26.5413 5.73227 27.9171L4.68163 29.7357C3.78107 31.2942 3.78107 33.2354 4.68163 34.7963L5.72977 36.6099C6.52526 37.9908 6.94552 39.5593 6.94552 41.1477V43.2465C6.94552 45.0476 7.91361 46.7262 9.47457 47.6267L11.2932 48.6774C12.6715 49.4728 13.8197 50.6211 14.6127 51.9994L15.6609 53.8155C16.5614 55.3765 18.2425 56.3446 20.0436 56.3446H22.1424C23.7333 56.3446 25.3018 56.7648 26.6776 57.5578L28.4938 58.606C30.0547 59.509 31.9934 59.5065 33.5544 58.6085L35.373 57.5578C36.7463 56.7623 38.3173 56.3446 39.9083 56.3446H42.007C42.7125 56.3446 43.3979 56.1995 44.0433 55.9143C45.0564 55.4715 46.2397 55.9293 46.6874 56.9424C47.1352 57.9556 46.6724 59.1413 45.6593 59.5866C44.5011 60.0969 43.2728 60.3545 42.007 60.3545H39.9083C39.0202 60.3545 38.1472 60.5897 37.3792 61.0299L35.5606 62.0806C34.1622 62.8861 32.5938 63.2913 31.0253 63.2913Z" fill="#074D31"/>
</svg>
