<svg width="105" height="84" viewBox="0 0 105 84" fill="none" xmlns="http://www.w3.org/2000/svg">
<path d="M92.717 43.2198C91.917 59.0294 83.36 69.0125 68.4722 73.465C64.5763 74.6302 59.3587 75.2738 61.7414 80.8045C62.5414 82.6307 68.107 83.622 71.1158 83.0655C88.6994 79.7957 102.892 63.8992 103.831 46.02C104.509 33.0105 104.126 6.88734 104.126 6.88734V0.0347845L60.8718 0V7.35693L60.8718 36.0542V43.272C60.8718 43.272 84.1948 43.2198 92.717 43.2198Z" fill="#B4B4B4"/>
<path d="M31.8459 43.2198C31.0459 59.0294 22.4889 69.0125 7.60111 73.465C3.70524 74.6302 -1.51244 75.2738 0.8703 80.8045C1.67035 82.6307 7.23587 83.622 10.2447 83.0655C27.8283 79.7957 42.0204 63.8992 42.9596 46.02C43.6379 33.0105 43.2553 6.88734 43.2553 6.88734V0.0347845L0.000686646 0V7.35693L0.000686646 36.0542V43.272C0.000686646 43.272 23.3237 43.2198 31.8459 43.2198Z" fill="#B4B4B4"/>
</svg>
