<svg width="105" height="84" viewBox="0 0 105 84" fill="none" xmlns="http://www.w3.org/2000/svg">
<path d="M11.5171 40.0011C12.3172 24.1912 20.8744 14.2078 35.7625 9.75526C39.6585 8.58995 44.8763 7.94642 42.4935 2.41555C41.6934 0.589321 36.1278 -0.402057 33.1188 0.154508C15.5348 3.42433 1.34241 19.3212 0.403204 37.2009C-0.27511 50.2106 0.107531 76.3344 0.107531 76.3344L0.107532 83.1871L43.3631 83.2219L43.3631 75.8648L43.3631 47.1669L43.3631 39.9489C43.3631 39.9489 20.0395 40.0011 11.5171 40.0011Z" fill="#B4B4B4"/>
<path d="M72.3909 40.0011C73.191 24.1912 81.7482 14.2078 96.6363 9.75526C100.532 8.58995 105.75 7.94642 103.367 2.41555C102.567 0.589321 97.0015 -0.402057 93.9926 0.154508C76.4086 3.42433 62.2162 19.3212 61.277 37.2009C60.5987 50.2106 60.9813 76.3344 60.9813 76.3344L60.9813 83.1871L104.237 83.2219L104.237 75.8648L104.237 47.1669L104.237 39.9489C104.237 39.9489 80.9133 40.0011 72.3909 40.0011Z" fill="#B4B4B4"/>
</svg>
