<svg width="29" height="28" viewBox="0 0 29 28" fill="none" xmlns="http://www.w3.org/2000/svg">
<path d="M27.8792 14.6768C27.6097 12.6629 26.8121 10.739 25.5484 9.11323C27.3794 10.2496 28.4802 12.1453 28.6656 14.1593C28.6936 11.2228 27.4299 8.35379 25.1159 6.40739C25.4866 6.42426 25.8629 6.50864 26.2224 6.66053C26.6829 6.85742 27.1379 7.62248 27.1491 7.62811C26.7616 6.86305 25.9415 5.60857 25.5315 5.12478C25.1721 4.69725 24.7228 4.32597 24.206 4.0447C23.8578 3.85343 23.4871 3.70717 23.1164 3.61154C23.1558 3.36402 23.1838 3.09962 23.1782 2.8521C23.0266 2.73959 22.3807 2.26143 21.6842 1.8564C20.9878 1.45137 20.2408 1.13072 20.0667 1.05758C19.8476 1.17572 19.6342 1.32761 19.4376 1.49074C19.168 1.22072 18.8647 0.973203 18.5221 0.765061C18.0166 0.455661 17.4718 0.258771 16.9214 0.157513C16.4103 0.0731308 15.36 0 14.5175 0C14.3041 0 14.1019 0.00562545 13.9278 0.0168763C13.939 0.0225018 14.8321 0.0337527 15.2308 0.331901C15.551 0.562545 15.8093 0.843817 16.0059 1.15884C13.1583 0.129385 10.0356 0.472538 7.50813 1.96328C9.35035 1.11384 11.5464 1.11946 13.4448 2.13204C11.4004 1.85077 9.32788 2.12642 7.44073 2.90273C7.45196 2.59333 7.47443 2.28393 7.50251 1.96891C7.40703 2.30643 7.33402 2.64396 7.26662 2.98149C5.82317 3.60029 4.49767 4.51724 3.3856 5.70421C4.49767 4.85476 5.77262 4.25284 7.11497 3.93219C7.01949 4.78726 7.01949 5.63107 7.10935 6.45801C5.77824 7.29621 4.49767 8.27503 3.40807 9.32137C3.26766 8.1344 3.25642 6.9193 3.39683 5.70983C3.05423 7.02619 2.9419 8.37629 3.01491 9.71515C2.07695 10.6715 1.30749 11.6728 0.824469 12.6629C1.46475 11.8247 2.2286 11.0653 3.07108 10.3902C3.23957 11.9935 3.68328 13.5686 4.36849 15.0368C3.70013 16.4826 3.13286 18.1983 2.70039 20.2516C1.43667 18.0071 0.740221 15.4081 0.796386 12.6629C-0.22582 19.8466 4.8796 26.6027 12.0238 27.8066C14.2929 28.2004 16.6687 27.9922 18.8198 27.1878C17.5729 27.4634 16.3148 27.6097 15.0511 27.5928C16.7024 26.1302 17.9605 24.7295 18.9209 23.3737C20.5328 23.2275 22.1111 22.8056 23.5882 22.1193C23.4253 23.2162 23.1445 24.2851 22.7233 25.2864C23.3579 24.3469 23.8466 23.1431 24.2117 21.8099C24.7958 21.5005 25.3687 21.1517 25.9078 20.7467C25.3799 21.0336 24.8407 21.2867 24.2903 21.5117C24.6778 19.9928 24.9025 18.3221 24.9643 16.6851C25.1328 16.6119 25.3013 16.5444 25.4641 16.4657C26.0651 16.1675 26.6268 15.8356 27.1491 15.4644C27.5423 16.7863 27.6602 18.1927 27.4805 19.5878C27.9579 18.0352 28.0871 16.4319 27.9017 14.8737C28.1657 14.6487 28.4184 14.4124 28.6599 14.1536C28.4016 14.3393 28.1432 14.5137 27.8792 14.6768ZM23.4703 16.4263C22.8918 16.5444 22.3077 16.6232 21.7179 16.6682C21.9819 15.1156 22.0437 13.5911 22.0774 12.0553C22.7064 13.3323 23.1838 14.8343 23.4703 16.4263ZM17.2584 22.6481C15.5454 22.5299 13.8548 22.1249 12.2653 21.4105C12.1361 21.3542 12.0182 21.2867 11.8946 21.2304C12.9674 19.8128 14.0064 18.3108 15.0174 16.7638C15.7756 17.0732 16.562 17.3208 17.3876 17.4895C17.6965 17.5514 18.011 17.602 18.3255 17.6414C18.202 19.2109 17.8987 20.8254 17.2584 22.6481ZM9.75473 20.0041C8.21019 18.9296 6.89593 17.5795 5.87372 16.0269C7.11497 14.5868 8.35061 13.5348 9.63117 12.6516C10.3276 13.5573 11.142 14.373 12.0631 15.0706C11.2319 16.7188 10.4456 18.3727 9.75473 20.0041ZM18.2525 11.5772C18.3255 13.3492 18.4266 14.9412 18.3817 16.5332C17.4325 16.3701 16.5226 16.1113 15.6633 15.7681C16.5507 14.3786 17.4157 12.9723 18.2525 11.5772ZM14.95 9.67015C14.1581 11.099 13.3662 12.556 12.6079 14.0186C11.8553 13.4392 11.1645 12.781 10.5523 12.061C11.9171 11.2171 13.3605 10.5027 14.95 9.67015ZM8.74938 9.27074C8.49102 8.73632 8.27197 8.1794 8.08663 7.60561C9.62556 7.04869 11.1869 6.70553 12.6248 6.6099C11.288 7.41434 9.97378 8.24128 8.74938 9.27074ZM7.43511 3.85906C9.01335 3.53278 10.6758 3.58341 12.2709 4.05032C10.8556 4.4441 9.25486 5.17541 7.68786 6.10361C7.54744 5.3723 7.45758 4.62412 7.43511 3.85906ZM3.5204 10.0358C4.69987 9.15823 6.0029 8.43817 7.35086 7.88688C7.51374 8.58443 7.7384 9.25949 8.01361 9.91204C6.82291 11.0203 5.73331 12.3704 4.80096 14.1311C4.19438 12.8429 3.76191 11.4647 3.5204 10.0358ZM2.79025 20.4148C3.64958 18.9578 4.47521 17.7483 5.29522 16.7188C6.35112 18.3783 7.72717 19.8241 9.37843 20.9154C8.74376 22.4849 8.21019 24.0319 7.81142 25.5339C5.72769 24.2794 4.00904 22.5074 2.79025 20.4148ZM14.9388 27.5872C14.5512 27.5759 14.1693 27.5591 13.7818 27.5197C11.6924 27.3116 9.76035 26.6646 8.05855 25.6858C9.15938 24.5888 10.2378 23.3512 11.2824 22.018C13.0685 22.8731 15.0118 23.3344 16.9663 23.4187C16.4721 24.6788 15.815 26.0515 14.9388 27.5872ZM23.6388 21.7592C22.2683 22.2486 20.8474 22.5468 19.4095 22.6481C20.5104 20.921 21.1507 19.2615 21.5213 17.6414C22.2234 17.5514 22.9142 17.4051 23.5882 17.2026C23.796 18.6934 23.8297 20.246 23.6388 21.7592ZM24.9811 16.0213C25.0036 14.2211 24.8295 12.4885 24.47 11.0765C25.6663 12.2185 26.5369 13.6248 27.0424 15.1437C26.3796 15.4981 25.6888 15.7906 24.9811 16.0213Z" fill="#067647"/>
</svg>
