<svg width="20" height="20" viewBox="0 0 20 20" fill="none" xmlns="http://www.w3.org/2000/svg">
<path fill-rule="evenodd" clip-rule="evenodd" d="M9.16699 1.04175C4.67968 1.04175 1.04199 4.67943 1.04199 9.16675C1.04199 13.6541 4.67968 17.2917 9.16699 17.2917C11.1857 17.2917 13.0324 16.5556 14.4534 15.337L17.8917 18.7754C18.1358 19.0194 18.5315 19.0194 18.7756 18.7754C19.0197 18.5313 19.0197 18.1356 18.7756 17.8915L15.3373 14.4531C16.5558 13.0322 17.292 11.1854 17.292 9.16675C17.292 4.67943 13.6543 1.04175 9.16699 1.04175ZM2.29199 9.16675C2.29199 5.36979 5.37004 2.29175 9.16699 2.29175C12.964 2.29175 16.042 5.36979 16.042 9.16675C16.042 12.9637 12.964 16.0417 9.16699 16.0417C5.37004 16.0417 2.29199 12.9637 2.29199 9.16675Z" fill="#161616"/>
</svg>
