<svg width="39" height="15" viewBox="0 0 39 15" fill="none" xmlns="http://www.w3.org/2000/svg">
<path d="M25.3935 8.3064C25.3183 8.39689 25.2693 8.45465 25.2217 8.51347C24.3469 9.59205 23.222 10.2421 21.8473 10.4537C21.587 10.4937 21.3201 10.5055 21.0561 10.5068C19.8896 10.5123 18.7232 10.5091 17.5566 10.5091C17.4801 10.5091 17.4037 10.5091 17.3045 10.5091C17.3045 12.0134 17.3045 13.4926 17.3045 14.9847C16.2113 14.9847 15.1412 14.9847 14.039 14.9847C14.0326 14.5021 14.0369 14.0206 14.036 13.539C14.0351 13.047 14.0358 12.5552 14.0358 12.0632C14.0358 11.5785 14.0358 11.0935 14.0358 10.6088C14.0358 10.1168 14.0358 9.62499 14.0358 9.13298C14.0358 8.64824 14.0358 8.16329 14.0358 7.67855C14.0358 7.19382 14.0358 6.70887 14.0358 6.22413C14.0358 5.73212 14.0358 5.24032 14.0358 4.74831C14.0358 4.26593 14.0358 3.78354 14.0358 3.30116C14.0242 3.29795 14.0126 3.29474 14.001 3.29174C13.9681 3.3587 13.9325 3.42437 13.9026 3.49261C12.2563 7.23831 10.611 10.9847 8.96396 14.7301C8.82308 15.0506 8.90662 14.9948 8.54453 14.9971C7.97197 15.0005 7.39942 14.998 6.82708 14.998C6.7489 14.998 6.67094 14.998 6.5801 14.998C4.38802 10.0088 2.19959 5.02704 0 0.0198731C1.24326 0.0198731 2.44958 0.0198731 3.68403 0.0198731C5.01577 3.16018 6.3531 6.31333 7.70953 9.51226C7.75871 9.4038 7.79114 9.33599 7.82056 9.26689C9.09217 6.26798 10.3627 3.26864 11.6365 0.270585C11.7677 -0.0380986 11.6878 0.00661019 12.0355 0.00661019C15.0125 0.00532668 17.9898 0.0245793 20.9668 0.00019266C23.4892 -0.0205574 25.5584 1.63709 26.1759 3.87189C26.1851 3.90547 26.195 3.93906 26.21 3.99211C28.0166 1.13139 30.5643 -0.215222 33.9494 0.262028C35.8421 0.528997 37.3628 1.50575 38.5709 3.00402C37.7825 3.61262 37.0089 4.20988 36.2216 4.81762C35.2528 3.64963 34.0183 3.05472 32.5017 3.12703C31.2711 3.18564 30.2381 3.69862 29.4231 4.6206C27.8441 6.40681 27.9992 9.11009 29.7613 10.7288C31.5627 12.3837 34.5196 12.3011 36.2244 10.1867C37.0003 10.7853 37.7767 11.3845 38.5528 11.9832C37.1689 13.8657 34.468 15.2814 31.3894 14.7284C28.41 14.1932 25.8245 11.759 25.3935 8.3064ZM17.3118 7.24002C17.3983 7.24409 17.4679 7.25008 17.5377 7.25008C18.7039 7.25072 19.87 7.25136 21.0362 7.24922C21.1571 7.24901 21.2791 7.23746 21.3989 7.21991C22.4025 7.07253 23.1496 6.15204 23.0865 5.14406C23.0214 4.10549 22.163 3.27827 21.1309 3.27313C19.9147 3.26714 18.6985 3.27142 17.4821 3.27249C17.4277 3.27249 17.3732 3.28319 17.3118 3.2896C17.3118 4.60648 17.3118 5.90903 17.3118 7.24002Z" fill="#1B8354"/>
<path d="M32.806 5.1976C34.1272 5.21985 35.1377 6.26869 35.111 7.59091C35.0878 8.74329 34.1558 9.85331 32.751 9.84796C31.4423 9.84282 30.4249 8.77067 30.4451 7.45058C30.4644 6.19831 31.5357 5.176 32.806 5.1976Z" fill="#1B8354"/>
</svg>
