<svg width="20" height="39" viewBox="0 0 20 39" fill="none" xmlns="http://www.w3.org/2000/svg">
<path d="M11.8397 3.78292C11.8107 2.38982 11.0089 1.62275 10.6147 0.695312H10.2167C9.81867 1.63628 8.99943 2.41108 8.9917 3.84475C9.02068 5.23784 9.8206 6.00491 10.2148 6.93235H10.6147C11.0108 5.99911 11.8204 5.22818 11.8397 3.81383C11.8378 3.80417 11.8397 3.79258 11.8397 3.78292Z" fill="#067647"/>
<path d="M10.5948 7.95117H10.247C10.1137 8.79746 9.94751 10.1809 9.77168 12.5806C9.49924 16.2904 9.56687 18.8196 9.57073 20.2591C9.58233 26.015 10.1755 38.8543 10.1755 38.8543H10.6663C10.6663 38.8543 11.2594 26.015 11.271 20.2591C11.2749 18.8196 11.3657 16.2923 11.0701 12.5806C10.8788 10.1828 10.73 8.80133 10.5948 7.95117Z" fill="#067647"/>
<path d="M8.31273 8.66602H7.97074C7.85867 9.3558 7.70796 10.5692 7.56498 12.54C7.15536 18.2515 7.21719 18.8196 7.21719 20.2571C7.21719 29.5933 7.94369 37.7142 7.95721 37.7935H8.29148C8.305 37.7142 9.0315 29.5953 9.0315 20.2571C9.0315 18.8176 9.04502 18.2786 8.68178 12.5381C8.56005 10.5692 8.41707 9.34421 8.31273 8.66602Z" fill="#067647"/>
<path d="M5.97692 9.92188H5.66777C5.54798 10.5518 5.41852 11.8946 5.25235 13.9582C4.99344 17.1617 4.97799 18.8195 4.97412 20.257C4.99731 25.557 5.22917 30.855 5.66004 36.1549H6.0059C6.4387 30.855 6.67057 25.557 6.69182 20.257C6.68602 18.8176 6.6725 16.9724 6.41359 13.9582C6.23583 11.8946 6.10058 10.5498 5.97692 9.92188Z" fill="#067647"/>
<path d="M3.79182 12.7207H3.3822C3.31264 12.997 2.74072 17.0352 2.74072 20.2562C2.74072 27.2989 3.35322 32.1622 3.43437 32.7148H3.75318C3.75511 32.6974 4.44876 27.2989 4.44876 20.2562C4.44876 17.0352 3.86331 12.997 3.79182 12.7207Z" fill="#067647"/>
<path d="M1.7399 15.7441H1.36892C1.36892 15.7441 0.951571 18.4318 0.876217 20.2867C0.683 25.0031 1.41529 29.0162 1.41529 29.0162H1.68966C1.68966 29.0162 2.35046 25.005 2.19202 20.2867C2.13019 18.4318 1.7399 15.7441 1.7399 15.7441Z" fill="#067647"/>
<path d="M12.5172 8.66602H12.8592C12.9713 9.3558 13.122 10.5692 13.2649 12.54C13.6765 18.2534 13.6147 18.8196 13.6147 20.259C13.6147 29.5953 12.8882 37.7162 12.8746 37.7954H12.5404C12.5269 37.7162 11.8004 29.5972 11.8004 20.259C11.8004 18.8196 11.7868 18.2805 12.1501 12.54C12.2699 10.5692 12.4129 9.34421 12.5172 8.66602Z" fill="#067647"/>
<path d="M14.8565 9.92188H15.1657C15.2855 10.5518 15.4149 11.8946 15.5811 13.9582C15.84 17.1617 15.8555 18.8195 15.8593 20.257C15.8361 25.557 15.6043 30.855 15.1734 36.1549H14.8295C14.3967 30.855 14.1648 25.557 14.1436 20.257C14.1494 18.8176 14.1629 16.9724 14.4218 13.9582C14.5976 11.8946 14.7329 10.5498 14.8565 9.92188Z" fill="#067647"/>
<path d="M17.0368 12.7207H17.4464C17.516 12.997 18.0879 17.0352 18.0879 20.2562C18.0879 27.2989 17.4754 32.1622 17.3943 32.7148H17.0755C17.0735 32.6974 16.3799 27.2989 16.3799 20.2562C16.3799 17.0352 16.9634 12.997 17.0368 12.7207Z" fill="#067647"/>
<path d="M19.1056 15.7441H19.4765C19.4765 15.7441 19.8939 18.4318 19.9692 20.2867C20.1625 25.0031 19.4302 29.0162 19.4302 29.0162H19.1558C19.1558 29.0162 18.4969 25.005 18.6534 20.2867C18.7153 18.4318 19.1056 15.7441 19.1056 15.7441Z" fill="#067647"/>
<path d="M12.5138 8.66797H12.8558C12.9678 9.35775 13.1185 10.5712 13.2615 12.542C13.6731 18.2554 13.6112 18.8215 13.6112 20.261C13.6112 29.5972 12.8848 37.7181 12.8712 37.7973H12.537C12.5234 37.7181 11.7969 29.5991 11.7969 20.261C11.7969 18.8215 11.7834 18.2824 12.1467 12.542C12.2684 10.5712 12.4114 9.34616 12.5138 8.66797Z" fill="#067647"/>
<path d="M14.8516 9.92578H15.1608C15.2806 10.5557 15.41 11.8985 15.5762 13.9621C15.8351 17.1656 15.8506 18.8234 15.8544 20.261C15.8312 25.5609 15.5994 30.8589 15.1685 36.1588H14.8226C14.3898 30.8589 14.158 25.5609 14.1367 20.261C14.1425 18.8215 14.156 16.9763 14.4149 13.9621C14.5927 11.8985 14.7299 10.5537 14.8516 9.92578Z" fill="#067647"/>
<path d="M17.0368 12.7246H17.4464C17.516 13.0009 18.0879 17.0391 18.0879 20.2601C18.0879 27.3028 17.4754 32.1661 17.3943 32.7187H17.0755C17.0735 32.7032 16.3799 27.3028 16.3799 20.2601C16.3799 17.0391 16.9653 13.0009 17.0368 12.7246Z" fill="#067647"/>
<path d="M19.0929 15.7461H19.4638C19.4638 15.7461 19.8812 18.4337 19.9566 20.2886C20.1498 25.005 19.4175 29.0182 19.4175 29.0182H19.1431C19.1431 29.0182 18.4823 25.007 18.6407 20.2886C18.7026 18.4337 19.0929 15.7461 19.0929 15.7461Z" fill="#067647"/>
</svg>
