<svg width="32" height="32" viewBox="0 0 32 32" fill="none" xmlns="http://www.w3.org/2000/svg">
<path d="M20.5221 18.8627C20.1382 18.7498 19.6301 18.6707 19.0204 18.761C18.8059 18.7949 18.58 18.8514 18.3542 18.9304C18.3316 18.9417 18.3091 18.9417 18.2865 18.953C18.1623 18.9982 18.0494 19.0546 17.9252 19.1111C17.8235 19.1675 17.7219 19.224 17.6203 19.2804C17.3945 19.4159 17.1687 19.574 16.9428 19.7434C16.6944 18.2304 16.8186 16.819 16.8751 16.1303C16.8751 16.1303 16.8751 16.119 16.8864 16.1303C17.4171 16.469 17.2703 17.4174 17.1574 17.6771C17.1574 17.6771 17.1687 17.6884 17.1687 17.6771C17.8348 16.8867 17.5074 16.0173 17.3719 15.7915C17.3719 15.7915 17.3719 15.7802 17.3832 15.7802C17.4848 15.8593 17.5638 15.9383 17.6203 16.0286C17.8235 16.2883 17.9026 16.5819 17.9252 16.8303C17.9365 16.9658 17.9365 17.09 17.9252 17.1916C17.9252 17.2142 17.9252 17.2481 17.9139 17.2706C17.9139 17.2706 17.9139 17.2706 17.9252 17.2706C18.1058 16.9206 18.1961 16.3787 17.9252 15.8593C17.8574 15.7238 17.7558 15.577 17.6203 15.4415C17.5864 15.4076 17.5413 15.3625 17.4961 15.3286V15.3173C17.5413 15.3286 17.5751 15.3399 17.609 15.3512C17.7219 15.3851 17.8235 15.4415 17.9139 15.5093C18.1171 15.656 18.2526 15.8593 18.3316 16.0851C18.3994 16.2657 18.4333 16.4464 18.4333 16.6045C18.4333 16.6158 18.4445 16.6158 18.4445 16.6045C18.5687 16.1415 18.4897 15.7915 18.3316 15.5431C18.2187 15.3625 18.0607 15.227 17.9139 15.1366C17.8123 15.0689 17.6993 15.0237 17.609 15.0012C17.5526 14.9899 17.5074 14.9786 17.4622 14.9673C17.4509 14.9673 17.4622 14.956 17.4622 14.956C17.5074 14.956 17.5639 14.9447 17.609 14.9447C17.7219 14.9447 17.8235 14.956 17.9139 14.9673C18.0945 15.0012 18.23 15.0689 18.3316 15.1366C18.501 15.2496 18.5913 15.3851 18.6139 15.4415H18.6252C18.6026 15.1931 18.4897 15.0012 18.3316 14.8657C18.2074 14.764 18.0607 14.685 17.9139 14.6398C17.8123 14.6173 17.7106 14.5947 17.609 14.5947C17.4735 14.5947 17.338 14.6173 17.2251 14.6624C17.2251 14.6624 17.2138 14.6624 17.2138 14.6511C17.3155 14.5044 17.4509 14.4253 17.5977 14.3802C17.6993 14.3463 17.801 14.335 17.9026 14.3463C17.9929 14.3576 18.0832 14.3689 18.151 14.4027C18.151 14.4027 18.1623 14.4027 18.1623 14.3914C18.0832 14.3011 18.0042 14.2334 17.9026 14.1882C17.801 14.1318 17.6993 14.0979 17.5977 14.0866C17.3267 14.0527 17.0558 14.1656 16.8638 14.4479H16.8525C16.8186 14.3802 16.7848 14.3124 16.7509 14.2447C16.6719 14.0753 16.6154 13.8834 16.5815 13.6914C16.5477 13.8834 16.4912 14.0753 16.4122 14.2447C16.3783 14.3124 16.3444 14.3914 16.3106 14.4479H16.2993C16.1186 14.1656 15.8363 14.0527 15.5653 14.0866C15.4637 14.0979 15.3621 14.1318 15.2605 14.1882C15.1702 14.2447 15.0798 14.3124 15.0008 14.3914C15.0008 14.3914 15.0008 14.4027 15.0121 14.4027C15.0798 14.3689 15.1702 14.3463 15.2605 14.3463C15.3621 14.3463 15.4637 14.3463 15.5653 14.3802C15.7121 14.4253 15.8476 14.5156 15.9492 14.6511C15.9492 14.6511 15.9492 14.6624 15.938 14.6624C15.825 14.6173 15.6896 14.5947 15.5541 14.5947C15.4524 14.5947 15.3508 14.606 15.2492 14.6398C15.0911 14.685 14.9443 14.7528 14.8314 14.8657C14.6734 15.0012 14.5605 15.1931 14.5379 15.4415C14.5379 15.4528 14.5492 15.4528 14.5492 15.4415C14.583 15.3851 14.6621 15.2496 14.8314 15.1366C14.9331 15.0689 15.0798 15.0012 15.2492 14.9673C15.3395 14.956 15.4411 14.9447 15.5541 14.9447C15.5992 14.9447 15.6444 14.9447 15.7008 14.956C15.7121 14.956 15.7121 14.9673 15.7008 14.9673C15.6557 14.9673 15.6105 14.9786 15.5541 15.0012C15.4637 15.0237 15.3508 15.0689 15.2492 15.1366C15.0911 15.227 14.9443 15.3625 14.8314 15.5431C14.6734 15.8028 14.5943 16.1528 14.7185 16.6045C14.7185 16.6158 14.7298 16.6045 14.7298 16.6045C14.7298 16.4464 14.7637 16.2545 14.8314 16.0851C14.9105 15.8706 15.046 15.6673 15.2492 15.5093C15.3395 15.4415 15.4411 15.3851 15.5541 15.3512C15.5879 15.3399 15.6331 15.3286 15.667 15.3173C15.667 15.3173 15.6783 15.3173 15.667 15.3286C15.6218 15.3625 15.5879 15.4076 15.5428 15.4415C15.4073 15.577 15.317 15.7125 15.2379 15.8593C14.9669 16.3787 15.0573 16.9206 15.2379 17.2706H15.2492C15.2492 17.2481 15.2492 17.2142 15.2379 17.1916C15.2266 17.09 15.2266 16.9658 15.2379 16.8303C15.2605 16.5819 15.3395 16.2883 15.5428 16.0286C15.6105 15.9383 15.6896 15.8593 15.7799 15.7802C15.7799 15.7802 15.7912 15.7802 15.7912 15.7915C15.6557 16.0173 15.3282 16.8867 15.9944 17.6771H16.0057C15.8928 17.4061 15.746 16.469 16.2767 16.1303H16.288C16.3444 16.819 16.4686 18.2304 16.2202 19.7434C15.9944 19.574 15.7686 19.4159 15.5428 19.2804C15.4412 19.224 15.3395 19.1675 15.2379 19.1111C15.1137 19.0546 15.0008 18.9982 14.8766 18.953C14.854 18.9417 14.8314 18.9417 14.8089 18.9304C14.5717 18.8514 14.3459 18.7949 14.1314 18.761C13.5217 18.6707 13.0136 18.7498 12.6297 18.8627C12.5958 18.874 12.5732 18.8965 12.5732 18.9304C12.5732 18.9756 12.6071 19.0094 12.6523 18.9982C13.1717 18.9304 13.6685 18.9756 14.1201 19.1111C14.3572 19.1788 14.5717 19.2691 14.7976 19.3708C14.9443 19.4385 15.0798 19.5175 15.2153 19.5966C15.3169 19.653 15.4186 19.7208 15.5202 19.7885C15.7573 19.9466 15.9831 20.1273 16.1976 20.2966C15.9605 20.5111 15.7234 20.7144 15.5202 20.9063C15.4186 21.0079 15.3169 21.0983 15.2153 21.1773C15.0573 21.3128 14.9105 21.437 14.7976 21.516C14.7411 21.5499 14.6959 21.5838 14.6508 21.6064C14.5717 21.5048 14.4363 21.437 14.2895 21.4709C14.2217 21.4822 14.1653 21.516 14.1201 21.5612C14.0749 21.6064 14.0411 21.6628 14.0185 21.7306C13.9959 21.8435 14.0411 21.9903 14.0862 22.0354C14.0975 22.0467 14.1088 22.058 14.1201 22.058C14.3121 22.2274 14.5379 22.2048 14.7976 22.0693C14.9331 22.0016 15.0685 21.8999 15.2153 21.7757C15.3169 21.6967 15.4186 21.6064 15.5202 21.516C15.7799 21.2789 16.0509 21.0079 16.3557 20.7257C16.4122 20.6805 16.4686 20.6241 16.5251 20.5789C16.5815 20.6241 16.638 20.6805 16.6944 20.7257C16.9993 21.0079 17.2816 21.2789 17.53 21.5048C17.6316 21.5951 17.7332 21.6854 17.8348 21.7644C17.9816 21.8886 18.1284 21.9903 18.2526 22.058C18.5123 22.1935 18.7381 22.2161 18.9188 22.0467C18.9301 22.0354 18.9413 22.0241 18.9526 22.0241C18.9978 21.979 19.043 21.8322 19.0204 21.7193C19.0091 21.6515 18.9639 21.5951 18.9188 21.5499C18.8736 21.5048 18.8171 21.4709 18.7494 21.4596C18.6026 21.4257 18.4671 21.4935 18.3881 21.5951C18.3429 21.5725 18.2978 21.5386 18.2413 21.5048C18.1171 21.4257 17.9816 21.3015 17.8235 21.166C17.7332 21.087 17.6316 20.9967 17.5187 20.895C17.3155 20.7031 17.0783 20.4999 16.8412 20.2853C17.0558 20.1047 17.2816 19.9353 17.5187 19.7659C17.6203 19.6982 17.7219 19.6305 17.8235 19.574C17.959 19.495 18.1058 19.4159 18.2413 19.3482C18.4558 19.2466 18.6817 19.1562 18.9075 19.0885C19.3591 18.953 19.8559 18.9078 20.3753 18.9756C20.4205 18.9869 20.4543 18.953 20.4543 18.9078C20.5672 18.9078 20.556 18.874 20.5221 18.8627Z" fill="#1B8354"/>
<path d="M17.0886 5.13306C14.9659 4.62497 13.1593 3.76686 11.5673 2.99907L10.9576 2.7168L10.8785 2.77325C9.25264 3.93622 7.72837 5.22339 6.11376 6.5783L5.25564 7.30093L5.22177 7.3348C3.67491 9.7059 2.92971 12.6416 3.13294 15.5998C3.33618 18.5693 4.53302 21.4372 6.57669 23.8873C9.04941 26.8343 12.1205 28.9005 15.4514 29.8716L15.4965 29.8828L15.5417 29.8716C17.8564 29.4538 19.8661 28.8441 21.7179 28.0085C23.4793 27.2069 25.0713 26.202 26.6407 24.9148C28.6166 22.3856 29.7345 18.9758 29.6328 15.7466C29.0231 13.2513 27.4424 10.8124 25.1842 8.88166C23.2196 7.18802 20.5662 5.96859 17.0886 5.13306ZM5.61696 10.293C7.75095 8.65584 9.54621 6.79283 11.285 4.99757L11.635 4.63626C11.6802 4.70401 11.7254 4.77175 11.7705 4.8395C9.94139 6.91703 8.04451 9.05103 5.61696 10.9027C5.61696 10.6995 5.61696 10.4963 5.61696 10.293ZM25.9746 21.2904C23.9648 22.9728 18.6241 25.6374 15.632 26.8794C13.6561 24.9939 11.2173 22.6453 9.48975 19.8903C7.97676 17.4628 6.6783 14.5384 5.65083 11.1963C8.11226 9.34459 10.0204 7.19931 11.8609 5.11048C13.2496 7.87677 15.2933 10.2479 17.8112 11.9754C20.3968 13.7594 23.3889 14.8094 26.4827 15.0127C26.7875 16.2208 26.844 18.8967 25.9746 21.2904ZM9.28652 20.0258C11.0366 22.8373 13.5206 25.2084 15.5191 27.1166L15.5756 27.173L15.6546 27.1391C18.6693 25.9084 24.1454 23.1647 26.1665 21.4598L26.1891 21.4372L26.2004 21.4033C27.0359 19.1 27.0924 16.4127 26.7311 14.9788C26.8778 15.0578 27.0246 15.1369 27.1714 15.2046C27.4537 16.966 27.2504 19.7774 26.1439 22.1372C24.5406 23.2776 23.005 24.2148 21.3001 25.0842C19.7194 25.8858 17.9128 26.6649 15.474 27.6021C13.0351 25.8068 10.8334 23.4922 8.91392 20.7146C7.75095 19.0322 6.90412 17.3047 6.38474 15.5659C6.0573 14.4594 5.83149 13.3303 5.71858 12.1786C6.70089 15.1707 7.89773 17.8015 9.28652 20.0258ZM17.9467 11.7721C15.8353 10.3156 14.0513 8.38486 12.719 6.16054C14.1416 7.98968 15.7788 9.40104 17.5967 10.3608C18.4774 10.8237 19.4032 11.2641 20.3065 11.6931C21.1082 12.077 21.9324 12.4609 22.7115 12.8674C23.6486 13.3529 24.5519 13.8384 25.41 14.29C25.7036 14.4481 25.9971 14.5949 26.2794 14.753C23.3099 14.5046 20.4307 13.4884 17.9467 11.7721ZM11.0818 4.79433C9.34297 6.5896 7.53642 8.4526 5.41372 10.0785C5.45888 9.84139 5.51533 9.60428 5.57179 9.37846C7.24285 8.05742 8.74455 6.64605 10.2011 5.26855C10.6076 4.88466 11.014 4.50077 11.4205 4.12817C11.4657 4.18462 11.5108 4.22978 11.5673 4.28624L11.0818 4.79433ZM5.32339 10.564C5.34597 12.2915 5.59437 13.9965 6.09118 15.6562C6.62185 17.4289 7.47997 19.1903 8.65423 20.8952C10.6076 23.7293 12.8658 26.0891 15.3498 27.9069L15.4175 27.9521L15.4965 27.9295C17.9806 26.9811 19.8097 26.1907 21.4243 25.3778C23.1518 24.4971 24.71 23.5486 26.3359 22.3856L26.381 22.3292C27.544 19.8678 27.7472 16.9321 27.4424 15.1143L27.4311 15.0465L27.3633 15.0127C26.7875 14.7191 26.1891 14.3917 25.5455 14.0529C24.6874 13.6013 23.7841 13.1158 22.847 12.6303C22.0566 12.2238 21.2324 11.8286 20.4307 11.456C19.5387 11.0269 18.6129 10.5866 17.7322 10.135C15.6659 9.03973 13.8368 7.35738 12.2899 5.12177C13.9158 6.82671 15.5982 8.02355 17.3934 8.75746L17.8902 8.9607C19.7984 9.73977 21.763 10.5527 23.4454 11.6479C25.1955 12.7883 26.7536 14.132 27.8601 15.4304C28.0408 17.2934 27.7247 20.3871 26.2004 23.0179C24.6196 24.2035 23.0841 25.1406 21.3678 25.9875C19.6968 26.8004 17.8225 27.5343 15.474 28.2795C12.8093 26.7891 10.3027 24.5309 8.21388 21.7308C6.77992 19.8113 5.82019 17.6999 5.40242 15.5998C5.08628 13.8948 5.0637 12.1899 5.32339 10.564ZM11.3302 3.78944C10.8785 4.2072 10.4382 4.62497 9.98656 5.04273C8.53002 6.42023 7.01703 7.84289 5.33468 9.16393L5.28951 9.19781L5.27823 9.24297C4.74755 11.2641 4.67981 13.4771 5.09757 15.6224C5.51534 17.7564 6.49765 19.9242 7.95419 21.8776C10.0882 24.7342 12.6512 27.0375 15.3723 28.5392L15.4288 28.5731L15.4965 28.5505C17.9015 27.794 19.8097 27.0488 21.5033 26.2246C23.2421 25.3665 24.8003 24.4067 26.4149 23.2099L26.4601 23.1647C28.0408 20.4323 28.3682 17.2257 28.165 15.3062V15.2611L28.1311 15.2272C27.0133 13.8948 25.41 12.5174 23.626 11.3544C21.9211 10.2479 19.9339 9.43492 18.0144 8.64455L17.5176 8.44131C15.5078 7.61707 13.6448 6.19441 11.827 4.10559C13.3061 5.24597 15.0675 6.40894 17.2015 7.09769C19.5048 7.8316 22.1356 8.80262 24.2019 10.3721C26.1891 11.8851 27.7359 13.7368 28.5715 15.5885C28.7296 18.3548 27.8601 21.505 26.2907 23.8309C24.7551 25.0277 23.1744 26.01 21.4695 26.823C19.742 27.6359 17.7886 28.3134 15.4965 28.8892C12.5496 27.6698 9.79461 25.5245 7.53642 22.6905C5.82019 20.5339 4.75884 18.0838 4.45399 15.5885C4.14913 13.0932 4.52173 10.6318 5.53792 8.48648C6.62185 7.60578 7.66062 6.70251 8.6768 5.82181C9.54621 5.06532 10.3704 4.35399 11.2173 3.64266C11.2737 3.68782 11.3302 3.73298 11.3753 3.76686L11.3302 3.78944ZM29.2715 15.7804C29.3618 18.8967 28.2666 22.2276 26.3697 24.6664C24.8568 25.9084 23.276 26.902 21.5485 27.6924C19.7419 28.5166 17.766 29.1151 15.4965 29.5215C12.2447 28.5731 9.25264 26.5407 6.83638 23.6615C4.83788 21.2791 3.67491 18.479 3.47167 15.5772C3.26844 12.698 3.97976 9.85268 5.48146 7.54933L6.32828 6.84929C7.90902 5.52824 9.39942 4.26366 10.9914 3.12327L11.1834 3.2136L11.0931 3.28134C10.2011 4.01526 9.3091 4.79433 8.4397 5.55083C7.42351 6.43152 6.38474 7.34609 5.28951 8.22679L5.24435 8.28324C4.1943 10.4963 3.79911 13.0367 4.11526 15.6111C4.43141 18.1628 5.51533 20.6807 7.26543 22.8825C9.56879 25.7842 12.3915 27.9747 15.4062 29.2054L15.4514 29.228L15.5078 29.2167C17.8451 28.6408 19.8323 27.9521 21.5937 27.1166C23.3325 26.2923 24.9358 25.2987 26.4939 24.068L26.5278 24.0341C28.1537 21.6517 29.057 18.3886 28.8763 15.5433L28.865 15.4869C28.0069 13.5787 26.4149 11.6705 24.3825 10.1124C22.2824 8.50906 19.6178 7.53804 17.2918 6.79283C14.853 6.01376 12.8996 4.5798 11.2963 3.29263L11.2624 3.25876L11.4092 3.32651C13.0125 4.09429 14.8417 4.9637 16.9982 5.48308C20.4307 6.30732 23.0276 7.50416 24.9358 9.14135C27.1488 11.0157 28.6957 13.3868 29.2715 15.7804Z" fill="#1B8354"/>
<path d="M16.8755 3.47247C15.6899 3.26924 14.5834 3.03213 13.5221 2.79502C12.551 2.58049 11.6365 2.37725 10.8009 2.24176L10.7332 2.23047L10.6767 2.26434C8.99438 3.29182 7.31202 4.55641 5.2232 6.36296L5.20061 6.38554C3.13437 8.9373 2.06173 12.2004 2.16335 15.5877C2.26497 18.9411 3.5973 22.2493 5.90065 24.8801C8.49757 27.8384 11.9074 29.8369 15.498 30.5143H15.5206H15.5431C17.8013 30.2659 19.9127 29.7127 21.8096 28.8771C23.5936 28.0868 25.1856 27.0819 26.7212 25.7608C28.8439 23.3333 30.1649 20.0928 30.3456 16.8523C30.3795 16.2538 30.3456 15.6667 30.2327 15.1135C29.702 12.3585 28.189 9.69379 25.9534 7.60497C23.7065 5.52743 20.5676 4.09348 16.8755 3.47247ZM29.9617 16.8297C29.781 19.9911 28.4939 23.1526 26.4502 25.5011C24.9711 26.777 23.4016 27.7706 21.6515 28.5384C19.7998 29.3514 17.7336 29.8933 15.5318 30.1417C12.0204 29.4756 8.70081 27.5222 6.17164 24.6317C3.91345 22.0574 2.62627 18.8395 2.52465 15.5764C2.42304 12.2907 3.4731 9.11795 5.4716 6.63394C7.51526 4.87255 9.16374 3.63055 10.8009 2.62565C11.6139 2.76114 12.5059 2.95309 13.443 3.16762C14.5157 3.40473 15.6222 3.65313 16.819 3.85637C20.4434 4.46608 23.5146 5.86616 25.705 7.89853C27.8842 9.9309 29.3633 12.5165 29.8714 15.2038C29.9617 15.7119 29.9956 16.2651 29.9617 16.8297Z" fill="#1B8354"/>
<path d="M16.65 1.73418C14.8435 1.55353 12.5062 1.39546 10.4739 1.64386L10.4061 1.66644C8.58827 2.58101 6.8043 3.82301 5.08807 5.35858L5.07678 5.36987C2.49115 8.11358 1.06849 11.7267 1.05719 15.5543C1.0459 19.3707 2.49115 23.0515 5.11065 25.9194C7.76403 28.8325 11.2755 30.6842 15.058 31.1923C15.3741 31.2375 15.6903 31.2375 16.0064 31.2262C18.084 31.0907 20.0712 30.6278 21.9229 29.8374C23.7182 29.0696 25.3666 28.0195 26.8458 26.6872C29.5443 23.8983 31.1137 20.082 31.1702 16.1979C31.046 12.5283 29.4878 9.01685 26.778 6.30702C24.215 3.74398 20.6244 2.11808 16.65 1.73418ZM26.5748 26.4049C25.1408 27.6921 23.5262 28.7309 21.7761 29.4761C19.8341 30.3003 17.7339 30.7632 15.5548 30.8536C11.7159 30.4584 8.11405 28.618 5.41551 25.6597C2.86375 22.8596 1.45238 19.269 1.46367 15.5656C1.47496 11.8396 2.85246 8.32811 5.37034 5.65215C7.04141 4.15045 8.7915 2.93103 10.5642 2.03904C12.5627 1.79064 14.8435 1.96 16.6274 2.12937C20.5002 2.50197 24.0117 4.0827 26.5183 6.57801C29.1604 9.22009 30.6734 12.6413 30.7976 16.1979C30.7298 19.9691 29.1943 23.6951 26.5748 26.4049Z" fill="#1B8354"/>
<path d="M27.6235 5.00879C24.6878 1.90377 20.7134 0.131093 16.4454 0.00689229C12.1661 -0.117308 8.11268 1.44084 5.00767 4.37649C1.90265 7.31214 0.129972 11.2866 0.0057714 15.5545C-0.107138 19.8225 1.43973 23.8873 4.37538 26.9923C7.31103 30.0973 11.2854 31.87 15.5534 31.9942C15.7002 31.9942 15.8583 32.0055 16.0051 32.0055C20.115 32.0055 23.9991 30.4586 26.9912 27.6246C30.0962 24.6889 31.8689 20.7145 31.9931 16.4465C32.1173 12.1673 30.5704 8.1138 27.6235 5.00879ZM31.5866 16.4352C31.4737 20.6016 29.7462 24.4631 26.7202 27.331C23.6942 30.1876 19.7424 31.7006 15.576 31.5877C11.4096 31.4748 7.54814 29.7473 4.68023 26.7213C1.82362 23.6953 0.310629 19.7435 0.423538 15.5771C0.536448 11.4108 2.26396 7.54925 5.28994 4.68135C8.20301 1.92636 11.9968 0.413366 15.9938 0.413366C16.1406 0.413366 16.2873 0.413367 16.4341 0.424657C20.6005 0.537567 24.462 2.26508 27.3299 5.29106C30.1865 8.31704 31.6995 12.2689 31.5866 16.4352Z" fill="#1B8354"/>
</svg>
