<svg width="34" height="14" viewBox="0 0 34 14" fill="none" xmlns="http://www.w3.org/2000/svg">
<path d="M4.8845 13.4245C6.01742 13.4245 6.69169 12.1531 6.69169 11.019C6.69169 10.1753 6.26439 9.59455 5.64893 9.13542C4.65321 8.3859 3.093 7.91108 1.88167 7.15763C0.827151 6.48267 0 5.58011 0 4.07715C0 1.88353 1.50142 0.015625 3.7359 0.015625C2.69314 0.015625 1.96007 0.980973 1.96007 2.18962C1.96007 3.44536 2.70882 4.08892 3.70454 4.59514C4.83746 5.17592 6.27615 5.5448 7.36203 6.32571C8.20487 6.95358 8.83209 7.84436 8.83209 9.3277C8.83209 11.3408 7.18171 13.3775 4.8845 13.4245Z" fill="#087647"/>
<path d="M9.46094 13.4245C10.2724 13.4245 11.174 12.6436 11.174 11.7372V1.31845C11.174 0.415891 10.2724 0.015625 9.46094 0.015625H14.0553V6.31393V11.7528C14.071 12.6554 14.4395 13.4089 14.9413 13.4245H9.46094ZM15.0824 6.32963C16.7799 6.22368 17.4541 5.07389 17.4541 3.24915C17.4541 1.85607 16.8426 0.015625 15.2941 0.015625H16.1801C18.1401 0.015625 20.2217 1.30276 20.2217 3.26485C20.2217 4.88946 18.9203 5.94506 17.4502 6.32963C19.0731 6.57293 20.8646 7.84829 20.8646 9.74759C20.8646 11.8156 18.9516 13.4402 16.9131 13.4402H15.7645C17.019 13.4402 17.9402 11.7842 17.9402 9.6848C17.9441 7.52258 16.9641 6.32963 15.0824 6.32963Z" fill="#087647"/>
<path d="M8.0338 0.015625V4.59907C7.69667 3.41789 6.28934 0.0784119 4.00781 0.015625H8.0338Z" fill="#087647"/>
<path d="M0.492188 13.4252V8.8418C0.82932 10.023 2.23665 13.3625 4.51818 13.4252H0.492188Z" fill="#087647"/>
<path d="M23.4712 9.94336C22.9184 12.3332 24.2199 13.4084 25.247 13.4084H20.5898C21.8482 13.4241 22.887 11.3992 23.4712 9.94336Z" fill="#087647"/>
<path d="M27.7249 13.4246H33.5581C32.778 13.4246 32.531 12.6123 31.9508 11.541L27.1918 0L25.0945 3.37087C25.3376 3.53961 25.6159 3.75544 25.8276 4.12039L27.7093 8.79409H24.0518H23.9616L23.7773 9.20613H24.1458C27.7445 9.20613 28.8147 11.5489 28.8147 11.5489L28.9206 11.8236C28.999 11.9766 29.1205 12.2984 29.1205 12.42C29.1362 13.0557 28.505 13.4246 27.7249 13.4246Z" fill="#087647"/>
</svg>
