<svg width="25" height="24" viewBox="0 0 25 24" fill="none" xmlns="http://www.w3.org/2000/svg">
<path fill-rule="evenodd" clip-rule="evenodd" d="M18.5 2.75C16.4289 2.75 14.75 4.42893 14.75 6.5C14.75 6.78627 14.7821 7.06505 14.8428 7.33293L9.52696 9.78597C8.84465 8.85471 7.74294 8.25 6.5 8.25C4.42893 8.25 2.75 9.92893 2.75 12C2.75 14.0711 4.42893 15.75 6.5 15.75C7.7429 15.75 8.84458 15.1453 9.5269 14.2141L14.8428 16.6672C14.7821 16.935 14.75 17.2138 14.75 17.5C14.75 19.5711 16.4289 21.25 18.5 21.25C20.5711 21.25 22.25 19.5711 22.25 17.5C22.25 15.4289 20.5711 13.75 18.5 13.75C17.2504 13.75 16.1436 14.3612 15.4621 15.301L10.153 12.851C10.2165 12.5776 10.25 12.2927 10.25 12C10.25 11.7073 10.2165 11.4225 10.153 11.1491L15.4622 8.69913C16.1436 9.63884 17.2504 10.25 18.5 10.25C20.5711 10.25 22.25 8.57107 22.25 6.5C22.25 4.42893 20.5711 2.75 18.5 2.75ZM16.25 6.5C16.25 5.25736 17.2574 4.25 18.5 4.25C19.7426 4.25 20.75 5.25736 20.75 6.5C20.75 7.74264 19.7426 8.75 18.5 8.75C17.2574 8.75 16.25 7.74264 16.25 6.5ZM4.25 12C4.25 10.7574 5.25736 9.75 6.5 9.75C7.74264 9.75 8.75 10.7574 8.75 12C8.75 13.2426 7.74264 14.25 6.5 14.25C5.25736 14.25 4.25 13.2426 4.25 12ZM18.5 15.25C17.2574 15.25 16.25 16.2574 16.25 17.5C16.25 18.7426 17.2574 19.75 18.5 19.75C19.7426 19.75 20.75 18.7426 20.75 17.5C20.75 16.2574 19.7426 15.25 18.5 15.25Z" fill="#161616"/>
</svg>
