<svg width="24" height="25" viewBox="0 0 24 25" fill="none" xmlns="http://www.w3.org/2000/svg">
<path d="M2.25001 3.5C2.25001 3.08579 2.58579 2.75 3.00001 2.75H19C19.4142 2.75 19.75 3.08579 19.75 3.5C19.75 3.91421 19.4142 4.25 19 4.25H3.00001C2.58579 4.25 2.25001 3.91421 2.25001 3.5Z" fill="#161616"/>
<path d="M3.00001 8.75001C2.58579 8.75 2.25 9.08579 2.25 9.5C2.25 9.91421 2.58578 10.25 2.99999 10.25L14 10.2501C14.4142 10.2501 14.75 9.9143 14.75 9.50009C14.75 9.08588 14.4142 8.75009 14 8.75008L3.00001 8.75001Z" fill="#161616"/>
<path d="M3.00001 14.75C2.58579 14.75 2.25001 15.0858 2.25001 15.5C2.25001 15.9142 2.58579 16.25 3.00001 16.25H10C10.4142 16.25 10.75 15.9142 10.75 15.5C10.75 15.0858 10.4142 14.75 10 14.75H3.00001Z" fill="#161616"/>
<path d="M19.25 9.5C19.25 9.08579 18.9142 8.75 18.5 8.75C18.0858 8.75 17.75 9.08579 17.75 9.5V19.9619L17.7439 19.9548C17.5333 19.7062 17.327 19.4434 17.1341 19.1977L17.0893 19.1407C16.8971 18.896 16.6949 18.6388 16.5378 18.4773C16.2491 18.1802 15.7743 18.1735 15.4773 18.4622C15.1802 18.7509 15.1735 19.2257 15.4622 19.5227C15.5509 19.614 15.6965 19.7958 15.9097 20.0672L15.9568 20.1272C16.1468 20.3693 16.3698 20.6534 16.5995 20.9245C16.8457 21.215 17.1213 21.5168 17.3968 21.7515C17.5348 21.869 17.6904 21.985 17.8578 22.0746C18.0193 22.161 18.2417 22.25 18.5 22.25C18.7583 22.25 18.9807 22.161 19.1422 22.0746C19.3096 21.985 19.4652 21.869 19.6032 21.7515C19.8787 21.5168 20.1543 21.215 20.4005 20.9245C20.6302 20.6534 20.8531 20.3694 21.0432 20.1273L21.0903 20.0672C21.3035 19.7958 21.4491 19.614 21.5378 19.5227C21.8265 19.2257 21.8198 18.7509 21.5227 18.4622C21.2257 18.1735 20.7509 18.1802 20.4622 18.4773C20.3051 18.6388 20.1029 18.896 19.9107 19.1407L19.866 19.1976C19.6731 19.4433 19.4668 19.7061 19.2561 19.9548L19.25 19.9619V9.5Z" fill="#161616"/>
</svg>
