<svg width="44" height="24" viewBox="0 0 44 24" fill="none" xmlns="http://www.w3.org/2000/svg">
<path d="M33.8417 3.55375C33.7707 3.39222 33.6973 3.2356 33.619 3.07652C33.5749 2.98597 33.4819 2.92969 33.384 2.92969H2.49915C2.39881 2.92969 2.30582 2.98842 2.26177 3.07897L2.03906 3.55375H33.8417Z" fill="#067647"/>
<path d="M2.23855 15.0347C2.35847 15.2818 2.48817 15.5266 2.62277 15.7664C2.66927 15.8496 2.75738 15.901 2.85282 15.901H33.1797C33.3437 15.6196 33.4978 15.3308 33.6398 15.0371C33.723 14.8658 33.5933 14.6651 33.4024 14.6651H2.47594C2.28505 14.6602 2.15534 14.8609 2.23855 15.0347Z" fill="#067647"/>
<path d="M1.19767 12.0467C1.23927 12.2376 1.28822 12.4284 1.33716 12.6193C1.36898 12.7344 1.47421 12.8127 1.59168 12.8127H34.4809C34.5519 12.5581 34.6204 12.3036 34.6791 12.0442C34.7158 11.8827 34.5886 11.7285 34.4221 11.7285H1.45708C1.29066 11.7285 1.16096 11.8827 1.19767 12.0467Z" fill="#067647"/>
<path d="M34.7446 8.79492H1.14077C0.996376 8.79492 0.878906 8.91239 0.878906 9.05678C0.878906 9.18404 0.878906 9.33577 0.881354 9.46793C0.883801 9.60987 0.998824 9.72489 1.14321 9.72489H34.9869C34.9967 9.50219 35.0089 9.27704 35.0064 9.05189C35.0064 8.90995 34.8865 8.79492 34.7446 8.79492Z" fill="#067647"/>
<path d="M34.7828 6.63809C34.7486 6.44476 34.7094 6.25387 34.6678 6.06543C34.6409 5.94551 34.5332 5.8623 34.4108 5.8623H1.46535C1.34298 5.8623 1.2353 5.94551 1.20838 6.06543C1.1888 6.15108 1.16923 6.23919 1.15209 6.32729C1.11783 6.48881 1.24509 6.64054 1.40906 6.64054L34.7828 6.63809Z" fill="#067647"/>
<path d="M31.9527 0.467432C31.8499 0.340173 31.7422 0.212914 31.6346 0.0905496C31.5832 0.0318147 31.5097 0 31.4339 0H4.32763C4.19058 0.151732 4.05353 0.305911 3.92383 0.467432H31.9527Z" fill="#067647"/>
<path d="M31.6642 18.0303C31.8135 17.859 31.6936 17.5947 31.4685 17.5947H4.41117C4.18601 17.5947 4.0661 17.859 4.21293 18.0303C4.47724 18.3363 4.75623 18.6324 5.04502 18.9138C5.09396 18.9628 5.16004 18.9872 5.22856 18.9872H30.7416C31.0647 18.6813 31.373 18.3632 31.6642 18.0303Z" fill="#067647"/>
<path d="M41.1248 0.934723C41.0318 0.809911 40.9413 0.687547 40.8458 0.565182C40.7969 0.501553 40.7186 0.464844 40.6403 0.464844H35.6429H12.7362C12.6138 0.619023 12.4964 0.778096 12.3789 0.934723H36.0026H41.1248Z" fill="#067647"/>
<path d="M42.7647 3.81312C42.75 3.77886 42.7378 3.74705 42.7231 3.71278C42.6815 3.61489 42.5861 3.55371 42.4808 3.55371H39.9919H37.5324H10.8471C10.8104 3.63937 10.7737 3.72502 10.737 3.81312C10.666 3.98688 10.7908 4.17532 10.9792 4.17532H37.7845H42.5224C42.7109 4.17532 42.8357 3.98688 42.7647 3.81312Z" fill="#067647"/>
<path d="M43.6748 7.12078C43.6626 7.03267 43.6479 6.94702 43.6332 6.86136C43.6112 6.7341 43.5011 6.64355 43.3738 6.64355H39.9917H38.4719H9.90706C9.87769 6.80263 9.85321 6.9617 9.82874 7.12322C9.80672 7.27985 9.92908 7.42179 10.0882 7.42179H38.5918H43.4154C43.5721 7.4169 43.6969 7.2774 43.6748 7.12078Z" fill="#067647"/>
<path d="M39.9909 9.72852H38.6742H9.70312C9.71291 9.96101 9.73004 10.1935 9.75207 10.4235C9.76431 10.5581 9.87933 10.6585 10.0139 10.6585H38.6032H43.488C43.6226 10.6585 43.7377 10.5557 43.7499 10.4235C43.7621 10.2865 43.7744 10.147 43.7842 10.0075C43.794 9.85577 43.6716 9.72852 43.5223 9.72852H39.9909Z" fill="#067647"/>
<path d="M36.8681 15.8994H11.5117C11.7369 16.2885 11.9767 16.6654 12.2386 17.0276C12.2875 17.0961 12.3683 17.1377 12.4539 17.1377H36.063H41.0506C41.1362 17.1377 41.217 17.0961 41.2659 17.0276C41.4373 16.7902 41.5988 16.5455 41.753 16.2959C41.8606 16.1221 41.7309 15.8994 41.5278 15.8994H39.9909H36.8681Z" fill="#067647"/>
<path d="M13.9434 18.9844C14.4769 19.491 15.0471 19.9608 15.6589 20.3769H37.7702C37.8241 20.3769 37.8779 20.3598 37.9244 20.3304C38.3184 20.0563 38.6953 19.7626 39.0575 19.4494C39.2411 19.2903 39.1309 18.9868 38.8862 18.9868H13.9434V18.9844Z" fill="#067647"/>
<path d="M38.1728 12.8145H10.2051C10.2932 13.1228 10.3886 13.4263 10.4963 13.7248C10.533 13.8301 10.6334 13.8986 10.7459 13.8986H37.8179H42.7565C42.8667 13.8986 42.9695 13.8301 43.0062 13.7248C43.0747 13.5364 43.1383 13.3455 43.1971 13.1522C43.2485 12.9833 43.1212 12.8145 42.945 12.8145H39.9936H38.1728Z" fill="#067647"/>
<path d="M15.6504 20.3779C17.8285 21.8414 21.3893 23.9999 23.6286 23.9999V20.3779C23.6286 20.3779 21.2718 20.3779 15.6504 20.3779Z" fill="#067647"/>
</svg>
