<svg width="28" height="28" viewBox="0 0 28 28" fill="none" xmlns="http://www.w3.org/2000/svg">
<path fill-rule="evenodd" clip-rule="evenodd" d="M12.7507 4.4085C12.7506 4.40878 12.7509 4.40821 12.7507 4.4085L10.6998 8.54422C10.4821 8.99044 10.1179 9.37264 9.74288 9.653C9.36707 9.93395 8.89937 10.1732 8.41736 10.2557L8.41426 10.2562L4.69344 10.8795C3.65876 11.0534 3.31879 11.4641 3.23909 11.7158C3.15833 11.9707 3.20209 12.5094 3.94483 13.2583L6.83785 16.1752C7.21321 16.5537 7.46399 17.0594 7.60222 17.5463C7.74062 18.0338 7.79216 18.5937 7.67733 19.1102L7.67606 19.1159L6.8478 22.7268C6.5387 24.0736 6.85088 24.5702 7.01216 24.6889C7.16902 24.8043 7.72587 24.956 8.90529 24.2503L12.3998 22.1646C12.8856 21.8796 13.4676 21.762 14.0018 21.762C14.535 21.762 15.1173 21.8793 15.6007 22.168C15.6006 22.1679 15.6008 22.168 15.6007 22.168L19.0879 24.2494C19.0878 24.2493 19.0881 24.2495 19.0879 24.2494C20.2771 24.9575 20.8333 24.8063 20.9873 24.6931C21.145 24.5772 21.4571 24.0835 21.1468 22.7261L20.3174 19.1102C20.2026 18.5937 20.2542 18.0338 20.3926 17.5463C20.5308 17.0594 20.7816 16.5537 21.1569 16.1752L24.05 13.2583L24.0521 13.2562C24.7997 12.5075 24.8412 11.9703 24.7606 11.7173C24.6801 11.465 24.3369 11.0536 23.3013 10.8795L19.5805 10.2562C19.0936 10.1744 18.6222 9.93608 18.2433 9.65422C17.8657 9.3733 17.5012 8.9907 17.2833 8.54422L15.2308 4.40523C14.7382 3.40662 14.2385 3.20825 13.9959 3.20825C13.7518 3.20825 13.249 3.40932 12.7507 4.4085ZM16.8 3.63049C16.1844 2.38287 15.2201 1.45825 13.9959 1.45825C12.7732 1.45825 11.8059 2.38117 11.1845 3.62776L11.1837 3.62939L9.13061 7.76953L9.12746 7.77594C9.06501 7.9045 8.91686 8.08555 8.69504 8.25138C8.47364 8.4169 8.25952 8.50696 8.12321 8.5306C8.12282 8.53067 8.12242 8.53074 8.12203 8.53081L4.40387 9.15366C3.05882 9.37969 1.93435 10.0394 1.57076 11.1874C1.20823 12.3321 1.74191 13.5223 2.70231 14.4907L5.59533 17.4076C5.7099 17.5231 5.83826 17.7407 5.91875 18.0243C5.9987 18.3059 6.0058 18.5624 5.96954 18.7281C5.96938 18.7289 5.96921 18.7297 5.96904 18.7304L5.14212 22.3354C5.14211 22.3355 5.14213 22.3354 5.14212 22.3354C4.79799 23.835 4.91739 25.3203 5.97511 26.0985C7.03729 26.8799 8.48688 26.54 9.80385 25.752L13.2853 23.674C13.286 23.6736 13.2867 23.6732 13.2875 23.6727C13.4435 23.582 13.7003 23.512 14.0018 23.512C14.3054 23.512 14.557 23.5829 14.7035 23.6704L18.1918 25.7525C19.5103 26.5378 20.9617 26.8838 22.0237 26.1031C23.0822 25.3251 23.1959 23.837 22.8528 22.3362L22.0257 18.7304C22.0256 18.7297 22.0254 18.7289 22.0252 18.7281C21.989 18.5624 21.9961 18.3059 22.076 18.0243C22.1565 17.7407 22.2849 17.5231 22.3995 17.4076L25.2904 14.4928C25.2907 14.4925 25.291 14.4921 25.2913 14.4918C26.2579 13.5235 26.7934 12.3322 26.4279 11.1858C26.0621 10.0385 24.9355 9.37961 23.5914 9.15373L19.8701 8.53036C19.7271 8.50633 19.5098 8.41525 19.2879 8.25016C19.0658 8.0849 18.918 7.90423 18.8557 7.77594L16.8 3.63049C16.8 3.63066 16.7999 3.63031 16.8 3.63049Z" fill="#067647"/>
</svg>
