<svg width="65" height="65" viewBox="0 0 65 65" fill="none" xmlns="http://www.w3.org/2000/svg">
<g clip-path="url(#clip0_21788_19532)">
<path d="M30.2252 13.5043C28.2416 13.5043 26.6166 15.1181 26.6166 17.1129C26.6166 19.1078 28.2304 20.7216 30.2252 20.7216C32.2201 20.7216 33.8339 19.1078 33.8339 17.1129C33.8339 15.1181 32.2089 13.5043 30.2252 13.5043ZM30.2252 18.4802C29.4744 18.4802 28.858 17.8638 28.858 17.1129C28.858 16.3621 29.4744 15.7457 30.2252 15.7457C30.9761 15.7457 31.5925 16.3621 31.5925 17.1129C31.5925 17.8638 30.9761 18.4802 30.2252 18.4802ZM48.3468 42.4405V37.5095C48.3468 36.8931 47.8425 36.3888 47.2261 36.3888H45.5451V24.2853H47.2261C47.8425 24.2853 48.3468 23.781 48.3468 23.1647V18.7716C48.3468 18.3569 48.1226 17.9759 47.7528 17.7853L30.752 8.6181C30.4158 8.43879 30.0235 8.43879 29.6873 8.6181L12.6752 17.7741C12.3166 17.9647 12.0813 18.3457 12.0813 18.7603V23.1535C12.0813 23.7698 12.5856 24.2741 13.202 24.2741H14.883V36.3888H13.202C12.5856 36.3888 12.0813 36.8931 12.0813 37.5095V42.4405C12.0813 43.0569 12.5856 43.5612 13.202 43.5612H47.2149C47.8425 43.5612 48.3468 43.0681 48.3468 42.4405ZM43.3037 36.4H40.6813V24.2853H43.3037V36.4ZM26.6726 24.2853V36.4H21.9994V24.2853H26.6726ZM28.914 24.2853H31.5364V36.4H28.914V24.2853ZM33.7778 24.2853H38.4399V36.4H33.7778V24.2853ZM14.3339 19.4328L30.2252 10.8819L46.1054 19.4328V22.044H14.3339V19.4328ZM17.1356 24.2853H19.758V36.4H17.1356V24.2853ZM46.1054 41.3198H14.3339V38.6302H46.1054V41.3198ZM64.8209 60.3379L61.683 50.6216C66.0761 41.8578 64.8882 31.4466 58.6459 23.8931C57.6149 18.0767 54.8356 12.731 50.5657 8.47241C45.0744 3.01466 37.8011 0 30.0571 0H30.0011C22.2459 0.0112069 14.9614 3.04828 9.48127 8.55086C0.57179 17.4828 -1.54631 30.931 4.12437 42.1491L0.179548 54.4431C-0.235107 55.7431 0.1011 57.1552 1.0761 58.1302C1.77093 58.825 2.68989 59.1948 3.63127 59.1948C4.01231 59.1948 4.39334 59.1388 4.76317 59.0155L17.0459 55.0259C18.6821 55.844 20.3632 56.4828 22.0666 56.9759C22.0778 57.0095 22.089 57.0431 22.1114 57.0655C29.6873 64.6302 41.0847 66.4681 50.6218 61.7052L60.3382 64.8431C60.6968 64.9552 61.0666 65.0112 61.4364 65.0112C62.3666 65.0112 63.2632 64.6414 63.9468 63.969C64.8994 63.0052 65.2356 61.6155 64.8209 60.3379ZM16.7882 52.7397L4.05713 56.875C3.55282 57.0431 3.0261 56.9086 2.64506 56.5388C2.26403 56.169 2.14075 55.631 2.30886 55.1267L6.39937 42.3845C6.48903 42.0931 6.46662 41.7905 6.32093 41.5216C0.840755 31.0991 2.74593 18.4802 11.0614 10.1198C16.127 5.05431 22.8511 2.25259 30.0123 2.24138H30.0683C37.2071 2.24138 43.9313 5.02069 48.9856 10.0638C54.0623 15.1181 56.864 21.8422 56.8752 29.0035C56.8864 36.1647 54.1071 42.9 49.0528 47.9767C40.7261 56.3259 28.1183 58.2759 17.6623 52.8181C17.3821 52.6724 17.0683 52.65 16.7882 52.7397ZM62.3666 62.3664C62.008 62.725 61.5037 62.8483 61.033 62.6914L50.8795 59.4078C50.5882 59.3181 50.2856 59.3405 50.0166 59.4862C42.3847 63.4759 33.3744 62.7586 26.5606 57.8836C35.2571 58.9595 44.1554 56.0681 50.6442 49.5569C54.9701 45.2198 54.9701 45.2198 50.6442 49.5569C56.1244 44.0543 59.1278 36.7586 59.1166 29.0035C59.1166 28.8241 59.1054 28.6448 59.1054 28.4655C62.8821 35.0328 63.1175 43.1129 59.4976 50.0164C59.3632 50.2854 59.3295 50.5991 59.4192 50.8793L62.7028 61.0328C62.8485 61.5147 62.7252 62.0078 62.3666 62.3664Z" fill="#14573A"/>
</g>
<defs>
<clipPath id="clip0_21788_19532">
<rect width="64.9888" height="65" fill="white"/>
</clipPath>
</defs>
</svg>
