<svg width="65" height="65" viewBox="0 0 65 65" fill="none" xmlns="http://www.w3.org/2000/svg">
<path d="M58.774 13.4214C58.6582 13.2663 58.491 13.1758 58.298 13.1628C58.1051 13.1499 57.925 13.2145 57.7964 13.3438L51.2488 19.9253C51.0301 20.1451 51.0044 20.4684 51.1587 20.727C53.4227 24.2957 54.619 28.4204 54.619 32.6615C54.619 37.6009 52.9725 42.2428 50.1682 45.9925H49.1906C49.2163 45.8762 49.2292 45.7598 49.2292 45.6305V45.3848C49.2292 45.0098 49.1005 44.6607 48.8819 44.3763C49.1005 44.0918 49.2292 43.7427 49.2292 43.3677V43.122C49.2292 42.7471 49.1005 42.398 48.8819 42.1135C49.1005 41.829 49.2292 41.4799 49.2292 41.1049V40.8593C49.2292 40.4843 49.1005 40.1352 48.8819 39.8507C49.1005 39.5662 49.2292 39.2171 49.2292 38.8422V38.5965C49.2292 38.2215 49.1005 37.8724 48.8819 37.5879C49.1005 37.3035 49.2292 36.9543 49.2292 36.5794V36.3337C49.2292 35.4286 48.4959 34.6786 47.5826 34.6786H40.5719C39.6715 34.6786 38.9254 35.4157 38.9254 36.3337V36.5794C38.9254 36.9543 39.054 37.3035 39.2727 37.5879C39.054 37.8724 38.9254 38.2215 38.9254 38.5965V38.8422C38.9254 39.2171 39.054 39.5662 39.2727 39.8507C39.054 40.1352 38.9254 40.4843 38.9254 40.8593V41.1049C38.9254 41.4799 39.054 41.829 39.2727 42.1135C39.054 42.398 38.9254 42.7471 38.9254 43.122V43.3677C38.9254 43.7427 39.054 44.0918 39.2727 44.3763C39.054 44.6607 38.9254 45.0098 38.9254 45.3848V45.6305C38.9254 45.7598 38.9383 45.8762 38.964 45.9925H37.8706C37.8963 45.8762 37.9092 45.7598 37.9092 45.6305V45.3848C37.9092 45.0098 37.7805 44.6607 37.5618 44.3763C37.7805 44.0918 37.9092 43.7427 37.9092 43.3677V43.122C37.9092 42.7471 37.7805 42.398 37.5618 42.1135C37.7805 41.829 37.9092 41.4799 37.9092 41.1049V40.8593C37.9092 39.9541 37.1759 39.2042 36.2626 39.2042H33.4069V33.5279C33.5227 33.1787 34.0758 31.6659 35.375 30.1143C37.0988 31.6142 38.8096 32.3771 40.469 32.3771C40.945 32.3771 41.4209 32.3124 41.8969 32.196C47.6212 30.6961 50.5284 20.4684 50.6442 20.0287C50.6956 19.8348 50.657 19.6408 50.5413 19.4728C50.4255 19.3176 50.2454 19.2141 50.0524 19.2012C43.5048 18.9038 38.8868 20.1968 36.3527 23.0415C33.9214 25.7697 34.3588 28.873 34.3845 29.0023C34.3974 29.0669 34.4102 29.1316 34.4488 29.1962C34.0372 29.6747 33.7027 30.1531 33.4197 30.5927V26.6361V13.4473C33.4197 13.0852 33.1367 12.8008 32.7766 12.8008C32.4164 12.8008 32.1334 13.0852 32.1334 13.4473V23.7268C31.8632 23.3389 31.5545 22.9251 31.1686 22.5243C31.1557 21.4899 30.8985 18.6194 28.5187 16.6152C25.9202 14.43 21.7524 14.0421 16.1053 15.4515C15.9252 15.5032 15.7708 15.6196 15.6936 15.7877C15.6036 15.9557 15.6036 16.1497 15.6679 16.3178C15.8094 16.6669 19.1025 24.8 24.3766 25.8861C24.7625 25.9637 25.1613 26.0025 25.5472 26.0025C27.2323 26.0025 28.9046 25.2396 30.5383 23.7397C31.7089 25.1362 32.0691 26.4163 32.1334 26.7007V39.1913H29.2905C28.3901 39.1913 27.644 39.9283 27.644 40.8463V41.092C27.644 41.467 27.7726 41.8161 27.9913 42.1006C27.7726 42.385 27.644 42.7341 27.644 43.1091V43.3548C27.644 43.7298 27.7726 44.0789 27.9913 44.3633C27.7726 44.6478 27.644 44.9969 27.644 45.3719V45.6176C27.644 45.7469 27.6568 45.8632 27.6826 45.9796H26.5892C26.6149 45.8632 26.6277 45.7469 26.6277 45.6176V45.3719C26.6277 44.9969 26.4991 44.6478 26.2804 44.3633C26.4991 44.0789 26.6277 43.7298 26.6277 43.3548V43.1091C26.6277 42.204 25.8945 41.4541 24.9812 41.4541H17.9705C17.0701 41.4541 16.324 42.1911 16.324 43.1091V43.3548C16.324 43.7298 16.4526 44.0789 16.6713 44.3633C16.4526 44.6478 16.324 44.9969 16.324 45.3719V45.6176C16.324 45.7469 16.3368 45.8632 16.3626 45.9796H14.8189C12.0404 42.2428 10.381 37.6009 10.381 32.6745C10.381 28.3946 11.5901 24.244 13.8799 20.6623C14.0471 20.4037 14.0085 20.0675 13.7898 19.8607L7.26796 13.2792C7.13932 13.1499 6.94637 13.0723 6.76628 13.0852C6.57332 13.0982 6.4061 13.2016 6.29032 13.3438C2.17396 18.9814 0 25.6663 0 32.6745C0 40.5101 2.80427 48.0872 7.88541 54.0093C12.9151 59.8666 19.8615 63.7586 27.4253 64.9482C27.4639 64.9482 27.4896 64.9611 27.5282 64.9611C27.6826 64.9611 27.8241 64.9094 27.9398 64.806C28.0813 64.6766 28.1714 64.5086 28.1714 64.3146V55.0049C28.1714 54.7075 27.9656 54.4359 27.6697 54.3713C23.0002 53.324 18.9224 50.7767 15.8995 47.2985H17.9962H25.0069H29.2905H36.3012H40.5977H47.6084H49.1391C46.0647 50.8284 41.8969 53.4015 37.0988 54.423C36.8029 54.4877 36.5842 54.7463 36.5842 55.0566V64.3534C36.5842 64.5473 36.6614 64.7154 36.8029 64.8447C36.9187 64.9482 37.073 64.9999 37.2274 64.9999C37.2531 64.9999 37.2917 64.9999 37.3174 64.987C44.9456 63.8491 51.9434 59.983 57.0374 54.0998C62.17 48.1648 65 40.5489 65 32.6745C65.0129 25.6922 62.8518 19.0461 58.774 13.4214ZM37.3432 23.9078C39.4785 21.5157 43.5692 20.3391 49.1906 20.4684C48.4059 22.8475 45.7688 29.8428 41.601 30.9418C39.9288 31.3814 38.1536 30.7867 36.2883 29.1833C37.2531 28.2653 38.5138 27.4248 40.1346 26.8817C40.469 26.7654 40.6491 26.4033 40.5462 26.0671C40.4304 25.731 40.0703 25.5499 39.7358 25.6534C38.0507 26.2223 36.7257 27.0628 35.6709 27.9808C35.7095 27.0369 36.0053 25.4077 37.3432 23.9078ZM24.6467 24.6319C20.8648 23.8561 18.0734 18.4771 17.173 16.5376C22.0097 15.4385 25.5343 15.8006 27.6954 17.5979C28.9947 18.684 29.5349 20.1322 29.7536 21.2313C29.2005 20.8046 28.5573 20.4037 27.8241 20.0287C27.5025 19.8736 27.1166 20.0029 26.9622 20.3132C26.8078 20.6235 26.9365 21.0244 27.2452 21.1795C28.2228 21.6709 29.0204 22.2398 29.6507 22.8217C27.9784 24.3604 26.2933 24.9681 24.6467 24.6319ZM26.885 55.5221V59.0003C26.8593 59.0003 26.8336 58.9874 26.795 58.9874C26.4477 58.9098 26.1003 59.1425 26.036 59.4916C25.9717 59.8408 26.1904 60.1899 26.5377 60.2545L26.885 60.3321V63.5647C12.0146 60.8493 1.28636 47.9838 1.28636 32.6874C1.28636 26.2094 3.21591 20.0287 6.89491 14.7532L9.10746 16.9772C8.96596 17.197 8.82446 17.4169 8.68296 17.6237C8.49001 17.9211 8.58005 18.322 8.87591 18.5159C8.97882 18.5806 9.10746 18.6194 9.22323 18.6194C9.44191 18.6194 9.64773 18.5159 9.76351 18.322C9.85355 18.1797 9.9436 18.0504 10.0336 17.9082L12.5292 20.4167C10.2909 24.0888 9.0946 28.3299 9.0946 32.6745C9.0946 38.0534 10.947 43.316 14.3172 47.4795C17.5203 51.462 21.9711 54.2937 26.885 55.5221ZM40.2375 43.3806V43.135C40.2375 42.941 40.4047 42.7729 40.5977 42.7729H47.6084C47.8013 42.7729 47.9685 42.941 47.9685 43.135V43.3806C47.9685 43.5746 47.8013 43.7427 47.6084 43.7427H40.5977C40.4047 43.7427 40.2375 43.5746 40.2375 43.3806ZM40.2375 41.1179V40.8722C40.2375 40.6782 40.4047 40.5101 40.5977 40.5101H47.6084C47.8013 40.5101 47.9685 40.6782 47.9685 40.8722V41.1179C47.9685 41.3118 47.8013 41.4799 47.6084 41.4799H40.5977C40.4047 41.4799 40.2375 41.3118 40.2375 41.1179ZM40.2375 38.8551V38.6094C40.2375 38.4155 40.4047 38.2474 40.5977 38.2474H47.6084C47.8013 38.2474 47.9685 38.4155 47.9685 38.6094V38.8551C47.9685 39.049 47.8013 39.2171 47.6084 39.2171H40.5977C40.4047 39.2171 40.2375 39.049 40.2375 38.8551ZM40.2375 36.3466C40.2375 36.1527 40.4047 35.9846 40.5977 35.9846H47.6084C47.8013 35.9846 47.9685 36.1527 47.9685 36.3466V36.5923C47.9685 36.7863 47.8013 36.9543 47.6084 36.9543H40.5977C40.4047 36.9543 40.2375 36.7863 40.2375 36.5923V36.3466ZM28.9303 43.3806V43.135C28.9303 42.941 29.0976 42.7729 29.2905 42.7729H36.3012C36.4942 42.7729 36.6614 42.941 36.6614 43.135V43.3806C36.6614 43.5746 36.4942 43.7427 36.3012 43.7427H29.2905C29.0976 43.7427 28.9303 43.5746 28.9303 43.3806ZM28.9303 40.8722C28.9303 40.6782 29.0976 40.5101 29.2905 40.5101H36.3012C36.4942 40.5101 36.6614 40.6782 36.6614 40.8722V41.1179C36.6614 41.3118 36.4942 41.4799 36.3012 41.4799H29.2905C29.0976 41.4799 28.9303 41.3118 28.9303 41.1179V40.8722ZM17.6361 43.135C17.6361 42.941 17.8033 42.7729 17.9962 42.7729H25.0069C25.1999 42.7729 25.3671 42.941 25.3671 43.135V43.3806C25.3671 43.5746 25.1999 43.7427 25.0069 43.7427H17.9962C17.8033 43.7427 17.6361 43.5746 17.6361 43.3806V43.135ZM17.9962 46.0055C17.8033 46.0055 17.6361 45.8374 17.6361 45.6434V45.3978C17.6361 45.2038 17.8033 45.0357 17.9962 45.0357H25.0069C25.1999 45.0357 25.3671 45.2038 25.3671 45.3978V45.6434C25.3671 45.8374 25.1999 46.0055 25.0069 46.0055H17.9962ZM29.2905 46.0055C29.0976 46.0055 28.9303 45.8374 28.9303 45.6434V45.3978C28.9303 45.2038 29.0976 45.0357 29.2905 45.0357H36.3012C36.4942 45.0357 36.6614 45.2038 36.6614 45.3978V45.6434C36.6614 45.8374 36.4942 46.0055 36.3012 46.0055H29.2905ZM40.5977 46.0055C40.4047 46.0055 40.2375 45.8374 40.2375 45.6434V45.3978C40.2375 45.2038 40.4047 45.0357 40.5977 45.0357H47.6084C47.8013 45.0357 47.9685 45.2038 47.9685 45.3978V45.6434C47.9685 45.8374 47.8013 46.0055 47.6084 46.0055H40.5977ZM37.8706 63.5905V55.5738C42.8359 54.3972 47.3511 51.5784 50.6056 47.583C54.0273 43.3936 55.9183 38.1051 55.9183 32.6745C55.9183 28.3558 54.7477 24.1535 52.5351 20.4813L58.1823 14.805C61.8227 20.0675 63.7394 26.2223 63.7394 32.6745C63.7265 47.8545 52.6638 61.0174 37.8706 63.5905Z" fill="#14573A"/>
<path d="M19.7587 13.8741C19.9774 14.0939 20.3118 14.1198 20.5562 13.9646C21.6754 13.2405 22.846 12.6328 24.068 12.1285C24.1966 12.1156 24.3124 12.0768 24.4153 11.9863C26.9752 10.9648 29.7151 10.4347 32.5065 10.4347C36.7901 10.4347 40.9451 11.663 44.5212 14.0034C44.6241 14.068 44.7527 14.1068 44.8685 14.1068C45.0357 14.1068 45.203 14.0422 45.3187 13.9129L51.8535 7.34434C51.9821 7.21504 52.0593 7.02109 52.0464 6.84006C52.0336 6.65904 51.9435 6.47802 51.7892 6.37458C46.1806 2.19813 39.5044 0 32.5065 0C28.6732 0 24.9427 0.659439 21.4309 1.93953C21.2509 1.91367 21.0579 1.97832 20.9164 2.10762C20.9035 2.12055 20.9035 2.13348 20.8907 2.13348C18.215 3.16789 15.6552 4.56435 13.3011 6.30993C13.1468 6.4263 13.0567 6.59439 13.0439 6.78834C13.031 6.9823 13.0953 7.16332 13.2239 7.29262L19.7587 13.8741ZM21.238 3.38771L27.2968 9.73642C26.2291 9.9821 25.1871 10.2924 24.158 10.6933L18.4337 4.65486C19.3599 4.17645 20.2861 3.76268 21.238 3.38771ZM25.3672 2.10762L32.0177 9.15457C30.9372 9.18043 29.8695 9.27094 28.8018 9.43903L22.5501 2.90929C23.4891 2.59897 24.4153 2.34036 25.3672 2.10762ZM29.8438 1.40939L37.8064 9.76228C36.5071 9.45196 35.1693 9.27094 33.8186 9.19336L26.8465 1.81022C27.837 1.6292 28.8404 1.48697 29.8438 1.40939ZM40.0189 2.21106L47.6856 9.72349L46.142 11.2751L36.6229 1.56455C37.7678 1.70678 38.8998 1.9266 40.0189 2.21106ZM48.599 8.80545L42.6688 2.98687C45.4088 3.93077 48.0201 5.26258 50.4256 6.96937L48.599 8.80545ZM34.6162 1.3706L45.2287 12.1932L44.7785 12.6457C43.3506 11.7665 41.8456 11.0424 40.2891 10.4864L31.5418 1.31888C31.8634 1.30595 32.185 1.30595 32.5065 1.30595C33.214 1.29302 33.9215 1.31888 34.6162 1.3706ZM17.2631 5.27551L22.8974 11.2234C22.0098 11.6242 21.1479 12.0768 20.3118 12.594L14.6647 6.91764C15.5137 6.32286 16.3755 5.77979 17.2631 5.27551Z" fill="#14573A"/>
<path d="M19.141 57.5264C19.5269 57.7333 19.9257 57.9402 20.3116 58.1212C20.4016 58.16 20.4917 58.1858 20.5946 58.1858C20.839 58.1858 21.0706 58.0436 21.1735 57.8238C21.3278 57.5005 21.1863 57.1126 20.8647 56.9575C20.4917 56.7764 20.1186 56.5825 19.7456 56.3885C19.4369 56.2204 19.0381 56.3368 18.8709 56.6471C18.7036 56.9704 18.8323 57.3583 19.141 57.5264Z" fill="#14573A"/>
<path d="M11.1915 49.0958C10.9728 48.8113 10.574 48.7596 10.291 48.9794C10.008 49.1992 9.95656 49.6001 10.1752 49.8845C10.4454 50.2336 10.7155 50.5828 10.9985 50.9189C11.1272 51.0741 11.3072 51.1517 11.4873 51.1517C11.6288 51.1517 11.7832 51.1 11.899 50.9965C12.1691 50.7638 12.2077 50.3629 11.9762 50.0914C11.706 49.7552 11.4487 49.419 11.1915 49.0958Z" fill="#14573A"/>
<path d="M22.743 59.1556C23.1546 59.3107 23.5663 59.453 23.9908 59.5823C24.0551 59.6081 24.1194 59.6081 24.1837 59.6081C24.4538 59.6081 24.7111 59.4271 24.8012 59.1556C24.9041 58.8194 24.724 58.4573 24.3767 58.341C23.9779 58.2117 23.5791 58.0824 23.1932 57.9401C22.8588 57.8108 22.4857 57.9918 22.3699 58.328C22.2284 58.6513 22.4085 59.0263 22.743 59.1556Z" fill="#14573A"/>
<path d="M15.8093 55.4057C16.1566 55.6643 16.5297 55.9229 16.8899 56.1686C17.0056 56.2462 17.1214 56.272 17.25 56.272C17.4559 56.272 17.6617 56.1686 17.7903 55.9876C17.9833 55.6902 17.9061 55.2894 17.6102 55.0954C17.2629 54.8627 16.9156 54.617 16.5811 54.3713C16.2981 54.1644 15.8865 54.2161 15.6807 54.5135C15.462 54.798 15.5134 55.1988 15.8093 55.4057Z" fill="#14573A"/>
<path d="M6.67635 40.1352C6.56058 39.7343 6.45767 39.3206 6.35476 38.9197C6.27758 38.5706 5.93026 38.3508 5.58294 38.4413C5.23562 38.5189 5.0298 38.868 5.10699 39.2171C5.2099 39.6438 5.32567 40.0705 5.44144 40.4972C5.51862 40.7817 5.7759 40.9627 6.0589 40.9627C6.12321 40.9627 6.17467 40.9498 6.23899 40.9368C6.57344 40.8334 6.7664 40.4843 6.67635 40.1352Z" fill="#14573A"/>
<path d="M12.7865 51.9275C12.5421 52.1861 12.5421 52.587 12.7993 52.8456C13.1081 53.1559 13.4425 53.4533 13.7641 53.7507C13.8927 53.8541 14.0342 53.9188 14.1886 53.9188C14.3687 53.9188 14.5488 53.8412 14.6646 53.699C14.8961 53.4274 14.8704 53.0266 14.6131 52.7809C14.3044 52.5094 13.9956 52.212 13.6998 51.9146C13.4425 51.6689 13.0309 51.6689 12.7865 51.9275Z" fill="#14573A"/>
<path d="M4.97814 33.3082C4.99101 33.3082 4.99101 33.3082 4.97814 33.3082C5.33833 33.3082 5.62133 33.0237 5.62133 32.6616C5.62133 32.2479 5.63419 31.8212 5.64705 31.3945C5.65992 31.0324 5.38978 30.7351 5.0296 30.7221C4.68228 30.7092 4.37355 30.9807 4.36069 31.3428C4.33496 31.7824 4.33496 32.222 4.33496 32.6616C4.34782 33.0108 4.63082 33.3082 4.97814 33.3082Z" fill="#14573A"/>
<path d="M5.33835 37.1614C5.68567 37.1097 5.93008 36.7865 5.89149 36.4373C5.84003 36.0236 5.78858 35.5969 5.74999 35.1831C5.7114 34.8211 5.40267 34.5625 5.05535 34.6013C4.69517 34.6401 4.4379 34.9504 4.47649 35.2995C4.51508 35.7391 4.56653 36.1787 4.63085 36.6184C4.66944 36.9416 4.95244 37.1744 5.26117 37.1744C5.27403 37.1744 5.31262 37.1744 5.33835 37.1614Z" fill="#14573A"/>
<path d="M5.1713 29.4291H5.26135C5.58294 29.4291 5.85307 29.1964 5.89166 28.8731C5.95598 28.4594 6.0203 28.0327 6.09748 27.6318C6.1618 27.2827 5.93025 26.9465 5.58294 26.8819C5.23562 26.8172 4.90116 27.05 4.83684 27.3991C4.75966 27.8258 4.68248 28.2654 4.61816 28.705C4.56671 29.0541 4.81112 29.3903 5.1713 29.4291Z" fill="#14573A"/>
<path d="M7.12649 21.9554C7.21653 21.9942 7.30658 22.0071 7.39663 22.0071C7.64103 22.0071 7.87258 21.8649 7.98835 21.6322C8.15558 21.2443 8.34854 20.8693 8.52863 20.4943C8.69585 20.171 8.56722 19.7831 8.24563 19.628C7.92403 19.4599 7.53813 19.5892 7.38376 19.9124C7.19081 20.3004 6.99785 20.7012 6.81776 21.102C6.6634 21.4253 6.8049 21.8132 7.12649 21.9554Z" fill="#14573A"/>
<path d="M7.9627 43.691C7.79548 43.3031 7.62825 42.9152 7.47388 42.5273C7.34525 42.1911 6.9722 42.0359 6.63775 42.1652C6.30329 42.2946 6.14893 42.6695 6.27757 43.0057C6.43193 43.4195 6.61202 43.8203 6.79211 44.2211C6.89502 44.4668 7.13943 44.6091 7.38384 44.6091C7.47388 44.6091 7.56393 44.5961 7.64111 44.5573C7.9627 44.4022 8.11707 44.0143 7.9627 43.691Z" fill="#14573A"/>
<path d="M9.10749 45.941C8.9274 45.6307 8.54149 45.5272 8.23276 45.6953C7.92404 45.8763 7.82113 46.2642 7.98835 46.5746C8.20704 46.9625 8.43858 47.3374 8.67013 47.7124C8.79876 47.9064 9.00458 48.0098 9.2104 48.0098C9.32617 48.0098 9.44195 47.984 9.55772 47.9064C9.85358 47.7124 9.94363 47.3116 9.76354 47.0142C9.53199 46.6651 9.31331 46.303 9.10749 45.941Z" fill="#14573A"/>
<path d="M5.87879 25.6275C5.94311 25.6405 5.99456 25.6534 6.05888 25.6534C6.34188 25.6534 6.59915 25.4724 6.67633 25.1879C6.79211 24.7871 6.92074 24.3862 7.04938 23.9854C7.16515 23.6492 6.98506 23.2742 6.65061 23.1708C6.31615 23.0544 5.94311 23.2355 5.8402 23.5716C5.6987 23.9854 5.57006 24.4121 5.44142 24.8388C5.33851 25.175 5.54433 25.5241 5.87879 25.6275Z" fill="#14573A"/>
</svg>
