<svg width="29" height="28" viewBox="0 0 29 28" fill="none" xmlns="http://www.w3.org/2000/svg">
<path fill-rule="evenodd" clip-rule="evenodd" d="M12.6667 2.625C11.308 2.625 10.2681 2.99735 9.67792 3.96878C9.16712 4.80957 9.125 5.93561 9.125 7C9.125 8.06439 9.16712 9.19043 9.67792 10.0312C10.2681 11.0026 11.308 11.375 12.6667 11.375H13.7917V14.2917L11.106 14.2917C10.0578 14.2916 9.18369 14.2916 8.48978 14.3849C7.75735 14.4834 7.09609 14.7 6.5647 15.2314C6.03332 15.7627 5.81671 16.424 5.71823 17.1564C5.65013 17.663 5.63175 18.2656 5.62681 18.9619C5.1904 18.9681 4.80037 18.9849 4.46319 19.0302C3.88961 19.1073 3.33981 19.2812 2.89385 19.7272C2.4479 20.1731 2.27399 20.7229 2.19688 21.2965C2.12492 21.8317 2.12496 22.5 2.125 23.2757L2.12501 23.3435C2.12501 23.7812 2.12501 24.1777 2.13551 24.5264C2.15006 25.0094 2.55343 25.3892 3.03646 25.3746C3.51949 25.3601 3.89927 24.9567 3.88472 24.4737C3.87509 24.1542 3.87501 23.7831 3.87501 23.3333C3.87501 22.4836 3.87686 21.9344 3.93127 21.5297C3.9823 21.1502 4.06468 21.0312 4.13129 20.9646C4.1979 20.898 4.31685 20.8156 4.69637 20.7646C5.10107 20.7102 5.65031 20.7083 6.50001 20.7083C7.3497 20.7083 7.89895 20.7102 8.30364 20.7646C8.68316 20.8156 8.80212 20.898 8.86873 20.9646C8.93533 21.0312 9.01771 21.1502 9.06874 21.5297C9.12315 21.9344 9.12501 22.4836 9.12501 23.3333C9.12501 23.7831 9.12492 24.1542 9.1153 24.4737C9.10074 24.9567 9.48052 25.3601 9.96355 25.3746C10.4466 25.3892 10.85 25.0094 10.8645 24.5264C10.875 24.1777 10.875 23.7812 10.875 23.3436L10.875 23.2757C10.8751 22.5001 10.8751 21.8317 10.8031 21.2965C10.726 20.7229 10.5521 20.1731 10.1062 19.7272C9.66021 19.2812 9.1104 19.1073 8.53682 19.0302C8.20065 18.985 7.81194 18.9682 7.37709 18.962C7.382 18.2958 7.39834 17.7934 7.45263 17.3896C7.52501 16.8513 7.6501 16.6208 7.80214 16.4688C7.95418 16.3168 8.18459 16.1917 8.72296 16.1193C9.28651 16.0435 10.042 16.0417 11.1667 16.0417H18.1667C19.2914 16.0417 20.0468 16.0435 20.6104 16.1193C21.1488 16.1917 21.3792 16.3168 21.5312 16.4688C21.6832 16.6208 21.8083 16.8513 21.8807 17.3896C21.935 17.7934 21.9513 18.2958 21.9563 18.962C21.5214 18.9682 21.1327 18.985 20.7965 19.0302C20.2229 19.1073 19.6731 19.2812 19.2272 19.7272C18.7812 20.1731 18.6073 20.7229 18.5302 21.2965C18.4583 21.8317 18.4583 22.5001 18.4583 23.2757L18.4583 23.3435C18.4583 23.7812 18.4583 24.1777 18.4688 24.5264C18.4834 25.0094 18.8868 25.3892 19.3698 25.3746C19.8528 25.3601 20.2326 24.9567 20.2181 24.4737C20.2084 24.1542 20.2083 23.7831 20.2083 23.3333C20.2083 22.4836 20.2102 21.9344 20.2646 21.5297C20.3156 21.1502 20.398 21.0312 20.4646 20.9646C20.5312 20.898 20.6502 20.8156 21.0297 20.7646C21.4344 20.7102 21.9836 20.7083 22.8333 20.7083C23.683 20.7083 24.2323 20.7102 24.637 20.7646C25.0165 20.8156 25.1355 20.898 25.2021 20.9646C25.2687 21.0312 25.351 21.1502 25.4021 21.5297C25.4565 21.9344 25.4583 22.4836 25.4583 23.3333C25.4583 23.7831 25.4583 24.1542 25.4486 24.4737C25.4341 24.9567 25.8139 25.3601 26.2969 25.3746C26.7799 25.3892 27.1833 25.0094 27.1978 24.5264C27.2083 24.1777 27.2083 23.7812 27.2083 23.3436L27.2083 23.2757C27.2084 22.5001 27.2084 21.8317 27.1365 21.2965C27.0594 20.7229 26.8855 20.1731 26.4395 19.7272C25.9935 19.2812 25.4437 19.1073 24.8702 19.0302C24.533 18.9849 24.143 18.9681 23.7065 18.9619C23.7016 18.2656 23.6832 17.663 23.6151 17.1564C23.5166 16.424 23.3 15.7627 22.7686 15.2314C22.2373 14.7 21.576 14.4834 20.8436 14.3849C20.1497 14.2916 19.2756 14.2916 18.2273 14.2917L15.5417 14.2917V11.375H16.6667C18.0253 11.375 19.0652 11.0026 19.6554 10.0312C20.1662 9.19043 20.2083 8.06439 20.2083 7C20.2083 5.93561 20.1662 4.80957 19.6554 3.96878C19.0652 2.99735 18.0253 2.625 16.6667 2.625H12.6667ZM16.6667 9.625C17.7283 9.625 18.0217 9.34989 18.1598 9.12259C18.3773 8.76465 18.4583 8.14069 18.4583 7C18.4583 5.85931 18.3773 5.23535 18.1598 4.87741C18.0217 4.65011 17.7283 4.375 16.6667 4.375H12.6667C11.6051 4.375 11.3116 4.65011 11.1735 4.87741C10.9561 5.23535 10.875 5.85931 10.875 7C10.875 8.14069 10.9561 8.76465 11.1735 9.12259C11.3116 9.34989 11.6051 9.625 12.6667 9.625H16.6667Z" fill="#1B8354"/>
</svg>
