<svg width="148" height="132" viewBox="0 0 148 132" fill="none" xmlns="http://www.w3.org/2000/svg">
<path d="M73.5239 0C46.4037 0 24.3379 22.0658 24.3379 49.1861C24.3379 57.8619 26.6272 66.3936 30.9608 73.8555C35.1646 81.0926 41.1878 87.185 48.3788 91.4696C50.645 92.8218 51.8935 95.016 51.8935 97.6542V109.084C51.8935 113.112 54.6297 116.508 58.3377 117.523V120.187C58.3377 126.701 63.6371 132 70.1505 132H76.8916C83.405 132 88.7045 126.701 88.7045 120.187V117.523C92.4124 116.508 95.1486 113.109 95.1486 109.084V97.6542C95.1486 95.016 96.3971 92.8189 98.6634 91.4696C105.854 87.185 111.878 81.0926 116.081 73.8555C120.415 66.3936 122.704 57.8648 122.704 49.1861C122.71 22.0658 100.644 0 73.5239 0ZM76.8945 127.39H70.1534C66.1831 127.39 62.9538 124.16 62.9538 120.19V117.837H84.097V120.19C84.0941 124.157 80.8648 127.39 76.8945 127.39ZM86.4007 113.221H60.6443C58.3636 113.221 56.5068 111.364 56.5068 109.084V104.188H90.5383V109.084C90.5383 111.367 88.6843 113.221 86.4007 113.221ZM96.3048 87.505C92.6402 89.6877 90.5383 93.3869 90.5383 97.6542V99.5774H56.5068V97.6542C56.5068 93.3898 54.4048 89.6906 50.7402 87.505C37.2983 79.4981 28.9511 64.8135 28.9511 49.1861C28.9511 24.6089 48.9468 4.61327 73.5239 4.61327C98.1011 4.61327 118.097 24.6089 118.097 49.1861C118.097 64.8164 109.747 79.4981 96.3048 87.505ZM125.19 18.9865C124.552 17.8822 124.93 16.4722 126.034 15.835L133.886 11.3025C134.99 10.6653 136.4 11.043 137.037 12.1473C137.674 13.2516 137.297 14.6615 136.192 15.2987L128.341 19.8313C127.978 20.0418 127.58 20.1398 127.191 20.1398C126.392 20.1398 125.616 19.7275 125.19 18.9865ZM147.048 48.866C147.048 50.1404 146.016 51.1727 144.741 51.1727H135.673C134.399 51.1727 133.367 50.1404 133.367 48.866C133.367 47.5916 134.399 46.5594 135.673 46.5594H144.741C146.016 46.5594 147.048 47.5916 147.048 48.866ZM137.36 85.6713C136.933 86.4123 136.158 86.8246 135.359 86.8246C134.967 86.8246 134.572 86.7237 134.209 86.5161L126.357 81.9835C125.253 81.3463 124.875 79.9364 125.513 78.8321C126.15 77.7278 127.56 77.3501 128.664 77.9873L136.515 82.5198C137.617 83.157 137.994 84.567 137.36 85.6713ZM9.69075 12.7038C10.328 11.5995 11.7379 11.2218 12.8422 11.859L20.6934 16.3915C21.7977 17.0287 22.1754 18.4387 21.5382 19.543C21.1115 20.284 20.3359 20.6963 19.5372 20.6963C19.1451 20.6963 18.75 20.5954 18.3868 20.3878L10.5327 15.8552C9.43125 15.218 9.05354 13.8081 9.69075 12.7038ZM11.3717 51.8156H2.30663C1.03222 51.8156 0 50.7834 0 49.509C0 48.2346 1.03222 47.2024 2.30663 47.2024H11.3717C12.6461 47.2024 13.6783 48.2346 13.6783 49.509C13.6783 50.7834 12.6461 51.8156 11.3717 51.8156ZM21.8582 79.3886C22.4954 80.4929 22.1177 81.9028 21.0134 82.54L13.1622 87.0725C12.7989 87.283 12.401 87.3811 12.0118 87.3811C11.2131 87.3811 10.4404 86.9687 10.0108 86.2277C9.37358 85.1234 9.75129 83.7135 10.8556 83.0763L18.7068 78.5438C19.8111 77.9066 21.221 78.2843 21.8582 79.3886Z" fill="#074D31"/>
<path d="M108.276 38.0653C108.27 33.6712 106.598 29.2857 103.683 26.0305C101.033 23.0693 97.6224 21.2557 93.9376 20.8088C92.0981 15.3594 86.937 11.5679 81.0522 11.5679C78.3534 11.5679 75.7411 12.3665 73.5239 13.8428C71.3066 12.3665 68.6944 11.5679 65.9956 11.5679C60.1108 11.5679 54.9497 15.3594 53.1102 20.8088C49.4253 21.2557 46.0144 23.0693 43.3647 26.0305C40.4496 29.2857 38.7773 33.6712 38.7773 38.0653C38.7773 42.076 40.121 45.8733 42.5977 48.9526C41.1647 51.118 40.3286 53.713 40.3286 56.4982C40.3286 61.1749 42.7275 65.4999 46.5795 68.0026C46.4008 68.807 46.3085 69.6374 46.3085 70.4764C46.3085 76.7793 51.3946 81.9144 57.6773 81.9981C59.7187 85.409 63.4035 87.5369 67.4661 87.5369C69.6257 87.5369 71.7218 86.9256 73.5268 85.7925C75.3317 86.9256 77.4279 87.5369 79.5875 87.5369C83.65 87.5369 87.3349 85.409 89.3762 81.9981C95.6589 81.9144 100.745 76.7764 100.745 70.4764C100.745 69.6374 100.653 68.807 100.474 68.0026C104.326 65.4999 106.725 61.1749 106.725 56.4982C106.725 53.713 105.889 51.118 104.456 48.9526C106.93 45.8733 108.276 42.076 108.276 38.0653ZM71.2173 81.7933C70.1101 82.5286 68.8068 82.9236 67.4632 82.9236C65.6237 82.9236 63.911 82.1912 62.6625 80.9456C64.2685 80.2046 65.6986 79.0917 66.8404 77.6616C67.6362 76.6668 67.4719 75.2137 66.4771 74.4208C65.4824 73.625 64.0292 73.7893 63.2363 74.784C61.9158 76.4391 59.9465 77.3877 57.833 77.3877C54.0213 77.3877 50.9218 74.2881 50.9218 70.4764C50.9218 68.04 52.2279 65.7565 54.3327 64.5166C55.4312 63.8708 55.7974 62.4551 55.1487 61.3594C54.5028 60.2609 53.0871 59.8947 51.9915 60.5435C50.6046 61.3594 49.4253 62.4493 48.5056 63.7209C46.2941 62.0197 44.9418 59.3613 44.9418 56.5011C44.9418 51.4842 49.0217 47.4043 54.0386 47.4043C59.0555 47.4043 63.1354 51.4842 63.1354 56.5011C63.1354 57.7755 64.1676 58.8077 65.442 58.8077C66.7164 58.8077 67.7487 57.7755 67.7487 56.5011C67.7487 48.9411 61.5986 42.791 54.0386 42.791C50.9506 42.791 48.0961 43.8175 45.801 45.5475C44.2354 43.3821 43.3906 40.7929 43.3906 38.0653C43.3906 31.1541 48.6642 25.3154 54.9094 25.3154C57.8792 25.3154 60.7134 26.61 62.8846 28.9628C63.7495 29.8998 65.2085 29.9575 66.1427 29.0925C67.0797 28.2275 67.1374 26.7686 66.2724 25.8344C63.9687 23.3404 61.1113 21.694 58.0147 21.0308C59.5284 18.1187 62.576 16.184 65.9956 16.184C67.8784 16.184 69.7007 16.7722 71.2173 17.8563V81.7933ZM101.247 45.5446C98.9516 43.8146 96.0972 42.7882 93.0092 42.7882C85.4492 42.7882 79.2991 48.9382 79.2991 56.4982C79.2991 57.7726 80.3313 58.8048 81.6058 58.8048C82.8802 58.8048 83.9124 57.7726 83.9124 56.4982C83.9124 51.4813 87.9923 47.4014 93.0092 47.4014C98.0261 47.4014 102.106 51.4813 102.106 56.4982C102.106 59.3584 100.754 62.0197 98.5422 63.718C97.6224 62.4464 96.4432 61.3566 95.0563 60.5406C93.9578 59.8947 92.545 60.2609 91.8991 61.3566C91.2533 62.4551 91.6194 63.8679 92.7151 64.5138C94.8199 65.7536 96.126 68.0371 96.126 70.4735C96.126 74.2852 93.0265 77.3848 89.2148 77.3848C87.1013 77.3848 85.132 76.4362 83.8115 74.7812C83.0157 73.7864 81.5654 73.6221 80.5707 74.4179C79.5759 75.2137 79.4116 76.664 80.2074 77.6587C81.3491 79.0888 82.7793 80.2018 84.3853 80.9428C83.1368 82.1883 81.4241 82.9207 79.5846 82.9207C78.2381 82.9207 76.9377 82.517 75.8305 81.7818V17.8563C77.3471 16.7722 79.1694 16.1811 81.0522 16.1811C84.4718 16.1811 87.5194 18.1158 89.0331 21.028C85.9365 21.6882 83.0762 23.3375 80.7754 25.8315C79.9104 26.7686 79.9681 28.2275 80.9051 29.0896C81.8422 29.9546 83.3011 29.897 84.1632 28.9599C86.3372 26.6071 89.1686 25.3125 92.1384 25.3125C98.3808 25.3125 103.657 31.1512 103.657 38.0624C103.657 40.79 102.812 43.3821 101.247 45.5446Z" fill="#1B8354"/>
</svg>
