<svg width="22" height="20" viewBox="0 0 22 20" fill="none" xmlns="http://www.w3.org/2000/svg">
<path fill-rule="evenodd" clip-rule="evenodd" d="M11.5083 6.03493C11.5083 5.66887 11.1725 5.37212 10.7583 5.37212C10.3441 5.37212 10.0083 5.66887 10.0083 6.03493V8.58649C9.13441 8.85946 8.5083 9.59601 8.5083 10.4618C8.5083 11.56 9.51566 12.4502 10.7583 12.4502C11.1044 12.4502 11.4322 12.3812 11.7251 12.2578L13.2349 13.592C13.5278 13.8509 14.0026 13.8509 14.2955 13.592C14.5884 13.3332 14.5884 12.9135 14.2955 12.6547L12.7875 11.3219C12.929 11.0616 13.0083 10.7699 13.0083 10.4618C13.0083 9.59601 12.3822 8.85946 11.5083 8.58649V6.03493ZM11.5083 10.4618C11.5083 10.6455 11.4237 10.8117 11.2872 10.9318C11.1516 11.0509 10.9647 11.1246 10.7583 11.1246C10.3441 11.1246 10.0083 10.8279 10.0083 10.4618C10.0083 10.0957 10.3441 9.79897 10.7583 9.79897C11.1725 9.79897 11.5083 10.0957 11.5083 10.4618Z" fill="white"/>
<path fill-rule="evenodd" clip-rule="evenodd" d="M10.75 0.954102C4.81294 0.954102 0 5.20755 0 10.4545C0 15.7014 4.81294 19.9548 10.75 19.9548C16.6871 19.9548 21.5 15.7014 21.5 10.4545C21.5 5.20755 16.6871 0.954102 10.75 0.954102ZM1.5 10.4545C1.5 5.93968 5.64137 2.27973 10.75 2.27973C15.8586 2.27973 20 5.93968 20 10.4545C20 14.9692 15.8586 18.6292 10.75 18.6292C5.64137 18.6292 1.5 14.9692 1.5 10.4545Z" fill="white"/>
</svg>
