<svg width="28" height="28" viewBox="0 0 28 28" fill="none" xmlns="http://www.w3.org/2000/svg">
<path fill-rule="evenodd" clip-rule="evenodd" d="M0 0V21.7776H17.4116V20.222H1.55551V1.55554H22.5549V3.20441H24.1105V0H0ZM24.1105 7.7777C24.1105 8.19025 23.9466 8.58591 23.6549 8.87763C23.3631 9.16935 22.9675 9.33324 22.5549 9.33324C22.1424 9.33324 21.7467 9.16935 21.455 8.87763C21.1633 8.58591 20.9994 8.19025 20.9994 7.7777C20.9994 7.36514 21.1633 6.96949 21.455 6.67777C21.7467 6.38605 22.1424 6.22216 22.5549 6.22216C22.9675 6.22216 23.3631 6.38605 23.6549 6.67777C23.9466 6.96949 24.1105 7.36514 24.1105 7.7777ZM25.666 7.7777C25.666 8.60281 25.3382 9.39412 24.7548 9.97756C24.1713 10.561 23.38 10.8888 22.5549 10.8888C21.7298 10.8888 20.9385 10.561 20.3551 9.97756C19.7717 9.39412 19.4439 8.60281 19.4439 7.7777C19.4439 6.95259 19.7717 6.16127 20.3551 5.57783C20.9385 4.99439 21.7298 4.66662 22.5549 4.66662C23.38 4.66662 24.1713 4.99439 24.7548 5.57783C25.3382 6.16127 25.666 6.95259 25.666 7.7777Z" fill="#067647"/>
<path fill-rule="evenodd" clip-rule="evenodd" d="M18.7396 12.3125C19.1733 11.8985 19.7499 11.6673 20.3495 11.667H23.5243C24.663 11.667 25.723 12.0543 26.5397 12.8259C27.3252 13.5679 27.7343 14.5191 27.9015 15.4205C28.1644 16.8376 27.8922 18.3861 27.2226 19.7589V26.0557C27.2226 26.5437 27.0391 27.0138 26.7087 27.3728C26.3782 27.7318 25.9248 27.9534 25.4385 27.9936C24.9523 28.0339 24.4686 27.8898 24.0836 27.59C23.6986 27.2903 23.4404 26.8567 23.3602 26.3754L22.9449 23.8834L22.5296 26.3754C22.4494 26.8567 22.1912 27.2903 21.8062 27.59C21.4212 27.8898 20.9375 28.0339 20.4513 27.9936C19.965 27.9534 19.5116 27.7318 19.1811 27.3728C18.8507 27.0138 18.6672 26.5437 18.6672 26.0557V18.7393C18.3125 18.9441 17.9102 19.0519 17.5006 19.0519H13.5325C12.9137 19.0519 12.3202 18.8061 11.8826 18.3685C11.445 17.9309 11.1992 17.3374 11.1992 16.7186C11.1992 16.0998 11.445 15.5063 11.8826 15.0687C12.3202 14.6311 12.9137 14.3853 13.5325 14.3853H16.5657L18.7396 12.3125ZM20.2227 21.3697V26.0557C20.223 26.1532 20.2598 26.2469 20.3259 26.3185C20.392 26.3901 20.4825 26.4342 20.5796 26.4422C20.6767 26.4503 20.7733 26.4215 20.8502 26.3618C20.9271 26.302 20.9788 26.2156 20.9951 26.1195L21.8063 21.2538C21.8365 21.0722 21.9301 20.9072 22.0705 20.7881C22.2109 20.669 22.389 20.6037 22.5731 20.6036H23.3167C23.5008 20.6037 23.6789 20.669 23.8193 20.7881C23.9597 20.9072 24.0533 21.0722 24.0835 21.2538L24.8947 26.1195C24.911 26.2156 24.9627 26.302 25.0396 26.3618C25.1165 26.4215 25.2131 26.4503 25.3102 26.4422C25.4073 26.4342 25.4978 26.3901 25.5639 26.3185C25.63 26.2469 25.6668 26.1532 25.667 26.0557V19.5746C25.667 19.4501 25.6969 19.3274 25.7542 19.2168C26.3546 18.0572 26.5731 16.7871 26.3725 15.7044C26.2504 15.0464 25.9649 14.4226 25.4718 13.9567C24.9686 13.4815 24.3013 13.2225 23.5243 13.2225H20.3503C20.1504 13.2225 19.9575 13.2995 19.8129 13.4372L17.4143 15.7254C17.2697 15.8635 17.0775 15.9407 16.8776 15.9408H13.5325C13.3262 15.9408 13.1284 16.0228 12.9825 16.1686C12.8367 16.3145 12.7547 16.5123 12.7547 16.7186C12.7547 16.9249 12.8367 17.1227 12.9825 17.2686C13.1284 17.4144 13.3262 17.4964 13.5325 17.4964H17.5006C17.7005 17.4962 17.8927 17.4191 18.0373 17.2809L18.9083 16.4503C19.0185 16.3452 19.1572 16.2748 19.307 16.2478C19.4568 16.2208 19.6113 16.2384 19.7513 16.2983C19.8912 16.3583 20.0105 16.458 20.0943 16.5851C20.1781 16.7122 20.2228 16.8611 20.2227 17.0134V21.3697Z" fill="#067647"/>
</svg>
