<svg width="132" height="132" viewBox="0 0 132 132" fill="none" xmlns="http://www.w3.org/2000/svg">
<path d="M49.9273 110.161H13.4056C12.3383 110.161 11.4746 109.295 11.4746 108.23C11.4746 107.162 12.3409 106.296 13.4056 106.296H49.9273C50.9947 106.296 51.8584 107.162 51.8584 108.23C51.8584 109.295 50.9947 110.161 49.9273 110.161Z" fill="#074D31"/>
<path d="M119.228 11.7125H103.133C102.065 11.7125 101.199 10.8463 101.199 9.78149C101.199 8.71415 102.065 7.8479 103.133 7.8479H119.228C120.295 7.8479 121.162 8.71415 121.162 9.78149C121.159 10.8488 120.295 11.7125 119.228 11.7125Z" fill="black"/>
<path d="M129.703 19.4776H111.484C110.416 19.4776 109.553 18.6114 109.553 17.5466C109.553 16.4793 110.419 15.613 111.484 15.613H129.703C130.771 15.613 131.634 16.4793 131.634 17.5466C131.634 18.614 130.771 19.4776 129.703 19.4776Z" fill="black"/>
<path d="M22.2131 94.6274H1.93102C0.863672 94.6274 0 93.7637 0 92.6964C0 91.6291 0.86625 90.7654 1.93102 90.7654H22.2105C23.2779 90.7654 24.1416 91.6316 24.1416 92.6964C24.1441 93.7637 23.2805 94.6274 22.2131 94.6274Z" fill="#074D31"/>
<path d="M22.2131 86.8623H1.93102C0.863672 86.8623 0 85.9986 0 84.9313C0 83.8639 0.86625 83.0002 1.93102 83.0002H22.2105C23.2779 83.0002 24.1416 83.8665 24.1416 84.9313C24.1441 85.9986 23.2805 86.8623 22.2131 86.8623Z" fill="#074D31"/>
<path d="M49.9273 102.393H13.4056C12.3383 102.393 11.4746 101.526 11.4746 100.459C11.4746 99.3917 12.3409 98.5281 13.4056 98.5281H49.9273C50.9947 98.5281 51.8584 99.3943 51.8584 100.459C51.8584 101.529 50.9947 102.393 49.9273 102.393Z" fill="#074D31"/>
<path d="M129.491 84.9132H111.48C110.412 84.9132 109.549 84.0469 109.549 82.9796C109.549 81.9123 110.412 81.0486 111.48 81.0486H129.491C130.558 81.0486 131.422 81.9148 131.422 82.9796C131.424 84.0495 130.558 84.9132 129.491 84.9132Z" fill="#074D31"/>
<path d="M129.703 92.6784H111.484C110.416 92.6784 109.553 91.8122 109.553 90.7474C109.553 89.6801 110.419 88.8164 111.484 88.8164H129.703C130.771 88.8164 131.634 89.6801 131.634 90.7474C131.634 91.8148 130.771 92.6784 129.703 92.6784Z" fill="#074D31"/>
<path d="M129.704 100.578H103.131C102.064 100.578 101.197 99.7115 101.197 98.6441C101.197 97.5768 102.064 96.7131 103.131 96.7131H129.704C130.771 96.7131 131.635 97.5794 131.635 98.6441C131.635 99.7141 130.771 100.578 129.704 100.578Z" fill="#074D31"/>
<path d="M49.9273 110.161H13.4056C12.3383 110.161 11.4746 109.295 11.4746 108.23C11.4746 107.162 12.3409 106.296 13.4056 106.296H49.9273C50.9947 106.296 51.8584 107.162 51.8584 108.23C51.8584 109.295 50.9947 110.161 49.9273 110.161Z" fill="#074D31"/>
<path d="M119.228 11.7125H103.133C102.065 11.7125 101.199 10.8463 101.199 9.78149C101.199 8.71415 102.065 7.8479 103.133 7.8479H119.228C120.295 7.8479 121.162 8.71415 121.162 9.78149C121.159 10.8488 120.295 11.7125 119.228 11.7125Z" fill="#1B8354"/>
<path d="M129.703 19.4776H111.484C110.416 19.4776 109.553 18.6114 109.553 17.5466C109.553 16.4793 110.419 15.613 111.484 15.613H129.703C130.771 15.613 131.634 16.4793 131.634 17.5466C131.634 18.614 130.771 19.4776 129.703 19.4776Z" fill="#1B8354"/>
<path d="M22.2131 94.6274H1.93102C0.863672 94.6274 0 93.7637 0 92.6964C0 91.6291 0.86625 90.7654 1.93102 90.7654H22.2105C23.2779 90.7654 24.1416 91.6316 24.1416 92.6964C24.1441 93.7637 23.2805 94.6274 22.2131 94.6274Z" fill="#074D31"/>
<path d="M22.2131 86.8623H1.93102C0.863672 86.8623 0 85.9986 0 84.9313C0 83.8639 0.86625 83.0002 1.93102 83.0002H22.2105C23.2779 83.0002 24.1416 83.8665 24.1416 84.9313C24.1441 85.9986 23.2805 86.8623 22.2131 86.8623Z" fill="#074D31"/>
<path d="M49.9273 102.393H13.4056C12.3383 102.393 11.4746 101.526 11.4746 100.459C11.4746 99.3917 12.3409 98.5281 13.4056 98.5281H49.9273C50.9947 98.5281 51.8584 99.3943 51.8584 100.459C51.8584 101.529 50.9947 102.393 49.9273 102.393Z" fill="#074D31"/>
<path d="M129.491 84.9132H111.48C110.412 84.9132 109.549 84.0469 109.549 82.9796C109.549 81.9123 110.412 81.0486 111.48 81.0486H129.491C130.558 81.0486 131.422 81.9148 131.422 82.9796C131.424 84.0495 130.558 84.9132 129.491 84.9132Z" fill="#074D31"/>
<path d="M129.703 92.6784H111.484C110.416 92.6784 109.553 91.8122 109.553 90.7474C109.553 89.6801 110.419 88.8164 111.484 88.8164H129.703C130.771 88.8164 131.634 89.6801 131.634 90.7474C131.634 91.8148 130.771 92.6784 129.703 92.6784Z" fill="#074D31"/>
<path d="M129.704 100.578H103.131C102.064 100.578 101.197 99.7115 101.197 98.6441C101.197 97.5768 102.064 96.7131 103.131 96.7131H129.704C130.771 96.7131 131.635 97.5794 131.635 98.6441C131.635 99.7141 130.771 100.578 129.704 100.578Z" fill="#074D31"/>
<path d="M65.5996 96.0352C92.0769 96.0352 113.617 74.4949 113.617 48.0176C113.617 21.5402 92.0769 0 65.5996 0C39.1223 0 17.582 21.5402 17.582 48.0176C17.582 70.8907 33.6618 90.0797 55.1092 94.8776V121.51C55.1092 127.292 59.8143 132 65.5996 132C71.3849 132 76.09 127.295 76.09 121.51V103.061C76.09 101.993 75.2237 101.13 74.1564 101.13C73.0891 101.13 72.2254 101.996 72.2254 103.061V121.51C72.2254 125.163 69.2528 128.135 65.5996 128.135C61.9464 128.135 58.9738 125.163 58.9738 121.51V95.5737C61.1395 95.8753 63.3515 96.0352 65.5996 96.0352ZM21.4466 48.0176C21.4466 23.6698 41.2544 3.86461 65.5996 3.86461C89.9448 3.86461 109.753 23.6698 109.753 48.0176C109.753 72.3628 89.9448 92.1705 65.5996 92.1705C41.2544 92.1705 21.4466 72.3628 21.4466 48.0176Z" fill="#074D31"/>
<path d="M106.703 48.0175C106.703 25.3532 88.2641 6.91187 65.5998 6.91187C42.9355 6.91187 24.4941 25.3532 24.4941 48.0175C24.4941 60.6606 30.1866 72.4143 40.1124 80.2673C40.9477 80.9298 42.1646 80.788 42.8246 79.9501C43.4872 79.1148 43.3454 77.898 42.5075 77.238C33.5176 70.1223 28.3587 59.4721 28.3587 48.0175C28.3587 27.4827 45.065 10.7765 65.5998 10.7765C86.1345 10.7765 102.841 27.4827 102.841 48.0175C102.841 68.5523 86.1345 85.2585 65.5998 85.2585C60.2141 85.2585 55.0217 84.1344 50.162 81.9198C49.1926 81.4764 48.0453 81.9044 47.6019 82.8763C47.161 83.8483 47.589 84.993 48.5584 85.4364C53.9209 87.883 59.6546 89.1231 65.5972 89.1231C88.2641 89.1205 106.703 70.6818 106.703 48.0175Z" fill="#1B8354"/>
<path d="M87.5096 59.5417C92.1347 54.7851 94.3571 50.0542 94.4473 49.8557C94.6871 49.3427 94.6871 48.7497 94.4499 48.2341C94.3726 48.0665 92.5215 44.091 88.6749 39.7675C87.9659 38.9709 86.7439 38.8987 85.9472 39.6077C85.1506 40.3166 85.0784 41.5387 85.79 42.3353C88.2598 45.1094 89.8273 47.752 90.5234 49.0359C88.6646 52.4416 80.5899 65.4147 65.6007 65.4147C58.3226 65.4147 51.8696 62.5659 46.422 56.9455C43.318 53.7461 41.4282 50.4951 40.6651 49.0436C42.4517 45.6766 50.3408 32.6648 65.6007 32.6648C70.6641 32.6648 75.413 34.1214 79.7159 36.996C80.6028 37.589 81.8016 37.3492 82.3946 36.4623C82.9876 35.5755 82.7504 34.3741 81.8609 33.7837C76.9135 30.4785 71.4427 28.8027 65.6007 28.8027C57.3378 28.8027 49.722 32.1723 43.5783 38.548C38.9841 43.3124 36.834 48.0536 36.7437 48.2521C36.5194 48.7523 36.5169 49.3246 36.7412 49.8273C36.8288 50.0259 38.9635 54.7696 43.55 59.5366C49.6833 65.9123 57.3094 69.2819 65.6033 69.2819C73.7398 69.2819 81.3144 65.9123 87.5096 59.5417Z" fill="#1B8354"/>
<path d="M54.1172 49.4459C54.1172 55.7777 59.2683 60.9288 65.6002 60.9288C71.932 60.9288 77.0831 55.7777 77.0831 49.4459C77.0831 43.114 71.932 37.9629 65.6002 37.9629C59.2683 37.9629 54.1172 43.114 54.1172 49.4459ZM73.2185 49.4459C73.2185 53.6456 69.7999 57.0642 65.6002 57.0642C61.4004 57.0642 57.9818 53.6456 57.9818 49.4459C57.9818 45.2435 61.4004 41.8275 65.6002 41.8275C69.7999 41.8275 73.2185 45.2435 73.2185 49.4459Z" fill="#1B8354"/>
<path d="M121.974 66.8302C119.089 66.8302 116.74 64.4841 116.74 61.5966C116.74 58.7117 119.089 56.363 121.974 56.363C124.859 56.363 127.207 58.7117 127.207 61.5966C127.205 64.4841 124.859 66.8302 121.974 66.8302ZM121.974 60.2302C121.218 60.2302 120.605 60.8438 120.605 61.5992C120.605 62.3546 121.218 62.9682 121.974 62.9682C122.729 62.9682 123.343 62.3546 123.343 61.5992C123.34 60.8438 122.727 60.2302 121.974 60.2302Z" fill="#1B8354"/>
<path d="M88.6968 115.376C84.7626 115.376 81.5605 112.177 81.5605 108.24C81.5605 104.303 84.76 101.104 88.6968 101.104C92.6336 101.104 95.833 104.303 95.833 108.24C95.833 112.177 92.631 115.376 88.6968 115.376ZM88.6968 104.968C86.8921 104.968 85.4252 106.438 85.4252 108.24C85.4252 110.042 86.8921 111.512 88.6968 111.512C90.5015 111.512 91.9684 110.045 91.9684 108.24C91.9684 106.438 90.5015 104.968 88.6968 104.968Z" fill="#1B8354"/>
<path d="M13.9186 30.2981C12.7868 30.2981 11.8097 29.5298 11.5416 28.4341L10.9177 25.8895C9.8993 21.7206 6.73336 19.5421 4.25578 18.4438C4.15523 18.4 4.05727 18.3459 3.96703 18.284C3.25547 17.8096 2.83008 17.0156 2.83008 16.1622C2.83008 15.3088 3.25289 14.5148 3.96703 14.0404C4.05984 13.9785 4.15523 13.9244 4.25578 13.8806C6.73336 12.7849 9.8993 10.6038 10.9202 6.44009L11.5441 3.89548C11.8123 2.7972 12.7894 2.03149 13.9212 2.03149C15.0504 2.03149 16.0301 2.79978 16.2982 3.89548L16.9195 6.44009C17.9405 10.6063 21.1064 12.7874 23.584 13.8831C23.6845 13.927 23.7825 13.9811 23.8727 14.043C24.5843 14.5174 25.0097 15.3114 25.0097 16.1648C25.0097 17.0181 24.5843 17.8122 23.8727 18.2866C23.7799 18.3484 23.6845 18.4026 23.584 18.4464C21.1064 19.5421 17.9405 21.7232 16.9195 25.8895L16.2982 28.4341C16.0275 29.5298 15.0504 30.2981 13.9186 30.2981ZM8.18484 16.1622C10.83 17.8199 12.7713 20.0371 13.9186 22.7081C15.0659 20.0345 17.0072 17.8199 19.6523 16.1622C17.0072 14.5045 15.0659 12.2873 13.9186 9.61634C12.7713 12.2873 10.83 14.5045 8.18484 16.1622Z" fill="#1B8354"/>
<path d="M8.78281 50.9747C7.76445 50.9747 6.88273 50.2837 6.64039 49.2937L6.30781 47.9402C5.94172 46.4475 4.92078 45.3183 3.27336 44.5887C3.17281 44.5423 3.07484 44.4907 2.98461 44.4288C2.35297 44.0086 1.97656 43.3048 1.97656 42.5468C1.97656 41.7888 2.35297 41.085 2.98461 40.6648C3.07742 40.6029 3.17281 40.5487 3.27336 40.5049C4.92078 39.7753 5.9443 38.6487 6.30781 37.1534L6.64039 35.7998C6.88273 34.8098 7.76445 34.1189 8.78281 34.1189C9.80117 34.1189 10.6829 34.8098 10.9252 35.7998L11.2578 37.1534C11.6239 38.6487 12.6448 39.7753 14.2948 40.5049C14.3954 40.5487 14.4934 40.6029 14.5836 40.6648C15.2152 41.085 15.5916 41.7888 15.5916 42.5468C15.5916 43.3048 15.2152 44.0086 14.5836 44.4288C14.4908 44.4907 14.3954 44.5423 14.2948 44.5887C12.6474 45.3183 11.6239 46.4449 11.2578 47.9402L10.9252 49.2937C10.6829 50.2837 9.80117 50.9747 8.78281 50.9747ZM7.26945 42.5468C7.85469 43.0341 8.36 43.5832 8.78281 44.1839C9.20563 43.5832 9.71094 43.0366 10.2936 42.5468C9.70836 42.0595 9.20305 41.513 8.78023 40.9097C8.36 41.513 7.85469 42.0595 7.26945 42.5468Z" fill="#1B8354"/>
<path d="M121.974 42.1833C120.953 42.1833 120.072 41.4924 119.832 40.4998L119.499 39.1463C119.133 37.651 118.112 36.5243 116.465 35.7947C116.364 35.7509 116.266 35.6967 116.176 35.6349C115.544 35.2146 115.168 34.5108 115.168 33.7528C115.168 32.9949 115.544 32.291 116.176 31.8708C116.269 31.8089 116.364 31.7574 116.465 31.711C118.112 30.9814 119.136 29.8547 119.499 28.3594L119.832 27.0059C120.074 26.0159 120.956 25.325 121.974 25.325C122.993 25.325 123.874 26.0159 124.117 27.0059L124.449 28.3594C124.815 29.8521 125.836 30.9814 127.486 31.711C127.587 31.7574 127.685 31.8089 127.775 31.8708C128.407 32.291 128.783 32.9949 128.783 33.7528C128.783 34.5108 128.407 35.2146 127.775 35.6349C127.682 35.6967 127.587 35.7509 127.486 35.7947C125.836 36.5243 124.815 37.651 124.449 39.1463L124.117 40.4998C123.874 41.4924 122.993 42.1833 121.974 42.1833ZM120.458 33.7554C121.044 34.2427 121.549 34.7892 121.972 35.39C122.394 34.7892 122.9 34.2427 123.485 33.7554C122.9 33.2682 122.394 32.719 121.972 32.1183C121.549 32.719 121.044 33.2682 120.458 33.7554ZM120.363 27.9263C120.363 27.9263 120.363 27.9289 120.363 27.9314V27.9263Z" fill="#1B8354"/>
</svg>
