<svg width="28" height="28" viewBox="0 0 28 28" fill="none" xmlns="http://www.w3.org/2000/svg">
<path fill-rule="evenodd" clip-rule="evenodd" d="M13.9998 3.79175C11.2614 3.79175 9.0415 6.01167 9.0415 8.75008C9.0415 11.4885 11.2614 13.7084 13.9998 13.7084C16.7382 13.7084 18.9582 11.4885 18.9582 8.75008C18.9582 6.01167 16.7382 3.79175 13.9998 3.79175ZM10.7915 8.75008C10.7915 6.97817 12.2279 5.54175 13.9998 5.54175C15.7718 5.54175 17.2082 6.97817 17.2082 8.75008C17.2082 10.522 15.7718 11.9584 13.9998 11.9584C12.2279 11.9584 10.7915 10.522 10.7915 8.75008Z" fill="#067647"/>
<path d="M6.41655 6.12508C4.32247 6.12508 2.62489 7.82267 2.62489 9.91675C2.62489 12.0108 4.32247 13.7084 6.41655 13.7084C6.8998 13.7084 7.29155 13.3167 7.29155 12.8334C7.29155 12.3502 6.8998 11.9584 6.41655 11.9584C5.28897 11.9584 4.37489 11.0443 4.37489 9.91675C4.37489 8.78917 5.28897 7.87508 6.41655 7.87508C6.8998 7.87508 7.29155 7.48333 7.29155 7.00008C7.29155 6.51683 6.8998 6.12508 6.41655 6.12508Z" fill="#067647"/>
<path d="M6.70466 15.0879C6.66112 14.6066 6.23567 14.2518 5.75438 14.2953C4.65943 14.3944 3.59479 14.8156 2.65645 15.5382C2.60239 15.5798 2.53117 15.6316 2.44748 15.6925C2.05001 15.9817 1.37137 16.4754 0.914019 17.0543C0.621789 17.4242 0.34851 17.9083 0.299308 18.4905C0.24778 19.1001 0.452152 19.6923 0.890302 20.2322C1.56096 21.0585 2.48123 21.8751 3.76351 21.8751C4.24675 21.8751 4.63851 21.4833 4.63851 21.0001C4.63851 20.5168 4.24675 20.1251 3.76351 20.1251C3.29741 20.1251 2.82704 19.8414 2.24908 19.1293C2.04821 18.8819 2.03562 18.7263 2.04309 18.6379C2.05289 18.5219 2.11459 18.3577 2.28723 18.1391C2.57801 17.771 2.98563 17.4714 3.38183 17.1802C3.498 17.0948 3.61319 17.0102 3.72416 16.9247C4.41292 16.3943 5.16503 16.1058 5.91206 16.0382C6.39334 15.9946 6.7482 15.5692 6.70466 15.0879Z" fill="#067647"/>
<path d="M20.9998 6.12508C20.5166 6.12508 20.1248 6.51683 20.1248 7.00008C20.1248 7.48333 20.5166 7.87508 20.9998 7.87508C22.1274 7.87508 23.0415 8.78917 23.0415 9.91675C23.0415 11.0443 22.1274 11.9584 20.9998 11.9584C20.5166 11.9584 20.1248 12.3502 20.1248 12.8334C20.1248 13.3167 20.5166 13.7084 20.9998 13.7084C23.0939 13.7084 24.7915 12.0108 24.7915 9.91675C24.7915 7.82267 23.0939 6.12508 20.9998 6.12508Z" fill="#067647"/>
<path d="M22.2453 14.2953C21.7641 14.2518 21.3386 14.6066 21.2951 15.0879C21.2515 15.5692 21.6064 15.9946 22.0877 16.0382C22.8347 16.1058 23.5868 16.3943 24.2756 16.9247C24.3865 17.0102 24.5017 17.0948 24.6178 17.1802C25.014 17.4714 25.4217 17.771 25.7125 18.1391C25.8851 18.3577 25.9468 18.5219 25.9566 18.6379C25.9641 18.7263 25.9515 18.8819 25.7506 19.1293C25.1727 19.8414 24.7023 20.1251 24.2362 20.1251C23.753 20.1251 23.3612 20.5168 23.3612 21.0001C23.3612 21.4833 23.753 21.8751 24.2362 21.8751C25.5185 21.8751 26.4388 21.0585 27.1094 20.2322C27.5476 19.6923 27.7519 19.1001 27.7004 18.4905C27.6512 17.9083 27.3779 17.4242 27.0857 17.0543C26.6284 16.4754 25.9498 15.9817 25.5524 15.6926C25.4687 15.6317 25.3973 15.5798 25.3433 15.5382C24.4049 14.8156 23.3403 14.3944 22.2453 14.2953Z" fill="#067647"/>
<path fill-rule="evenodd" clip-rule="evenodd" d="M8.97093 16.8856C12.0483 14.9827 15.9517 14.9827 19.0291 16.8856C19.1198 16.9417 19.2347 17.0089 19.3666 17.0861C19.9643 17.4358 20.9131 17.9911 21.5605 18.6491C21.9671 19.0624 22.3727 19.6259 22.4466 20.3283C22.5257 21.0798 22.2067 21.7754 21.5983 22.3774C20.593 23.372 19.3478 24.2084 17.7151 24.2084H10.2849C8.65221 24.2084 7.40699 23.372 6.40176 22.3774C5.79327 21.7754 5.4743 21.0798 5.5534 20.3283C5.62734 19.6259 6.03287 19.0624 6.43948 18.6491C7.08687 17.9911 8.03559 17.4359 8.63324 17.0862C8.76529 17.0089 8.8802 16.9417 8.97093 16.8856ZM18.1087 18.374C15.5953 16.8199 12.4047 16.8199 9.89129 18.374C9.74042 18.4673 9.57865 18.5627 9.41173 18.6611C8.81455 19.0132 8.15157 19.4042 7.68698 19.8764C7.40116 20.1669 7.30773 20.379 7.29379 20.5115C7.285 20.5949 7.28922 20.7937 7.63256 21.1334C8.48718 21.9789 9.31336 22.4584 10.2849 22.4584H17.7151C18.6867 22.4584 19.5128 21.9789 20.3675 21.1334C20.7108 20.7937 20.715 20.5949 20.7062 20.5115C20.6923 20.379 20.5989 20.1669 20.313 19.8764C19.8484 19.4042 19.1855 19.0133 18.5883 18.6611C18.4214 18.5627 18.2596 18.4673 18.1087 18.374Z" fill="#067647"/>
</svg>
