<svg width="1252" height="33" viewBox="0 0 1252 33" fill="none" xmlns="http://www.w3.org/2000/svg">
<path d="M627.538 28.5L627.538 12C627.538 10.375 627.863 8.82422 628.512 7.34766C629.161 5.8711 630.038 4.59375 631.144 3.51563C632.25 2.4375 633.56 1.58203 635.075 0.94922C636.589 0.316407 638.179 6.83691e-07 639.846 5.37986e-07L641.385 4.0349e-07C641.801 3.67064e-07 642.162 0.148438 642.466 0.445313C642.771 0.742188 642.923 1.09375 642.923 1.5L642.923 4.5C642.923 4.90625 642.771 5.25781 642.466 5.55469C642.162 5.85156 641.801 6 641.385 6L639.846 6C638.147 6 636.697 6.58594 635.495 7.75781C634.293 8.92969 633.692 10.3438 633.692 12L633.692 12.75C633.692 13.375 633.917 13.9063 634.365 14.3438C634.814 14.7813 635.359 15 636 15L641.385 15C642.667 15 643.756 15.4375 644.654 16.3125C645.551 17.1875 646 18.25 646 19.5L646 28.5C646 29.75 645.551 30.8125 644.654 31.6875C643.756 32.5625 642.667 33 641.385 33L632.154 33C630.872 33 629.782 32.5625 628.885 31.6875C627.987 30.8125 627.538 29.75 627.538 28.5ZM606 28.5L606 12C606 10.375 606.325 8.82422 606.974 7.34766C607.623 5.8711 608.5 4.59375 609.606 3.51563C610.712 2.4375 612.022 1.58203 613.536 0.949222C615.05 0.316409 616.641 2.56664e-06 618.308 2.42094e-06L619.846 2.28644e-06C620.263 2.25002e-06 620.623 0.14844 620.928 0.445315C621.232 0.74219 621.385 1.09375 621.385 1.5L621.385 4.5C621.385 4.90625 621.232 5.25781 620.928 5.55469C620.623 5.85156 620.263 6 619.846 6L618.308 6C616.609 6 615.159 6.58594 613.957 7.75782C612.755 8.92969 612.154 10.3438 612.154 12L612.154 12.75C612.154 13.375 612.378 13.9063 612.827 14.3438C613.276 14.7813 613.821 15 614.462 15L619.846 15C621.128 15 622.218 15.4375 623.115 16.3125C624.013 17.1875 624.462 18.25 624.462 19.5L624.462 28.5C624.462 29.75 624.013 30.8125 623.115 31.6875C622.218 32.5625 621.128 33 619.846 33L610.615 33C609.333 33 608.244 32.5625 607.346 31.6875C606.449 30.8125 606 29.75 606 28.5Z" fill="#87D8AD"/>
<line x1="571" y1="17.5" x2="4.37113e-08" y2="17.5" stroke="#87D8AD"/>
<line x1="1252" y1="17.5" x2="681" y2="17.5" stroke="#87D8AD"/>
</svg>
