<svg width="1252" height="33" viewBox="0 0 1252 33" fill="none" xmlns="http://www.w3.org/2000/svg">
<path d="M624.462 4.5V21C624.462 22.625 624.137 24.1758 623.488 25.6523C622.839 27.1289 621.962 28.4062 620.856 29.4844C619.75 30.5625 618.44 31.418 616.925 32.0508C615.411 32.6836 613.821 33 612.154 33H610.615C610.199 33 609.838 32.8516 609.534 32.5547C609.229 32.2578 609.077 31.9062 609.077 31.5V28.5C609.077 28.0938 609.229 27.7422 609.534 27.4453C609.838 27.1484 610.199 27 610.615 27H612.154C613.853 27 615.303 26.4141 616.505 25.2422C617.707 24.0703 618.308 22.6562 618.308 21V20.25C618.308 19.625 618.083 19.0938 617.635 18.6562C617.186 18.2188 616.641 18 616 18H610.615C609.333 18 608.244 17.5625 607.346 16.6875C606.449 15.8125 606 14.75 606 13.5V4.5C606 3.25 606.449 2.1875 607.346 1.3125C608.244 0.4375 609.333 0 610.615 0H619.846C621.128 0 622.218 0.4375 623.115 1.3125C624.013 2.1875 624.462 3.25 624.462 4.5ZM646 4.5V21C646 22.625 645.675 24.1758 645.026 25.6523C644.377 27.1289 643.5 28.4062 642.394 29.4844C641.288 30.5625 639.978 31.418 638.464 32.0508C636.95 32.6836 635.359 33 633.692 33H632.154C631.737 33 631.377 32.8516 631.072 32.5547C630.768 32.2578 630.615 31.9062 630.615 31.5V28.5C630.615 28.0938 630.768 27.7422 631.072 27.4453C631.377 27.1484 631.737 27 632.154 27H633.692C635.391 27 636.841 26.4141 638.043 25.2422C639.245 24.0703 639.846 22.6562 639.846 21V20.25C639.846 19.625 639.622 19.0938 639.173 18.6562C638.724 18.2188 638.179 18 637.538 18H632.154C630.872 18 629.782 17.5625 628.885 16.6875C627.987 15.8125 627.538 14.75 627.538 13.5V4.5C627.538 3.25 627.987 2.1875 628.885 1.3125C629.782 0.4375 630.872 0 632.154 0H641.385C642.667 0 643.756 0.4375 644.654 1.3125C645.551 2.1875 646 3.25 646 4.5Z" fill="#87D8AD"/>
<line x1="571" y1="16.5" x2="4.37113e-08" y2="16.5" stroke="#87D8AD"/>
<line x1="1252" y1="16.5" x2="681" y2="16.5" stroke="#87D8AD"/>
</svg>
