<svg width="135" height="132" viewBox="0 0 135 132" fill="none" xmlns="http://www.w3.org/2000/svg">
<path fill-rule="evenodd" clip-rule="evenodd" d="M133.894 31.9804L122.259 2.56359C121.433 0.482799 119.08 -0.534012 116.999 0.28625L102.806 5.89968C100.725 6.72518 99.7053 9.0759 100.526 11.1593L101.089 12.5823C95.2004 15.4834 90.8947 16.2827 88.6252 14.8728C88.5938 14.8544 88.5597 14.8335 88.5283 14.8177C83.017 11.9429 76.5309 11.5812 70.7341 13.8245C65.6814 11.3742 59.7876 11.1279 53.2019 13.1065C50.6704 13.911 47.9239 13.7171 45.5313 12.5614C44.3677 12.0215 43.0941 11.4319 41.713 10.7924C42.2895 8.78501 41.2491 6.67015 39.3099 5.89968L25.1164 0.28363C23.0356 -0.536633 20.6823 0.482799 19.8568 2.56097L8.22113 31.9777C7.40087 34.0585 8.4203 36.4119 10.4985 37.2374L24.6945 42.8508C25.1662 43.0395 25.672 43.1365 26.1804 43.1365C27.6427 43.1338 28.9898 42.345 29.7104 41.074L30.9919 41.5955C31.3221 41.7161 31.5475 42.0279 31.5554 42.3817C31.5842 42.8639 31.6576 43.4876 31.7414 44.2083C31.8384 45.0548 31.959 46.0794 32.0376 47.1408L28.7932 52.7595C26.8408 56.1323 27.9939 60.4485 31.3667 62.4008C33.2169 63.4727 35.4549 63.6456 37.4466 62.8726C37.4859 63.1189 37.5383 63.3626 37.6012 63.6037C38.4188 66.6856 41.2046 68.8319 44.3939 68.8372C45.0176 68.8372 45.6387 68.7533 46.2415 68.5934C46.4852 68.5279 46.7211 68.4493 46.9517 68.3628C47.5413 72.2021 51.1316 74.8358 54.9682 74.2462C55.2303 74.2069 55.4924 74.1492 55.7492 74.0811C55.9903 74.0182 56.2261 73.9422 56.4568 73.8504C56.9888 77.2783 59.9396 79.8098 63.4067 79.815C64.0304 79.815 64.6515 79.7312 65.2543 79.5713C67.0651 79.0917 68.6113 77.9098 69.5443 76.2877L69.6832 76.0439L71.1665 76.9009C74.5392 78.8506 78.8581 77.6976 80.8078 74.3248C81.7513 72.6921 82.0028 70.7476 81.5049 68.9289C85.3835 68.8031 88.426 65.5561 88.3029 61.6775C88.2898 61.2923 88.2452 60.9071 88.1692 60.5271C88.3238 60.5376 88.4758 60.5428 88.6305 60.5428C92.5247 60.5533 95.6905 57.4033 95.701 53.509C95.7036 52.8538 95.6119 52.2013 95.4337 51.5723C95.9316 51.5461 96.4269 51.4701 96.9091 51.3417C98.7199 50.8621 100.264 49.6802 101.199 48.058C101.529 47.4841 101.778 46.8656 101.938 46.221L112.636 41.433C113.713 42.9504 115.691 43.5348 117.421 42.8482L131.617 37.2348C133.695 36.4119 134.712 34.0612 133.894 31.9804ZM27.0295 39.4204C26.8435 39.8842 26.3167 40.1122 25.8502 39.9288V39.9314L11.6568 34.318C11.1903 34.1319 10.9623 33.6052 11.1458 33.1387L22.7814 3.7193C22.9203 3.37337 23.2558 3.14538 23.6279 3.14538C23.7432 3.14538 23.8559 3.16896 23.9607 3.21089L38.1542 8.82432C38.6206 9.00776 38.8486 9.53714 38.6652 10.0036L27.0295 39.4204ZM38.3009 58.2524C37.2186 60.1235 34.8259 60.7629 32.9522 59.6858C31.081 58.6035 30.439 56.2082 31.5187 54.3371L35.523 47.4002C36.6054 45.5265 38.998 44.8844 40.8718 45.9668C42.7455 47.0491 43.3876 49.4417 42.3053 51.3155L38.3009 58.2524ZM47.8086 63.7374C47.2897 64.6363 46.4328 65.2914 45.4291 65.5561C44.4228 65.8286 43.3483 65.6871 42.4468 65.1656C40.5783 64.0833 39.9414 61.6906 41.0238 59.8221L45.0307 52.8826L47.5649 48.4904C48.6525 46.6796 50.977 46.0585 52.8246 47.0805C54.7167 48.1288 55.4006 50.5136 54.3498 52.4083L47.8086 63.7374ZM57.3137 69.225C56.7948 70.1239 55.9379 70.779 54.9342 71.0437C53.9331 71.3189 52.8639 71.18 51.965 70.6585C50.0938 69.5762 49.4518 67.1835 50.5315 65.3098L55.5422 56.6302C56.6271 54.7774 58.9988 54.1432 60.8621 55.2072C62.7411 56.279 63.3962 58.669 62.3244 60.548L60.9852 62.8673L57.3137 69.225ZM70.4903 68.3576L66.8214 74.7153C66.3025 75.6141 65.4456 76.2667 64.4419 76.534C63.4356 76.8065 62.3611 76.665 61.4596 76.1409C59.5911 75.0586 58.9542 72.6633 60.0366 70.7948L63.7081 64.4371C64.227 63.5382 65.0839 62.883 66.0876 62.621C67.094 62.3484 68.1684 62.4899 69.0699 63.0141C70.9385 64.099 71.5727 66.4917 70.4903 68.3576ZM78.0876 72.7445C77.0053 74.6157 74.6126 75.2577 72.7388 74.178L71.2556 73.3211L73.2158 69.93C73.9077 68.7349 74.23 67.3591 74.1435 65.9806L76.793 67.4823C78.5646 68.6065 79.1358 70.9258 78.0876 72.7445ZM98.4526 46.4961C97.3703 48.3515 94.9934 48.9884 93.1275 47.9218H93.1249L92.1736 47.3714L83.6198 42.4315C82.8703 41.9912 81.9085 42.2428 81.4682 42.9923C81.028 43.7418 81.2795 44.7036 82.029 45.1439C82.0343 45.1465 82.0421 45.1517 82.0474 45.1544L90.6012 50.0943C92.4723 51.1714 93.117 53.5614 92.0399 55.4325C91.521 56.3367 90.6615 56.9944 89.6525 57.2617C88.6514 57.5369 87.5822 57.398 86.6833 56.8765L77.1782 51.3889C76.4392 50.9329 75.4696 51.1635 75.0162 51.9051C74.5602 52.6442 74.7908 53.6138 75.5325 54.0672C75.556 54.0829 75.5823 54.096 75.6085 54.1117L83.2083 58.4987C85.09 59.5679 85.7477 61.9606 84.6759 63.8422C83.6067 65.7238 81.214 66.3816 79.3324 65.3098C79.3141 65.2993 79.2957 65.2888 79.28 65.2783L78.4754 64.8197C78.3942 64.7699 78.313 64.7175 78.2291 64.6703L78.2265 64.6782L71.4442 60.8337C69.8902 59.6125 67.8933 59.1067 65.9435 59.4395C66.4179 55.5741 63.6688 52.0598 59.8033 51.5854C59.1796 51.5094 58.548 51.5173 57.9243 51.6064C58.5638 47.7593 55.9615 44.1218 52.1144 43.4824C49.4885 43.0474 46.8416 44.1244 45.2666 46.2681C43.5553 42.7591 39.3204 41.302 35.8113 43.0159C35.4732 43.181 35.1457 43.3749 34.839 43.5924C34.7709 43.0238 34.7185 42.5337 34.6975 42.1878C34.6084 40.6311 33.6283 39.2658 32.1817 38.684L30.9081 38.1651L40.5756 13.7276C41.886 14.3329 43.0993 14.8937 44.2131 15.41C47.3055 16.8854 50.8381 17.137 54.1087 16.115C58.9018 14.6762 63.2338 14.5531 67.0337 15.7323C61.8317 20.7771 55.9667 25.0959 49.6038 28.5657C48.8438 28.9823 48.5634 29.9336 48.9774 30.6962C48.9932 30.7251 49.0115 30.7565 49.0299 30.7827C51.8235 35.2116 55.3273 37.4549 59.3578 37.4549C61.3076 37.4549 63.3805 36.9308 65.5557 35.8746C69.5731 34.5381 73.7504 33.2776 77.9749 32.1297C79.4818 31.6868 81.104 31.8991 82.4483 32.7115L97.0454 41.1369C98.9113 42.2271 99.5428 44.6276 98.4526 46.4961ZM101.917 42.7905C101.912 42.7617 101.904 42.7329 101.899 42.7067C101.422 40.8958 100.237 39.3522 98.6151 38.4167L84.0181 29.9887C81.9504 28.7543 79.4634 28.432 77.1468 29.0976C72.8332 30.2717 68.5642 31.5584 64.4576 32.9264C64.3895 32.9474 64.324 32.9762 64.2611 33.0077C59.4862 35.361 55.7571 34.5591 52.6306 30.4709C58.6136 27.0509 64.1457 22.8972 69.0988 18.1067C74.5785 14.8439 81.3555 14.6422 87.0188 17.5773C90.3103 19.5795 95.3 18.906 102.247 15.5175L111.365 38.5634L101.917 42.7905ZM130.459 34.3127L116.265 39.9262C115.799 40.107 115.275 39.879 115.086 39.4178L103.45 10.001C103.364 9.77561 103.369 9.52665 103.463 9.30652C103.558 9.08638 103.738 8.9108 103.961 8.8217L118.152 3.20565C118.257 3.16372 118.372 3.14014 118.485 3.14014C118.857 3.14014 119.192 3.36813 119.331 3.71406L130.967 33.1308C131.153 33.5999 130.925 34.1293 130.459 34.3127Z" fill="#1B8354"/>
<path fill-rule="evenodd" clip-rule="evenodd" d="M124.667 67.3093H90.1948C89.3274 67.3093 88.6224 68.0143 88.6224 68.8817C88.6224 82.9677 77.2043 94.3859 63.1183 94.3859C49.0323 94.3859 37.6142 82.9677 37.6142 68.8817C37.6142 68.0143 36.9092 67.3093 36.0418 67.3093H1.57239C0.704954 67.3119 0.00262065 68.0143 0 68.8817V77.142C0 79.3669 1.66411 81.2381 3.8707 81.5028L15.4382 82.8865C16.4393 86.2907 17.8021 89.577 19.5055 92.6903L12.3013 101.849C10.9255 103.597 11.0749 106.1 12.6472 107.673L24.3275 119.358C25.9025 120.928 28.4026 121.077 30.1506 119.704L39.315 112.497C42.4257 114.198 45.712 115.561 49.1136 116.559L50.4973 128.129C50.7619 130.339 52.6357 132 54.8606 132H71.3786C73.6035 132 75.4746 130.339 75.742 128.129L77.1257 116.562C80.5299 115.563 83.8162 114.203 86.9295 112.5L96.0887 119.704C97.8366 121.077 100.337 120.93 101.912 119.358L113.595 107.675C115.167 106.1 115.316 103.603 113.943 101.852L106.736 92.6903C108.437 89.577 109.8 86.2933 110.801 82.8891L122.371 81.5054C124.578 81.2407 126.242 79.3695 126.242 77.1446V68.8843C126.239 68.0143 125.534 67.3093 124.667 67.3093ZM123.094 77.142C123.102 77.7762 122.625 78.3134 121.994 78.3816L109.383 79.8884C108.746 79.9644 108.217 80.4204 108.052 81.0415C107.009 84.8912 105.476 88.5916 103.484 92.0482C103.164 92.6038 103.214 93.3009 103.613 93.8041L111.467 103.794C111.865 104.289 111.823 105.005 111.37 105.45L99.6868 117.13C99.2439 117.584 98.5285 117.626 98.0332 117.23L88.0459 109.376C87.5427 108.978 86.8456 108.928 86.2901 109.25C82.8308 111.242 79.1305 112.775 75.2781 113.815C74.6596 113.983 74.2036 114.51 74.1276 115.147L72.6181 127.755C72.55 128.386 72.0154 128.863 71.3786 128.855H54.8606C54.2264 128.863 53.6918 128.389 53.6211 127.757L52.1116 115.144C52.0356 114.507 51.5796 113.98 50.9611 113.813C47.1114 112.77 43.411 111.237 39.9518 109.248C39.7133 109.109 39.4434 109.038 39.1682 109.038C38.8144 109.038 38.4737 109.156 38.1959 109.373L28.206 117.23C27.7107 117.626 26.9953 117.584 26.5524 117.13L14.8696 105.45C14.4162 105.005 14.3743 104.289 14.7726 103.794L22.6241 93.8093C23.0224 93.3035 23.0722 92.6091 22.7525 92.0509C20.7608 88.5916 19.2251 84.8913 18.1847 81.0389C18.017 80.4204 17.4902 79.9644 16.8534 79.8884L4.24545 78.3816C3.61387 78.3134 3.13954 77.7762 3.14478 77.142V70.4515H34.5139C35.384 86.2514 48.8934 98.3535 64.6933 97.4835C79.2772 96.6815 90.9234 85.0354 91.7253 70.4515H123.094V77.142Z" fill="#074D31"/>
</svg>
