<svg width="29" height="28" viewBox="0 0 29 28" fill="none" xmlns="http://www.w3.org/2000/svg">
<path d="M15.8399 2.04102H13.4909C11.1958 2.041 9.38423 2.04098 7.9678 2.23142C6.5126 2.42707 5.34419 2.83803 4.42412 3.7581C3.50404 4.67818 3.09308 5.84659 2.89744 7.30178C2.707 8.71822 2.70701 10.5298 2.70703 12.8248V15.1739C2.70701 17.4689 2.707 19.2805 2.89744 20.6969C3.09308 22.1521 3.50404 23.3205 4.42412 24.2406C5.34419 25.1607 6.5126 25.5716 7.9678 25.7673C9.38423 25.9577 11.1959 25.9577 13.4909 25.9577H15.8435C18.1753 25.9577 20.009 25.9577 21.4371 25.7571C21.9156 25.6899 22.2491 25.2474 22.1819 24.7689C22.1146 24.2903 21.6722 23.9569 21.1936 24.0241C19.9014 24.2057 18.1909 24.2077 15.7737 24.2077H13.557C11.1812 24.2077 9.48729 24.2058 8.20098 24.0329C6.93984 23.8633 6.20229 23.5439 5.66156 23.0032C5.12083 22.4624 4.80139 21.7249 4.63183 20.4637C4.45889 19.1774 4.45703 17.4836 4.45703 15.1077V12.891C4.45703 10.5152 4.45889 8.82128 4.63183 7.53497C4.80139 6.27383 5.12083 5.53627 5.66156 4.99554C6.20229 4.45481 6.93984 4.13537 8.20098 3.96581C9.48729 3.79287 11.1812 3.79102 13.557 3.79102H15.7737C18.1496 3.79102 19.8434 3.79287 21.1298 3.96581C22.3909 4.13537 23.1284 4.45481 23.6692 4.99554C24.2099 5.53627 24.5293 6.27383 24.6989 7.53497C24.8718 8.82127 24.8737 10.5152 24.8737 12.891V15.1077C24.8737 16.5226 24.8736 17.7024 24.835 18.7084C24.83 18.8397 24.8256 18.9536 24.8206 19.0549C24.7269 18.9903 24.6217 18.916 24.4992 18.8293L22.9291 17.7184C22.5346 17.4393 21.9885 17.5328 21.7094 17.9273C21.4303 18.3218 21.5238 18.8679 21.9183 19.147L23.5351 20.2909C23.8422 20.5084 24.1545 20.7295 24.4328 20.8654C24.7509 21.0207 25.2281 21.1656 25.7377 20.9142C26.2382 20.6672 26.4186 20.2151 26.4916 19.8649C26.5537 19.5666 26.5678 19.1933 26.5815 18.8325L26.5837 18.7755C26.6237 17.7323 26.6237 16.5201 26.6237 15.1218V12.8248C26.6237 10.5298 26.6237 8.71822 26.4333 7.30178C26.2376 5.84659 25.8267 4.67818 24.9066 3.7581C23.9865 2.83803 22.8181 2.42707 21.3629 2.23142C19.9465 2.04098 18.1349 2.041 15.8399 2.04102Z" fill="#009951"/>
<path fill-rule="evenodd" clip-rule="evenodd" d="M15.43 10.5102L15.3356 10.4601C14.433 9.9815 13.6914 9.58821 13.0805 9.34572C12.4595 9.09917 11.8172 8.94116 11.1632 9.11413C10.7122 9.23341 10.296 9.46128 9.95665 9.78084C9.4534 10.2547 9.27788 10.8922 9.19979 11.5363C9.12365 12.1642 9.12367 12.9724 9.1237 13.9426V14.0565C9.12367 15.0268 9.12365 15.8349 9.19979 16.4629C9.27788 17.1069 9.4534 17.7444 9.95665 18.2183C10.296 18.5379 10.7122 18.7658 11.1632 18.8851C11.8172 19.058 12.4595 18.9 13.0805 18.6535C13.6914 18.411 14.433 18.0177 15.3356 17.5391L15.43 17.489C16.3636 16.994 17.1298 16.5878 17.6832 16.2105C18.2369 15.833 18.7535 15.3721 18.9437 14.6976C19.0726 14.2405 19.0726 13.7586 18.9437 13.3015C18.7535 12.6271 18.2369 12.1662 17.6832 11.7887C17.1298 11.4114 16.3636 11.0052 15.43 10.5102ZM11.6107 10.806C11.7158 10.7781 11.9241 10.7695 12.4348 10.9722C12.9453 11.1749 13.6017 11.5215 14.5621 12.0308C15.5557 12.5576 16.2343 12.9189 16.6974 13.2346C17.1697 13.5566 17.2434 13.7197 17.2594 13.7765C17.3007 13.923 17.3007 14.0762 17.2594 14.2227C17.2434 14.2795 17.1697 14.4425 16.6974 14.7645C16.2343 15.0803 15.5557 15.4416 14.5621 15.9684C13.6017 16.4777 12.9453 16.8243 12.4348 17.0269C11.9241 17.2297 11.7158 17.221 11.6107 17.1932C11.434 17.1465 11.2782 17.0591 11.1564 16.9443C11.1018 16.8929 10.9984 16.7584 10.9371 16.2523C10.8752 15.7424 10.8737 15.0416 10.8737 13.9996C10.8737 12.9576 10.8752 12.2568 10.9371 11.7469C10.9984 11.2408 11.1018 11.1063 11.1564 11.0549C11.2782 10.9401 11.434 10.8527 11.6107 10.806Z" fill="#009951"/>
</svg>
