<svg width="20" height="20" viewBox="0 0 20 20" fill="none" xmlns="http://www.w3.org/2000/svg">
<path fill-rule="evenodd" clip-rule="evenodd" d="M10.0001 13.125C8.27419 13.125 6.87508 11.7259 6.87508 10C6.87508 8.27411 8.27419 6.875 10.0001 6.875C11.726 6.875 13.1251 8.27411 13.1251 10C13.1251 11.7259 11.726 13.125 10.0001 13.125ZM8.12508 10C8.12508 11.0355 8.96455 11.875 10.0001 11.875C11.0356 11.875 11.8751 11.0355 11.8751 10C11.8751 8.96447 11.0356 8.125 10.0001 8.125C8.96455 8.125 8.12508 8.96447 8.12508 10Z" fill="white"/>
<path fill-rule="evenodd" clip-rule="evenodd" d="M10.0001 3.54167C7.85795 3.54167 6.02171 4.48451 4.60034 5.59415C3.17769 6.7048 2.12613 8.01645 1.53792 8.84127L1.49357 8.90311C1.28261 9.19651 1.04175 9.5315 1.04175 10C1.04175 10.4685 1.28261 10.8035 1.49357 11.0969L1.53792 11.1587C2.12614 11.9836 3.17769 13.2952 4.60034 14.4058C6.02171 15.5155 7.85795 16.4583 10.0001 16.4583C12.1422 16.4583 13.9785 15.5155 15.3998 14.4058C16.8225 13.2952 17.874 11.9836 18.4622 11.1587L18.5066 11.0969C18.7176 10.8035 18.9584 10.4685 18.9584 10C18.9584 9.5315 18.7176 9.19651 18.5066 8.90311L18.4622 8.84127C17.874 8.01645 16.8225 6.7048 15.3998 5.59415C13.9785 4.48451 12.1422 3.54167 10.0001 3.54167ZM2.55564 9.56704C3.10581 8.79557 4.07706 7.58848 5.36955 6.57945C6.66331 5.56943 8.23453 4.79167 10.0001 4.79167C11.7656 4.79167 13.3369 5.56943 14.6306 6.57945C15.9231 7.58848 16.8944 8.79557 17.4445 9.56704C17.5806 9.75789 17.6454 9.85108 17.684 9.92527C17.7086 9.97243 17.7085 9.98535 17.7084 9.99801L17.7084 10L17.7084 10.002C17.7085 10.0147 17.7086 10.0276 17.684 10.0747C17.6454 10.1489 17.5806 10.2421 17.4445 10.433C16.8944 11.2044 15.9231 12.4115 14.6306 13.4205C13.3369 14.4306 11.7656 15.2083 10.0001 15.2083C8.23453 15.2083 6.66331 14.4306 5.36955 13.4205C4.07706 12.4115 3.10581 11.2044 2.55564 10.433C2.41954 10.2421 2.35476 10.1489 2.31615 10.0747C2.2916 10.0276 2.29167 10.0147 2.29174 10.002L2.29175 10L2.29174 9.99801C2.29167 9.98535 2.2916 9.97243 2.31615 9.92527C2.35476 9.85108 2.41954 9.75789 2.55564 9.56704Z" fill="white"/>
</svg>
