<svg width="154" height="143" viewBox="0 0 154 143" fill="none" xmlns="http://www.w3.org/2000/svg">
<path d="M136.093 94.4523C129.433 121.688 105.031 140.846 77.0007 140.846C48.7301 140.846 24.1851 121.365 17.7588 93.8259" stroke="#104531" stroke-width="3" stroke-miterlimit="22.9256" stroke-linecap="round" stroke-linejoin="round" stroke-dasharray="146.99 146.99"/>
<path d="M76.9976 54.8497C92.6136 54.8497 106.376 63.9226 114.475 77.7086C115.518 79.4852 115.518 81.9871 114.475 83.7632C106.376 97.5492 92.6136 106.623 76.9976 106.623C61.3821 106.623 47.6201 97.5492 39.5211 83.7632C38.4774 81.9871 38.4774 79.4852 39.5211 77.7086C47.6201 63.9226 61.3821 54.8497 76.9976 54.8497Z" stroke="#104531" stroke-width="3" stroke-miterlimit="22.9256" stroke-linecap="round" stroke-linejoin="round"/>
<path d="M76.9991 70.8547C82.4549 70.8547 86.8775 75.2792 86.8775 80.7363C86.8775 86.1938 82.4549 90.6178 76.9991 90.6178C71.5437 90.6178 67.1211 86.1938 67.1211 80.7363C67.1211 79.6453 67.2986 78.5951 67.6253 77.6128C68.3891 78.6214 69.5988 79.2731 70.9611 79.2731C73.271 79.2731 75.1441 77.4008 75.1441 75.0898C75.1441 73.627 74.3917 72.339 73.2542 71.5916C74.4094 71.1165 75.6741 70.8547 76.9991 70.8547Z" stroke="#104531" stroke-width="3" stroke-miterlimit="22.9256" stroke-linecap="round" stroke-linejoin="round"/>
<path d="M76.9972 60.176C88.3489 60.176 97.5505 69.3815 97.5505 80.7358C97.5505 92.091 88.3489 101.296 76.9972 101.296C65.6469 101.296 56.4453 92.091 56.4453 80.7358C56.4448 69.3815 65.6469 60.176 76.9972 60.176Z" stroke="#104531" stroke-width="3" stroke-miterlimit="22.9256" stroke-linecap="round" stroke-linejoin="round"/>
<path d="M25.6945 11.9634H63.0271M90.9768 11.9634H127.172M17.9642 57.6729C21.3704 42.0501 30.2917 30.6666 43.9815 19.92M110.498 19.9205C123.306 29.6259 132.211 42.0104 136.215 57.5064M70.9032 2H83.5775C85.0197 2 86.1997 3.18089 86.1997 4.62302V17.3003C86.1997 18.7429 85.0197 19.9233 83.5775 19.9233H70.9032C69.4615 19.9233 68.2815 18.7429 68.2815 17.3003V4.62302C68.2815 3.18089 69.4615 2 70.9032 2ZM4.6222 2H17.2955C18.7377 2 19.9177 3.18089 19.9177 4.62302V17.3003C19.9177 18.7429 18.7377 19.9233 17.2955 19.9233H4.6222C3.18004 19.9233 2 18.7429 2 17.3003V4.62302C2 3.18089 3.18004 2 4.6222 2ZM136.704 2H149.378C150.82 2 152 3.18089 152 4.62302V17.3003C152 18.7429 150.82 19.9233 149.378 19.9233H136.704C135.262 19.9233 134.082 18.7429 134.082 17.3003V4.62302C134.082 3.18089 135.262 2 136.704 2ZM131.403 62.5189H144.077C145.519 62.5189 146.699 63.6993 146.699 65.142V77.8193C146.699 79.2619 145.519 80.4418 144.077 80.4418H131.403C129.961 80.4418 128.781 79.2623 128.781 77.8193V65.142C128.781 63.6993 129.961 62.5189 131.403 62.5189ZM9.92303 62.5189H22.5963C24.0385 62.5189 25.2185 63.6993 25.2185 65.142V77.8193C25.2185 79.2619 24.0385 80.4418 22.5963 80.4418H9.92303C8.48087 80.4418 7.30084 79.2623 7.30084 77.8193V65.142C7.30084 63.6993 8.48087 62.5189 9.92303 62.5189Z" stroke="#1C8354" stroke-width="3" stroke-miterlimit="22.9256" stroke-linecap="round" stroke-linejoin="round"/>
</svg>
