<svg width="25" height="25" viewBox="0 0 25 25" fill="none" xmlns="http://www.w3.org/2000/svg">
<path d="M19.5137 0H4.69978C3.33719 0 2.22864 1.1085 2.22864 2.4711V8.50642C2.22864 9.86897 3.33719 10.9774 4.69978 10.9774H9.25464L11.3922 14.6799C11.7096 15.2296 12.5044 15.2288 12.8212 14.6799L14.9588 10.9774H19.5137C20.8762 10.9774 21.9848 9.86892 21.9848 8.50632V2.4711C21.9848 1.1085 20.8763 0 19.5137 0ZM20.3346 8.50642C20.3346 8.95907 19.9664 9.32732 19.5137 9.32732H14.4825C14.1877 9.32732 13.9153 9.48458 13.7679 9.73984L12.1067 12.6172L10.4455 9.73979C10.2981 9.48453 10.0257 9.32727 9.73094 9.32727H4.69978C4.24713 9.32727 3.87889 8.95907 3.87889 8.50637V2.4711C3.87889 2.01845 4.24708 1.6502 4.69978 1.6502H19.5137C19.9663 1.6502 20.3346 2.01845 20.3346 2.4711V8.50642H20.3346Z" fill="#067647"/>
<path d="M17.4708 3.22983H6.74734C6.29169 3.22983 5.92224 3.59923 5.92224 4.05493C5.92224 4.51063 6.29164 4.88003 6.74734 4.88003H17.4708C17.9264 4.88003 18.2959 4.51063 18.2959 4.05493C18.2959 3.59923 17.9265 3.22983 17.4708 3.22983Z" fill="#067647"/>
<path d="M17.4708 6.09726H6.74734C6.29169 6.09726 5.92224 6.46666 5.92224 6.92236C5.92224 7.37801 6.29164 7.74746 6.74734 7.74746H17.4708C17.9264 7.74746 18.2959 7.37806 18.2959 6.92236C18.2959 6.46666 17.9265 6.09726 17.4708 6.09726Z" fill="#067647"/>
<path d="M23.3914 16.706H20.1551V14.848C20.1551 14.6292 20.0682 14.4193 19.9135 14.2646L19.4297 13.7808C19.5564 13.2591 19.4164 12.6853 19.0098 12.2786L18.6956 11.9644C18.0756 11.3443 17.0666 11.3443 16.4464 11.9644C15.8249 12.5859 15.8248 13.592 16.4464 14.2135L16.7607 14.5279C17.1607 14.9279 17.7319 15.0766 18.2628 14.9476L18.5049 15.1897V16.706H0.825101C0.369451 16.706 0 17.0754 0 17.5311V21.2707C0 21.7263 0.369403 22.0958 0.825101 22.0958H2.50339L3.39004 24.2424C3.51752 24.5511 3.81866 24.7525 4.15263 24.7525H20.0639C20.3979 24.7525 20.699 24.5512 20.8265 24.2424L21.7131 22.0958H23.3914C23.8471 22.0958 24.2165 21.7264 24.2165 21.2707V17.5311C24.2165 17.0754 23.8471 16.706 23.3914 16.706ZM19.5119 23.1024H4.70453L4.28877 22.0958H19.9277L19.5119 23.1024ZM22.5664 20.4456H22.5663H21.1613C20.9876 20.4456 1.82569 20.4456 1.65025 20.4456V18.3562H22.5664V20.4456H22.5664Z" fill="#067647"/>
</svg>
