<svg width="24" height="24" viewBox="0 0 24 24" fill="none" xmlns="http://www.w3.org/2000/svg">
<path fill-rule="evenodd" clip-rule="evenodd" d="M7 6.25C6.71836 6.25 6.46045 6.40779 6.33223 6.65856C6.20401 6.90933 6.22709 7.21079 6.39199 7.43912L10.2116 12.7278L6.46967 16.4697C6.17678 16.7626 6.17678 17.2374 6.46967 17.5303C6.76257 17.8232 7.23744 17.8232 7.53033 17.5303L11.1012 13.9595L13.6142 17.4391C13.7552 17.6344 13.9814 17.75 14.2222 17.75H17C17.2816 17.75 17.5396 17.5922 17.6678 17.3414C17.796 17.0907 17.7729 16.7892 17.608 16.5609L13.7884 11.2722L17.5303 7.53033C17.8232 7.23744 17.8232 6.76256 17.5303 6.46967C17.2374 6.17678 16.7626 6.17678 16.4697 6.46967L12.8988 10.0405L10.3858 6.56088C10.2448 6.36565 10.0186 6.25 9.77778 6.25H7ZM15.5332 16.25H14.6057L8.46682 7.75H9.3943L15.5332 16.25Z" fill="#161616"/>
<path fill-rule="evenodd" clip-rule="evenodd" d="M12.0572 1.75H11.9428C9.75212 1.74999 8.03144 1.74998 6.68802 1.93059C5.31137 2.11568 4.21911 2.50272 3.36091 3.36091C2.50272 4.21911 2.11568 5.31137 1.93059 6.68802C1.74998 8.03144 1.74999 9.75212 1.75 11.9428V12.0572C1.74999 14.2479 1.74998 15.9686 1.93059 17.312C2.11568 18.6886 2.50272 19.7809 3.36091 20.6391C4.21911 21.4973 5.31137 21.8843 6.68802 22.0694C8.03144 22.25 9.7521 22.25 11.9428 22.25H12.0572C14.2479 22.25 15.9686 22.25 17.312 22.0694C18.6886 21.8843 19.7809 21.4973 20.6391 20.6391C21.4973 19.7809 21.8843 18.6886 22.0694 17.312C22.25 15.9686 22.25 14.2479 22.25 12.0572V11.9428C22.25 9.75214 22.25 8.03144 22.0694 6.68802C21.8843 5.31137 21.4973 4.21911 20.6391 3.36091C19.7809 2.50272 18.6886 2.11568 17.312 1.93059C15.9686 1.74998 14.2479 1.74999 12.0572 1.75ZM4.42157 4.42157C4.95462 3.88853 5.67757 3.57994 6.8879 3.41722C8.1198 3.25159 9.73963 3.25 12 3.25C14.2604 3.25 15.8802 3.25159 17.1121 3.41722C18.3224 3.57994 19.0454 3.88853 19.5784 4.42157C20.1115 4.95462 20.4201 5.67757 20.5828 6.8879C20.7484 8.1198 20.75 9.73963 20.75 12C20.75 14.2604 20.7484 15.8802 20.5828 17.1121C20.4201 18.3224 20.1115 19.0454 19.5784 19.5784C19.0454 20.1115 18.3224 20.4201 17.1121 20.5828C15.8802 20.7484 14.2604 20.75 12 20.75C9.73963 20.75 8.1198 20.7484 6.8879 20.5828C5.67757 20.4201 4.95462 20.1115 4.42157 19.5784C3.88853 19.0454 3.57994 18.3224 3.41722 17.1121C3.25159 15.8802 3.25 14.2604 3.25 12C3.25 9.73963 3.25159 8.1198 3.41722 6.8879C3.57994 5.67757 3.88853 4.95462 4.42157 4.42157Z" fill="#161616"/>
</svg>
